<svg width="41" height="41" viewBox="0 0 41 41" fill="none" xmlns="http://www.w3.org/2000/svg">
<g filter="url(#filter0_d_122_1581)">
<path d="M20.5 32C11.9396 32 5 25.0604 5 16.5C5 7.93959 11.9396 1 20.5 0.999999C29.0604 0.999997 36 7.93958 36 16.5C36 25.0604 29.0604 32 20.5 32Z" fill="#FFFEFE"/>
<path d="M18.7778 11.3333L23.9444 16.5L18.7778 21.6667M5 16.5C5 25.0604 11.9396 32 20.5 32C29.0604 32 36 25.0604 36 16.5C36 7.93958 29.0604 0.999997 20.5 0.999998C11.9396 1 5 7.93959 5 16.5Z" stroke="#E9C369" stroke-width="2" stroke-linecap="round" stroke-linejoin="round"/>
</g>
<defs>
<filter id="filter0_d_122_1581" x="0" y="0" width="41" height="41" filterUnits="userSpaceOnUse" color-interpolation-filters="sRGB">
<feFlood flood-opacity="0" result="BackgroundImageFix"/>
<feColorMatrix in="SourceAlpha" type="matrix" values="0 0 0 0 0 0 0 0 0 0 0 0 0 0 0 0 0 0 127 0" result="hardAlpha"/>
<feOffset dy="4"/>
<feGaussianBlur stdDeviation="2"/>
<feComposite in2="hardAlpha" operator="out"/>
<feColorMatrix type="matrix" values="0 0 0 0 0.770658 0 0 0 0 0.760787 0 0 0 0 0.760787 0 0 0 0.25 0"/>
<feBlend mode="normal" in2="BackgroundImageFix" result="effect1_dropShadow_122_1581"/>
<feBlend mode="normal" in="SourceGraphic" in2="effect1_dropShadow_122_1581" result="shape"/>
</filter>
</defs>
</svg>
