<svg width="1094" height="733" viewBox="0 0 1094 733" fill="none" xmlns="http://www.w3.org/2000/svg">
<g filter="url(#filter0_d_2005_485)">
<path d="M7.28925 10.5201C7.28925 10.5201 113.51 20.2099 206.807 103.715C300.103 187.219 1011.09 726.785 1011.09 726.785H7.34423L7.28925 10.5201Z" fill="url(#paint0_linear_2005_485)"/>
<path d="M1088 9C1088 9 977.258 17.4676 883.961 100.972C790.664 184.475 79.6814 724.041 79.6814 724.041L1087.82 728.434L1088 9H1088Z" fill="url(#paint1_linear_2005_485)"/>
<path d="M6 697.881L502.239 311.082C522.887 294.868 551.884 294.577 572.856 310.371L1087.4 697.883V730H6.44902C6.44902 730 7.02816 699.015 6 697.883V697.881Z" fill="url(#paint2_linear_2005_485)"/>
</g>
<defs>
<filter id="filter0_d_2005_485" x="0.33" y="0.495" width="1093.34" height="732.34" filterUnits="userSpaceOnUse" color-interpolation-filters="sRGB">
<feFlood flood-opacity="0" result="BackgroundImageFix"/>
<feColorMatrix in="SourceAlpha" type="matrix" values="0 0 0 0 0 0 0 0 0 0 0 0 0 0 0 0 0 0 127 0" result="hardAlpha"/>
<feOffset dy="-2.835"/>
<feGaussianBlur stdDeviation="2.835"/>
<feColorMatrix type="matrix" values="0 0 0 0 0 0 0 0 0 0 0 0 0 0 0 0 0 0 0.47 0"/>
<feBlend mode="normal" in2="BackgroundImageFix" result="effect1_dropShadow_2005_485"/>
<feBlend mode="normal" in="SourceGraphic" in2="effect1_dropShadow_2005_485" result="shape"/>
</filter>
<linearGradient id="paint0_linear_2005_485" x1="6" y1="369.501" x2="1088" y2="369.501" gradientUnits="userSpaceOnUse">
<stop offset="0.006" stop-color="#212121"/>
<stop offset="0.36" stop-color="#232323"/>
<stop offset="0.578" stop-color="#303031"/>
<stop offset="0.652" stop-color="#363638"/>
<stop offset="0.873" stop-color="#3A3A3C"/>
<stop offset="1" stop-color="#3A3A3C"/>
</linearGradient>
<linearGradient id="paint1_linear_2005_485" x1="453.42" y1="707.437" x2="1345.18" y2="130.058" gradientUnits="userSpaceOnUse">
<stop offset="0.006" stop-color="#212121"/>
<stop offset="0.36" stop-color="#232323"/>
<stop offset="0.578" stop-color="#303031"/>
<stop offset="0.652" stop-color="#363638"/>
<stop offset="0.873" stop-color="#3A3A3C"/>
<stop offset="1" stop-color="#3A3A3C"/>
</linearGradient>
<linearGradient id="paint2_linear_2005_485" x1="599.872" y1="766.232" x2="224.66" y2="394.405" gradientUnits="userSpaceOnUse">
<stop offset="0.063" stop-color="#212121"/>
<stop offset="0.36" stop-color="#232323"/>
<stop offset="0.578" stop-color="#303031"/>
<stop offset="0.652" stop-color="#363638"/>
<stop offset="0.873" stop-color="#3A3A3C"/>
<stop offset="1" stop-color="#3A3A3C"/>
</linearGradient>
</defs>
</svg>
