<svg width="199" height="40" viewBox="0 0 199 40" fill="none" xmlns="http://www.w3.org/2000/svg">
<path d="M54.1654 25.3862C54.9421 24.0127 56.0022 22.9383 57.3451 22.1629C58.6879 21.388 60.1782 21 61.8167 21C63.7422 21 65.4225 21.4638 66.8584 22.3904C68.2938 23.3176 69.3412 24.6322 70 26.3342H67.2385C66.7482 25.2725 66.0433 24.4552 65.1228 23.8819C64.2021 23.3091 63.1 23.0222 61.8167 23.0222C60.5835 23.0222 59.4771 23.309 58.4978 23.8819C57.5181 24.455 56.7497 25.2684 56.1922 26.3215C55.6348 27.375 55.3561 28.6095 55.3561 30.0251C55.3561 31.4242 55.6348 32.6504 56.1922 33.7035C56.7495 34.757 57.5179 35.5704 58.4978 36.1432C59.4771 36.7163 60.5835 37.0028 61.8167 37.0028C63.1001 37.0028 64.2021 36.7207 65.1228 36.1559C66.0433 35.5914 66.7482 34.7779 67.2385 33.7162H70C69.3412 35.4018 68.2938 36.7037 66.8584 37.6221C65.4225 38.5408 63.7422 39 61.8167 39C60.1782 39 58.6878 38.6168 57.3451 37.8498C56.0022 37.083 54.9423 36.0169 54.1654 34.6517C53.3882 33.2865 53 31.7444 53 30.0253C53 28.3062 53.3884 26.7601 54.1654 25.3862Z" fill="white"/>
<path d="M87.252 38.9998L83.0672 31.6397H80.2942V38.9998H78V21H83.6722C84.9996 21 86.1215 21.2324 87.0378 21.6973C87.9536 22.1622 88.6386 22.7909 89.0923 23.5825C89.5462 24.3746 89.773 25.2784 89.773 26.2942C89.773 27.5339 89.4241 28.6272 88.7269 29.574C88.0294 30.5211 86.9831 31.1492 85.5884 31.4592L90 39H87.2522L87.252 38.9998ZM80.2942 29.7545H83.6722C84.9158 29.7545 85.8486 29.4405 86.4705 28.8119C87.0921 28.1836 87.4032 27.3443 87.4032 26.294C87.4032 25.2267 87.0963 24.4003 86.483 23.8149C85.8693 23.2298 84.9326 22.9367 83.672 22.9367H80.294V29.7545H80.2942Z" fill="white"/>
<path d="M100.427 22.934V28.9426H107.2V30.8768H100.427V37.0658H108V39H98V21H108V22.9342H100.427V22.934Z" fill="white"/>
<path d="M115 39L121.669 21H124.331L131 39H128.54L122.987 23.4791L117.434 39H115Z" fill="white"/>
<path d="M149 21V22.911H144.17V39H141.856V22.911H137V21H149H149Z" fill="white"/>
<path d="M159 21V39H156V21H159Z" fill="white"/>
<path d="M182 21L175.331 39H172.669L166 21H168.46L174.013 36.5209L179.565 21H182H182Z" fill="white"/>
<path d="M191.427 22.934V28.9426H198.2V30.8768H191.427V37.0658H199V39H189V21H199V22.9342H191.427V22.934Z" fill="white"/>
<path d="M35.4464 21.0095C35.5144 21.129 37.3556 20.1522 37.4711 20.0865C38.8234 19.3166 40.0674 18.2865 40.8965 16.9615C42.3125 14.6995 42.8263 11.6398 42.3385 9.03709C41.7432 5.86013 39.7807 2.90094 36.9714 1.28293C35.6957 0.548219 33.9251 0 32.4258 0H0.102769C0.102769 1.22733 1.10043 2.22233 2.33658 2.22233C12.1941 2.22233 22.3044 2.22233 32.1206 2.22233C38.8699 2.22233 42.369 10.9068 38.6507 16.0855C37.6529 17.4752 36.1602 18.5767 34.4263 18.7961L26.7388 18.7973C26.6442 18.6118 26.553 18.4247 26.4502 18.2433C26.1997 17.8056 25.9185 17.3904 25.6232 16.987H29.4848C31.8423 16.987 34.1214 17.38 35.9386 15.5048C37.8481 13.5344 38.3437 10.4613 37.1094 8.00899C36.2022 6.20664 34.0623 4.59955 31.9648 4.59955C21.3442 4.59955 10.7237 4.58498 0.10327 4.58498C0.10327 5.86047 1.14459 6.89452 2.42924 6.89452H14.2396C12.752 8.56085 7.41119 14.955 7.41119 14.955V20.8025C10.0307 19.887 13.354 18.7382 16.0028 20.1439C17.8048 21.1002 18.9669 23.0388 19.0184 25.0594C19.0642 26.8599 18.1843 28.5301 16.6824 29.5368C14.0658 31.2908 11.1025 30.4507 8.82651 28.7336C7.86886 28.0111 6.55387 27.9775 5.55022 28.6356C5.91655 29.1744 6.80753 30.0084 6.99736 30.1903C8.06902 31.2071 9.41201 31.9547 10.8907 32.3452C12.3218 32.7292 13.8208 32.7627 15.2249 32.4464C16.4526 32.177 17.5854 31.6382 18.5078 30.8839C19.5116 30.0691 20.2646 29.0253 20.7394 27.7862C21.2404 26.479 21.3527 25.1213 21.1349 23.8327C20.7032 21.2788 18.9746 18.9972 16.4051 17.9203C15.0215 17.3411 13.4681 17.1189 11.9148 17.267C11.5485 17.3074 11.1755 17.4353 10.8092 17.5566C10.4022 17.6979 9.96133 17.8715 9.77817 17.7638V15.7316C10.0292 15.2197 10.4225 14.7551 10.8432 14.2567C11.0398 14.021 16.8731 7.18559 17.1321 6.89452C17.1321 6.89452 22.7677 6.89568 22.7605 6.90279C20.9461 8.70432 20.2522 10.225 17.3661 12.7659L17.3928 14.3488C17.3928 14.3488 19.1352 14.5683 20.1171 15.0521C21.5627 15.7645 22.7287 16.9602 23.7095 18.2335C25.722 20.8465 26.5753 24.209 25.8875 27.4427C25.3178 30.1433 23.8052 32.5473 21.6279 34.2174C18.2271 36.8261 13.6755 37.3965 9.62417 36.1146C7.80669 35.5394 6.12171 34.5944 4.66056 33.3796C3.9769 32.8112 3.39907 32.0567 2.53791 31.7474C1.70259 31.4474 0.756263 31.5463 0.00377081 32.0156C-0.124561 32.2657 3.06274 34.9295 3.4599 35.2464C7.64653 38.5885 13.7206 39.787 18.8401 38.1165C25.9012 35.8125 29.8108 28.0305 27.6507 21.0201L32.5196 21.0196L42.0143 37.7664C42.5822 38.7508 43.6373 39.3579 44.78 39.3579H45.8976C45.8976 39.3579 35.4484 21.0132 35.4464 21.0095ZM20.5422 12.755C21.0849 11.9536 22.4482 10.3778 23.581 9.07118C24.395 8.13509 24.9918 7.4348 25.4327 6.90279C27.0155 6.90561 28.591 6.88443 30.1738 6.88707C31.5028 6.88939 32.9028 6.85398 33.9993 7.71081C36.1969 9.42811 36.1222 12.7682 33.8026 14.324C33.6206 14.4473 33.3491 14.5588 33.1201 14.6589H23.4509C22.5749 13.9184 21.6046 13.2752 20.5422 12.755Z" fill="white"/>
</svg>
