<svg width="484" height="542" viewBox="0 0 484 542" fill="none" xmlns="http://www.w3.org/2000/svg">
<mask id="mask0_2427_1454" style="mask-type:alpha" maskUnits="userSpaceOnUse" x="4" y="0" width="476" height="542">
<rect x="4" width="476" height="542" fill="#D9D9D9"/>
</mask>
<g mask="url(#mask0_2427_1454)">
<path d="M33.6703 190.559C30.5038 190.562 27.3473 190.498 24.194 190.363C-4.35495 189.151 -33.1416 181.741 -61.3709 168.339C-86.3959 156.461 -111.182 139.796 -135.033 118.809C-157.344 99.1819 -182.657 84.5202 -210.264 75.2303C-236.547 66.3932 -264.407 62.5635 -293.07 63.8475C-349.223 66.3678 -405.257 88.5924 -450.852 126.428L-451.947 125.104C-406.063 87.0311 -349.67 64.6694 -293.148 62.1321C-264.272 60.8346 -236.203 64.6975 -209.723 73.6045C-181.9 82.9644 -156.39 97.7394 -133.91 117.52C-110.175 138.4 -85.5256 154.975 -60.6437 166.787C-32.6207 180.088 -4.05694 187.442 24.2626 188.644C54.9537 189.949 86.3049 184.731 117.442 173.139C146.656 162.263 174.324 146.341 199.679 125.813L200.755 127.15C175.256 147.796 147.426 163.811 118.038 174.751C89.8842 185.232 61.5498 190.538 33.6703 190.559Z" fill="#E76F51"/>
<path d="M32.8296 234.054C13.0126 234.07 -6.28737 231.755 -24.8175 227.124C-53.055 220.067 -78.9452 207.752 -101.766 190.515C-110.862 183.647 -119.542 176.435 -127.932 169.463C-148.065 152.735 -167.083 136.937 -191.482 125.395C-207.503 117.818 -224.401 112.338 -241.709 109.104C-258.964 105.883 -276.7 104.883 -294.424 106.128C-322.235 108.086 -349.897 114.689 -376.644 125.75C-402.955 136.634 -427.32 151.385 -449.062 169.591L-450.161 168.27C-428.286 149.95 -403.771 135.106 -377.3 124.158C-350.387 113.027 -322.543 106.384 -294.548 104.409C-276.678 103.151 -258.799 104.161 -241.401 107.408C-223.95 110.665 -206.909 116.192 -190.758 123.832C-166.163 135.468 -147.065 151.332 -126.846 168.131C-118.468 175.089 -109.805 182.288 -100.743 189.133C-78.1049 206.226 -52.421 218.445 -24.4096 225.445C2.40743 232.146 30.8571 233.962 60.1478 230.849C85.3874 227.886 110.617 220.794 135.135 209.778C158.047 199.48 180.368 185.753 201.473 168.972L202.535 170.32C181.317 187.187 158.874 200.992 135.832 211.346C111.157 222.435 85.7546 229.571 60.3354 232.558C51.0729 233.543 41.8932 234.041 32.8229 234.048L32.8296 234.054Z" fill="#299D8F"/>
<path d="M33.2067 282.477C13.3897 282.493 -5.91024 280.178 -24.4403 275.547C-52.6779 268.49 -78.568 256.175 -101.389 238.939C-110.484 232.07 -119.165 224.858 -127.555 217.886C-147.688 201.158 -166.706 185.36 -191.105 173.818C-207.126 166.241 -224.024 160.761 -241.332 157.527C-258.587 154.306 -276.323 153.306 -294.047 154.551C-321.858 156.509 -349.52 163.112 -376.266 174.173C-402.577 185.057 -426.943 199.808 -448.685 218.014L-449.784 216.693C-427.909 198.373 -403.394 183.529 -376.923 172.581C-350.01 161.45 -322.166 154.807 -294.171 152.832C-276.301 151.574 -258.422 152.584 -241.024 155.831C-223.573 159.088 -206.532 164.615 -190.381 172.255C-165.786 183.891 -146.688 199.755 -126.469 216.554C-118.091 223.512 -109.428 230.711 -100.365 237.556C-77.7277 254.65 -52.0439 266.868 -24.0325 273.868C2.78452 280.569 31.2342 282.385 60.5249 279.272C85.7645 276.309 110.994 269.217 135.512 258.201C158.425 247.903 180.745 234.176 201.85 217.395L202.912 218.743C181.694 235.61 159.251 249.415 136.209 259.769C111.534 270.858 86.1317 277.994 60.7125 280.981C51.4501 281.966 42.2703 282.464 33.2 282.471L33.2067 282.477Z" fill="#E9C369"/>
<path d="M31.189 381.812C11.372 381.827 -7.92803 379.513 -26.4581 374.882C-54.6957 367.825 -80.5859 355.51 -103.407 338.273C-112.502 331.405 -121.182 324.193 -129.573 317.221C-149.706 300.492 -168.723 284.694 -193.123 273.153C-209.144 265.576 -226.042 260.095 -243.35 256.862C-260.605 253.641 -278.341 252.64 -296.065 253.886C-323.876 255.843 -351.538 262.446 -378.284 273.508C-404.595 284.392 -428.961 299.142 -450.703 317.348L-451.801 316.028C-429.927 297.708 -405.411 282.864 -378.941 271.916C-352.028 260.785 -324.183 254.141 -296.189 252.167C-278.319 250.908 -260.44 251.919 -243.042 255.166C-225.591 258.423 -208.55 263.95 -192.399 271.59C-167.803 283.225 -148.706 299.09 -128.486 315.888C-120.109 322.847 -111.446 330.046 -102.383 336.891C-79.7456 353.984 -54.0617 366.203 -26.0503 373.203C0.766764 379.903 29.2164 381.72 58.5071 378.607C83.7467 375.643 108.976 368.551 133.495 357.535C156.407 347.238 178.728 333.51 199.832 316.73L200.894 318.077C179.677 334.945 157.233 348.749 134.191 359.103C109.517 370.193 84.1139 377.328 58.6947 380.315C49.4323 381.3 40.2525 381.798 31.1822 381.805L31.189 381.812Z" fill="#299D8F"/>
<path d="M29.4423 334.528C0.19578 334.551 -27.8977 328.899 -54.4689 317.606C-79.7791 306.849 -100.837 288.873 -121.2 271.491C-131.611 262.601 -142.378 253.408 -153.571 245.31C-168.207 234.719 -184.505 226.061 -202.016 219.58C-219.163 213.235 -237.144 209.091 -255.466 207.263C-288.69 203.948 -323.118 208.224 -357.791 219.965C-389.753 230.79 -421.228 247.993 -448.808 269.721L-449.866 268.37C-422.134 246.525 -390.486 229.226 -358.341 218.34C-323.436 206.518 -288.768 202.219 -255.298 205.557C-236.833 207.399 -218.706 211.576 -201.425 217.974C-183.768 224.508 -167.33 233.24 -152.57 243.921C-141.322 252.063 -130.528 261.276 -120.09 270.188C-99.8274 287.487 -78.8722 305.38 -53.8016 316.03C-15.3323 332.377 26.3674 336.81 70.1465 329.21C90.1005 325.746 110.372 319.75 130.402 311.391C149.481 303.429 168.365 293.312 186.54 281.326C191.031 278.316 196.347 274.513 201.677 269.159L202.889 270.373C197.455 275.834 192.053 279.7 187.486 282.761C169.218 294.81 150.237 304.977 131.062 312.979C110.915 321.388 90.5176 327.418 70.4405 330.905C56.5559 333.315 42.8765 334.524 29.4423 334.535L29.4423 334.528Z" fill="#F4A261"/>
<path d="M683.139 193.854C679.972 193.856 676.816 193.792 673.662 193.658C645.113 192.445 616.327 185.035 588.097 171.634C563.072 159.756 538.287 143.091 514.435 122.104C492.125 102.477 466.812 87.8149 439.204 78.525C412.921 69.6879 385.062 65.8582 356.398 67.1422C300.245 69.6625 244.211 91.8871 198.616 129.723L197.521 128.399C243.405 90.3258 299.798 67.9641 356.32 65.4268C385.197 64.1293 413.266 67.9922 439.745 76.8992C467.569 86.2591 493.078 101.034 515.558 120.814C539.293 141.695 563.943 158.27 588.825 170.082C616.848 183.383 645.411 190.736 673.731 191.939C704.422 193.243 735.773 188.026 766.91 176.434C796.125 165.557 823.792 149.636 849.148 129.107L850.223 130.445C824.725 151.09 796.894 167.105 767.507 178.045C739.353 188.527 711.018 193.832 683.139 193.854Z" fill="#E76F51"/>
<path d="M682.298 237.349C662.481 237.364 643.181 235.05 624.651 230.419C596.413 223.362 570.523 211.047 547.703 193.81C538.607 186.942 529.927 179.73 521.536 172.758C501.403 156.03 482.386 140.231 457.986 128.69C441.965 121.113 425.067 115.632 407.759 112.399C390.504 109.178 372.768 108.177 355.044 109.423C327.233 111.38 299.571 117.983 272.825 129.045C246.514 139.929 222.148 154.679 200.406 172.885L199.308 171.565C221.183 153.245 245.698 138.401 272.168 127.453C299.081 116.322 326.926 109.678 354.92 107.704C372.79 106.445 390.669 107.456 408.067 110.703C425.518 113.96 442.559 119.487 458.71 127.127C483.306 138.762 502.403 154.627 522.623 171.425C531 178.384 539.663 185.583 548.726 192.428C571.363 209.521 597.047 221.74 625.059 228.74C651.876 235.44 680.326 237.257 709.616 234.144C734.856 231.18 760.085 224.088 784.604 213.072C807.516 202.775 829.837 189.047 850.941 172.267L852.003 173.614C830.786 190.482 808.342 204.286 785.3 214.64C760.626 225.73 735.223 232.865 709.804 235.852C700.541 236.837 691.362 237.335 682.291 237.342L682.298 237.349Z" fill="#299D8F"/>
<path d="M682.675 285.772C662.858 285.787 643.558 283.473 625.028 278.842C596.79 271.785 570.9 259.47 548.08 242.233C538.984 235.365 530.304 228.153 521.913 221.181C501.78 204.453 482.763 188.654 458.363 177.113C442.342 169.536 425.444 164.055 408.136 160.822C390.881 157.601 373.145 156.6 355.422 157.846C327.61 159.803 299.949 166.406 273.202 177.468C246.891 188.352 222.525 203.102 200.783 221.308L199.685 219.988C221.56 201.668 246.075 186.824 272.545 175.876C299.458 164.745 327.303 158.101 355.297 156.127C373.167 154.868 391.046 155.879 408.444 159.126C425.895 162.383 442.936 167.91 459.087 175.55C483.683 187.185 502.781 203.05 523 219.848C531.377 226.807 540.041 234.006 549.103 240.851C571.741 257.944 597.424 270.163 625.436 277.163C652.253 283.863 680.703 285.68 709.993 282.567C735.233 279.603 760.463 272.511 784.981 261.495C807.893 251.198 830.214 237.47 851.318 220.69L852.38 222.037C831.163 238.905 808.719 252.709 785.677 263.063C761.003 274.153 735.6 281.288 710.181 284.275C700.918 285.26 691.739 285.758 682.668 285.765L682.675 285.772Z" fill="#E9C369"/>
<path d="M680.657 385.107C660.84 385.122 641.54 382.808 623.01 378.176C594.773 371.12 568.882 358.805 546.062 341.568C536.966 334.7 528.286 327.488 519.895 320.516C499.763 303.787 480.745 287.989 456.345 276.447C440.324 268.87 423.427 263.39 406.118 260.156C388.863 256.936 371.128 255.935 353.404 257.18C325.592 259.138 297.931 265.741 271.184 276.802C244.873 287.686 220.508 302.437 198.766 320.643L197.667 319.322C219.542 301.003 244.057 286.158 270.528 275.211C297.441 264.079 325.285 257.436 353.279 255.462C371.15 254.203 389.028 255.213 406.426 258.461C423.878 261.718 440.918 267.245 457.069 274.885C481.665 286.52 500.763 302.385 520.982 319.183C529.359 326.142 538.023 333.341 547.085 340.185C569.723 357.279 595.407 369.497 623.418 376.497C650.235 383.198 678.685 385.015 707.976 381.901C733.215 378.938 758.445 371.846 782.963 360.83C805.875 350.533 828.196 336.805 849.3 320.024L850.362 321.372C829.145 338.239 806.701 352.044 783.659 362.398C758.985 373.488 733.582 380.623 708.163 383.61C698.901 384.595 689.721 385.093 680.651 385.1L680.657 385.107Z" fill="#299D8F"/>
<path d="M678.911 337.823C649.664 337.846 621.571 332.194 594.999 320.901C569.689 310.144 548.631 292.168 528.268 274.786C517.857 265.896 507.09 256.703 495.898 248.605C481.261 238.013 464.963 229.355 447.453 222.874C430.305 216.53 412.324 212.386 394.002 210.558C360.779 207.243 326.35 211.518 291.678 223.26C259.716 234.085 228.241 251.288 200.661 273.016L199.602 271.665C227.335 249.82 258.983 232.52 291.128 221.635C326.033 209.813 360.701 205.514 394.171 208.852C412.635 210.693 430.763 214.871 448.044 221.269C465.7 227.803 482.138 236.534 496.898 247.216C508.147 255.357 518.94 264.57 529.378 273.483C549.641 290.782 570.596 308.675 595.667 319.325C634.136 335.672 675.836 340.105 719.615 332.504C739.569 329.041 759.84 323.045 779.87 314.685C798.949 306.724 817.834 296.607 836.008 284.621C840.499 281.61 845.815 277.808 851.146 272.454L852.357 273.668C846.923 279.129 841.522 282.995 836.954 286.055C818.686 298.104 799.705 308.272 780.53 316.273C760.384 324.683 739.986 330.713 719.909 334.2C706.024 336.61 692.345 337.819 678.911 337.829L678.911 337.823Z" fill="#F4A261"/>
</g>
</svg>
