<svg width="1512" height="426" viewBox="0 0 1512 426" fill="none" xmlns="http://www.w3.org/2000/svg">
<path d="M638.49 169.519C634.326 169.519 630.175 169.432 626.029 169.252C588.491 167.628 550.646 157.855 513.54 140.204C480.646 124.559 448.072 102.621 416.731 74.9993C387.414 49.1684 354.145 29.8633 317.852 17.6193C283.301 5.97216 246.672 0.907798 208.98 2.56666C135.141 5.82295 61.4369 34.9891 1.44426 84.6935L0.00535016 82.9513C60.3785 32.9353 134.555 3.58919 208.88 0.310959C246.851 -1.36546 283.756 3.74279 318.565 15.4821C355.142 27.8182 388.67 47.2726 418.209 73.3053C449.397 100.786 481.792 122.606 514.498 138.163C551.333 155.682 588.884 165.381 626.121 166.992C666.476 168.738 707.706 161.91 748.661 146.699C787.087 132.428 823.484 111.521 856.846 84.5531L858.259 86.3129C824.709 113.434 788.097 134.464 749.444 148.819C712.412 162.572 675.149 169.519 638.49 169.519Z" fill="#E76F51"/>
<path d="M637.34 226.711C611.282 226.711 585.906 223.648 561.545 217.539C524.422 208.231 490.391 192.011 460.401 169.322C448.448 160.282 437.042 150.79 426.016 141.613C399.56 119.596 374.569 98.8033 342.498 83.6014C321.439 73.6219 299.225 66.3984 276.469 62.1284C253.783 57.8759 230.463 56.5418 207.157 58.1611C170.584 60.7065 134.205 69.3606 99.0237 83.8779C64.4154 98.1625 32.3612 117.533 3.75353 141.451L2.31024 139.713C31.0929 115.646 63.3438 96.1526 98.1621 81.7846C133.562 67.1752 170.182 58.4683 206.995 55.901C230.494 54.2641 254.002 55.6114 276.876 59.899C299.82 64.1997 322.222 71.4847 343.451 81.5476C375.781 96.8723 400.876 117.753 427.446 139.862C438.454 149.021 449.839 158.496 461.748 167.506C491.497 190.006 525.257 206.098 562.083 215.332C597.339 224.17 634.746 226.588 673.264 222.525C706.456 218.654 739.638 209.355 771.889 194.894C802.027 181.378 831.392 163.35 859.16 141.306L860.555 143.079C832.638 165.237 803.112 183.366 772.803 196.957C740.346 211.514 706.937 220.87 673.509 224.771C661.329 226.057 649.258 226.702 637.331 226.702L637.34 226.711Z" fill="#299D8F"/>
<path d="M637.786 290.384C611.728 290.384 586.352 287.321 561.991 281.212C524.868 271.904 490.837 255.684 460.847 232.996C448.894 223.955 437.488 214.463 426.462 205.286C400.006 183.269 375.015 162.476 342.944 147.275C321.885 137.295 299.671 130.072 276.915 125.801C254.23 121.549 230.91 120.215 207.603 121.834C171.031 124.38 134.651 133.034 99.4698 147.551C64.8615 161.836 32.8074 181.207 4.19963 205.124L2.75634 203.386C31.539 179.32 63.7899 159.826 98.6082 145.458C134.008 130.848 170.628 122.141 207.441 119.574C230.94 117.937 254.448 119.285 277.322 123.572C300.266 127.873 322.668 135.158 343.897 145.221C376.227 160.545 401.323 181.426 427.892 203.535C438.9 212.694 450.285 222.169 462.194 231.179C491.944 253.679 525.703 269.771 562.529 279.005C597.785 287.843 635.192 290.261 673.71 286.198C706.902 282.327 740.084 273.028 772.335 258.568C802.473 245.051 831.838 227.023 859.606 204.979L861.001 206.752C833.084 228.91 803.558 247.039 773.249 260.63C740.793 275.187 707.383 284.543 673.955 288.445C661.775 289.73 649.704 290.376 637.777 290.376L637.786 290.384Z" fill="#E9C369"/>
<path d="M635.03 421C608.972 421 583.597 417.937 559.236 411.828C522.113 402.52 488.082 386.3 458.092 363.611C446.139 354.571 434.732 345.079 423.707 335.902C397.251 313.885 372.26 293.092 340.188 277.89C319.129 267.911 296.916 260.687 274.16 256.417C251.474 252.165 228.154 250.831 204.847 252.45C168.275 254.995 131.896 263.649 96.7144 278.167C62.1061 292.451 30.052 311.822 1.44426 335.74L0.000976562 334.002C28.7836 309.935 61.0346 290.441 95.8528 276.073C131.253 261.464 167.873 252.757 204.685 250.19C228.185 248.553 251.693 249.9 274.567 254.188C297.511 258.489 319.912 265.773 341.142 275.836C373.471 291.161 398.567 312.042 425.137 334.151C436.145 343.31 447.53 352.785 459.439 361.794C489.188 384.294 522.948 400.387 559.774 409.621C595.029 418.459 632.437 420.877 670.955 416.813C704.146 412.943 737.329 403.643 769.58 389.183C799.718 375.667 829.082 357.638 856.85 335.595L858.246 337.368C830.329 359.526 800.803 377.655 770.494 391.246C738.037 405.803 704.627 415.159 671.2 419.06C659.019 420.346 646.948 420.991 635.021 420.991L635.03 421Z" fill="#299D8F"/>
<path d="M632.782 358.823C594.325 358.823 557.39 351.363 522.462 336.486C489.193 322.315 461.521 298.657 434.763 275.779C421.082 264.079 406.934 251.98 392.225 241.321C372.99 227.378 351.568 215.977 328.55 207.437C306.009 199.077 282.369 193.609 258.28 191.186C214.596 186.793 169.321 192.38 123.717 207.783C81.678 221.985 40.2731 244.573 3.98533 273.115L2.59452 271.338C39.0835 242.642 80.7158 219.927 122.995 205.646C168.905 190.137 214.495 184.52 258.503 188.944C282.78 191.384 306.612 196.896 329.329 205.326C352.539 213.936 374.145 225.434 393.542 239.495C408.325 250.212 422.508 262.337 436.224 274.068C462.85 296.835 490.386 320.384 523.342 334.414C573.909 355.949 628.737 361.821 686.311 351.872C712.552 347.339 739.214 339.474 765.56 328.503C790.656 318.054 815.498 304.77 839.409 289.028C845.317 285.074 852.311 280.08 859.326 273.045L860.918 274.643C853.767 281.818 846.66 286.895 840.651 290.915C816.618 306.74 791.649 320.09 766.426 330.592C739.927 341.629 713.099 349.537 686.696 354.101C668.436 357.257 650.447 358.832 632.782 358.832V358.823Z" fill="#F4A261"/>
<path d="M1492.49 174.519C1488.33 174.519 1484.18 174.432 1480.03 174.252C1442.49 172.628 1404.65 162.855 1367.54 145.204C1334.65 129.559 1302.07 107.621 1270.73 79.9993C1241.41 54.1684 1208.14 34.8633 1171.85 22.6193C1137.3 10.9722 1100.67 5.9078 1062.98 7.56666C989.141 10.8229 915.437 39.9891 855.444 89.6935L854.005 87.9513C914.379 37.9353 988.555 8.58919 1062.88 5.31096C1100.85 3.63454 1137.76 8.74279 1172.57 20.4821C1209.14 32.8182 1242.67 52.2726 1272.21 78.3053C1303.4 105.786 1335.79 127.606 1368.5 143.163C1405.33 160.682 1442.88 170.381 1480.12 171.992C1520.48 173.738 1561.71 166.91 1602.66 151.699C1641.09 137.428 1677.48 116.521 1710.85 89.5531L1712.26 91.3129C1678.71 118.434 1642.1 139.464 1603.44 153.819C1566.41 167.572 1529.15 174.519 1492.49 174.519Z" fill="#E76F51"/>
<path d="M1491.34 231.711C1465.28 231.711 1439.91 228.648 1415.54 222.539C1378.42 213.231 1344.39 197.011 1314.4 174.322C1302.45 165.282 1291.04 155.79 1280.02 146.613C1253.56 124.596 1228.57 103.803 1196.5 88.6014C1175.44 78.6219 1153.23 71.3984 1130.47 67.1284C1107.78 62.8759 1084.46 61.5418 1061.16 63.1611C1024.58 65.7065 988.205 74.3606 953.024 88.8779C918.415 103.163 886.361 122.533 857.754 146.451L856.31 144.713C885.093 120.646 917.344 101.153 952.162 86.7846C987.562 72.1752 1024.18 63.4683 1060.99 60.901C1084.49 59.2641 1108 60.6114 1130.88 64.899C1153.82 69.1997 1176.22 76.4847 1197.45 86.5476C1229.78 101.872 1254.88 122.753 1281.45 144.862C1292.45 154.021 1303.84 163.496 1315.75 172.506C1345.5 195.006 1379.26 211.098 1416.08 220.332C1451.34 229.17 1488.75 231.588 1527.26 227.525C1560.46 223.654 1593.64 214.355 1625.89 199.894C1656.03 186.378 1685.39 168.35 1713.16 146.306L1714.55 148.079C1686.64 170.237 1657.11 188.366 1626.8 201.957C1594.35 216.514 1560.94 225.87 1527.51 229.771C1515.33 231.057 1503.26 231.702 1491.33 231.702L1491.34 231.711Z" fill="#299D8F"/>
<path d="M1491.79 295.384C1465.73 295.384 1440.35 292.321 1415.99 286.212C1378.87 276.904 1344.84 260.684 1314.85 237.996C1302.89 228.955 1291.49 219.463 1280.46 210.286C1254.01 188.269 1229.02 167.476 1196.94 152.275C1175.88 142.295 1153.67 135.072 1130.92 130.801C1108.23 126.549 1084.91 125.215 1061.6 126.834C1025.03 129.38 988.651 138.034 953.47 152.551C918.861 166.836 886.807 186.207 858.2 210.124L856.756 208.386C885.539 184.32 917.79 164.826 952.608 150.458C988.008 135.848 1024.63 127.141 1061.44 124.574C1084.94 122.937 1108.45 124.285 1131.32 128.572C1154.27 132.873 1176.67 140.158 1197.9 150.221C1230.23 165.545 1255.32 186.426 1281.89 208.535C1292.9 217.694 1304.28 227.169 1316.19 236.179C1345.94 258.679 1379.7 274.771 1416.53 284.005C1451.78 292.843 1489.19 295.261 1527.71 291.198C1560.9 287.327 1594.08 278.028 1626.33 263.568C1656.47 250.051 1685.84 232.023 1713.61 209.979L1715 211.752C1687.08 233.91 1657.56 252.039 1627.25 265.63C1594.79 280.187 1561.38 289.543 1527.96 293.445C1515.77 294.73 1503.7 295.376 1491.78 295.376L1491.79 295.384Z" fill="#E9C369"/>
<path d="M1489.03 426C1462.97 426 1437.6 422.937 1413.24 416.828C1376.11 407.52 1342.08 391.3 1312.09 368.611C1300.14 359.571 1288.73 350.079 1277.71 340.902C1251.25 318.885 1226.26 298.092 1194.19 282.89C1173.13 272.911 1150.92 265.687 1128.16 261.417C1105.47 257.165 1082.15 255.831 1058.85 257.45C1022.28 259.995 985.896 268.649 950.714 283.167C916.106 297.451 884.052 316.822 855.444 340.74L854.001 339.002C882.784 314.935 915.035 295.441 949.853 281.073C985.253 266.464 1021.87 257.757 1058.69 255.19C1082.18 253.553 1105.69 254.9 1128.57 259.188C1151.51 263.489 1173.91 270.773 1195.14 280.836C1227.47 296.161 1252.57 317.042 1279.14 339.151C1290.15 348.31 1301.53 357.785 1313.44 366.794C1343.19 389.294 1376.95 405.387 1413.77 414.621C1449.03 423.459 1486.44 425.877 1524.95 421.813C1558.15 417.943 1591.33 408.643 1623.58 394.183C1653.72 380.667 1683.08 362.638 1710.85 340.595L1712.25 342.368C1684.33 364.526 1654.8 382.655 1624.49 396.246C1592.04 410.803 1558.63 420.159 1525.2 424.06C1513.02 425.346 1500.95 425.991 1489.02 425.991L1489.03 426Z" fill="#299D8F"/>
<path d="M1486.78 363.823C1448.33 363.823 1411.39 356.363 1376.46 341.486C1343.19 327.315 1315.52 303.657 1288.76 280.779C1275.08 269.079 1260.93 256.98 1246.23 246.321C1226.99 232.378 1205.57 220.977 1182.55 212.437C1160.01 204.077 1136.37 198.609 1112.28 196.186C1068.6 191.793 1023.32 197.38 977.717 212.783C935.678 226.985 894.273 249.573 857.985 278.115L856.595 276.338C893.083 247.642 934.716 224.927 976.995 210.646C1022.91 195.137 1068.5 189.52 1112.5 193.944C1136.78 196.384 1160.61 201.896 1183.33 210.326C1206.54 218.936 1228.14 230.434 1247.54 244.495C1262.32 255.212 1276.51 267.337 1290.22 279.068C1316.85 301.835 1344.39 325.384 1377.34 339.414C1427.91 360.949 1482.74 366.821 1540.31 356.872C1566.55 352.339 1593.21 344.474 1619.56 333.503C1644.66 323.054 1669.5 309.77 1693.41 294.028C1699.32 290.074 1706.31 285.08 1713.33 278.045L1714.92 279.643C1707.77 286.818 1700.66 291.895 1694.65 295.915C1670.62 311.74 1645.65 325.09 1620.43 335.592C1593.93 346.629 1567.1 354.537 1540.7 359.101C1522.44 362.257 1504.45 363.832 1486.78 363.832V363.823Z" fill="#F4A261"/>
</svg>
