<svg width="41" height="41" viewBox="0 0 41 41" fill="none" xmlns="http://www.w3.org/2000/svg">
<path d="M17.724 23.2756L28.3489 12.6506M39.2176 6.16641L30.2491 35.3142C29.4454 37.9264 29.0432 39.2331 28.35 39.6662C27.7487 40.0419 27.0043 40.1047 26.3494 39.833C25.5943 39.5197 24.9814 38.296 23.7588 35.8508L18.0784 24.4897C17.8843 24.1017 17.7872 23.9084 17.6576 23.7403C17.5426 23.5911 17.4099 23.4567 17.2607 23.3417C17.0964 23.2151 16.9065 23.1201 16.5357 22.9347L5.14859 17.2411C2.70336 16.0185 1.48064 15.4066 1.16732 14.6515C0.895596 13.9966 0.957565 13.2514 1.33325 12.6502C1.76645 11.9568 3.07304 11.554 5.686 10.75L34.8334 1.7815C36.8877 1.14942 37.9152 0.833634 38.609 1.08837C39.2134 1.31024 39.6899 1.78625 39.9117 2.39063C40.1663 3.08416 39.8503 4.11118 39.2189 6.16337L39.2176 6.16641Z" stroke="white" stroke-width="2" stroke-linecap="round" stroke-linejoin="round"/>
</svg>
