<svg width="213" height="123" viewBox="0 0 213 123" fill="none" xmlns="http://www.w3.org/2000/svg">
<path d="M185.05 64.8874C183.458 64.8874 181.872 64.8539 180.287 64.7852C165.938 64.165 151.473 60.432 137.29 53.6903C124.717 47.7145 112.266 39.3351 100.286 28.785C89.0804 18.9188 76.3635 11.5451 62.4915 6.86845C49.2848 2.41977 35.284 0.48541 20.8769 1.11902C-7.34698 2.36277 -35.5191 13.5029 -58.4503 32.4878L-59.0003 31.8223C-35.9236 12.7185 -7.571 1.50958 20.8385 0.257444C35.3525 -0.382872 49.4586 1.56825 62.764 6.05213C76.7447 10.764 89.5602 18.1947 100.851 28.138C112.772 38.6345 125.155 46.9686 137.656 52.9108C151.735 59.6023 166.089 63.3067 180.322 63.9219C195.747 64.589 211.507 61.9809 227.161 56.1711C241.849 50.72 255.761 42.7345 268.513 32.4341L269.053 33.1063C256.229 43.4653 242.235 51.4978 227.46 56.9807C213.305 62.234 199.062 64.8874 185.05 64.8874Z" fill="#E76F51"/>
<path d="M184.61 86.7321C174.65 86.7321 164.951 85.5621 155.639 83.2288C141.449 79.6736 128.441 73.4783 116.978 64.8122C112.409 61.3592 108.05 57.7336 103.835 54.2286C93.7228 45.819 84.1705 37.8771 71.9117 32.0706C63.8623 28.2589 55.3715 25.4999 46.6735 23.8689C38.0022 22.2446 29.0885 21.7351 20.1798 22.3536C6.20076 23.3258 -7.70473 26.6313 -21.1522 32.1762C-34.3806 37.6323 -46.6328 45.0312 -57.5676 54.1665L-58.1193 53.5028C-47.1176 44.3104 -34.7902 36.8646 -21.4815 31.3767C-7.95048 25.7966 6.04696 22.4709 20.118 21.4903C29.1002 20.8651 38.0858 21.3797 46.829 23.0174C55.5989 24.6601 64.1615 27.4426 72.2761 31.2862C84.6336 37.1395 94.226 45.115 104.382 53.5598C108.59 57.058 112.941 60.677 117.493 64.1183C128.864 72.7122 141.769 78.8589 155.845 82.3857C169.32 85.7616 183.619 86.6852 198.342 85.133C211.029 83.6546 223.712 80.1027 236.039 74.5795C247.559 69.4168 258.783 62.5309 269.397 54.1112L269.931 54.7884C259.26 63.2517 247.974 70.1761 236.389 75.3674C223.983 80.9274 211.212 84.5011 198.435 85.9912C193.78 86.4824 189.166 86.7288 184.607 86.7288L184.61 86.7321Z" fill="#299D8F"/>
<path d="M184.781 111.052C174.82 111.052 165.121 109.882 155.809 107.549C141.62 103.994 128.612 97.7985 117.149 89.1325C112.58 85.6795 108.22 82.0538 104.006 78.5488C93.8934 70.1392 84.341 62.1973 72.0822 56.3909C64.0328 52.5792 55.5421 49.8201 46.844 48.1892C38.1727 46.5649 29.259 46.0553 20.3503 46.6739C6.37128 47.6461 -7.53422 50.9516 -20.9817 56.4965C-34.2101 61.9526 -46.4623 69.3514 -57.3971 78.4868L-57.9488 77.823C-46.9471 68.6306 -34.6197 61.1849 -21.311 55.6969C-7.77996 50.1168 6.21748 46.7912 20.2885 45.8106C29.2707 45.1854 38.2563 45.7 46.9995 47.3376C55.7694 48.9803 64.332 51.7629 72.4466 55.6064C84.8041 61.4598 94.3965 69.4352 104.552 77.88C108.76 81.3783 113.112 84.9972 117.664 88.4385C129.035 97.0325 141.939 103.179 156.015 106.706C169.491 110.082 183.789 111.005 198.512 109.453C211.199 107.975 223.883 104.423 236.21 98.8998C247.73 93.737 258.954 86.8511 269.568 78.4315L270.101 79.1087C259.43 87.5719 248.144 94.4964 236.559 99.6876C224.153 105.248 211.383 108.821 198.606 110.311C193.95 110.803 189.336 111.049 184.777 111.049L184.781 111.052Z" fill="#E9C369"/>
<path d="M183.727 160.942C173.767 160.942 164.068 159.772 154.756 157.438C140.567 153.883 127.559 147.688 116.096 139.022C111.527 135.569 107.167 131.943 102.952 128.438C92.8401 120.029 83.2879 112.087 71.029 106.28C62.9796 102.468 54.4889 99.7094 45.7908 98.0785C37.1195 96.4542 28.2058 95.9446 19.2971 96.5632C5.31808 97.5354 -8.58741 100.841 -22.0349 106.386C-35.2633 111.842 -47.5155 119.241 -58.4503 128.376L-59.002 127.712C-48.0003 118.52 -35.6729 111.074 -22.3642 105.586C-8.83316 100.006 5.16428 96.6805 19.2353 95.6999C28.2175 95.0747 37.2031 95.5893 45.9463 97.2269C54.7162 98.8696 63.2788 101.652 71.3934 105.496C83.7509 111.349 93.3434 119.325 103.499 127.769C107.707 131.268 112.058 134.887 116.611 138.328C127.982 146.922 140.886 153.068 154.962 156.595C168.438 159.971 182.736 160.895 197.459 159.343C210.146 157.864 222.829 154.312 235.157 148.789C246.677 143.626 257.901 136.74 268.515 128.321L269.048 128.998C258.377 137.461 247.091 144.386 235.506 149.577C223.1 155.137 210.33 158.711 197.553 160.201C192.897 160.692 188.283 160.938 183.724 160.938L183.727 160.942Z" fill="#299D8F"/>
<path d="M182.868 137.193C168.169 137.193 154.051 134.343 140.7 128.661C127.983 123.249 117.406 114.212 107.179 105.474C101.949 101.005 96.5414 96.3838 90.9193 92.3123C83.567 86.9869 75.3789 82.6321 66.5805 79.3702C57.9644 76.177 48.9287 74.0884 39.7207 73.1631C23.0235 71.4852 5.71764 73.6191 -11.7136 79.5026C-27.7823 84.9268 -43.6086 93.5543 -57.479 104.456L-58.0106 103.778C-44.0633 92.8168 -28.1501 84.1407 -11.9894 78.6863C5.55882 72.7625 22.985 70.617 39.806 72.3066C49.0858 73.2386 58.1951 75.3439 66.8781 78.5639C75.75 81.8527 84.0084 86.2443 91.4225 91.615C97.073 95.7083 102.494 100.34 107.737 104.82C117.915 113.516 128.44 122.511 141.036 127.87C160.365 136.095 181.322 138.338 203.329 134.538C213.359 132.806 223.55 129.803 233.62 125.612C243.213 121.621 252.708 116.547 261.848 110.534C264.106 109.024 266.779 107.117 269.461 104.43L270.069 105.04C267.336 107.78 264.619 109.72 262.322 111.255C253.136 117.3 243.592 122.399 233.951 126.41C223.822 130.626 213.568 133.646 203.476 135.389C196.496 136.595 189.62 137.196 182.868 137.196V137.193Z" fill="#F4A261"/>
</svg>
