<svg width="31" height="25" viewBox="0 0 31 25" fill="none" xmlns="http://www.w3.org/2000/svg">
<path d="M28.4129 5.63066C28.2617 5.0167 27.9538 4.45417 27.5203 3.99988C27.0868 3.54559 26.543 3.21563 25.9439 3.04334C23.7549 2.5 14.999 2.5 14.999 2.5C14.999 2.5 6.24312 2.5 4.05414 3.09508C3.45503 3.26738 2.91126 3.59734 2.47775 4.05163C2.04424 4.50591 1.73635 5.06845 1.58518 5.68241C1.18456 7.94056 0.988597 10.2313 0.999751 12.5259C0.985471 14.8377 1.18145 17.1459 1.58518 19.4211C1.75184 20.016 2.06663 20.5571 2.49913 20.9922C2.93163 21.4273 3.46721 21.7417 4.05414 21.9049C6.24312 22.5 14.999 22.5 14.999 22.5C14.999 22.5 23.7549 22.5 25.9439 21.9049C26.543 21.7326 27.0868 21.4027 27.5203 20.9484C27.9538 20.4941 28.2617 19.9316 28.4129 19.3176C28.8104 17.0764 29.0063 14.8031 28.9983 12.5259C29.0126 10.214 28.8166 7.90582 28.4129 5.63066V5.63066Z" stroke="black" stroke-linecap="round" stroke-linejoin="round"/>
<path d="M12 16.5L20 12.5L12 8.5V16.5Z" stroke="black" stroke-linecap="round" stroke-linejoin="round"/>
</svg>
