<svg width="36" height="47" viewBox="0 0 36 47" fill="none" xmlns="http://www.w3.org/2000/svg">
<g clip-path="url(#clip0_2455_1487)">
<path d="M20.0635 14.025C19.7004 14.025 19.3552 13.8117 19.2037 13.4562C19.0015 12.9811 19.222 12.4318 19.6966 12.2291C21.6875 11.3793 22.9738 9.43069 22.9738 7.26483C22.9738 4.2902 20.5554 1.87023 17.5828 1.87023C14.6101 1.87023 12.1927 4.2902 12.1927 7.26483C12.1927 9.31431 13.3292 11.1613 15.1588 12.0848C15.6196 12.3173 15.8045 12.8797 15.5722 13.341C15.34 13.8021 14.7786 13.9874 14.3174 13.7549C11.8543 12.5114 10.3242 10.0245 10.3242 7.26483C10.3245 3.259 13.5805 0 17.5828 0C21.5851 0 24.842 3.259 24.842 7.26483C24.842 10.1815 23.1099 12.8054 20.4296 13.9496C20.31 14.0006 20.1858 14.0247 20.0637 14.0247L20.0635 14.025Z" fill="#5DA9A2"/>
<path d="M15.1393 29.8731C14.6234 29.8731 14.2051 29.4543 14.2051 28.9379V9.0373C14.2051 7.21001 15.6906 5.72363 17.5162 5.72363H17.6835C19.5094 5.72363 20.9946 7.21001 20.9946 9.0373V20.5975C20.9946 21.1139 20.5763 21.5327 20.0604 21.5327C19.5445 21.5327 19.1261 21.1139 19.1261 20.5975V9.0373C19.1261 8.24144 18.479 7.59386 17.6835 7.59386H17.5162C16.7205 7.59386 16.0733 8.24144 16.0733 9.0373V28.9379C16.0733 29.4543 15.6552 29.8731 15.1393 29.8731Z" fill="black"/>
<path d="M25.0634 22.3377C24.5475 22.3377 24.1291 21.9189 24.1291 21.4025V19.8222C24.1291 19.0266 23.4822 18.379 22.6872 18.379H22.5201C21.7246 18.379 21.0775 19.0266 21.0775 19.8222V20.562C21.0775 21.0784 20.6591 21.4972 20.1432 21.4972C19.6274 21.4972 19.209 21.0784 19.209 20.562V19.8222C19.209 17.9952 20.6943 16.5088 22.5199 16.5088H22.687C24.5123 16.5088 25.9971 17.9952 25.9971 19.8222V21.4025C25.9971 21.9189 25.5788 22.3377 25.0629 22.3377H25.0634Z" fill="black"/>
<path d="M29.922 23.3366C29.4062 23.3366 28.9878 22.9178 28.9878 22.4013V21.8713C28.9878 21.0757 28.3409 20.4283 27.5459 20.4283H27.3785C26.5837 20.4283 25.9368 21.0757 25.9368 21.8713C25.9368 22.3877 25.5185 22.8065 25.0026 22.8065C24.4867 22.8065 24.0684 22.3877 24.0684 21.8713V21.7012C24.0684 21.6355 24.0752 21.5717 24.088 21.51C24.2683 19.8523 25.6753 18.5581 27.3783 18.5581H27.5456C29.371 18.5581 30.8558 20.0445 30.8558 21.8713V22.4013C30.8558 22.9178 30.4374 23.3366 29.9216 23.3366H29.922Z" fill="black"/>
<path d="M31.7166 46.9857C31.6623 46.9857 31.6074 46.981 31.5519 46.9712C31.044 46.8808 30.7055 46.3951 30.7957 45.8867C30.799 45.8682 31.1309 43.9977 31.5758 41.2403C32.0005 38.6085 33.7023 33.5032 34.019 32.5652L34.1312 23.8555C34.1312 22.9036 33.328 21.673 32.6989 21.673H32.5316C31.9517 21.673 30.8548 21.8832 30.8548 22.6788C30.8548 23.1952 30.4364 23.6141 29.9206 23.6141C29.4047 23.6141 28.9863 23.1952 28.9863 22.6788C28.9863 20.9855 30.4442 19.8027 32.5313 19.8027H32.6987C33.6165 19.8027 34.4842 20.3267 35.1419 21.2778C35.6786 22.054 35.999 23.0221 35.999 23.8675L35.8846 32.7376C35.8835 32.8364 35.8666 32.9345 35.8347 33.0279C35.815 33.0858 33.8535 38.8513 33.4196 41.5388C32.9724 44.3119 32.6382 46.1957 32.6347 46.2145C32.5543 46.6676 32.1603 46.9859 31.7162 46.9859L31.7166 46.9857Z" fill="black"/>
<path d="M17.7556 46.9996C17.7228 46.9996 17.6895 46.9978 17.6562 46.9942C17.1432 46.94 16.7712 46.4797 16.8253 45.9661C17.1021 43.3394 14.9482 39.4563 13.732 38.5837C12.381 37.6142 11.4118 36.312 10.9292 34.8177C10.5477 33.6375 8.44386 30.6903 7.47095 29.5427C7.2211 29.2476 6.90585 29.0078 6.57256 28.7539C5.79794 28.1636 4.73689 27.3553 4.9469 25.7063C5.26964 23.1742 7.68822 23.2275 8.47972 23.2462C10.0355 23.2805 13.9816 25.5496 15.154 26.2443C15.5979 26.5073 15.7448 27.0808 15.4821 27.5252C15.2194 27.9696 14.6465 28.1167 14.2026 27.8536C12.0011 26.5496 9.17138 25.1322 8.43847 25.1158C7.13203 25.0864 6.88289 25.2967 6.80062 25.9431C6.73382 26.4677 6.91195 26.662 7.70439 27.2654C8.08409 27.5547 8.51441 27.8825 8.89575 28.3328C9.77023 29.3642 12.1881 32.6363 12.707 34.2421C13.0659 35.3536 13.7967 36.3292 14.8204 37.0636C16.5907 38.3338 19.0257 42.9154 18.6833 46.1625C18.6326 46.6428 18.2274 46.9994 17.7556 46.9996Z" fill="black"/>
<path d="M31.662 46.9999H17.7546C17.2387 46.9999 16.8203 46.581 16.8203 46.0646C16.8203 45.5482 17.2387 45.1294 17.7546 45.1294H31.662C32.1779 45.1294 32.5963 45.5482 32.5963 46.0646C32.5963 46.581 32.1779 46.9999 31.662 46.9999Z" fill="black"/>
<path d="M11.2569 8.20006H5.85417C5.33829 8.20006 4.91992 7.78124 4.91992 7.26482C4.91992 6.7484 5.33829 6.32959 5.85417 6.32959H11.2569C11.7728 6.32959 12.1911 6.7484 12.1911 7.26482C12.1911 7.78124 11.7728 8.20006 11.2569 8.20006Z" fill="#5DA9A2"/>
<path d="M29.8504 8.20006H24.4479C23.932 8.20006 23.5137 7.78124 23.5137 7.26482C23.5137 6.7484 23.932 6.32959 24.4479 6.32959H29.8504C30.3663 6.32959 30.7846 6.7484 30.7846 7.26482C30.7846 7.78124 30.3663 8.20006 29.8504 8.20006Z" fill="#5DA9A2"/>
<path d="M3.33688 10.507C1.49699 10.507 0 9.00866 0 7.16659C0 5.32452 1.49676 3.82617 3.33688 3.82617C5.17701 3.82617 6.67377 5.32452 6.67377 7.16659C6.67377 9.00866 5.17701 10.507 3.33688 10.507ZM3.33688 5.69664C2.5271 5.69664 1.86825 6.35618 1.86825 7.16682C1.86825 7.97747 2.5271 8.63701 3.33688 8.63701C4.14667 8.63701 4.80552 7.97747 4.80552 7.16682C4.80552 6.35618 4.14667 5.69664 3.33688 5.69664Z" fill="#5DA9A2"/>
<path d="M32.3271 10.507C30.4872 10.507 28.9902 9.00866 28.9902 7.16659C28.9902 5.32452 30.487 3.82617 32.3271 3.82617C34.1672 3.82617 35.664 5.32452 35.664 7.16659C35.664 9.00866 34.1672 10.507 32.3271 10.507ZM32.3271 5.69664C31.5173 5.69664 30.8585 6.35618 30.8585 7.16682C30.8585 7.97747 31.5173 8.63701 32.3271 8.63701C33.1369 8.63701 33.7958 7.97747 33.7958 7.16682C33.7958 6.35618 33.1369 5.69664 32.3271 5.69664Z" fill="#5DA9A2"/>
</g>
<defs>
<clipPath id="clip0_2455_1487">
<rect width="36" height="47" fill="white"/>
</clipPath>
</defs>
</svg>
