<svg width="48" height="58" viewBox="0 0 48 58" fill="none" xmlns="http://www.w3.org/2000/svg">
<g clip-path="url(#clip0_2455_1404)">
<path d="M18.4287 57.9999C17.6697 57.9999 16.8438 57.9002 16.2719 57.3122C15.6626 56.6858 15.6115 55.7818 15.6351 55.0642C15.6359 55.0399 15.6377 55.0159 15.6406 54.9919C15.9375 52.433 15.6698 50.686 14.8663 49.9394C14.3251 49.4367 13.4284 49.309 12.2006 49.56C12.1832 49.5635 12.1654 49.5667 12.1478 49.569C10.9997 49.7292 9.67149 49.8838 8.52573 49.8183C7.26873 49.7458 6.3207 49.4123 5.62749 48.7986C4.70829 47.9849 4.26678 46.7206 4.27742 44.9335C4.28013 44.4693 4.28497 44.0051 4.28981 43.5409C4.29677 42.8754 4.30374 42.1875 4.30451 41.5129C4.30625 39.5577 4.284 38.3272 3.96071 37.7251C3.74866 37.33 3.33172 37.0593 1.73807 36.7593C1.08665 36.6367 0.5395 36.2219 0.236713 35.6211C-0.0697504 35.0127 -0.0790372 34.3117 0.211174 33.6976C0.53002 33.0232 0.872469 32.3546 1.2035 31.7081C1.91607 30.3164 2.58917 29.0021 3.07188 27.5927C3.94813 25.0344 4.5243 22.2626 4.78433 19.3542C5.20378 14.6635 7.06597 10.4781 10.1697 7.25088C13.1728 4.12799 17.1684 2.05817 21.7242 1.26514C23.0725 1.03049 24.4558 0.934757 25.8345 0.981061C26.3089 0.996887 26.6808 1.39819 26.6651 1.87745C26.6496 2.34674 26.2681 2.71659 25.8065 2.71659C25.7968 2.71659 25.7871 2.71659 25.7774 2.716C24.5148 2.6738 23.2495 2.76114 22.0161 2.97566C17.821 3.70598 14.151 5.60249 11.4029 8.46007C8.57662 11.3989 6.88004 15.2201 6.49638 19.5102C6.22377 22.5586 5.6182 25.4689 4.69649 28.1599C4.17314 29.6877 3.43987 31.12 2.7306 32.5052C2.40575 33.1398 2.06969 33.7959 1.76264 34.4453C1.68003 34.6204 1.73943 34.7753 1.76903 34.8337C1.80347 34.9019 1.88589 35.0209 2.05305 35.0523C3.47663 35.3204 4.80909 35.6631 5.47193 36.8973C6.00109 37.8828 6.02566 39.2256 6.02372 41.5142C6.02314 42.1973 6.01598 42.8895 6.00902 43.5588C6.00418 44.0205 5.99934 44.4822 5.99664 44.9439C5.98909 46.1972 6.23906 47.0311 6.76086 47.4929C7.62859 48.2612 9.43738 48.1934 11.8868 47.8528C13.672 47.4933 15.0659 47.7655 16.0304 48.6617C17.2862 49.8287 17.7187 51.9532 17.3524 55.1562C17.3333 55.8679 17.459 56.0549 17.4985 56.0955C17.5641 56.163 17.7883 56.2739 18.5508 56.2626C24.6605 56.1696 30.3096 56.17 35.8211 56.2632C36.1947 56.27 36.534 56.1317 36.7861 55.8752C37.0415 55.6155 37.1771 55.2631 37.1682 54.8828C37.086 51.3741 37.1073 47.8106 37.1278 44.3646C37.1346 43.2253 37.1415 42.0472 37.1448 40.8894C37.1508 38.7516 37.8228 36.953 39.1991 35.3907C41.9602 32.2567 43.7021 28.5453 44.2364 24.6577C44.3016 24.183 44.736 23.8514 45.2059 23.9173C45.6761 23.9831 46.0044 24.4215 45.9392 24.8963C45.358 29.1252 43.4714 33.1533 40.4834 36.5446C39.3833 37.7933 38.8687 39.1754 38.864 40.8941C38.8608 42.0548 38.8538 43.2343 38.847 44.3749C38.8265 47.8085 38.8052 51.3587 38.8869 54.8418C38.9068 55.6991 38.594 56.5006 38.006 57.0986C37.4209 57.6935 36.635 58.0155 35.7923 57.9991C30.2991 57.9061 24.6679 57.9059 18.5765 57.9985C18.5276 57.9993 18.4782 57.9997 18.4287 57.9997V57.9999Z" fill="#231F20"/>
<path d="M33.4968 8.90918C32.8924 8.90918 32.3448 9.26945 32.1008 9.82784L29.3535 16.1135H31.4119L31.9722 14.7036H34.9896L35.5499 16.1135H37.6495L34.8919 9.82608C34.6474 9.26867 34.1004 8.90918 33.4968 8.90918ZM32.5656 13.2112L33.4811 10.9079L34.3966 13.2112H32.5658H32.5656Z" fill="#5DA9A2"/>
<path d="M40.2482 9.92807C40.2482 9.36535 39.7965 8.90918 39.2393 8.90918C38.6822 8.90918 38.2305 9.36535 38.2305 9.92807V15.0946C38.2305 15.6573 38.6822 16.1135 39.2393 16.1135C39.7965 16.1135 40.2482 15.6573 40.2482 15.0946V9.92807Z" fill="#5DA9A2"/>
<path d="M42.1044 21.9271H28.2934C27.1872 21.9271 26.2871 21.0182 26.2871 19.901V5.95428C26.2871 4.83711 27.1872 3.92822 28.2934 3.92822H42.1044C43.2107 3.92822 44.1107 4.83711 44.1107 5.95428V19.901C44.1107 21.0182 43.2107 21.9271 42.1044 21.9271ZM28.2934 5.46466C28.0261 5.46466 27.8086 5.68427 27.8086 5.95428V19.901C27.8086 20.171 28.0261 20.3906 28.2934 20.3906H42.1044C42.3718 20.3906 42.5893 20.171 42.5893 19.901V5.95428C42.5893 5.68427 42.3718 5.46466 42.1044 5.46466H28.2934Z" fill="#5DA9A2"/>
<path d="M29.3564 5.46448C28.9362 5.46448 28.5957 5.12062 28.5957 4.69626V0.76822C28.5957 0.344058 28.9362 0 29.3564 0C29.7767 0 30.1172 0.343862 30.1172 0.76822V4.69626C30.1172 5.12042 29.7767 5.46448 29.3564 5.46448Z" fill="#5DA9A2"/>
<path d="M33.251 5.46448C32.8308 5.46448 32.4902 5.12062 32.4902 4.69626V0.76822C32.4902 0.344058 32.8308 0 33.251 0C33.6712 0 34.0117 0.343862 34.0117 0.76822V4.69626C34.0117 5.12042 33.6712 5.46448 33.251 5.46448Z" fill="#5DA9A2"/>
<path d="M37.1455 5.46448C36.7253 5.46448 36.3848 5.12062 36.3848 4.69626V0.76822C36.3848 0.344058 36.7253 0 37.1455 0C37.5657 0 37.9062 0.343862 37.9062 0.76822V4.69626C37.9062 5.12042 37.5657 5.46448 37.1455 5.46448Z" fill="#5DA9A2"/>
<path d="M41.04 5.46448C40.6198 5.46448 40.2793 5.12062 40.2793 4.69626V0.76822C40.2793 0.344058 40.6198 0 41.04 0C41.4603 0 41.8008 0.343862 41.8008 0.76822V4.69626C41.8008 5.12042 41.4603 5.46448 41.04 5.46448Z" fill="#5DA9A2"/>
<path d="M29.3564 25.8551C28.9362 25.8551 28.5957 25.5112 28.5957 25.0869V21.1588C28.5957 20.7347 28.9362 20.3906 29.3564 20.3906C29.7767 20.3906 30.1172 20.7345 30.1172 21.1588V25.0869C30.1172 25.511 29.7767 25.8551 29.3564 25.8551Z" fill="#5DA9A2"/>
<path d="M33.251 25.8551C32.8308 25.8551 32.4902 25.5112 32.4902 25.0869V21.1588C32.4902 20.7347 32.8308 20.3906 33.251 20.3906C33.6712 20.3906 34.0117 20.7345 34.0117 21.1588V25.0869C34.0117 25.511 33.6712 25.8551 33.251 25.8551Z" fill="#5DA9A2"/>
<path d="M37.1455 25.8551C36.7253 25.8551 36.3848 25.5112 36.3848 25.0869V21.1588C36.3848 20.7347 36.7253 20.3906 37.1455 20.3906C37.5657 20.3906 37.9062 20.7345 37.9062 21.1588V25.0869C37.9062 25.511 37.5657 25.8551 37.1455 25.8551Z" fill="#5DA9A2"/>
<path d="M41.04 25.8551C40.6198 25.8551 40.2793 25.5112 40.2793 25.0869V21.1588C40.2793 20.7347 40.6198 20.3906 41.04 20.3906C41.4603 20.3906 41.8008 20.7345 41.8008 21.1588V25.0869C41.8008 25.511 41.4603 25.8551 41.04 25.8551Z" fill="#5DA9A2"/>
<path d="M47.2384 19.595H43.3486C42.9284 19.595 42.5879 19.2512 42.5879 18.8268C42.5879 18.4025 42.9284 18.0586 43.3486 18.0586H47.2384C47.6587 18.0586 47.9992 18.4025 47.9992 18.8268C47.9992 19.2512 47.6587 19.595 47.2384 19.595Z" fill="#5DA9A2"/>
<path d="M47.2384 15.6624H43.3486C42.9284 15.6624 42.5879 15.3186 42.5879 14.8942C42.5879 14.4698 42.9284 14.126 43.3486 14.126H47.2384C47.6587 14.126 47.9992 14.4698 47.9992 14.8942C47.9992 15.3186 47.6587 15.6624 47.2384 15.6624Z" fill="#5DA9A2"/>
<path d="M47.2384 11.7293H43.3486C42.9284 11.7293 42.5879 11.3854 42.5879 10.9611C42.5879 10.5367 42.9284 10.1929 43.3486 10.1929H47.2384C47.6587 10.1929 47.9992 10.5367 47.9992 10.9611C47.9992 11.3854 47.6587 11.7293 47.2384 11.7293Z" fill="#5DA9A2"/>
<path d="M47.2384 7.79669H43.3486C42.9284 7.79669 42.5879 7.45283 42.5879 7.02847C42.5879 6.60412 42.9284 6.26025 43.3486 6.26025H47.2384C47.6587 6.26025 47.9992 6.60412 47.9992 7.02847C47.9992 7.45283 47.6587 7.79669 47.2384 7.79669Z" fill="#5DA9A2"/>
<path d="M27.047 19.595H23.1572C22.737 19.595 22.3965 19.2512 22.3965 18.8268C22.3965 18.4025 22.737 18.0586 23.1572 18.0586H27.047C27.4673 18.0586 27.8078 18.4025 27.8078 18.8268C27.8078 19.2512 27.4673 19.595 27.047 19.595Z" fill="#5DA9A2"/>
<path d="M27.047 15.6624H23.1572C22.737 15.6624 22.3965 15.3186 22.3965 14.8942C22.3965 14.4698 22.737 14.126 23.1572 14.126H27.047C27.4673 14.126 27.8078 14.4698 27.8078 14.8942C27.8078 15.3186 27.4673 15.6624 27.047 15.6624Z" fill="#5DA9A2"/>
<path d="M27.047 11.7293H23.1572C22.737 11.7293 22.3965 11.3854 22.3965 10.9611C22.3965 10.5367 22.737 10.1929 23.1572 10.1929H27.047C27.4673 10.1929 27.8078 10.5367 27.8078 10.9611C27.8078 11.3854 27.4673 11.7293 27.047 11.7293Z" fill="#5DA9A2"/>
<path d="M27.047 7.79669H23.1572C22.737 7.79669 22.3965 7.45283 22.3965 7.02847C22.3965 6.60412 22.737 6.26025 23.1572 6.26025H27.047C27.4673 6.26025 27.8078 6.60412 27.8078 7.02847C27.8078 7.45283 27.4673 7.79669 27.047 7.79669Z" fill="#5DA9A2"/>
</g>
<defs>
<clipPath id="clip0_2455_1404">
<rect width="48" height="58" fill="white"/>
</clipPath>
</defs>
</svg>
