<svg width="38" height="50" viewBox="0 0 38 50" fill="none" xmlns="http://www.w3.org/2000/svg">
<g clip-path="url(#clip0_2455_907)">
<path d="M22.6988 35.8957C21.704 35.8856 20.7185 35.8085 19.7412 35.6183C18.79 35.4333 17.9212 35.0659 16.9931 34.822C16.4149 34.6699 15.8336 34.9697 15.2731 35.1421C14.3485 35.4263 13.4238 35.7105 12.4991 35.9947C12.0217 36.1413 11.2604 36.5152 10.8009 36.4666C10.9552 36.5301 11.1093 36.5938 11.2636 36.6573C11.2198 36.6069 11.1758 36.5565 11.132 36.5061C11.1957 36.6595 11.2597 36.8131 11.3235 36.9668C11.2854 36.4831 11.5284 35.8648 11.6432 35.3727C11.8363 34.5461 12.0294 33.7195 12.2225 32.8929C12.2663 32.7052 12.3333 32.5093 12.3568 32.3175C12.4299 31.7254 11.9661 31.443 11.6076 31.0242C10.6344 29.8867 9.87035 28.5536 9.4163 27.1279C7.75304 21.9047 10.4601 16.5892 15.0598 13.9194C19.7521 11.1958 25.9005 11.2426 30.5472 14.0434C34.8919 16.662 37.4941 21.7056 36.1023 26.7244C34.4869 32.5498 28.4828 35.8494 22.6986 35.8962C21.8572 35.9029 21.8551 37.2055 22.6986 37.1988C27.7392 37.1581 32.7537 34.9528 35.6471 30.7411C38.3714 26.7755 38.4757 21.5147 35.901 17.4499C30.3716 8.72054 16.3698 8.37015 10.1583 16.5049C6.38635 21.4447 7.01308 28.1441 11.2679 32.5843C11.2119 32.3731 11.1558 32.1619 11.0998 31.9506C10.7961 33.2501 10.4925 34.5497 10.1892 35.8492C10.0662 36.3762 9.84357 36.9455 10.2064 37.4278C10.5967 37.9468 11.1436 37.7746 11.6541 37.6176C13.1506 37.1576 14.6471 36.6977 16.1436 36.2377C16.3142 36.1853 16.5654 36.0563 16.744 36.0532C16.9309 36.0498 16.7172 36.1237 16.7907 36.1354C17.1833 36.1975 17.6026 36.4241 17.9883 36.5357C19.5193 36.9787 21.1061 37.1825 22.6986 37.1988C23.5406 37.2073 23.5413 35.9048 22.6986 35.8962L22.6988 35.8957Z" fill="#5DA9A2"/>
<path d="M11.6609 38.3715L11.468 37.9077C10.9917 38.0376 10.4328 38.1058 10.0241 37.5627C9.72235 37.1615 9.75207 36.7255 9.84034 36.3157L9.2599 36.0767L9.88073 36.1422C9.89208 36.0972 9.90342 36.0527 9.91454 36.0087C9.9327 35.9377 9.95085 35.867 9.96719 35.7972L10.7664 32.3756C6.68627 27.7955 6.33229 21.1404 9.97672 16.3676C12.9942 12.4157 18.0396 10.1969 23.4857 10.4343C28.7911 10.6652 33.5036 13.2426 36.092 17.3288C38.7273 21.4892 38.6259 26.8037 35.8333 30.8683C33.0489 34.9216 28.1523 37.3707 22.7312 37.424C22.7196 37.424 22.7083 37.424 22.6974 37.424C22.6851 37.424 22.6733 37.424 22.6613 37.4235C20.9899 37.4039 19.396 37.178 17.9238 36.7519C17.7602 36.7047 17.5932 36.6387 17.4314 36.575C17.2025 36.4849 16.9658 36.3916 16.7543 36.3579L16.6105 36.3351L16.6012 36.3105C16.5356 36.3308 16.4675 36.3572 16.4074 36.381C16.3364 36.4088 16.2685 36.435 16.2095 36.453L11.7203 37.8327C11.6876 37.8428 11.6545 37.853 11.6207 37.8632L11.6609 38.3712V38.3715ZM10.2676 36.4917C10.2127 36.7847 10.2116 37.0578 10.3874 37.2916C10.6146 37.5943 10.8946 37.5914 11.2928 37.4866L11.0055 36.7957L10.2674 36.4914L10.2676 36.4917ZM11.5544 37.0221L11.5844 37.4021L16.0761 36.0215C16.1256 36.0064 16.1823 35.9838 16.2417 35.9605C16.3985 35.8993 16.5764 35.8297 16.7391 35.8268C16.8819 35.8268 16.9706 35.8668 17.0182 35.9526C17.2141 36.0037 17.409 36.0803 17.5989 36.1551C17.7575 36.2176 17.9075 36.2768 18.0507 36.3184C19.2647 36.6697 20.5646 36.8809 21.9252 36.9491C21.8692 36.828 21.8401 36.6943 21.839 36.5606C21.8376 36.4013 21.8755 36.2407 21.9513 36.1008C21.1446 36.0631 20.4015 35.977 19.6965 35.8399C19.1169 35.7272 18.5644 35.5476 18.03 35.3739C17.6729 35.2577 17.3037 35.1378 16.9338 35.0404C16.544 34.9385 16.136 35.0822 15.7037 35.2347C15.5812 35.2778 15.4596 35.3208 15.3386 35.3578L12.5644 36.2104C12.4376 36.2495 12.2851 36.3071 12.1235 36.3681C11.9452 36.4354 11.7575 36.5061 11.5717 36.5649C11.5669 36.5947 11.5626 36.624 11.5587 36.653L12.0638 37.232L11.554 37.0219L11.5544 37.0221ZM22.6727 36.9719H22.7246C22.8676 36.9672 22.9735 36.9087 23.0398 36.7971C23.1233 36.6563 23.1244 36.4569 23.0425 36.3123C22.972 36.1878 22.8562 36.1239 22.6978 36.1216C22.3756 36.1255 22.2919 36.397 22.2933 36.5572C22.2948 36.7449 22.3956 36.9627 22.6729 36.9722L22.6727 36.9719ZM23.4421 36.0981C23.586 36.3584 23.5955 36.6828 23.4714 36.9491C28.4457 36.6923 32.886 34.3588 35.4594 30.6133C38.1494 26.6978 38.2472 21.578 35.7087 17.5699C33.1995 13.609 28.6232 11.1102 23.4666 10.8859C18.1741 10.6534 13.266 12.807 10.3386 16.6414C6.89094 21.1564 7.15961 27.4234 10.8943 31.8316L11.0854 31.0133L11.7124 33.375L11.1396 32.7772L10.515 35.4511L11.1716 36.2075C11.1759 36.2066 11.18 36.2057 11.1843 36.2045C11.222 36.0462 11.2667 35.8892 11.3094 35.7394C11.3509 35.5943 11.3911 35.4532 11.4219 35.3214L12.0012 32.8416C12.0162 32.777 12.0341 32.7115 12.0518 32.6455C12.0856 32.5204 12.1176 32.4025 12.1317 32.2897C12.1732 31.9531 12.0008 31.7591 11.6922 31.4453C11.6057 31.3574 11.5174 31.2675 11.4349 31.1706C10.4249 29.9902 9.65223 28.6158 9.19977 27.1961C7.59596 22.1583 9.95856 16.6186 14.9452 13.7238C19.7455 10.9378 25.9157 10.9873 30.6645 13.8498C35.4013 16.7046 37.6745 21.9026 36.3209 26.7841C35.544 29.5856 33.7341 31.9656 31.0868 33.6669C28.8619 35.0964 26.173 35.9483 23.4426 36.0984L23.4421 36.0981ZM10.3368 36.1903L10.7727 36.2364L10.4895 35.5575L10.4094 35.8998C10.3924 35.9727 10.3736 36.0464 10.3545 36.1207C10.3486 36.1442 10.3425 36.167 10.3368 36.1903ZM22.6963 12.1191C20.082 12.1191 17.4664 12.7833 15.1734 14.1144C10.3713 16.9016 8.09267 22.225 9.63181 27.0597C10.0659 28.4224 10.8088 29.7428 11.7798 30.8776C11.8555 30.9666 11.9366 31.0488 12.016 31.1292C12.3137 31.4324 12.6516 31.776 12.5812 32.3449C12.5635 32.4892 12.5258 32.6284 12.4895 32.763C12.473 32.824 12.4564 32.8846 12.4426 32.9442L11.8633 35.424C11.8308 35.5623 11.7888 35.7107 11.7453 35.8627C11.728 35.9239 11.7105 35.9849 11.6935 36.0462C11.7857 36.013 11.8769 35.9786 11.9631 35.9461C12.1315 35.8826 12.2905 35.8223 12.431 35.7794L15.2052 34.9268C15.3203 34.8913 15.4362 34.8504 15.5526 34.8091C16.0309 34.6408 16.5263 34.4664 17.05 34.604C17.4328 34.7045 17.8083 34.8265 18.1714 34.9446C18.6926 35.1143 19.2318 35.2894 19.7836 35.3969C20.6722 35.5699 21.6255 35.6592 22.6981 35.6703C30.0575 35.6097 34.6915 30.9598 35.8828 26.6643C37.1816 21.9801 34.9897 16.9857 30.429 14.2368C28.0888 12.8262 25.3929 12.1196 22.696 12.1196L22.6963 12.1191Z" fill="#5DA9A2"/>
<path d="M0.883846 42.7113H29.4098C30.2517 42.7113 30.253 41.4087 29.4098 41.4087H0.883846C0.0420031 41.4087 0.0406417 42.7113 0.883846 42.7113Z" fill="#010101"/>
<path d="M29.4102 42.9373H0.884251C0.320603 42.9373 0.0253906 42.4961 0.0253906 42.0603C0.0253906 41.6245 0.320603 41.1826 0.884251 41.1826H29.4102C29.9739 41.1826 30.2691 41.6238 30.2691 42.0596C30.2691 42.4954 29.9739 42.9373 29.4102 42.9373ZM0.884251 41.6347C0.585409 41.6347 0.479214 41.8642 0.479214 42.0605C0.479214 42.2568 0.585409 42.4857 0.884251 42.4857H29.4102C29.7091 42.4857 29.8153 42.2561 29.8153 42.0598C29.8153 41.8635 29.7091 41.6347 29.4102 41.6347H0.884251Z" fill="black"/>
<path d="M13.1026 46.1385H17.1884C18.0302 46.1385 18.0316 44.8359 17.1884 44.8359H13.1026C12.2608 44.8359 12.2594 46.1385 13.1026 46.1385Z" fill="#010101"/>
<path d="M17.1888 46.3643H13.103C12.5391 46.3643 12.2441 45.9233 12.2441 45.4875C12.2441 45.0517 12.5391 44.6099 13.103 44.6099H17.1888C17.7524 44.6099 18.0476 45.0508 18.0476 45.4866C18.0476 45.9224 17.7524 46.3643 17.1888 46.3643ZM13.103 45.0619C12.8042 45.0619 12.698 45.2914 12.698 45.4878C12.698 45.6841 12.8042 45.9127 13.103 45.9127H17.1888C17.4876 45.9127 17.5938 45.6832 17.5938 45.4868C17.5938 45.2905 17.4876 45.0619 17.1888 45.0619H13.103Z" fill="black"/>
<path d="M29.4098 7.08057H0.883846C0.0420031 7.08057 0.0406417 8.38316 0.883846 8.38316H29.4098C30.2517 8.38316 30.253 7.08057 29.4098 7.08057Z" fill="#010101"/>
<path d="M29.4102 8.60891H0.884251C0.320603 8.60891 0.0253906 8.16793 0.0253906 7.73215C0.0253906 7.29637 0.320603 6.85449 0.884251 6.85449H29.4102C29.9739 6.85449 30.2691 7.29547 30.2691 7.73125C30.2691 8.16703 29.9739 8.60891 29.4102 8.60891ZM0.884251 7.30654C0.585409 7.30654 0.479214 7.53606 0.479214 7.73238C0.479214 7.92869 0.585409 8.15732 0.884251 8.15732H29.4102C29.7091 8.15732 29.8153 7.92779 29.8153 7.73148C29.8153 7.53516 29.7091 7.30654 29.4102 7.30654H0.884251Z" fill="black"/>
<path d="M28.7549 37.9601V43.6198C28.7549 44.4227 28.8287 45.2784 28.5689 46.0492C28.071 47.526 26.6978 48.4287 25.1641 48.4714C21.6494 48.5697 18.118 48.4714 14.6025 48.4714H7.91265C6.76811 48.4714 5.44453 48.6384 4.31406 48.3836C0.888596 47.6116 1.53756 43.6322 1.53756 41.0241V5.46312C1.53756 3.3538 2.87362 1.59667 5.11029 1.52867C6.17609 1.49614 7.24802 1.52867 8.31406 1.52867H22.1146C23.1357 1.52867 24.1627 1.4975 25.1836 1.52867C27.0399 1.5856 28.6118 2.95439 28.7479 4.83735C28.8112 5.71162 28.7552 6.60645 28.7552 7.48185V9.87921C28.7552 10.7173 30.0635 10.7187 30.0635 9.87921V7.12333C30.0635 6.16005 30.1532 5.13465 29.9769 4.18131C29.5067 1.63959 27.2405 0.226074 24.7795 0.226074H5.99139C3.92127 0.226074 1.95417 0.752219 0.856601 2.69956C0.22851 3.81398 0.228964 4.97538 0.228964 6.19326V43.6051C0.228964 44.6682 0.174505 45.714 0.584307 46.7267C1.47267 48.9226 3.54097 49.7745 5.76561 49.7745H24.5947C26.8829 49.7745 28.9848 48.7913 29.7933 46.508C30.1085 45.6182 30.0631 44.6874 30.0631 43.761V37.9603C30.0631 37.1222 28.7547 37.1208 28.7547 37.9603L28.7549 37.9601Z" fill="#010101"/>
<path d="M24.5952 50H5.76607C3.12118 50 1.20628 48.8673 0.373964 46.8111C-0.00928948 45.8631 -0.0038436 44.8843 0.00114845 43.9377L0.00228301 43.6047V6.1931C0.00228301 4.93749 0.00228302 3.75395 0.658966 2.5887C1.64104 0.846711 3.38531 0 5.99184 0H24.7795C27.5637 0 29.742 1.66383 30.2001 4.14025C30.3367 4.87785 30.3188 5.64933 30.3018 6.39529C30.2961 6.6404 30.2905 6.88371 30.2905 7.12317V9.87882C30.2905 10.4402 29.8475 10.7339 29.4098 10.7339C28.9721 10.7339 28.5283 10.4402 28.5283 9.87882V7.48146C28.5283 7.20066 28.5339 6.91804 28.5398 6.63453C28.5519 6.04626 28.5639 5.43811 28.5219 4.853C28.3978 3.14105 26.9598 1.80864 25.1765 1.75419C24.5006 1.73318 23.8087 1.74041 23.1391 1.74719C22.7974 1.7508 22.4557 1.75419 22.1146 1.75419H8.31406C7.95826 1.75419 7.60156 1.75058 7.24485 1.74696C6.54596 1.73973 5.82348 1.7325 5.1171 1.75419C3.14319 1.81428 1.76448 3.3394 1.76448 5.46273V41.0241C1.76448 41.3729 1.75313 41.7398 1.74111 42.1284C1.66305 44.6627 1.57478 47.5349 4.36421 48.1634C5.15046 48.3402 6.04698 48.3057 6.91356 48.2718C7.26096 48.2582 7.58953 48.2456 7.91265 48.2456H14.6022C15.7747 48.2456 16.9682 48.2567 18.1225 48.2675C20.4314 48.2892 22.818 48.3109 25.1577 48.2456C26.6488 48.204 27.9033 47.3137 28.3538 45.9772C28.5546 45.3819 28.5437 44.7105 28.533 44.0613C28.5305 43.9129 28.5283 43.7653 28.5283 43.6199V37.9599C28.5283 37.3987 28.9712 37.1051 29.4089 37.1051C29.8466 37.1051 30.2905 37.3987 30.2905 37.9599L30.2916 44.0708C30.2964 44.8989 30.3009 45.7554 30.008 46.5827C29.2387 48.7543 27.266 50 24.5952 50ZM5.99184 0.45182C3.56434 0.45182 1.94941 1.22308 1.0547 2.80987C0.456106 3.8721 0.456106 4.99849 0.456106 6.19061L0.454972 43.9404C0.44998 44.8849 0.444988 45.7768 0.795112 46.6425C1.81848 49.1709 4.34878 49.5484 5.76607 49.5484H24.595C27.0615 49.5484 28.8784 48.413 29.5795 46.4329C29.8464 45.6795 29.8421 44.8994 29.8375 44.0735L29.8364 43.761V37.9601C29.8364 37.6626 29.6059 37.5571 29.4087 37.5571C29.2115 37.5571 28.9819 37.6626 28.9819 37.9601V43.6201C28.9819 43.7633 28.9844 43.9081 28.9866 44.0543C28.998 44.7417 29.0098 45.4524 28.784 46.1214C28.2721 47.6395 26.8537 48.6506 25.1704 48.6976C22.8223 48.7631 20.4311 48.7412 18.1182 48.7195C16.9651 48.7087 15.7724 48.6976 14.6022 48.6976H7.91265C7.59815 48.6976 7.27435 48.7103 6.93126 48.7236C6.03541 48.7579 5.1087 48.7943 4.26391 48.6043C1.10961 47.8936 1.20809 44.6893 1.28751 42.1148C1.29931 41.7299 1.31066 41.3662 1.31066 41.0244V5.46296C1.31066 3.08164 2.87022 1.37082 5.10349 1.3026C5.81871 1.28068 6.54596 1.28837 7.24939 1.29537C7.60473 1.29921 7.95985 1.3026 8.31406 1.3026H22.1146C22.4541 1.3026 22.7942 1.29898 23.1343 1.29582C23.808 1.28882 24.5044 1.28181 25.1906 1.3026C27.207 1.3645 28.8337 2.87697 28.9744 4.8207C29.0182 5.42659 29.0057 6.04535 28.9934 6.64356C28.988 6.92392 28.9821 7.2036 28.9821 7.48146V9.87882C28.9821 10.1763 29.2126 10.2821 29.4098 10.2821C29.607 10.2821 29.8366 10.1763 29.8366 9.87882V7.12317C29.8366 6.88032 29.8421 6.63362 29.848 6.3849C29.8645 5.66176 29.8818 4.91377 29.7538 4.22181C29.2721 1.61752 26.9083 0.45182 24.7795 0.45182H5.99184Z" fill="black"/>
<path d="M17.639 26.7265C16.4341 25.5048 15.2292 24.2831 14.0243 23.0612V23.9822C15.2292 22.7605 16.4341 21.5387 17.639 20.3168C18.2295 19.7181 17.305 18.7964 16.7139 19.3958C15.509 20.6175 14.3041 21.8392 13.0992 23.0612C12.8501 23.3137 12.8494 23.7287 13.0992 23.9822C14.3041 25.2039 15.509 26.4256 16.7139 27.6476C17.3048 28.2467 18.2297 27.3254 17.639 26.7265Z" fill="#5DA9A2"/>
<path d="M17.1474 28.0683C16.9443 28.0683 16.7351 27.9905 16.5526 27.8058L12.9379 24.1404C12.6014 23.799 12.6014 23.2437 12.9379 22.9026L16.5524 19.2374C16.9447 18.8392 17.4639 18.9374 17.7736 19.2406C18.0888 19.5483 18.1996 20.0715 17.8016 20.475L14.7972 23.5214L17.8016 26.568C18.1996 26.9715 18.0888 27.4944 17.7739 27.8021C17.608 27.9643 17.3818 28.068 17.1471 28.068L17.1474 28.0683ZM13.8805 24.4512L16.8764 27.4893C17.0827 27.698 17.3173 27.6151 17.4562 27.4798C17.5712 27.3675 17.7053 27.1154 17.4778 26.8845L14.4793 23.844L13.8805 24.4512ZM13.7982 22.6756L13.262 23.2193C13.1002 23.3833 13.1002 23.6601 13.262 23.8241L13.7982 24.3679V22.6756ZM13.8805 22.5922L14.4793 23.1994L17.4778 20.1589C17.7053 19.928 17.5712 19.6759 17.456 19.5632C17.3176 19.4281 17.0827 19.3445 16.8764 19.5542L13.8805 22.5922Z" fill="#5DA9A2"/>
<path d="M27.4122 20.3167C28.6171 21.5385 29.822 22.7602 31.0269 23.9821V23.0611C29.822 24.2828 28.6171 25.5045 27.4122 26.7265C26.8218 27.3251 27.7463 28.2469 28.3374 27.6475C29.5423 26.4258 30.7472 25.2041 31.9521 23.9821C32.2012 23.7296 32.2019 23.3146 31.9521 23.0611C30.7472 21.8394 29.5423 20.6177 28.3374 19.3957C27.7465 18.7966 26.8216 19.7178 27.4122 20.3167Z" fill="#5DA9A2"/>
<path d="M27.9044 28.0684C27.67 28.0684 27.444 27.9647 27.2779 27.8025C26.963 27.4946 26.8522 26.9716 27.2502 26.5681L30.2546 23.5215L27.2502 20.4751C26.8522 20.0716 26.9627 19.5487 27.2777 19.241C27.5874 18.9382 28.1064 18.8395 28.4994 19.2376L32.1141 22.903C32.4504 23.2441 32.4504 23.7994 32.1141 24.1405L28.4994 27.8059C28.317 27.9907 28.1075 28.0684 27.9044 28.0684ZM30.5727 23.8441L27.5743 26.8846C27.3467 27.1155 27.4808 27.3676 27.5961 27.4804C27.7342 27.6152 27.9691 27.6981 28.1756 27.4894L31.1717 24.4514L30.5727 23.8441ZM31.2539 22.6755V24.3678L31.7901 23.824C31.9516 23.66 31.9516 23.3833 31.7901 23.2192L31.2539 22.6755ZM27.8997 19.4271C27.7823 19.4271 27.6737 19.487 27.5956 19.5633C27.4803 19.6758 27.3462 19.9277 27.574 20.1588L30.5725 23.1994L31.1715 22.5921L28.1754 19.5541C28.0855 19.463 27.9902 19.4271 27.8997 19.4271Z" fill="#5DA9A2"/>
<path d="M20.5529 29.8275C22.2448 25.8427 23.9369 21.8579 25.6287 17.873C25.9528 17.1099 24.8261 16.4453 24.4989 17.2156C22.8071 21.2005 21.115 25.1853 19.4231 29.1701C19.0991 29.9333 20.2257 30.5979 20.5529 29.8275Z" fill="#5DA9A2"/>
<path d="M20.0743 30.3962C19.9672 30.3962 19.8554 30.3736 19.7435 30.3264C19.3024 30.1407 18.9833 29.6247 19.2137 29.0821L24.2894 17.1276C24.4671 16.7085 24.8858 16.5393 25.3071 16.7169C25.7483 16.9026 26.0673 17.4186 25.837 17.9612L20.7612 29.9157C20.6307 30.2234 20.3702 30.3962 20.0743 30.3962ZM24.9752 17.0984C24.8794 17.0984 24.7755 17.1436 24.7074 17.3036L19.6316 29.2581C19.4998 29.5685 19.721 29.8264 19.92 29.9103C20.0312 29.9568 20.2338 29.9968 20.3432 29.7395L25.419 17.785C25.5508 17.4746 25.3296 17.2166 25.1306 17.1328C25.0884 17.1152 25.0335 17.0984 24.9752 17.0984Z" fill="#5DA9A2"/>
</g>
<defs>
<clipPath id="clip0_2455_907">
<rect width="38" height="50" fill="white"/>
</clipPath>
</defs>
</svg>
