<svg width="39" height="57" viewBox="0 0 39 57" fill="none" xmlns="http://www.w3.org/2000/svg">
<g clip-path="url(#clip0_2455_1141)">
<path d="M19.432 48.2306C19.4129 48.2306 19.3944 48.2306 19.3753 48.2306C15.0493 48.2125 11.5502 46.0767 9.25652 42.0542C7.56594 39.0894 7.13354 36.1655 7.116 36.0424C7.04944 35.5766 7.37738 35.1455 7.84846 35.0799C8.31828 35.0136 8.75506 35.3382 8.82178 35.8039C8.82992 35.8584 9.24462 38.5858 10.7811 41.2595C12.781 44.7394 15.675 46.5118 19.3828 46.5271C19.3993 46.5271 19.4165 46.5271 19.4329 46.5271C23.1911 46.5271 26.0888 44.7677 28.0473 41.2969C29.5669 38.6037 29.931 35.8456 29.9346 35.818C29.9938 35.3515 30.4242 35.0206 30.8959 35.0785C31.3676 35.1366 31.7024 35.5611 31.6443 36.0276C31.6286 36.1516 31.2459 39.0998 29.5786 42.079C27.3258 46.1042 23.8178 48.2306 19.4323 48.2306H19.432Z" fill="#4A4947"/>
<path d="M32.1379 21.6284H6.62032C6.1801 21.6284 5.81082 21.3002 5.76383 20.8674C5.7264 20.5214 4.936 12.5031 11.2025 7.61383C11.0948 7.07781 10.8022 6.18991 10.0294 5.93112C9.67622 5.81295 9.44006 5.48353 9.44428 5.11478C9.44851 4.74602 9.69204 4.42187 10.0479 4.31144C10.141 4.28248 11.9475 3.73484 13.7806 4.11057C13.9834 1.11932 15.9456 0.132154 16.0395 0.0866204C16.3184 -0.0481203 16.649 -0.0244246 16.9049 0.149035C17.1608 0.322494 17.3029 0.618769 17.2763 0.924491C17.0802 3.18814 18.0114 4.62135 18.4266 4.89315C21.5888 4.66827 24.6769 5.52117 27.1438 7.30424C33.8562 12.1563 33.0329 20.5139 32.9946 20.8674C32.9476 21.3001 32.5783 21.6284 32.1381 21.6284H32.1379ZM7.4444 19.9248H31.3142C31.3333 17.8726 30.9261 12.1487 26.1271 8.67983C23.9426 7.10058 21.1863 6.36477 18.3663 6.60699C18.2704 6.61535 18.1735 6.60761 18.0798 6.58407C17.0559 6.32713 16.0705 5.01271 15.6909 3.17373C15.5282 3.69225 15.4375 4.36487 15.5141 5.22706C15.5417 5.53557 15.3976 5.83463 15.1379 6.00794C14.8778 6.18109 14.5436 6.20122 14.2648 6.06059C13.6426 5.74682 12.9174 5.66721 12.2747 5.68285C12.9153 6.70843 12.9799 7.87789 12.9833 7.95347C12.9965 8.23875 12.8643 8.51164 12.6313 8.68014C7.83247 12.1487 7.42529 17.8719 7.4444 19.9251V19.9248Z" fill="#4A4947"/>
<path d="M30.7907 36.7755H24.4715C22.3021 36.7755 20.3903 35.2544 19.9258 33.1588C19.8374 32.7789 19.5149 32.7371 19.3807 32.7371C19.2465 32.7371 18.9239 32.7791 18.8333 33.1677C18.3707 35.2544 16.459 36.7753 14.2895 36.7753H7.97036C5.80087 36.7753 3.88915 35.2543 3.42465 33.1587L2.6272 29.6515C2.24633 27.9767 2.04133 26.2565 2.01799 24.5387C2.00155 23.3111 2.47247 22.1539 3.34462 21.28C4.21646 20.4062 5.38022 19.9248 6.62165 19.9248H32.1392C33.3805 19.9248 34.5443 20.406 35.4163 21.2798C36.2883 22.1536 36.7593 23.311 36.7429 24.5385C36.7199 26.2558 36.5149 27.976 36.1339 29.6515L35.3353 33.163C34.8717 35.2541 32.96 36.7751 30.7905 36.7751L30.7907 36.7755ZM19.3805 31.0335C20.4677 31.0335 21.3621 31.7374 21.6062 32.7851C21.9011 34.1138 23.1051 35.0718 24.4715 35.0718H30.7907C32.1571 35.0718 33.3611 34.1138 33.6536 32.7939L34.453 29.278C34.8078 27.7175 34.9986 26.1153 35.0204 24.5159C35.0305 23.7477 34.7358 23.0234 34.19 22.4765C33.6444 21.9297 32.9159 21.6286 32.1391 21.6286H6.62165C5.84487 21.6286 5.11649 21.9298 4.57071 22.4767C4.02509 23.0235 3.73035 23.7477 3.74069 24.5159C3.7623 26.1159 3.95305 27.7181 4.30792 29.2778L5.10631 32.7893C5.39995 34.1136 6.60395 35.0715 7.97036 35.0715H14.2895C15.6559 35.0715 16.8599 34.1135 17.1526 32.7936C17.3986 31.7371 18.2934 31.0332 19.3805 31.0332V31.0335Z" fill="#5DA9A2"/>
<path d="M7.19728 26.17C6.97694 26.17 6.75643 26.0868 6.58823 25.9205C6.25184 25.5878 6.25184 25.0485 6.58823 24.7158L8.0721 23.2484C8.40849 22.9159 8.95411 22.9159 9.2902 23.2484C9.62659 23.5811 9.62659 24.1204 9.2902 24.453L7.80633 25.9205C7.63814 26.0868 7.41779 26.17 7.19728 26.17Z" fill="#5DA9A2"/>
<path d="M7.59767 29.2018C7.37733 29.2018 7.15682 29.1187 6.98862 28.9523C6.65223 28.6197 6.65223 28.0804 6.98862 27.7477L11.0523 23.7289C11.3884 23.3964 11.9342 23.3964 12.2702 23.7289C12.6066 24.0615 12.6066 24.6008 12.2702 24.9335L8.20657 28.9523C8.03853 29.1187 7.81818 29.2018 7.59767 29.2018Z" fill="#5DA9A2"/>
<path d="M23.3339 21.6285H15.4258C14.9502 21.6285 14.5645 21.2472 14.5645 20.7767V20.7039C14.5645 19.0838 15.8973 17.7656 17.5358 17.7656H21.2242C22.8625 17.7656 24.1954 19.0838 24.1954 20.7039V20.7767C24.1954 21.2472 23.8095 21.6285 23.3339 21.6285ZM16.5676 19.9249H22.1921C21.9629 19.647 21.6142 19.4692 21.2241 19.4692H17.5356C17.1457 19.4692 16.7969 19.647 16.5676 19.9249Z" fill="#5DA9A2"/>
<path d="M2.80976 34.0996C1.84114 34.0996 0.990446 33.396 0.844957 32.4206L0.0213542 26.8865C-0.13823 25.8143 0.61396 24.8136 1.69816 24.656L2.74446 24.5037C3.21585 24.4356 3.65279 24.757 3.72201 25.2225C3.79123 25.6879 3.4658 26.1208 2.99519 26.1892L1.94889 26.3415C1.8045 26.3625 1.70427 26.4957 1.72557 26.6385L2.54917 32.1724C2.56968 32.31 2.6981 32.4078 2.83404 32.3949L4.09348 32.1414C4.56033 32.0478 5.0145 32.3452 5.10924 32.8063C5.20399 33.2673 4.90315 33.7169 4.43692 33.8108L3.14663 34.0705C3.13128 34.0736 3.11593 34.0762 3.10043 34.0785C3.00271 34.0928 2.90577 34.0996 2.80976 34.0996Z" fill="#5DA9A2"/>
<path d="M36.1933 34.0999C36.1 34.0999 36.0063 34.0934 35.9124 34.0804L34.3737 33.897C33.9014 33.8408 33.5646 33.4165 33.6215 32.9495C33.6785 32.4824 34.1074 32.1488 34.5798 32.2057L36.1282 32.3901C36.1357 32.391 36.1432 32.392 36.1507 32.3931C36.2395 32.4064 36.3069 32.3737 36.3471 32.3443C36.3872 32.3148 36.4378 32.2609 36.4509 32.1724L37.2745 26.6385C37.2879 26.5498 37.255 26.4838 37.2252 26.4443C37.1962 26.4058 37.1442 26.3576 37.0592 26.3429L35.7802 26.1923C35.3077 26.1367 34.9704 25.713 35.0266 25.2459C35.0828 24.7788 35.5122 24.4452 35.9836 24.5007L37.2786 24.6529C37.2866 24.6538 37.2946 24.6549 37.3023 24.656C37.8275 24.7325 38.2909 25.0066 38.6077 25.4279C38.9244 25.8493 39.0563 26.3674 38.9789 26.8868L38.1553 32.4205C38.0781 32.9399 37.8007 33.3983 37.3749 33.7115C37.0285 33.9663 36.6174 34.0999 36.1935 34.0999H36.1933Z" fill="#5DA9A2"/>
<path d="M14.9176 7.99011C14.5265 7.99011 14.1726 7.72496 14.0796 7.33205C13.9368 6.72819 13.8129 5.52172 13.7993 5.38605C13.752 4.91802 14.0974 4.50079 14.571 4.45402C15.0424 4.40709 15.4663 4.7489 15.5135 5.21708C15.5476 5.55502 15.6577 6.52391 15.7572 6.94393C15.8654 7.40205 15.5779 7.86032 15.1146 7.96734C15.0485 7.98268 14.9826 7.99011 14.9176 7.99011Z" fill="#4A4947"/>
<path d="M11.663 57.0001C11.3712 57.0001 11.0865 56.8534 10.9247 56.5883C10.679 56.1855 10.8099 55.662 11.2171 55.4188C12.3231 54.7585 13.1315 53.02 13.5548 50.391C13.8953 48.276 13.8486 46.3545 13.8481 46.3353C13.8356 45.8651 14.2107 45.4737 14.6863 45.4612C15.1621 45.4499 15.5574 45.8193 15.5704 46.2895C15.5727 46.3732 15.6224 48.3659 15.2604 50.6326C14.7493 53.8325 13.6886 55.9333 12.1074 56.8771C11.9682 56.9603 11.8147 56.9998 11.6632 56.9998L11.663 57.0001Z" fill="#4A4947"/>
<path d="M27.3307 57C27.179 57 27.0256 56.9605 26.8864 56.8774C25.3053 55.9335 24.2446 53.8327 23.7334 50.6328C23.3713 48.3659 23.4211 46.3733 23.4235 46.2897C23.4362 45.8272 23.8191 45.4609 24.284 45.4609C24.292 45.4609 24.3 45.4609 24.3079 45.4612C24.7832 45.4741 25.1582 45.8653 25.1455 46.3355C25.1451 46.3547 25.0984 48.2762 25.4389 50.3912C25.8622 53.0202 26.6704 54.7587 27.7766 55.4191C28.1839 55.6621 28.3148 56.1857 28.069 56.5885C27.9072 56.8535 27.6223 57.0002 27.3307 57.0003V57Z" fill="#4A4947"/>
</g>
<defs>
<clipPath id="clip0_2455_1141">
<rect width="39" height="57" fill="white"/>
</clipPath>
</defs>
</svg>
