<svg width="40" height="57" viewBox="0 0 40 57" fill="none" xmlns="http://www.w3.org/2000/svg">
<g clip-path="url(#clip0_2446_140)">
<path d="M7.07455 51.2431H5.33808C2.39476 51.2431 0 48.8459 0 45.8995C0 42.9532 2.39476 40.5562 5.33808 40.5562H38.9748C39.4366 40.5562 39.8112 40.9311 39.8112 41.3935C39.8112 41.8558 39.4366 42.2308 38.9748 42.2308H5.33808C3.31708 42.2308 1.6729 43.8766 1.6729 45.8995C1.6729 47.9225 3.31708 49.5685 5.33808 49.5685H7.07455C7.53641 49.5685 7.911 49.9434 7.911 50.4058C7.911 50.8681 7.53641 51.2431 7.07455 51.2431Z" fill="#141414"/>
<path d="M38.6783 51.243H12.8638C12.4019 51.243 12.0273 50.868 12.0273 50.4057C12.0273 49.9433 12.4019 49.5684 12.8638 49.5684H38.6783C39.1402 49.5684 39.5148 49.9433 39.5148 50.4057C39.5148 50.868 39.1402 51.243 38.6783 51.243Z" fill="#141414"/>
<path d="M0.899926 45.2183C0.438067 45.2183 0.0634766 44.8433 0.0634766 44.381V6.00235C0.0634766 2.69263 2.7535 0 6.05984 0H38.6787C39.1406 0 39.5152 0.374972 39.5152 0.837304C39.5152 1.29963 39.1406 1.67461 38.6787 1.67461H6.05984C3.67582 1.67461 1.73638 3.61604 1.73638 6.00235V44.3811C1.73638 44.8435 1.36179 45.2183 0.899926 45.2183Z" fill="#141414"/>
<path d="M39.1636 42.2305C38.7017 42.2305 38.3271 41.8556 38.3271 41.3932V0.837304C38.3271 0.374972 38.7017 0 39.1636 0C39.6255 0 40 0.374972 40 0.837304V41.3932C40 41.8556 39.6255 42.2305 39.1636 42.2305Z" fill="#141414"/>
<path d="M28.803 26.1987H11.3469C10.2327 26.1987 9.32617 25.2912 9.32617 24.1759V13.028C9.32617 11.9127 10.2327 11.0054 11.3469 11.0054H28.803C29.9172 11.0054 30.8236 11.9127 30.8236 13.028V24.1759C30.8236 25.2912 29.9172 26.1987 28.803 26.1987ZM11.347 12.68C11.1552 12.68 10.9992 12.8361 10.9992 13.028V24.1759C10.9992 24.3679 11.1552 24.5241 11.347 24.5241H28.8032C28.9949 24.5241 29.1509 24.3679 29.1509 24.1759V13.028C29.1509 12.8361 28.9949 12.68 28.8032 12.68H11.347Z" fill="#5DA9A2"/>
<path d="M12.864 56.9997C12.6641 56.9997 12.4667 56.9279 12.3109 56.7906L10.4511 55.1505L8.51072 56.8005C8.2623 57.0118 7.9142 57.0595 7.61795 56.9222C7.32213 56.7853 7.13281 56.4886 7.13281 56.1624V45.1503C7.13281 44.688 7.5074 44.313 7.96926 44.313H12.8639C13.3257 44.313 13.7003 44.688 13.7003 45.1503V56.1624C13.7003 56.4914 13.5078 56.7899 13.2082 56.9254C13.098 56.9753 12.9806 56.9997 12.864 56.9997ZM8.80571 45.9876V54.3524L9.91958 53.4051C10.2362 53.1359 10.7022 53.1401 11.0142 53.415L12.0276 54.3087V45.9875H8.80585L8.80571 45.9876Z" fill="#141414"/>
<path d="M38.0693 45.9876H25.1958C24.734 45.9876 24.3594 45.6126 24.3594 45.1503C24.3594 44.688 24.734 44.313 25.1958 44.313H38.0693C38.5312 44.313 38.9058 44.688 38.9058 45.1503C38.9058 45.6126 38.5312 45.9876 38.0693 45.9876Z" fill="#141414"/>
<path d="M20.0753 45.9876H16.3804C15.9185 45.9876 15.5439 45.6126 15.5439 45.1503C15.5439 44.688 15.9185 44.313 16.3804 44.313H20.0753C20.5371 44.313 20.9117 44.688 20.9117 45.1503C20.9117 45.6126 20.5371 45.9876 20.0753 45.9876Z" fill="#141414"/>
</g>
<defs>
<clipPath id="clip0_2446_140">
<rect width="40" height="57" fill="white"/>
</clipPath>
</defs>
</svg>
