<svg width="49" height="48" viewBox="0 0 49 48" fill="none" xmlns="http://www.w3.org/2000/svg">
<g clip-path="url(#clip0_2455_661)">
<path d="M7.64835 32.2243C7.28206 32.2243 6.97311 31.9495 6.92917 31.5841C6.38191 27.0361 8.37042 23.81 10.2936 20.6901C11.2226 19.1831 12.1146 17.7362 12.7426 16.1551C10.9621 16.9698 8.83124 17.0658 6.88873 17.1532C5.23849 17.2275 3.6799 17.2977 2.53419 17.7686C2.3368 17.8497 2.11381 17.8393 1.92475 17.7403C0.937558 17.2233 0.627287 16.171 0.353476 15.2425C0.258222 14.9194 0.16828 14.6142 0.0564854 14.3467C-0.0356301 14.1264 -0.0141405 13.8747 0.114073 13.6735C0.892285 12.451 2.08049 11.7181 3.22946 11.0093C4.83695 10.0179 6.2252 9.16147 6.44843 7.12665C6.4762 6.87314 6.63423 6.65262 6.86494 6.54581C7.27747 6.35462 7.69458 6.15494 8.09806 5.96194C9.59726 5.24458 11.1431 4.50493 12.9033 3.97464L12.8902 0.730251C12.8891 0.473717 13.0229 0.23561 13.2419 0.103584C13.461 -0.028199 13.7332 -0.0347458 13.9581 0.0868537C17.5438 2.02565 20.593 4.79698 22.7763 8.1009C25.2624 11.8634 26.5501 16.1314 26.6034 20.7864C26.6412 24.0559 26.0211 27.6116 24.7075 31.6566C24.6105 31.9549 24.3342 32.1572 24.0216 32.1585C18.5651 32.1801 13.1081 32.202 7.65136 32.2244H7.64847L7.64835 32.2243ZM14.0508 13.6625C14.1702 13.6625 14.2903 13.692 14.4003 13.7529C14.6829 13.9094 14.8284 14.2347 14.7571 14.5506C14.1652 17.1736 12.8232 19.3506 11.5255 21.4559C9.75227 24.3327 8.07198 27.0583 8.30824 30.7668C13.3687 30.746 18.4292 30.7258 23.4896 30.7058C24.644 27.0217 25.189 23.7776 25.1545 20.8032C25.1045 16.4333 23.8982 12.4303 21.569 8.9053C19.7381 6.13445 17.2564 3.76078 14.3439 1.98456L14.3542 4.52056C14.3555 4.85093 14.1351 5.14069 13.8173 5.22616C11.9583 5.72625 10.386 6.47876 8.72126 7.27528C8.42921 7.41507 8.13005 7.55825 7.82883 7.69985C7.38999 10.1504 5.58776 11.2621 3.98775 12.249C3.04318 12.8316 2.14532 13.3854 1.53758 14.1692C1.61279 14.389 1.67847 14.6115 1.74269 14.8294C1.91425 15.4112 2.07808 15.9668 2.37205 16.2782C3.67289 15.8416 5.20759 15.7726 6.82377 15.6997C9.3459 15.5861 11.9536 15.4686 13.5381 13.8757C13.6774 13.7356 13.8631 13.6625 14.0508 13.6625Z" fill="#231F20"/>
<path d="M2.27154 47.2532C1.87567 47.2532 1.55236 46.9334 1.54741 46.5348L1.53087 45.1946L1.51759 41.8509C1.51337 40.6263 2.49452 39.6258 3.70446 39.6202L27.1419 39.5254H27.1506C28.3574 39.5254 29.3423 40.5158 29.3478 41.7373L29.3606 45.0757L29.3764 46.4095C29.3811 46.8112 29.0607 47.1407 28.6606 47.1455H28.6519C28.2558 47.1455 27.9324 46.8255 27.9277 46.4267L27.9119 45.0871L27.8991 41.7434C27.8971 41.3222 27.5616 40.9802 27.1506 40.9802H27.1477L3.71086 41.075C3.29905 41.077 2.96488 41.4226 2.96633 41.8455L2.97961 45.1826L2.99615 46.5167C3.00098 46.9183 2.68081 47.2481 2.28071 47.2531H2.27154V47.2532Z" fill="#231F20"/>
<path d="M25.8804 36.5115H6.65991C6.25994 36.5115 5.93555 36.1857 5.93555 35.7841C5.93555 35.3824 6.25994 35.0566 6.65991 35.0566H25.8804C26.2804 35.0566 26.6048 35.3824 26.6048 35.7841C26.6048 36.1857 26.2804 36.5115 25.8804 36.5115Z" fill="#231F20"/>
<path d="M39.5593 48C37.0384 47.9995 34.6678 47.0134 32.8842 45.2234C31.1013 43.4322 30.1195 41.0518 30.1191 38.5204C30.1195 35.9882 31.1016 33.6076 32.8845 31.8168C34.6677 30.0267 37.0379 29.0405 39.5591 29.04C42.0805 29.0405 44.4511 30.0267 46.2344 31.8167C46.2344 31.8167 46.2346 31.8168 46.2348 31.8169C48.0174 33.6082 48.9991 35.9889 48.9991 38.5203C48.9991 41.0517 48.0173 43.4317 46.2348 45.2231C44.4511 47.0135 42.0805 47.9995 39.5593 48ZM39.5591 30.4949C37.425 30.4952 35.4184 31.3302 33.9089 32.8456C32.3996 34.3616 31.5681 36.3769 31.5678 38.5205C31.5681 40.6633 32.3993 42.6785 33.9086 44.1947C35.4184 45.7099 37.4254 46.5448 39.5593 46.5453C41.6936 46.5448 43.7004 45.7099 45.2104 44.1945C46.7192 42.6781 47.5505 40.663 47.5505 38.5204C47.5505 36.3778 46.7192 34.3622 45.2101 32.8455C43.7003 31.3302 41.6933 30.4954 39.5591 30.4949Z" fill="#5DA9A2"/>
<path d="M38.9816 44.2093C38.7462 44.2093 38.5153 44.0942 38.376 43.8821L34.8344 38.4864C34.6144 38.1509 34.7066 37.6998 35.0406 37.4786C35.3747 37.2574 35.8239 37.3501 36.0441 37.6857L39.5857 43.0814C39.8058 43.4169 39.7135 43.868 39.3795 44.0891C39.2567 44.1704 39.1184 44.2093 38.9816 44.2093Z" fill="#5DA9A2"/>
<path d="M38.9798 44.2094C38.8707 44.2094 38.7597 44.1845 38.6554 44.1319C38.2978 43.9518 38.1536 43.5146 38.333 43.1555L42.485 34.8486C42.6643 34.4896 43.0999 34.3445 43.4574 34.5247C43.815 34.7049 43.9593 35.1421 43.7799 35.5012L39.6278 43.8081C39.5007 44.0625 39.2452 44.2094 38.9798 44.2094Z" fill="#5DA9A2"/>
</g>
<defs>
<clipPath id="clip0_2455_661">
<rect width="49" height="48" fill="white"/>
</clipPath>
</defs>
</svg>
