<svg width="52" height="56" viewBox="0 0 52 56" fill="none" xmlns="http://www.w3.org/2000/svg">
<g clip-path="url(#clip0_2446_491)">
<path d="M43.1548 40.756C43.0936 40.756 43.0315 40.7487 42.9696 40.7333C42.7004 40.6666 42.6341 40.5965 41.8234 39.738C40.6233 38.4671 38.1261 35.8226 36.6026 35.1476C34.5767 34.2497 30.3288 34.8638 29.6328 35.1542C29.0651 35.3911 28.1847 36.2526 27.7631 36.7398C27.4896 37.0564 27.0086 37.0935 26.689 36.8217C26.3697 36.5503 26.3324 36.0738 26.6059 35.757C26.7411 35.6003 27.958 34.2137 29.0419 33.7615C30.1237 33.3102 34.8107 32.6982 37.2243 33.7682C39.0281 34.5675 41.57 37.2592 42.9354 38.7052C43.2004 38.9858 43.4737 39.2752 43.5766 39.3715C43.8372 39.5435 43.9735 39.8652 43.8933 40.1835C43.8067 40.5269 43.4961 40.756 43.1548 40.756ZM43.3405 39.2677C43.3405 39.2677 43.3407 39.2677 43.3408 39.2677C43.3408 39.2677 43.3406 39.2677 43.3405 39.2677ZM43.3388 39.2674C43.3388 39.2674 43.3396 39.2676 43.34 39.2676C43.3396 39.2676 43.3392 39.2676 43.3388 39.2674Z" fill="#141414"/>
<path d="M35.6769 48.191H35.6749L16.5513 48.1428C16.3612 48.1423 16.1781 48.0714 16.0379 47.9437L9.26759 41.7772C9.22899 41.7421 9.1942 41.7032 9.16373 41.6609L2.94532 33.0577C2.81581 32.8785 2.77175 32.6522 2.82457 32.4381C2.87739 32.224 3.02188 32.0433 3.22008 31.9437C4.17209 31.4651 7.39074 29.9788 8.85152 30.9445C9.99665 31.7015 11.8142 34.1847 12.3703 34.9657L16.849 36.4775C17.2473 36.6119 17.4602 37.0412 17.3246 37.4361C17.189 37.8312 16.7559 38.0425 16.358 37.9077L11.6436 36.3163C11.4892 36.2642 11.3556 36.1642 11.2628 36.0312C10.6576 35.1648 8.89329 32.788 8.00641 32.2016C7.63935 31.959 6.18987 32.2915 4.71843 32.9171L10.3562 40.7172L16.8508 46.6323L35.6788 46.6798C36.0995 46.6809 36.4398 47.0199 36.4386 47.4373C36.4375 47.8538 36.0967 48.1907 35.6768 48.1907L35.6769 48.191Z" fill="#141414"/>
<path d="M28.3886 42.5238H19.2326C17.2778 42.5238 15.6875 40.9467 15.6875 39.0081C15.6875 37.0695 17.2778 35.4927 19.2326 35.4927H27.185C27.6057 35.4927 27.9468 35.831 27.9468 36.2481C27.9468 36.6653 27.6057 37.0036 27.185 37.0036H19.2326C18.1181 37.0036 17.2111 37.9029 17.2111 39.0081C17.2111 40.1133 18.1181 41.0128 19.2326 41.0128H28.3886C28.8092 41.0128 29.1504 41.3512 29.1504 41.7683C29.1504 42.1855 28.8092 42.5238 28.3886 42.5238Z" fill="#141414"/>
<path d="M33.4533 50.6296C33.2511 50.6296 33.0492 50.5501 32.8994 50.3929C32.6105 50.0895 32.6242 49.6113 32.9301 49.3249L45.5673 37.4893C45.8734 37.2031 46.3553 37.2166 46.6442 37.5198C46.9331 37.8231 46.9194 38.3013 46.6135 38.5877L33.9763 50.4233C33.829 50.5612 33.641 50.6296 33.4533 50.6296Z" fill="#141414"/>
<path d="M38.5683 56.0004C38.3721 56.0004 38.1759 55.9257 38.0269 55.7765L32.9118 50.6542C32.6159 50.3578 32.6183 49.8795 32.9171 49.5859C33.216 49.2924 33.6983 49.2945 33.9945 49.5911L39.1095 54.7134C39.4055 55.0098 39.4031 55.4882 39.1042 55.7818C38.9557 55.9276 38.762 56.0004 38.5683 56.0004Z" fill="#141414"/>
<path d="M51.2383 43.8814C51.0422 43.8814 50.846 43.8066 50.6969 43.6575L45.5817 38.535C45.2858 38.2386 45.2882 37.7602 45.5871 37.4666C45.886 37.1731 46.3682 37.1755 46.6644 37.4719L51.7796 42.5945C52.0756 42.8908 52.0731 43.3692 51.7743 43.6628C51.6257 43.8086 51.4321 43.8814 51.2383 43.8814Z" fill="#141414"/>
<path d="M35.0537 27.7641C34.8957 27.7641 34.7386 27.7153 34.6059 27.6198C34.3712 27.4507 34.2538 27.1642 34.3027 26.8808L35.027 22.6928L31.9586 19.7266C31.751 19.5257 31.6762 19.2256 31.7658 18.9521C31.8553 18.6786 32.0938 18.4793 32.3807 18.438L36.6212 17.8268L38.5175 14.0164C38.6459 13.7585 38.9107 13.5952 39.2007 13.5952C39.4907 13.5952 39.7555 13.7585 39.884 14.0164L41.7804 17.8268L46.0209 18.438C46.3078 18.4793 46.5463 18.6786 46.6358 18.9521C46.7254 19.2257 46.6506 19.5259 46.443 19.7266L43.3746 22.6928L44.0989 26.8808C44.1479 27.1642 44.0304 27.4507 43.7957 27.6198C43.5611 27.7887 43.2501 27.8112 42.9935 27.6772L39.2007 25.6999L35.4081 27.6772C35.2966 27.7354 35.1748 27.7641 35.0537 27.7641ZM39.2007 24.091C39.3225 24.091 39.4443 24.1198 39.5552 24.1777L42.3362 25.6276L41.805 22.5568C41.7627 22.3118 41.8446 22.0616 42.0241 21.8879L44.2741 19.7131L41.1649 19.265C40.9167 19.2292 40.7021 19.0747 40.5912 18.8517L39.2007 16.0579L37.8104 18.8517C37.6995 19.0747 37.485 19.2292 37.2368 19.265L34.1275 19.7131L36.3775 21.8879C36.557 22.0616 36.6389 22.3116 36.5966 22.5568L36.0654 25.6276L38.8462 24.1777C38.9572 24.1198 39.079 24.091 39.2007 24.091Z" fill="#5DA9A2"/>
<path d="M19.1894 27.7641C19.0315 27.7641 18.8743 27.7153 18.7416 27.6198C18.507 27.4507 18.3895 27.1642 18.4384 26.8808L19.1628 22.6928L16.0943 19.7266C15.8867 19.5257 15.8119 19.2256 15.9016 18.9521C15.9911 18.6786 16.2295 18.4793 16.5165 18.438L20.757 17.8268L22.6533 14.0164C22.7816 13.7585 23.0465 13.5952 23.3365 13.5952C23.6265 13.5952 23.8912 13.7585 24.0197 14.0164L25.9161 17.8268L30.1565 18.438C30.4434 18.4793 30.6819 18.6786 30.7714 18.9521C30.861 19.2256 30.7862 19.5259 30.5786 19.7264L27.5103 22.6928L28.2347 26.8808C28.2837 27.1642 28.1661 27.4507 27.9315 27.6198C27.6968 27.7887 27.3859 27.8112 27.1293 27.6772L23.3365 25.6999L19.5438 27.6772C19.4323 27.7354 19.3106 27.7641 19.1894 27.7641ZM23.3365 24.091C23.4582 24.091 23.58 24.1198 23.691 24.1777L26.472 25.6276L25.9407 22.5568C25.8985 22.3118 25.9803 22.0616 26.1599 21.8881L28.4098 19.7131L25.3006 19.265C25.0525 19.2292 24.8379 19.0747 24.7269 18.8517L23.3365 16.0579L21.9462 18.8517C21.8352 19.0747 21.6208 19.2292 21.3725 19.265L18.2632 19.7131L20.5132 21.8879C20.6927 22.0616 20.7746 22.3116 20.7324 22.5568L20.2011 25.6276L22.982 24.1777C23.093 24.1198 23.2147 24.091 23.3365 24.091Z" fill="#5DA9A2"/>
<path d="M3.32517 27.7644C3.16722 27.7644 3.01004 27.7157 2.87735 27.6201C2.64271 27.451 2.52527 27.1646 2.57415 26.8812L3.29851 22.6931L0.230057 19.727C0.0224636 19.5262 -0.052321 19.226 0.0373189 18.9526C0.126832 18.6791 0.365279 18.4798 0.652228 18.4385L4.8926 17.8273L6.789 14.0169C6.91737 13.759 7.18222 13.5957 7.47222 13.5957C7.76222 13.5957 8.02707 13.759 8.15544 14.0169L10.0518 17.8273L14.2921 18.4385C14.579 18.4798 14.8175 18.6791 14.907 18.9526C14.9966 19.226 14.9219 19.5263 14.7143 19.7269L11.6461 22.6932L12.3704 26.8813C12.4194 27.1647 12.3019 27.4512 12.0672 27.6203C11.8327 27.7892 11.5216 27.8116 11.265 27.6777L7.47222 25.7004L3.67954 27.6777C3.56806 27.7358 3.4463 27.7644 3.32517 27.7644ZM7.47222 24.0914C7.59398 24.0914 7.71575 24.1202 7.82672 24.1781L10.6077 25.628L10.0765 22.5571C10.0342 22.3121 10.1161 22.0619 10.2956 21.8884L12.5455 19.7134L9.4363 19.2653C9.1882 19.2296 8.97363 19.075 8.86265 18.8521L7.47222 16.0583L6.08179 18.8521C5.97082 19.0751 5.75637 19.2296 5.50814 19.2653L2.39894 19.7134L4.64895 21.8883C4.82848 22.0619 4.91037 22.312 4.86809 22.5571L4.33686 25.628L7.11772 24.1781C7.22869 24.1202 7.35046 24.0914 7.47222 24.0914Z" fill="#5DA9A2"/>
<path d="M35.4809 14.1686C35.3596 14.1686 35.238 14.1399 35.1265 14.0818L31.3337 12.1045L27.5409 14.0818C27.2843 14.2158 26.9731 14.1934 26.7387 14.0244C26.504 13.8553 26.3866 13.5689 26.4355 13.2855L27.1598 9.09742L24.0914 6.13122C23.8838 5.93039 23.809 5.63022 23.8986 5.35674C23.9882 5.08326 24.2266 4.88395 24.5136 4.84265L28.7541 4.2316L30.6505 0.421171C30.7788 0.163306 31.0437 0 31.3337 0C31.6237 0 31.8885 0.16318 32.0169 0.421171L33.9133 4.2316L38.1537 4.84265C38.4406 4.88395 38.6791 5.08326 38.7686 5.35674C38.8582 5.63022 38.7834 5.93052 38.5758 6.13109L35.5075 9.09742L36.2319 13.2855C36.2809 13.5689 36.1633 13.8553 35.9287 14.0244C35.796 14.12 35.6388 14.1686 35.4809 14.1686ZM31.3337 10.4955C31.4554 10.4955 31.5772 10.5244 31.6882 10.5823L34.4692 12.0321L33.9379 8.96131C33.8956 8.71629 33.9775 8.4661 34.1571 8.2926L36.407 6.11762L33.2978 5.6695C33.0497 5.63374 32.8351 5.47925 32.7241 5.25626L31.3337 2.46231L29.9432 5.25626C29.8323 5.47925 29.6178 5.63374 29.3695 5.6695L26.2603 6.11762L28.5103 8.29247C28.6898 8.4661 28.7717 8.71616 28.7294 8.96131L28.1982 12.0321L30.9792 10.5823C31.0902 10.5244 31.2119 10.4955 31.3337 10.4955Z" fill="#5DA9A2"/>
<path d="M11.3222 14.1687C11.1643 14.1687 11.0071 14.12 10.8744 14.0244C10.6398 13.8553 10.5223 13.5689 10.5712 13.2855L11.2956 9.09742L8.22713 6.13122C8.01953 5.93039 7.94475 5.63022 8.03439 5.35674C8.1239 5.08326 8.36235 4.88395 8.6493 4.84265L12.8898 4.2316L14.7861 0.421171C14.9144 0.163306 15.1793 0 15.4693 0C15.7593 0 16.024 0.16318 16.1525 0.421171L18.0489 4.2316L22.2894 4.84265C22.5764 4.88395 22.8148 5.08326 22.9043 5.35674C22.994 5.63034 22.9192 5.93052 22.7116 6.13122L19.6431 9.09742L20.3675 13.2855C20.4165 13.5689 20.2989 13.8553 20.0643 14.0244C19.8298 14.1933 19.5187 14.2158 19.2621 14.0818L15.4693 12.1045L11.6766 14.0818C11.5651 14.14 11.4434 14.1687 11.3222 14.1687ZM15.4693 10.4957C15.5911 10.4957 15.7128 10.5245 15.8238 10.5824L18.6048 12.0323L18.0735 8.96144C18.0313 8.71641 18.1132 8.46623 18.2927 8.2926L20.5427 6.11774L17.4335 5.66963C17.1853 5.63387 16.9707 5.47938 16.8597 5.25639L15.4693 2.46256L14.079 5.25639C13.968 5.47938 13.7536 5.63387 13.5053 5.66963L10.396 6.11774L12.646 8.2926C12.8256 8.46623 12.9074 8.71629 12.8652 8.96144L12.3339 12.0323L15.1148 10.5824C15.2258 10.5245 15.3475 10.4957 15.4693 10.4957Z" fill="#5DA9A2"/>
</g>
<defs>
<clipPath id="clip0_2446_491">
<rect width="52" height="56" fill="white"/>
</clipPath>
</defs>
</svg>
