<svg width="51" height="57" viewBox="0 0 51 57" fill="none" xmlns="http://www.w3.org/2000/svg">
<g clip-path="url(#clip0_2446_6)">
<path d="M26.4815 38.4761H24.5244V48.9485H26.4815V38.4761Z" fill="#141414"/>
<path d="M36.4013 34.0245L35.4229 35.7339L42.1309 39.6393L43.1093 37.9299L36.4013 34.0245Z" fill="#141414"/>
<path d="M14.8841 34.0072L7.9248 38.0605L8.90362 39.7699L15.8629 35.7165L14.8841 34.0072Z" fill="#141414"/>
<path d="M42.1313 17.482L34.5537 21.8926L35.5319 23.6019L43.1095 19.1913L42.1313 17.482Z" fill="#141414"/>
<path d="M5.24124 20.6406H3.28418V37.1601H5.24124V20.6406Z" fill="#141414"/>
<path d="M8.41801 42.364L7.43945 44.0732L21.4125 52.2096L22.391 50.5003L8.41801 42.364Z" fill="#141414"/>
<path d="M42.672 42.0972L28.4189 50.396L29.3974 52.1053L43.6505 43.8065L42.672 42.0972Z" fill="#141414"/>
<path d="M47.3496 20.6406H45.3926V37.0811H47.3496V20.6406Z" fill="#141414"/>
<path d="M29.4677 5.58315L28.4893 7.29248L42.6723 15.5501L43.6508 13.8408L29.4677 5.58315Z" fill="#141414"/>
<path d="M21.514 5.38105L7.09766 13.7749L8.07616 15.4842L22.4925 7.09037L21.514 5.38105Z" fill="#141414"/>
<path d="M25.5022 9.53147C22.8964 9.53147 20.7764 7.39343 20.7764 4.76557C20.7764 2.13771 22.8964 0 25.5022 0C28.108 0 30.2267 2.13788 30.2267 4.76573C30.2267 7.39359 28.1073 9.53147 25.5022 9.53147ZM25.5022 1.97373C23.9755 1.97373 22.7334 3.22623 22.7334 4.76573C22.7334 6.30524 23.9753 7.5579 25.5022 7.5579C27.029 7.5579 28.2696 6.30541 28.2696 4.76573C28.2696 3.22606 27.0282 1.97373 25.5022 1.97373Z" fill="#141414"/>
<path d="M4.72399 21.6283C3.89877 21.6283 3.08332 21.4071 2.3659 20.9888C0.109409 19.6748 -0.666728 16.7542 0.635858 14.4785C1.47772 13.0084 3.0481 12.0952 4.73394 12.0952C5.55852 12.0952 6.37363 12.3161 7.09155 12.734C8.18473 13.3704 8.9669 14.3986 9.29357 15.6292C9.62007 16.858 9.45241 18.1421 8.8211 19.2451C7.97956 20.7152 6.40967 21.6282 4.72416 21.6282L4.72399 21.6283ZM4.73394 14.0689C3.74497 14.0689 2.82401 14.604 2.33067 15.4655C1.56758 16.7984 2.0226 18.5098 3.34508 19.2798C3.76569 19.525 4.24239 19.6544 4.72416 19.6544C5.7128 19.6544 6.63311 19.1194 7.12628 18.2582C7.49633 17.612 7.59451 16.8596 7.40321 16.1397C7.21174 15.4185 6.75379 14.8162 6.11334 14.4435C5.69241 14.1986 5.21538 14.0689 4.73394 14.0689Z" fill="#141414"/>
<path d="M4.73359 45.8194C3.04791 45.8194 1.4777 44.9062 0.63567 43.4363C0.0040294 42.3336 -0.163789 41.0491 0.163204 39.8194C0.491011 38.5887 1.27367 37.561 2.36685 36.9255C3.08412 36.5074 3.89956 36.2861 4.72429 36.2861C6.40932 36.2861 7.97905 37.1996 8.82075 38.6701C10.1233 40.9458 9.34752 43.8661 7.09136 45.1801C6.37328 45.5984 5.55784 45.8194 4.73359 45.8194ZM4.72413 38.2599C4.24286 38.2599 3.76582 38.3895 3.34489 38.6349C2.70363 39.0076 2.24535 39.6097 2.05323 40.331C1.86177 41.0507 1.96027 41.803 2.33016 42.4489C2.82366 43.3105 3.74462 43.8457 4.73343 43.8457C5.21454 43.8457 5.69141 43.7161 6.1125 43.4708C7.43417 42.7011 7.88886 40.9902 7.12561 39.6569C6.63243 38.7952 5.71228 38.2599 4.72413 38.2599Z" fill="#141414"/>
<path d="M46.2704 45.8194C45.4467 45.8194 44.6316 45.5983 43.913 45.1802C41.6563 43.8664 40.8802 40.9459 42.1826 38.6696C43.0245 37.1998 44.5942 36.2871 46.2797 36.2871C47.1043 36.2871 47.9197 36.5078 48.6378 36.9256C50.8943 38.2393 51.6704 41.1598 50.3685 43.4358C49.5262 44.9062 47.9559 45.8194 46.2704 45.8194ZM46.2797 38.2608C45.2911 38.2608 44.3706 38.7956 43.8776 39.6564C43.1147 40.9897 43.5694 42.7011 44.8913 43.4707C45.3128 43.7159 45.7898 43.8455 46.2706 43.8455C47.2594 43.8455 48.1802 43.3103 48.6737 42.4489C49.4363 41.1158 48.9816 39.4045 47.6598 38.635C47.239 38.3903 46.7616 38.2608 46.2797 38.2608Z" fill="#141414"/>
<path d="M46.2795 21.6285C44.5946 21.6285 43.0246 20.7155 42.1817 19.246C40.8805 16.9683 41.6571 14.0479 43.9123 12.734C44.6292 12.3164 45.4445 12.0957 46.2702 12.0957C47.9559 12.0957 49.5261 13.0089 50.368 14.479C51.6702 16.7553 50.8943 19.6756 48.6381 20.9893C47.9203 21.4074 47.1047 21.6285 46.2795 21.6285ZM46.2702 14.0694C45.7876 14.0694 45.3108 14.1985 44.8911 14.443C43.5695 15.213 43.1143 16.9249 43.8766 18.2592C44.3699 19.1194 45.291 19.6546 46.2793 19.6546C46.7613 19.6546 47.2385 19.525 47.6592 19.2801C48.9811 18.5102 49.4359 16.7993 48.673 15.4657C48.1798 14.6046 47.259 14.0694 46.2702 14.0694Z" fill="#141414"/>
<path d="M26.4805 8.22949H24.5234V18.7018H26.4805V8.22949Z" fill="#141414"/>
<path d="M25.5022 57.0002C22.8964 57.0002 20.7764 54.8625 20.7764 52.2348C20.7764 49.6071 22.8964 47.4688 25.5022 47.4688C28.108 47.4688 30.2278 49.6068 30.2278 52.2348C30.2278 54.8628 28.108 57.0002 25.5022 57.0002ZM25.5022 49.4426C23.9755 49.4426 22.7334 50.6951 22.7334 52.235C22.7334 53.7748 23.9753 55.0267 25.5022 55.0267C27.029 55.0267 28.2708 53.7743 28.2708 52.235C28.2708 50.6956 27.0288 49.4426 25.5022 49.4426Z" fill="#141414"/>
<path d="M9.25757 17.4821L8.2793 19.1914L15.4812 23.3838L16.4595 21.6746L9.25757 17.4821Z" fill="#141414"/>
<path d="M25.5023 34.7891C22.3138 34.7891 19.7197 32.1727 19.7197 28.9567C19.7197 25.7407 22.3138 23.1255 25.5023 23.1255C28.6909 23.1255 31.2838 25.7413 31.2838 28.9567C31.2838 32.1721 28.6902 34.7891 25.5023 34.7891ZM25.5023 25.0992C23.3928 25.0992 21.6768 26.8297 21.6768 28.9567C21.6768 31.0837 23.3928 32.8154 25.5023 32.8154C27.6119 32.8154 29.3268 31.0844 29.3268 28.9567C29.3268 26.829 27.6111 25.0992 25.5023 25.0992Z" fill="#49505A"/>
<path d="M25.5468 40.0134C19.3252 40.0134 13.5748 35.9403 10.5399 29.3839L10.3467 28.9664L10.5399 28.549C13.575 21.9908 19.3253 17.9165 25.5468 17.9165C31.7683 17.9165 37.5239 21.9908 40.557 28.5493L40.7499 28.9664L40.557 29.3835C37.5242 35.9403 31.7727 40.0134 25.5468 40.0134ZM12.5123 28.9664C15.2666 34.5754 20.2246 38.0397 25.5468 38.0397C30.8691 38.0397 35.8323 34.5753 38.5846 28.9664C35.832 23.3559 30.8725 19.8902 25.5468 19.8902C20.2212 19.8902 15.2669 23.3556 12.5123 28.9664Z" fill="#5DA9A2"/>
<path d="M25.5471 35.4472C22.6107 35.4472 19.7072 34.9311 17.1506 33.9547L16.7938 33.8184L16.6226 33.4743C15.921 32.0639 15.5654 30.5466 15.5654 28.9646C15.5654 27.3827 15.9211 25.8641 16.6224 24.4565L16.7935 24.1132L17.1497 23.977C19.7049 22.9992 22.6087 22.4824 25.5473 22.4824C28.4858 22.4824 31.3918 22.9989 33.9479 23.976L34.3048 24.1124L34.4758 24.4566C35.1775 25.8685 35.5331 27.3853 35.5331 28.9646C35.5331 30.544 35.1768 32.0632 34.4744 33.4746L34.3031 33.8184L33.9463 33.9547C31.3904 34.9312 28.4861 35.4472 25.5471 35.4472ZM25.5471 24.6372C23.1821 24.6372 21.258 26.5786 21.258 28.9646C21.258 31.3507 23.1821 33.2919 25.5471 33.2919C27.912 33.2919 29.8392 31.3507 29.8392 28.9646C29.8392 26.5786 27.9137 24.6372 25.5471 24.6372ZM30.3758 24.9692C31.2632 26.0572 31.7963 27.4493 31.7963 28.9646C31.7963 30.48 31.2628 31.8726 30.3753 32.9608C31.2413 32.7721 32.082 32.5327 32.8869 32.2445C33.3443 31.2093 33.5759 30.1079 33.5759 28.9648C33.5759 27.8217 33.3447 26.7218 32.8877 25.6861C32.0827 25.3976 31.2416 25.1578 30.3758 24.9692ZM18.2101 32.2443C19.0151 32.5325 19.8558 32.772 20.7211 32.9605C19.8341 31.8723 19.301 30.4801 19.301 28.9645C19.301 27.4488 19.8339 26.0573 20.7205 24.9693C19.8548 25.158 19.0139 25.398 18.2094 25.6866C17.7533 26.7185 17.5223 27.8196 17.5223 28.9645C17.5223 30.1094 17.7534 31.2099 18.2101 32.2443Z" fill="#5DA9A2"/>
<path d="M25.5471 35.4475C19.4318 35.4475 13.7362 33.2103 10.6831 29.6092L10.1396 28.9683L10.6827 28.3271C13.7359 24.7223 19.4316 22.4829 25.5471 22.4829C31.6626 22.4829 37.3638 24.7223 40.4147 28.3273L40.9571 28.9683L40.4144 29.6091C37.3635 33.2105 31.6667 35.4475 25.5471 35.4475ZM12.7631 28.9676C15.5729 31.7647 20.3721 33.4738 25.5471 33.4738C30.722 33.4738 35.5263 31.7647 38.3347 28.9676C35.5263 26.1675 30.7258 24.4565 25.5471 24.4565C20.3684 24.4565 15.5731 26.1672 12.7631 28.9676Z" fill="#5DA9A2"/>
<path d="M25.5469 35.2657C22.1028 35.2657 19.3008 32.439 19.3008 28.9647C19.3008 25.4904 22.1028 22.6636 25.5469 22.6636C28.991 22.6636 31.7961 25.4903 31.7961 28.9647C31.7961 32.4391 28.9928 35.2657 25.5469 35.2657ZM25.5469 24.6373C23.182 24.6373 21.2578 26.5786 21.2578 28.9647C21.2578 31.3508 23.182 33.2919 25.5469 33.2919C27.9118 33.2919 29.8391 31.3508 29.8391 28.9647C29.8391 26.5786 27.9135 24.6373 25.5469 24.6373Z" fill="#5DA9A2"/>
</g>
<defs>
<clipPath id="clip0_2446_6">
<rect width="51" height="57" fill="white"/>
</clipPath>
</defs>
</svg>
