<svg width="52" height="55" viewBox="0 0 52 55" fill="none" xmlns="http://www.w3.org/2000/svg">
<g clip-path="url(#clip0_2455_1437)">
<path d="M7.98856 53.4315C6.67596 52.078 5.36356 50.7243 4.05096 49.3708C3.50296 48.8055 2.868 48.2473 2.43681 47.5855C1.5518 46.2277 1.50491 44.5686 2.18175 43.118C3.7436 39.77 5.41365 36.452 7.08951 33.1586C8.25564 30.8671 10.8305 30.6427 13.0989 30.1391C14.0045 29.9379 13.6212 28.5566 12.7154 28.7577C10.3653 29.2794 7.75052 29.5844 6.26942 31.7087C5.2225 33.2104 4.54647 35.0684 3.7418 36.7011C2.81651 38.5788 1.87338 40.4488 0.965526 42.3349C-0.26913 44.8996 0.274864 47.5412 2.23324 49.5608C3.81153 51.1886 5.39001 52.8163 6.96829 54.4442C7.61347 55.1095 8.63273 54.0958 7.98836 53.4313L7.98856 53.4315Z" fill="#5DA9A2"/>
<path d="M7.44927 54.9602C7.1932 54.9602 6.94735 54.8534 6.75179 54.6514L2.01694 49.7682C-0.0907104 47.5946 -0.572591 44.8387 0.694324 42.2065C1.30103 40.9455 1.93379 39.6718 2.54551 38.4399C2.85487 37.8169 3.16424 37.1938 3.4716 36.5703C3.71244 36.0817 3.94767 35.5592 4.17508 35.054C4.71607 33.8524 5.27569 32.6099 6.02226 31.5391C7.39817 29.5652 9.64688 29.0965 11.8213 28.6431C12.0996 28.585 12.3763 28.5273 12.6496 28.4666C13.3044 28.3212 13.7772 28.773 13.8894 29.2722C13.9956 29.7441 13.7806 30.2934 13.1641 30.4303C12.875 30.4944 12.5808 30.5543 12.2853 30.6143C10.3311 31.0109 8.31044 31.4211 7.3575 33.2935C5.83792 36.2796 4.08051 39.7574 2.45414 43.2437C1.80375 44.6378 1.89151 46.2002 2.68877 47.4233C3.00194 47.9038 3.44234 48.3407 3.86832 48.7631C4.00357 48.8972 4.13781 49.0305 4.26725 49.164L8.20465 53.2247C8.46292 53.4909 8.55408 53.8391 8.4553 54.1799C8.34871 54.5468 8.04255 54.8422 7.67528 54.9323C7.59954 54.951 7.5238 54.9602 7.44886 54.9602H7.44927ZM12.8894 29.0368C12.8555 29.0368 12.8193 29.0408 12.7808 29.0492C12.5051 29.1104 12.2256 29.1687 11.9449 29.2272C9.88572 29.6566 7.75643 30.1006 6.51656 31.8787C5.80186 32.9039 5.25385 34.1209 4.72409 35.2978C4.49447 35.8075 4.25723 36.3347 4.01178 36.8327C3.70402 37.457 3.39446 38.0804 3.08469 38.7041C2.47377 39.9342 1.84202 41.2064 1.23671 42.4638C0.0838085 44.8588 0.526016 47.3702 2.44993 49.3544L7.18498 54.2376C7.28897 54.345 7.40559 54.3842 7.53121 54.353C7.6889 54.3144 7.83156 54.1751 7.87805 54.0146C7.91752 53.8783 7.88206 53.7519 7.77225 53.6385L3.83466 49.5778C3.70783 49.4471 3.57639 49.3168 3.44395 49.1853C2.99593 48.741 2.53248 48.2812 2.18465 47.7474C1.27458 46.3512 1.1716 44.5737 1.90914 42.9926C3.53952 39.4981 5.29954 36.0148 6.82152 33.0241C7.9055 30.8939 10.0711 30.4544 12.1653 30.0294C12.4572 29.9701 12.7477 29.911 13.0335 29.8478C13.3607 29.7751 13.3226 29.4885 13.3034 29.4023C13.2727 29.2656 13.1487 29.0366 12.8898 29.0366L12.8894 29.0368Z" fill="#5DA9A2"/>
<path d="M38.8746 30.1392C41.089 30.6308 43.6693 30.8477 44.8363 33.0621C45.576 34.4659 46.2416 35.9139 46.9429 37.3369C47.8548 39.1875 48.7835 41.0311 49.6791 42.8895C50.2031 43.9766 50.4355 45.1232 50.1101 46.3134C49.8194 47.3772 49.1353 48.1199 48.3952 48.8835C46.9259 50.3995 45.4564 51.9156 43.9871 53.4316C43.3431 54.0961 44.362 55.1104 45.0072 54.4445C46.4276 52.979 47.848 51.5135 49.2684 50.048C49.9783 49.3154 50.689 48.6105 51.1334 47.674C51.9266 46.002 51.8555 44.1306 51.0755 42.4721C49.4823 39.0849 47.8341 35.6905 46.0988 32.3729C44.7122 29.7222 41.9049 29.3452 39.2583 28.7577C38.3538 28.5569 37.9677 29.9375 38.8748 30.139L38.8746 30.1392Z" fill="#5DA9A2"/>
<path d="M44.531 54.9607C44.2645 54.9607 44.0074 54.8455 43.8173 54.6634C43.4544 54.317 43.3148 53.6949 43.7706 53.2248L48.1787 48.6768C48.9475 47.8836 49.5566 47.2 49.8203 46.2355C50.0976 45.2212 49.9627 44.1689 49.4079 43.0183C48.811 41.7798 48.1891 40.527 47.5876 39.3152C47.282 38.6998 46.9765 38.0844 46.6729 37.4683C46.4391 36.9937 46.2095 36.5166 45.9794 36.039C45.528 35.1017 45.0612 34.1324 44.5701 33.2004C43.6241 31.4055 41.6347 31.0052 39.7106 30.618C39.4064 30.5567 39.1047 30.4962 38.8093 30.4306C38.4599 30.353 38.202 30.1268 38.1021 29.8098C37.9904 29.4567 38.0886 29.0449 38.3517 28.7609C38.6006 28.492 38.9554 28.3849 39.3241 28.4669C39.5529 28.5176 39.7829 28.567 40.0129 28.6161C42.4815 29.1443 45.0343 29.6905 46.3656 32.2357C47.8996 35.1679 49.4828 38.3807 51.3479 42.3461C52.1972 44.152 52.2176 46.0892 51.4052 47.8014C50.9638 48.7323 50.2697 49.447 49.5985 50.1378L45.2239 54.6515C45.0127 54.8693 44.7682 54.9609 44.531 54.9609V54.9607ZM39.0816 29.0365C38.9692 29.0365 38.8729 29.0795 38.7937 29.1648C38.6769 29.291 38.6282 29.4828 38.6751 29.6316C38.7112 29.7458 38.7977 29.8168 38.94 29.8482C39.2315 29.9129 39.5293 29.973 39.8294 30.0333C41.7954 30.4288 44.0237 30.8772 45.102 32.9241C45.5981 33.8654 46.0672 34.8396 46.521 35.7817C46.7503 36.2576 46.9793 36.7331 47.2123 37.206C47.5157 37.8218 47.8208 38.4366 48.1262 39.0513C48.7285 40.2648 49.3512 41.5192 49.9497 42.7609C50.5692 44.0461 50.7163 45.2339 50.3997 46.3918C50.0994 47.4911 49.4119 48.2644 48.6113 49.0907L44.2032 53.6386C43.9263 53.9243 44.2012 54.2026 44.2335 54.2335C44.2821 54.28 44.5376 54.4987 44.7901 54.2377L49.1653 49.7237C49.8319 49.0373 50.4616 48.3891 50.8608 47.5474C51.5957 45.9985 51.5749 44.2413 50.8025 42.5989C48.9411 38.6411 47.3614 35.4357 45.8314 32.5111C44.6304 30.2151 42.3256 29.7217 39.8855 29.1996C39.6539 29.1501 39.4223 29.1006 39.192 29.0494C39.1536 29.0409 39.1165 29.0367 39.081 29.0367L39.0816 29.0365Z" fill="#5DA9A2"/>
<path d="M41.5895 33.656H19.9325C16.8379 33.656 13.7388 33.6082 10.6446 33.656C9.14303 33.6793 8.00255 34.5879 8.14481 36.1608C8.28206 37.6789 8.48743 39.1937 8.65855 40.7082C9.10176 44.6316 9.52673 48.5574 9.98818 52.4786C10.1621 53.9563 11.2661 54.6409 12.6947 54.6548C13.9566 54.6673 15.2195 54.6548 16.4814 54.6548H30.2278C33.3138 54.6548 36.4207 54.76 39.5051 54.6548C40.4604 54.6222 41.4198 54.2237 41.8135 53.2977C41.9732 52.9221 41.9874 52.4826 42.0331 52.0787C42.2371 50.2732 42.4411 48.4677 42.645 46.6621C42.9083 44.3312 43.1716 42.0002 43.4349 39.6692C43.5733 38.4443 43.804 37.1928 43.8538 35.9601C43.9091 34.5945 42.8895 33.7531 41.5895 33.6558C40.6634 33.5866 40.668 35.0192 41.5895 35.0883C42.4859 35.1553 42.4256 35.832 42.3537 36.4688C42.2802 37.12 42.2066 37.771 42.1331 38.4222C41.9033 40.4575 41.6733 42.493 41.4432 44.5283C41.2124 46.5722 40.9816 48.6159 40.7506 50.6596C40.6398 51.6398 40.873 53.0898 39.5812 53.2223C38.7784 53.3047 37.9228 53.2223 37.1169 53.2223H13.7745C13.1227 53.2223 11.7536 53.4288 11.4531 52.678C11.3228 52.3529 11.3599 51.8537 11.321 51.5097C11.2324 50.7264 11.1441 49.9429 11.0555 49.1596C10.8113 46.997 10.5668 44.8341 10.3226 42.6715C10.1148 40.8323 9.90703 38.993 9.69925 37.1538C9.59866 36.2631 9.26886 35.1482 10.5522 35.0883C13.2399 34.9627 15.9643 35.0883 18.6542 35.0883H41.5891C42.5174 35.0883 42.519 33.6558 41.5891 33.6558L41.5895 33.656Z" fill="#5DA9A2"/>
<path d="M36.4082 55.0001C35.3681 55.0001 34.332 54.9883 33.3129 54.9768C32.3003 54.9652 31.2536 54.9535 30.2273 54.9535H16.481C16.0606 54.9535 15.6402 54.9549 15.2199 54.9563C14.3916 54.9591 13.535 54.9617 12.6913 54.9535C10.9893 54.9366 9.86689 54.0244 9.68917 52.5133C9.38161 49.898 9.08526 47.2376 8.79874 44.6649C8.65287 43.3571 8.50721 42.0492 8.35974 40.7413C8.30263 40.2369 8.24192 39.7326 8.18101 39.2278C8.06119 38.2326 7.93717 37.2034 7.8452 36.1876C7.77587 35.4218 7.98125 34.7501 8.43868 34.2456C8.94481 33.6869 9.72664 33.3717 10.6395 33.3576C12.7057 33.3258 14.8067 33.3365 16.8384 33.3469C17.8697 33.3522 18.9012 33.3576 19.9321 33.3576H41.4564C41.5029 33.3544 41.5514 33.3544 41.6003 33.3576C41.6742 33.3584 41.7443 33.3656 41.8102 33.3785C43.2755 33.5663 44.21 34.5884 44.1539 35.9723C44.1199 36.8099 44.0033 37.6602 43.8907 38.4827C43.8358 38.8842 43.7786 39.2994 43.7332 39.7025L42.3314 52.112C42.3232 52.186 42.316 52.2612 42.3086 52.337C42.2739 52.6955 42.238 53.0664 42.0902 53.414C41.698 54.3361 40.7355 54.9115 39.5151 54.9531C38.4848 54.9883 37.4447 54.9999 36.4084 54.9999L36.4082 55.0001ZM16.4808 54.3564H30.2271C31.2568 54.3564 32.3055 54.3684 33.3197 54.3797C35.3474 54.403 37.4443 54.4269 39.494 54.3566C39.9647 54.3405 41.1058 54.1939 41.5359 53.1818C41.6482 52.9184 41.6794 52.5937 41.7097 52.2799C41.7173 52.2011 41.7249 52.1227 41.7337 52.0456L43.1355 39.6361C43.1818 39.2258 43.2393 38.8072 43.2946 38.4021C43.4056 37.5938 43.52 36.7576 43.5528 35.9482C43.5883 35.0734 43.1485 34.5277 42.577 34.2308C42.5831 34.2776 42.5861 34.3247 42.5861 34.3717C42.5861 34.6184 42.5041 34.8667 42.3436 35.0559C42.3815 35.0885 42.4168 35.1241 42.4488 35.1625C42.7608 35.5366 42.7003 36.0718 42.6516 36.5017L41.0487 50.6927C41.029 50.8659 41.0208 51.0575 41.012 51.2605C40.9731 52.157 40.9198 53.3849 39.6116 53.5192C39.054 53.5759 38.4774 53.5572 37.9197 53.5387C37.6412 53.5296 37.3784 53.5208 37.1165 53.5208H13.774C13.6726 53.5208 13.553 53.526 13.4228 53.5318C12.6592 53.5658 11.5043 53.6153 11.1731 52.7883C11.0653 52.5191 11.0529 52.1834 11.042 51.8872C11.0374 51.761 11.0328 51.6419 11.0218 51.5432L9.40004 37.1875C9.38822 37.0841 9.37339 36.9774 9.35836 36.8698C9.27802 36.2924 9.18685 35.638 9.55212 35.2009C9.7627 34.9493 10.0941 34.811 10.5375 34.7905C12.3398 34.7059 14.1818 34.7346 15.963 34.7622C16.8466 34.7758 17.7605 34.7901 18.6537 34.7901H40.6976C40.5746 34.5225 40.5628 34.2163 40.6577 33.9547H19.9319C18.9 33.9547 17.8675 33.9495 16.835 33.9439C14.8061 33.9336 12.7081 33.9227 10.6485 33.9547C9.90436 33.9662 9.27802 34.2113 8.8849 34.6451C8.54207 35.0231 8.38939 35.5382 8.44349 36.1344C8.53466 37.1416 8.65788 38.1662 8.7773 39.157C8.83841 39.6631 8.89912 40.1691 8.95643 40.675C9.1043 41.983 9.24997 43.2911 9.39563 44.5996C9.68236 47.1715 9.9785 49.831 10.2859 52.4445C10.4794 54.0896 11.8794 54.3487 12.6967 54.3568C13.5358 54.365 14.3906 54.3622 15.2173 54.3596C15.6386 54.3582 16.0594 54.3568 16.4806 54.3568L16.4808 54.3564ZM13.7742 52.9239H37.1167C37.3886 52.9239 37.6689 52.9333 37.94 52.9423C38.4774 52.9604 39.0334 52.9787 39.5499 52.9255C40.2885 52.8497 40.3682 52.2364 40.4117 51.235C40.4205 51.0311 40.4297 50.8202 40.4516 50.6264L42.0545 36.4355C42.0904 36.1175 42.135 35.722 41.986 35.5433C41.9128 35.4558 41.7752 35.4031 41.5768 35.3868H18.6539C17.7561 35.3868 16.8398 35.3726 15.9538 35.3589C14.1814 35.3313 12.3492 35.3032 10.5658 35.3864C10.2983 35.3989 10.1127 35.465 10.0146 35.5821C9.8184 35.8165 9.89054 36.3324 9.95385 36.7878C9.96948 36.9004 9.98511 37.0124 9.99733 37.1209L11.6191 51.4765C11.6327 51.5975 11.6377 51.7276 11.6427 51.8653C11.652 52.1132 11.6624 52.3943 11.7317 52.5678C11.9044 53.0003 12.8023 52.9614 13.3965 52.9355C13.5364 52.9295 13.665 52.9239 13.774 52.9239H13.7742ZM41.4754 33.9543C41.3827 33.9642 41.3133 34.0038 41.2653 34.0741C41.1797 34.1984 41.1731 34.3944 41.249 34.551C41.2969 34.6498 41.3965 34.7704 41.6003 34.7895C41.9741 34.7823 41.9852 34.4139 41.9852 34.3715C41.9852 34.3335 41.9764 34.0329 41.7033 33.967C41.6612 33.9618 41.6191 33.9575 41.5774 33.9543H41.4754Z" fill="#5DA9A2"/>
<path d="M2.62651 54.6551H49.3463C50.2746 54.6551 50.2762 53.2227 49.3463 53.2227H2.62651C1.69821 53.2227 1.69661 54.6551 2.62651 54.6551Z" fill="#5DA9A2"/>
<path d="M49.3461 54.9534H2.62633C1.97153 54.9534 1.62891 54.4433 1.62891 53.9391C1.62891 53.4349 1.97153 52.9238 2.62633 52.9238H49.3461C50.0009 52.9238 50.3435 53.434 50.3435 53.9381C50.3435 54.4423 50.0009 54.9534 49.3461 54.9534ZM2.62633 53.5209C2.24123 53.5209 2.23 53.8963 2.23 53.9393C2.23 53.9823 2.24123 54.3567 2.62633 54.3567H49.3461C49.7312 54.3567 49.7424 53.9813 49.7424 53.9383C49.7424 53.8953 49.7312 53.5209 49.3461 53.5209H2.62633Z" fill="#5DA9A2"/>
<path d="M35.3732 9.54716C37.1024 9.75467 43.9641 10.4184 42.3782 13.6033C41.7835 14.7978 40.5485 15.6786 39.439 16.3584C37.7774 17.3769 35.9467 18.0991 34.0736 18.6315C29.438 19.9496 24.4448 20.0978 19.733 19.0869C16.4082 18.3736 12.2926 17.0784 10.0714 14.3225C7.16367 10.7146 14.4602 9.80401 16.6013 9.54696C17.5114 9.43774 17.5226 8.00386 16.6013 8.11448C13.9465 8.43301 6.94026 9.197 7.9986 13.436C8.35485 14.8631 9.54642 15.9798 10.6845 16.8335C12.4563 18.1624 14.5448 19.0754 16.648 19.7498C22.016 21.4712 27.9314 21.6206 33.4026 20.2902C35.6812 19.7361 37.9421 18.916 39.962 17.7187C41.3638 16.8876 42.8503 15.7978 43.6237 14.3261C46.103 9.60904 38.2767 8.46285 35.373 8.11448C34.4533 8.00406 34.4613 9.43754 35.373 9.54696L35.3732 9.54716Z" fill="#010101"/>
<path d="M25.959 21.4736C22.7409 21.4736 19.5423 20.9918 16.5552 20.034C14.0841 19.2417 12.1043 18.2726 10.5029 17.0717C9.4959 16.3165 8.11017 15.1251 7.70664 13.508C7.46099 12.5246 7.60325 11.642 8.12961 10.8848C9.68946 8.63998 14.2424 8.09603 16.4304 7.8346L16.565 7.81849C16.9115 7.7773 17.2072 7.8925 17.3971 8.14378C17.6109 8.4267 17.649 8.84232 17.4939 9.20302C17.3392 9.56333 17.0269 9.79671 16.6369 9.84346C12.5671 10.3317 10.2615 11.1673 9.78423 12.3272C9.57425 12.8376 9.74977 13.4462 10.3058 14.1361C12.0257 16.2703 15.13 17.7943 19.7961 18.7953C24.4975 19.8038 29.4061 19.6482 33.9905 18.3447C36.0432 17.7609 37.7738 17.0282 39.2807 16.1044C40.2968 15.4817 41.5364 14.6194 42.1083 13.4708C42.3617 12.9621 42.3798 12.5228 42.164 12.1281C41.2956 10.5394 36.9813 10.0357 35.5635 9.87012L35.3365 9.84346C34.9464 9.79671 34.634 9.56333 34.4793 9.20342C34.3245 8.84291 34.3625 8.42709 34.5765 8.14398C34.7665 7.8925 35.0616 7.77691 35.4084 7.81829C40.3044 8.40561 43.14 9.5508 44.0779 11.3189C44.5664 12.2395 44.5029 13.2977 43.8899 14.4642C43.0183 16.1223 41.3186 17.2619 40.1156 17.975C38.2374 19.0886 36.0027 19.965 33.4737 20.5801C31.0206 21.1768 28.4838 21.4734 25.959 21.4736ZM16.6995 8.407C16.6802 8.407 16.6596 8.40819 16.6369 8.41098L16.5021 8.42709C14.4015 8.67818 10.0303 9.20044 8.62431 11.2236C8.19433 11.8424 8.08493 12.5427 8.2901 13.3644C8.64775 14.7975 9.9309 15.8947 10.8654 16.5954C12.4122 17.7553 14.3339 18.6944 16.7399 19.466C21.9655 21.1414 27.8575 21.3312 33.3308 20.0004C35.8016 19.3993 37.9807 18.5456 39.8077 17.4625C40.9476 16.7866 42.5561 15.7119 43.357 14.1881C43.8805 13.1919 43.9426 12.3443 43.5461 11.5971C42.7188 10.0372 39.9566 8.96507 35.3365 8.41098C35.1444 8.3879 35.0786 8.47405 35.0572 8.5023C34.9724 8.61431 34.962 8.80631 35.0322 8.96925C35.081 9.08305 35.186 9.22411 35.4084 9.25097L35.6337 9.27743C38.4464 9.60571 41.7907 10.1942 42.6924 11.8434C43.0039 12.4132 42.9887 13.0496 42.6471 13.7354C42.0073 15.0201 40.6807 15.9476 39.5963 16.6121C38.0417 17.5651 36.2618 18.3194 34.1558 18.9182C29.4764 20.2487 24.4669 20.4076 19.6691 19.3784C14.8623 18.3472 11.646 16.7544 9.83633 14.5086C9.13384 13.637 8.92907 12.827 9.22761 12.101C9.99201 10.2432 13.7813 9.58422 16.5648 9.25037C16.7868 9.22371 16.892 9.08226 16.9411 8.96826C17.011 8.80531 17.001 8.61352 16.9165 8.5017C16.8974 8.47683 16.8445 8.4066 16.6993 8.4066L16.6995 8.407Z" fill="#231F20"/>
<path d="M35.2651 18.9703C36.0868 23.2383 33.1757 28.331 29.511 30.464C25.1907 32.9786 20.774 30.1765 18.4622 26.3717C17.1518 24.2152 16.2189 21.508 16.7076 18.9703C16.8811 18.0694 15.491 17.6836 15.3164 18.5895C14.3597 23.5582 17.5603 29.4296 21.9534 31.8244C26.9431 34.5446 32.0821 31.4962 34.7564 27.0945C36.2823 24.5827 37.2209 21.5219 36.6562 18.5893C36.4821 17.6848 35.0914 18.068 35.2651 18.9703Z" fill="#010101"/>
<path d="M25.8636 33.1536C24.4804 33.1536 23.1139 32.7971 21.8098 32.086C17.1204 29.5295 14.0754 23.45 15.0221 18.5334C15.0883 18.1902 15.3019 17.9325 15.6086 17.8267C15.9539 17.7073 16.3692 17.7944 16.666 18.0491C16.9529 18.2952 17.0759 18.6513 17.0038 19.0264C16.4484 21.9108 17.8409 24.7698 18.7203 26.2174C20.9215 29.84 25.1897 32.6334 29.3599 30.2065C32.7313 28.2444 35.7901 23.2834 34.9708 19.0264C34.8987 18.6511 35.0215 18.2948 35.3082 18.0489C35.6046 17.7944 36.0205 17.7073 36.3659 17.8269C36.6727 17.9327 36.8865 18.1904 36.9526 18.5334C37.4736 21.2392 36.7853 24.3343 35.0147 27.2486C33.5805 29.6094 31.5666 31.4402 29.3443 32.4036C28.1902 32.9039 27.0209 33.1536 25.8636 33.1536ZM15.9298 18.3708C15.8863 18.3708 15.8443 18.3772 15.806 18.3903C15.7018 18.4263 15.6387 18.5097 15.6126 18.6454C14.7112 23.3266 17.6207 29.1214 22.0989 31.5628C27.0501 34.2612 31.9976 31.0584 34.4999 26.9404C36.1938 24.1521 36.8552 21.2063 36.3619 18.6454C36.3359 18.5099 36.2726 18.4265 36.1684 18.3905C36.0259 18.3412 35.8338 18.3863 35.7009 18.5005C35.615 18.5741 35.5212 18.7058 35.5613 18.9142C36.4569 23.5657 33.1974 28.6646 29.6639 30.7212C25.1418 33.3532 20.5547 30.3915 18.2056 26.5256C17.2817 25.0048 15.8202 21.994 16.4131 18.9142C16.4532 18.7062 16.359 18.5743 16.273 18.5005C16.1761 18.4174 16.0474 18.3708 15.9298 18.3708Z" fill="#231F20"/>
<path d="M36.1026 23.6695C38.6958 24.0466 41.2887 24.4238 43.8818 24.8008C43.7758 24.4017 43.6696 24.0028 43.5637 23.6037C41.0469 26.2299 38.5303 28.8563 36.0135 31.4826C35.3735 32.1502 36.3919 33.1649 37.0335 32.4954C39.5501 29.8692 42.0669 27.2428 44.5837 24.6166C44.9193 24.2662 44.8312 23.5016 44.2653 23.4195C41.6722 23.0424 39.0793 22.6652 36.4861 22.2882C35.5781 22.1561 35.1859 23.5362 36.1026 23.6695Z" fill="#010101"/>
<path d="M36.5531 33.0135C36.4806 33.0135 36.407 33.0048 36.3335 32.9872C35.967 32.8993 35.6597 32.6053 35.5509 32.2382C35.4491 31.8958 35.5384 31.5456 35.7959 31.277L41.978 24.8255L36.0592 23.9648C35.529 23.8876 35.2133 23.4654 35.291 22.938C35.3707 22.3964 35.8564 21.8951 36.5301 21.9927L43.6941 23.0347L43.7168 23.0108L43.7244 23.039L44.3093 23.124C44.6457 23.1729 44.905 23.3914 45.0202 23.7231C45.1532 24.1053 45.0655 24.5469 44.8018 24.8221L37.2516 32.7011C37.0562 32.9049 36.8098 33.0131 36.5531 33.0131V33.0135ZM42.7063 24.9315L36.2315 31.6887C36.1215 31.8033 36.0864 31.9316 36.1273 32.0695C36.1752 32.2308 36.3181 32.3695 36.4748 32.4069C36.5988 32.4365 36.7132 32.3971 36.816 32.2899L43.7252 25.0797L42.7061 24.9315H42.7063ZM43.8913 23.6668L44.1494 24.6371L44.3662 24.4108C44.4738 24.2986 44.5106 24.0868 44.4521 23.918C44.4109 23.7993 44.3333 23.7308 44.2221 23.7147L43.8915 23.6666L43.8913 23.6668ZM43.2137 24.4021L43.4753 24.4401L43.4106 24.1966L43.2137 24.4021ZM36.3678 22.5781C36.0814 22.5781 35.9147 22.8289 35.8859 23.0247C35.856 23.2273 35.9436 23.3448 36.1466 23.3743L42.4855 24.2961L43.1868 23.5643L36.4429 22.5836C36.4171 22.5799 36.392 22.5781 36.368 22.5781H36.3678Z" fill="#231F20"/>
<path d="M15.4893 22.2882C12.8961 22.6652 10.3032 23.0425 7.71007 23.4195C7.13883 23.5026 7.06329 24.2637 7.39189 24.6166C9.83515 27.2428 12.2784 29.8692 14.7217 32.4955C15.353 33.1741 16.3713 32.1592 15.7417 31.4826C13.2985 28.8562 10.8552 26.2299 8.41195 23.6037C8.30596 24.0028 8.19976 24.4017 8.09377 24.8008C10.6869 24.4238 13.2798 24.0466 15.873 23.6696C16.7883 23.5365 16.3989 22.1559 15.4893 22.2882Z" fill="#010101"/>
<path d="M15.2002 33.0184C14.9417 33.0184 14.6943 32.9069 14.5001 32.6982L7.17033 24.8192C6.91226 24.5418 6.8251 24.0866 6.95834 23.7122C7.07395 23.3871 7.33182 23.1728 7.66563 23.1243L8.2501 23.0393L8.26012 23.0017L8.28957 23.0336L15.4448 21.993C15.8346 21.9365 16.1986 22.0804 16.4435 22.3881C16.6883 22.6959 16.7618 23.1068 16.6304 23.4352C16.5138 23.7267 16.2599 23.9149 15.9157 23.9651L9.96163 24.8309L15.9614 31.2805C16.2169 31.555 16.3012 31.9106 16.193 32.2562C16.0782 32.6236 15.7678 32.9137 15.4028 32.9957C15.3348 33.0108 15.2673 33.0184 15.2002 33.0184ZM8.23307 25.0822L14.9413 32.2934C15.0421 32.4016 15.1497 32.4412 15.2703 32.4135C15.4248 32.3789 15.5683 32.2414 15.6192 32.0791C15.6638 31.9366 15.6304 31.8041 15.52 31.6854L9.24071 24.9356L8.23307 25.0822ZM8.08339 23.6668L7.75299 23.715C7.71172 23.7209 7.58629 23.7392 7.52497 23.9111C7.46587 24.0775 7.50394 24.2985 7.61173 24.4143L7.82432 24.6425L8.08339 23.6668ZM8.56187 24.2058L8.49955 24.4402L8.74641 24.4044L8.56187 24.2058ZM8.78387 23.565L9.46712 24.2995L15.8283 23.3744C16.0191 23.3467 16.0588 23.2474 16.0718 23.2148C16.1239 23.0851 16.0828 22.8973 15.9722 22.7584C15.8945 22.6607 15.7548 22.5519 15.5322 22.5837L8.78387 23.565Z" fill="#231F20"/>
<path d="M16.4484 13.9334C16.8488 11.6176 17.2493 9.30194 17.6496 6.98629C17.8396 5.88785 18.0173 4.78643 18.2195 3.69019C18.4962 2.19006 19.5453 1.64134 20.9685 1.77484C22.2727 1.89719 23.5791 2.05516 24.8871 2.12858C26.6463 2.22746 28.3883 2.02035 30.1358 1.85641C31.6662 1.71296 33.2844 1.54186 33.7178 3.47412C33.9049 4.30854 34.0109 5.16942 34.1566 6.0118C34.6132 8.65255 35.0699 11.2931 35.5263 13.9338C35.683 14.8407 37.0735 14.4561 36.9174 13.553C36.4806 11.0273 36.044 8.50134 35.6072 5.97539C35.4421 5.02021 35.3157 4.04811 35.1101 3.10048C34.7298 1.34768 33.1898 0.198507 31.3977 0.305744C30.0194 0.388311 28.6489 0.593833 27.2706 0.684159C25.3868 0.807512 23.5226 0.581895 21.6509 0.406416C19.9951 0.25123 18.4118 0.279681 17.3767 1.84407C16.8041 2.70973 16.7372 3.83682 16.5646 4.83398C16.0621 7.74033 15.5596 10.6467 15.0571 13.553C14.9012 14.4547 16.2911 14.8421 16.4482 13.9338L16.4484 13.9334Z" fill="#010101"/>
<path d="M15.8477 14.7502C15.5942 14.7502 15.3327 14.6583 15.1244 14.4862C14.8276 14.241 14.6948 13.8823 14.7607 13.5023L16.2681 4.78347C16.2999 4.59944 16.3282 4.41083 16.3566 4.22043C16.4875 3.34462 16.6231 2.43918 17.125 1.68016C18.2735 -0.0555346 20.0784 -0.0410108 21.6787 0.109201C21.916 0.131285 22.1528 0.154563 22.3898 0.177443C23.9825 0.332231 25.6292 0.492191 27.2507 0.386148C27.9109 0.342775 28.5836 0.27135 29.2341 0.202312C29.9354 0.127704 30.6606 0.0507079 31.3795 0.00773344C33.3326 -0.110446 34.9913 1.13621 35.4038 3.03744C35.5427 3.67768 35.6467 4.33483 35.7474 4.97029C35.7979 5.28942 35.8484 5.60795 35.9031 5.92469L37.2133 13.5021C37.279 13.8825 37.1466 14.2412 36.8501 14.4862C36.5477 14.7359 36.1333 14.817 35.7933 14.6923C35.4942 14.5827 35.2888 14.3244 35.2299 13.984L33.8602 6.06197C33.8113 5.77945 33.7668 5.49454 33.7223 5.20924C33.636 4.65654 33.5468 4.08514 33.4244 3.53881C33.0778 1.99371 31.9784 1.98297 30.2081 2.1493L30.1638 2.15347C29.9476 2.17377 29.7313 2.19486 29.5151 2.21575C28.0003 2.36258 26.434 2.51418 24.8698 2.42644C23.9407 2.37432 23.001 2.27862 22.0923 2.1861C21.708 2.14691 21.3239 2.10791 20.9402 2.0719C19.5585 1.94338 18.7432 2.50503 18.515 3.74393C18.3807 4.47171 18.2551 5.21501 18.1335 5.93384C18.0713 6.30171 18.0092 6.66938 17.9455 7.03685L16.7443 13.984C16.6854 14.3246 16.4802 14.5831 16.1811 14.6927C16.0755 14.7313 15.9623 14.7502 15.8477 14.7502ZM20.5306 0.644791C19.2481 0.644791 18.3196 0.961529 17.6275 2.00784C17.1982 2.65683 17.0725 3.49623 16.9511 4.30817C16.9218 4.50314 16.893 4.69613 16.8605 4.88454L15.3532 13.6034C15.3161 13.8171 15.4173 13.9518 15.5087 14.0274C15.6447 14.1396 15.8353 14.183 15.9729 14.1328C16.0701 14.097 16.1286 14.0154 16.1516 13.8833L17.3528 6.93598C17.4162 6.5693 17.4785 6.20223 17.5406 5.83496C17.6624 5.11394 17.7884 4.36865 17.9235 3.63649C18.2096 2.08563 19.3008 1.31786 20.9965 1.47762C21.382 1.51383 21.7677 1.55303 22.1534 1.59222C23.0555 1.68394 23.9884 1.77904 24.9038 1.83037C26.4216 1.91592 27.9644 1.76611 29.4567 1.62147C29.6735 1.60058 29.8905 1.57949 30.1073 1.55919L30.1516 1.55501C31.6534 1.41395 33.5244 1.23848 34.0111 3.40909C34.1381 3.97452 34.2289 4.55587 34.3164 5.11792C34.3605 5.39984 34.4044 5.68156 34.4529 5.9609L35.8226 13.8829C35.8452 14.015 35.9039 14.0966 36.0017 14.1322C36.1384 14.1824 36.3299 14.1394 36.466 14.027C36.5571 13.9518 36.6581 13.8171 36.621 13.603L35.3108 6.02556C35.2557 5.70603 35.2048 5.38452 35.1538 5.06281C35.0544 4.4355 34.9516 3.7867 34.8161 3.16298C34.4677 1.55681 33.0659 0.504726 31.4155 0.603408C30.7106 0.645586 29.9925 0.721986 29.2983 0.795798C28.6417 0.865632 27.9628 0.937654 27.2904 0.981822C25.6197 1.09184 23.9481 0.928701 22.3313 0.771526C22.0951 0.748447 21.8591 0.725567 21.6226 0.703284C21.2327 0.666676 20.8695 0.644791 20.531 0.644791H20.5306Z" fill="#231F20"/>
</g>
<defs>
<clipPath id="clip0_2455_1437">
<rect width="52" height="55" fill="white"/>
</clipPath>
</defs>
</svg>
