<svg width="45" height="47" viewBox="0 0 45 47" fill="none" xmlns="http://www.w3.org/2000/svg">
<path d="M44.1466 20.7488C45.0383 19.8237 45.0121 18.3437 44.089 17.45C42.9294 16.3278 42.3723 15.5189 41.15 15.5474C40.0161 15.5665 39.7854 15.9491 37.2039 18.6451C37.2716 0.282254 37.3234 0.254035 36.6223 0.254035C3.51246 0.25417 3.51367 -0.0450623 3.51367 0.79217V3.48539C2.63771 3.48566 1.7454 3.48606 0.818229 3.48606C-0.108944 3.48606 0.282037 3.51401 0.282037 46.2088C0.282037 47.0456 0.272249 46.7468 27.6443 46.7468C27.9512 46.7468 27.8423 46.8309 30.6693 43.511C31.4932 43.5661 33.1713 43.5149 36.6221 43.5149C37.4261 43.5149 37.1393 43.4092 37.1756 27.971C43.4297 21.4732 40.9702 24.0405 44.1466 20.7488ZM36.0861 42.4389C33.9263 42.4389 32.5226 42.4134 31.6024 42.4159L33.7985 39.8447C33.9523 39.6485 33.9434 38.7018 33.9402 31.334C34.5782 30.6708 35.2947 29.9254 36.0859 29.1034L36.0861 42.4389ZM28.2042 44.7289C28.2036 43.7333 28.1806 42.2569 28.1806 40.0323H32.224L28.2042 44.7289ZM1.35455 45.6708V4.56193H32.8551V23.1432C28.3535 27.7823 25.9703 30.1901 24.7709 31.4903C6.94696 31.4723 6.95339 31.2213 6.95339 32.0296C6.95339 32.8228 6.95567 32.5958 23.8176 32.5699C23.5151 33.0695 23.1279 34.547 21.8934 38.4763C21.7605 38.8956 22.1657 39.2945 22.5834 39.1443C29.509 36.6988 27.2021 38.3408 32.8548 32.4628V38.9554C27.396 38.9445 27.108 38.7819 27.108 39.4947C27.108 42.9175 27.0635 44.7164 27.0982 45.6711H1.35455V45.6708ZM4.58605 1.33017H36.0861V19.8054C35.3239 20.5947 34.6084 21.3344 33.9341 22.0305C33.9308 17.3674 33.9275 11.4877 33.9275 4.02406C33.9275 3.21841 33.7913 3.46376 4.60375 3.48445C4.6122 2.98448 4.58605 2.28873 4.58605 1.33017ZM24.4738 33.9102C25.7615 35.1637 26.54 35.9339 27.0303 36.4095C26.263 36.6723 25.0886 37.1187 23.2391 37.7716C23.8332 35.8804 24.2381 34.6847 24.4738 33.9102ZM28.0478 35.8807L24.9648 32.8889L38.6695 18.6833L41.7557 21.6777L28.0478 35.8805V35.8807ZM43.3754 20.0021L42.507 20.9009C42.0287 20.4262 41.1187 19.5605 39.4113 17.9059C40.2277 17.0288 40.5266 16.6319 41.1672 16.6219C41.8858 16.6462 42.0811 17.0018 43.344 18.2241C43.8416 18.7057 43.8559 19.5035 43.3754 20.0021Z" fill="#141414"/>
<path d="M5.70003 47.0004C1.27024 47.0004 0.507588 46.9325 0.217168 46.6426C0.0810752 46.5068 0.0810752 46.3421 0.0810752 46.2097C0.0810752 33.5885 0.0476889 24.8278 0.0232861 18.431C-0.0269944 5.23036 -0.0322236 3.85043 0.394423 3.42126C0.530382 3.28448 0.690073 3.28448 0.818389 3.28448L3.31271 3.28394V0.792266C3.31271 0.666096 3.31271 0.509157 3.44571 0.37627C3.84729 -0.02508 5.06837 -0.021049 16.7525 0.0167077C21.4593 0.031891 27.9054 0.0527177 36.6223 0.0527177C36.7509 0.0527177 36.9108 0.0527177 37.0473 0.190039C37.475 0.620278 37.4686 2.27136 37.4186 15.1218L37.4071 18.1413C37.5489 17.9925 37.6829 17.8519 37.8096 17.7186C39.7079 15.7238 40.0499 15.3643 41.1469 15.3459C42.253 15.3226 42.8635 15.9347 43.7062 16.7854C43.8682 16.9488 44.0405 17.1228 44.2289 17.3051C44.714 17.7747 44.9878 18.4065 44.9996 19.0841C45.0115 19.7619 44.7599 20.4028 44.2915 20.8889C43.0995 22.1241 42.701 22.5346 42.3382 22.9084C41.7455 23.5187 41.2332 24.0462 37.377 28.0526C37.3679 32.066 37.3805 35.0525 37.3898 37.2373C37.4115 42.3263 37.4152 43.2432 37.0877 43.5729C36.9451 43.7164 36.7663 43.7164 36.6225 43.7164C35.2774 43.7164 34.2037 43.7242 33.3409 43.7304C32.0716 43.7397 31.2731 43.7454 30.7577 43.718L30.0038 44.6044C28.6739 46.1688 27.8945 46.9501 27.6654 46.9484H27.6447C20.4432 46.9484 15.1168 46.969 11.2277 46.9843C8.93393 46.9932 7.12679 47.0003 5.70016 47.0003L5.70003 47.0004ZM10.1202 0.403949C5.42784 0.403949 3.93632 0.455143 3.72956 0.661662C3.71629 0.674965 3.71482 0.713393 3.71482 0.791997V3.68677L0.818255 3.68744C0.726007 3.68744 0.694766 3.68999 0.679212 3.70558C0.370423 4.01623 0.382088 7.06942 0.425262 18.4294C0.449665 24.8264 0.483051 33.5875 0.483051 46.2086C0.483051 46.2997 0.484794 46.3407 0.50075 46.357C0.766231 46.6219 3.19096 46.6124 11.2255 46.5812C15.115 46.566 20.4419 46.5452 27.6442 46.5452H27.6677C27.6677 46.5452 27.6687 46.5452 27.6693 46.5452C27.8212 46.5452 27.9618 46.3841 29.6971 44.3427L30.5818 43.3028L30.6826 43.3096C31.1778 43.3429 31.9908 43.3371 33.3374 43.3272C34.2008 43.3209 35.2754 43.3132 36.622 43.3132C36.7294 43.3132 36.781 43.3097 36.8021 43.2883C37.0118 43.0772 37.0051 41.4876 36.987 37.2388C36.9777 35.0388 36.9649 32.0258 36.9744 27.9704V27.8892L37.0307 27.8308C40.9388 23.7704 41.4534 23.2405 42.0492 22.6269C42.412 22.2533 42.8104 21.8432 44.0017 20.6085C44.3955 20.1999 44.607 19.661 44.5969 19.091C44.5868 18.521 44.3568 17.9896 43.9489 17.5948C43.7584 17.4103 43.5839 17.2343 43.4202 17.069C42.5909 16.2319 42.0868 15.7271 41.1544 15.7486C40.2244 15.7642 39.9825 16.0184 38.1003 17.9964C37.8739 18.2343 37.6247 18.4961 37.3486 18.7845L37.0005 19.1481L37.0158 15.1199C37.0598 3.82234 37.0717 0.785816 36.7619 0.474222C36.7459 0.458099 36.7144 0.455546 36.6217 0.455546C27.9042 0.455546 21.4577 0.434719 16.7506 0.419536C14.0365 0.410802 11.858 0.403681 10.1196 0.403681L10.1202 0.403949ZM27.307 45.8723H1.15346V4.36048H33.0564V23.225L32.9994 23.2837C31.4229 24.9083 30.1062 26.2594 29.0091 27.385C26.9432 29.5047 25.6963 30.7841 24.9187 31.6269L24.8589 31.6916H24.7708C20.5471 31.6873 17.2636 31.6696 14.866 31.6567C9.29006 31.6265 7.41184 31.6165 7.1772 31.8505C7.15669 31.8709 7.15454 31.9205 7.15454 32.0284C7.15454 32.1375 7.15668 32.1869 7.17733 32.2075C7.41251 32.4419 9.29448 32.4316 14.8795 32.4016C17.1899 32.3891 20.0652 32.3737 23.8174 32.3679L24.1752 32.3674L23.9895 32.674C23.7928 32.999 23.5291 33.8584 23.004 35.5704C22.7634 36.3549 22.464 37.3312 22.0853 38.5364C22.046 38.6605 22.0789 38.7887 22.1733 38.8798C22.2665 38.9697 22.3942 38.9974 22.5156 38.954C23.7722 38.5102 24.7168 38.2035 25.476 37.9571C27.3165 37.3596 29.0703 36.1743 30.7376 34.4013C31.2596 33.8462 31.9092 33.1553 32.7103 32.3222L33.0563 31.9625V39.1567L32.8547 39.1563C31.8523 39.1543 31.0242 39.1472 30.3402 39.1414C28.3971 39.1247 27.5105 39.1171 27.3483 39.2783C27.3202 39.3061 27.3094 39.3666 27.3094 39.4941C27.3094 40.9789 27.3011 42.1525 27.2944 43.0954C27.2858 44.3186 27.28 45.1267 27.2995 45.663L27.3071 45.8719L27.307 45.8723ZM1.5557 45.4692H26.8915C26.8791 44.9314 26.8845 44.1733 26.8923 43.0928C26.899 42.1505 26.9073 40.9778 26.9073 39.4944C26.9073 39.3274 26.9195 39.1371 27.0652 38.9924C27.3465 38.7129 27.9216 38.7179 30.3438 38.7386C30.9807 38.7441 31.7428 38.7505 32.6541 38.7531V32.963C32.0108 33.6355 31.4745 34.2059 31.0304 34.6782C28.4829 37.3874 28.4322 37.4217 25.6001 38.341C24.8432 38.5867 23.9013 38.8924 22.6506 39.3341C22.3871 39.4287 22.0972 39.3662 21.8944 39.1704C21.6904 38.9736 21.6168 38.684 21.702 38.4152C22.0799 37.2118 22.3792 36.2363 22.6198 35.4523C23.0524 34.0418 23.3006 33.2327 23.4949 32.7718C19.9011 32.778 17.125 32.7929 14.8819 32.805C8.26447 32.8406 7.24759 32.8462 6.89375 32.4935C6.75243 32.3526 6.75243 32.181 6.75243 32.0294C6.75243 31.8772 6.75243 31.7055 6.89362 31.5648C7.24692 31.2126 8.26232 31.218 14.8682 31.2537C17.2487 31.2665 20.5029 31.2841 24.6834 31.2885C25.4682 30.4415 26.7054 29.1722 28.7214 27.1033C29.805 25.9915 31.1031 24.6595 32.6541 23.0613V4.76357H1.5557V45.4692ZM28.0034 45.2732L28.0031 44.7291C28.0029 44.3408 27.9992 43.8793 27.9948 43.3286C27.988 42.4645 27.9795 41.3891 27.9795 40.0324V39.8308H32.6615L28.0034 45.2732ZM28.3819 40.2339C28.3827 41.4947 28.3906 42.5052 28.3972 43.3256C28.3997 43.6408 28.4019 43.927 28.4035 44.1868L31.7866 40.2339H28.3819ZM36.2872 42.6404H36.0861C34.8515 42.6404 33.8649 42.6321 33.0723 42.6255C32.4794 42.6205 31.9971 42.6166 31.6029 42.6174L31.1645 42.6187L33.6458 39.7137C33.7433 39.5454 33.7425 38.0385 33.7398 32.4323L33.7393 31.2528L36.2873 28.6042V42.6404H36.2872ZM32.0388 42.2149C32.3407 42.2162 32.6842 42.2191 33.0757 42.2224C33.824 42.2287 34.7454 42.2364 35.885 42.2372V29.6029L34.1415 31.4154L34.1419 32.432C34.1453 39.4543 34.1454 39.7285 33.9566 39.9692L32.0387 42.2147L32.0388 42.2149ZM22.9264 38.0956L23.0472 37.7111C23.3603 36.7145 23.6217 35.9083 23.8319 35.2605C24.021 34.6772 24.1704 34.2164 24.2816 33.8514L24.3777 33.5355L24.6141 33.7656C25.3521 34.4839 25.9227 35.0435 26.368 35.4799C26.6995 35.805 26.9612 36.0617 27.1705 36.2646L27.4066 36.4937L27.0957 36.6002C26.7351 36.7236 26.2831 36.8882 25.711 37.0966C25.0747 37.3284 24.2828 37.6169 23.3061 37.9617L22.9265 38.0956H22.9264ZM24.5686 34.2837C24.4714 34.5923 24.3537 34.9555 24.2144 35.3852C24.0323 35.9466 23.8117 36.627 23.5523 37.4471C24.3552 37.1618 25.0226 36.9186 25.5733 36.7181C25.9954 36.5643 26.3523 36.4343 26.6565 36.3267C26.4935 36.1675 26.3051 35.9827 26.0864 35.7683C25.69 35.3796 25.1939 34.8929 24.5686 34.2837ZM28.0525 36.1659L24.6806 32.8938L38.6649 18.3986L42.0401 21.6733L28.0525 36.1659ZM25.2491 32.8844L28.0431 35.5958L41.4713 21.6826L38.6741 18.9687L25.2491 32.8844ZM33.7334 22.5271L33.7331 22.0306C33.7299 17.3675 33.7265 11.4876 33.7265 4.02403C33.7265 3.93776 33.723 3.91062 33.7102 3.89786C33.4214 3.60951 30.7153 3.61824 20.6478 3.65116C16.5317 3.6646 11.4089 3.68126 4.60404 3.6861H4.3993L4.40279 3.48119C4.40708 3.22858 4.40238 2.91766 4.39675 2.55743C4.39126 2.2023 4.38509 1.79987 4.38509 1.33027V1.12872H36.2873V19.8871L36.2308 19.9457C35.4685 20.7351 34.7529 21.4749 34.0785 22.171L33.7334 22.5272V22.5271ZM27.2924 3.23194C32.7597 3.23194 33.6846 3.30329 33.994 3.61246C34.1286 3.74696 34.1286 3.90713 34.1286 4.02416C34.1286 11.2253 34.1317 16.9519 34.1348 21.5339C34.6899 20.9605 35.2722 20.3583 35.8848 19.724V1.53181H4.7876C4.78908 1.91355 4.79417 2.24959 4.79873 2.55111C4.80302 2.8236 4.80677 3.06828 4.80651 3.28273C11.5102 3.27763 16.5713 3.26123 20.6463 3.24793C23.3942 3.23893 25.5693 3.23181 27.2922 3.23181L27.2924 3.23194ZM42.5101 21.1877L42.3655 21.0444C42.1034 20.7841 41.7142 20.4091 41.125 19.8413C40.6463 19.38 40.0396 18.7952 39.2715 18.051L39.1295 17.9134L39.2641 17.7687C39.3425 17.6844 39.4161 17.6046 39.4857 17.5291C40.1603 16.7979 40.499 16.4308 41.164 16.4206C41.8362 16.443 42.1191 16.7253 42.8752 17.4794C43.0473 17.6511 43.2467 17.8498 43.4838 18.0793C43.7631 18.3497 43.9207 18.7133 43.9277 19.1033C43.9347 19.4934 43.79 19.8624 43.5202 20.1423H43.5201L42.5102 21.1877H42.5101ZM39.6927 17.8985C40.3939 18.5776 40.9551 19.1184 41.4038 19.5506C41.8945 20.0236 42.2469 20.3631 42.5035 20.6148L43.2308 19.8621C43.4258 19.6597 43.5304 19.3928 43.5255 19.1103C43.5204 18.8279 43.4064 18.5647 43.2043 18.3692C42.9655 18.1381 42.7649 17.938 42.5914 17.7649C41.8608 17.0363 41.6645 16.8405 41.1604 16.8234C40.6774 16.8311 40.415 17.1155 39.7812 17.8027C39.7524 17.8338 39.7229 17.8658 39.6927 17.8985Z" fill="#141414"/>
</svg>
