<svg width="63" height="58" viewBox="0 0 63 58" fill="none" xmlns="http://www.w3.org/2000/svg">
<g clip-path="url(#clip0_2455_728)">
<path d="M31.3833 58C31.308 58 31.234 57.999 31.1608 57.9969C27.8912 57.9052 25.0442 57.1395 21.3349 55.354C20.0816 54.7505 18.9624 54.1838 17.915 53.6228C17.8936 53.6125 17.8727 53.6015 17.8521 53.5895C17.8256 53.5741 17.7982 53.5595 17.7707 53.5448L17.3904 53.3387C14.8192 52.008 11.3119 51.5764 8.2198 51.3297C7.70515 51.2886 7.32125 50.8401 7.3624 50.3278C7.40354 49.8156 7.85477 49.4353 8.36924 49.4745C11.6516 49.7363 15.3935 50.2044 18.2622 51.692C18.268 51.695 18.2738 51.6982 18.2799 51.7013L18.6589 51.9065C18.6895 51.9229 18.7199 51.9393 18.75 51.9561C18.7554 51.959 18.7609 51.9618 18.7665 51.9647C19.8002 52.5192 20.907 53.0797 22.1498 53.6783C25.6029 55.3403 28.2288 56.0524 31.2138 56.136C34.2656 56.2219 39.857 54.0871 47.3935 49.964C52.4558 47.1943 60.9288 42.5588 61.1281 40.405C61.1371 40.3087 61.158 40.083 60.7472 39.7482C60.2472 39.3406 58.9991 39.0986 55.8958 40.2618C53.3986 41.1978 50.3671 42.7859 47.4355 44.3216C46.3056 44.9136 45.1369 45.5258 44.0158 46.0915C43.5549 46.324 42.9925 46.1406 42.7589 45.6826C42.5253 45.2243 42.7092 44.6642 43.1698 44.4318C44.2783 43.8722 45.4404 43.2635 46.5644 42.6747C53.0522 39.276 59.1805 36.0652 61.9324 38.3084C62.9068 39.1025 63.0457 39.9796 62.9906 40.5755C62.7422 43.2606 58.2561 46.1448 48.2946 51.5949C40.5245 55.8456 34.8372 57.9991 31.3838 57.9993L31.3833 58Z" fill="#1E1E1E"/>
<path d="M39.4349 51.2008C37.8724 51.2008 35.8375 50.5083 33.2933 49.6426C32.5461 49.3885 31.833 49.136 31.1434 48.892C27.8811 47.7378 25.0638 46.7411 21.1073 46.4272C20.5927 46.3865 20.2086 45.9379 20.2496 45.4258C20.2907 44.9135 20.7396 44.5304 21.2561 44.5722C25.4581 44.9055 28.383 45.9403 31.77 47.1385C32.4543 47.3807 33.1621 47.6311 33.8984 47.8816C36.7566 48.8541 39.2256 49.6942 40.1853 49.2035C40.3368 49.1262 40.5282 48.9792 40.6656 48.5259C41.1412 46.9568 37.1789 43.3982 31.1644 40.9848C29.4229 40.2861 27.9311 39.3295 26.4885 38.4043C24.6032 37.1953 22.8224 36.0532 20.8555 35.7962C18.0036 35.424 15.4037 36.0992 13.2365 36.8092C11.5102 37.3746 9.96129 37.8098 8.50152 38.1394C7.99793 38.2531 7.49706 37.9389 7.38281 37.4379C7.26839 36.9367 7.58411 36.4381 8.0877 36.3244C9.48916 36.008 10.9819 35.5883 12.6517 35.0414C14.8808 34.311 17.8554 33.5273 21.099 33.951C23.4825 34.2623 25.4348 35.5145 27.5017 36.84C28.871 37.7181 30.2869 38.6261 31.8636 39.2587C36.7248 41.2094 43.5569 45.4302 42.4561 49.0633C42.2009 49.9052 41.7241 50.5094 41.0393 50.8592C40.574 51.097 40.0398 51.2008 39.4349 51.2008Z" fill="#1E1E1E"/>
<path d="M40.6509 43.046C40.3418 43.046 40.0392 42.8935 39.861 42.6147C39.5838 42.1811 39.7125 41.606 40.1483 41.3302C40.5249 41.0918 40.9052 40.8495 41.2878 40.6059C45.3434 38.0218 49.5372 35.3498 52.5492 35.3457H52.5626C53.909 35.3457 54.9366 35.6898 55.5347 36.3412C55.8833 36.7206 55.8566 37.3092 55.4752 37.656C55.0942 38.0027 54.5025 37.9761 54.1542 37.5968C53.9801 37.4071 53.4727 37.2102 52.5518 37.2068C50.0853 37.21 45.9469 39.8469 42.2958 42.1733C41.9116 42.4181 41.5297 42.6614 41.1516 42.9008C40.996 42.9993 40.8223 43.0462 40.6507 43.0462L40.6509 43.046Z" fill="#1E1E1E"/>
<path d="M37.9711 41.2594C37.6834 41.2594 37.3996 41.1277 37.2164 40.8792C36.9108 40.4648 37.0008 39.8825 37.4173 39.5784C38.1656 39.0321 38.8718 38.4939 39.5546 37.9735C42.2613 35.9107 44.3991 34.2814 46.5682 34.0944C47.1503 34.0438 47.6757 34.0699 48.131 34.1719C48.6349 34.2847 48.9513 34.7827 48.8381 35.284C48.7247 35.7853 48.2247 36.1012 47.7206 35.9875C47.4572 35.9286 47.115 35.9151 46.73 35.9484C45.1035 36.0887 43.059 37.6468 40.6917 39.4509C40.0011 39.9771 39.2872 40.5213 38.5233 41.079C38.3568 41.2007 38.163 41.2594 37.9711 41.2594Z" fill="#1E1E1E"/>
<path d="M35.006 39.567C34.7342 39.567 34.4647 39.4497 34.2799 39.2233C33.9541 38.8245 34.0148 38.2385 34.4155 37.9143C35.2803 37.2148 35.9297 36.6064 36.5028 36.0696C37.72 34.9296 38.5993 34.1061 40.0919 33.8846C40.6632 33.8005 41.1768 33.8009 41.6195 33.8853C42.1267 33.9821 42.4591 34.4697 42.3618 34.9744C42.2649 35.4789 41.7753 35.81 41.2674 35.7133C41.1051 35.6821 40.8169 35.6591 40.3663 35.7256C39.4912 35.8554 38.9423 36.3403 37.7843 37.4248C37.2176 37.9556 36.5122 38.6163 35.595 39.3583C35.4214 39.4986 35.2129 39.5668 35.0055 39.5668L35.006 39.567Z" fill="#1E1E1E"/>
<path d="M7.70146 54.0019H1.52744C0.685171 54.0019 0 53.32 0 52.482V35.5894C0 34.7512 0.685171 34.0693 1.52744 34.0693H7.70129C8.54355 34.0693 9.22872 34.7512 9.22872 35.5894V52.482C9.22872 53.3202 8.54372 54.0019 7.70146 54.0019ZM1.87019 52.1408H7.3587V35.9305H1.87019V52.1408Z" fill="#1E1E1E"/>
<path d="M31.4683 33.9034C30.952 33.9034 30.5332 33.4869 30.5332 32.9729V32.3266C30.5332 31.8125 30.952 31.396 31.4683 31.396C31.9846 31.396 32.4034 31.8125 32.4034 32.3266V32.9729C32.4034 33.4869 31.9846 33.9034 31.4683 33.9034Z" fill="#5DA9A2"/>
<path d="M50.3079 15.6355H49.441C48.9246 15.6355 48.5059 15.219 48.5059 14.705C48.5059 14.191 48.9246 13.7744 49.441 13.7744H50.3079C50.8242 13.7744 51.243 14.191 51.243 14.705C51.243 15.219 50.8242 15.6355 50.3079 15.6355Z" fill="#5DA9A2"/>
<path d="M43.7733 27.8809C43.534 27.8809 43.2947 27.79 43.1121 27.6083L41.8247 26.3272C41.4595 25.9638 41.4595 25.3746 41.8247 25.0112C42.1895 24.648 42.782 24.648 43.1469 25.0112L44.4343 26.2923C44.7995 26.6558 44.7995 27.2449 44.4343 27.6083C44.2519 27.79 44.0125 27.8809 43.7731 27.8809H43.7733Z" fill="#5DA9A2"/>
<path d="M43.9898 3.17568C43.7504 3.17568 43.5112 3.08482 43.3285 2.90311C42.9634 2.53968 42.9634 1.95056 43.3285 1.58713L44.6497 0.272506C45.0145 -0.0909198 45.6069 -0.0907506 45.9721 0.272506C46.3371 0.635931 46.3371 1.22506 45.9721 1.58848L44.6509 2.90311C44.4684 3.08482 44.229 3.17568 43.9897 3.17568H43.9898Z" fill="#5DA9A2"/>
<path d="M13.2084 15.6355H12.3413C11.825 15.6355 11.4062 15.219 11.4062 14.705C11.4062 14.191 11.825 13.7744 12.3413 13.7744H13.2084C13.7248 13.7744 14.1435 14.191 14.1435 14.705C14.1435 15.219 13.7248 15.6355 13.2084 15.6355Z" fill="#5DA9A2"/>
<path d="M18.8745 27.8809C18.6353 27.8809 18.396 27.79 18.2134 27.6083C17.8482 27.2449 17.8482 26.6558 18.2134 26.2923L19.5007 25.0112C19.8656 24.648 20.4581 24.648 20.823 25.0112C21.1881 25.3746 21.1881 25.9638 20.823 26.3272L19.5356 27.6083C19.3531 27.79 19.1139 27.8809 18.8745 27.8809Z" fill="#5DA9A2"/>
<path d="M18.6585 3.17561C18.4193 3.17561 18.1799 3.08476 17.9973 2.90305L16.6762 1.58842C16.311 1.225 16.311 0.635867 16.6762 0.272442C17.0411 -0.090814 17.6336 -0.090814 17.9985 0.272442L19.3195 1.58707C19.6847 1.95049 19.6847 2.53962 19.3195 2.90305C19.1371 3.08476 18.8977 3.17561 18.6583 3.17561H18.6585Z" fill="#5DA9A2"/>
<path d="M31.4695 28.3813C31.3016 28.3813 31.1332 28.3363 30.9843 28.2463L30.6751 28.0595C30.3342 27.8538 27.2716 25.9764 24.2299 23.1531C20.1051 19.325 18.0137 15.6464 18.0137 12.2199C18.0137 8.04845 21.4239 4.65479 25.6155 4.65479C27.9036 4.65479 30.04 5.67755 31.4697 7.39452C32.8989 5.67738 35.0355 4.65479 37.3238 4.65479C41.5154 4.65479 44.9256 8.04845 44.9256 12.2199C44.9256 15.6464 42.8342 19.325 38.7094 23.1531C35.6668 25.9771 32.6031 27.8548 32.2639 28.0597L31.9553 28.2463C31.8062 28.3365 31.638 28.3815 31.4699 28.3815L31.4695 28.3813ZM25.6153 6.5159C22.4549 6.5159 19.8837 9.07477 19.8837 12.2199C19.8837 18.8079 30.002 25.4333 31.4694 26.359C32.9385 25.4323 43.0552 18.8076 43.0552 12.2199C43.0552 9.07477 40.484 6.5159 37.3236 6.5159C35.2262 6.5159 33.2976 7.65609 32.2904 9.49149C32.1265 9.79028 31.8118 9.97606 31.4697 9.97606C31.1276 9.97606 30.8131 9.79028 30.649 9.49166C29.6417 7.65626 27.7128 6.51607 25.6157 6.51607L25.6153 6.5159Z" fill="#5DA9A2"/>
<path d="M39.891 13.1503C39.3747 13.1503 38.9559 12.7337 38.9559 12.2197C38.9559 11.3242 38.2237 10.5955 37.3238 10.5955C36.8074 10.5955 36.3887 10.1789 36.3887 9.66493C36.3887 9.15093 36.8074 8.73438 37.3238 8.73438C39.2548 8.73438 40.8261 10.2979 40.8261 12.2197C40.8261 12.7337 40.4074 13.1503 39.891 13.1503Z" fill="#5DA9A2"/>
</g>
<defs>
<clipPath id="clip0_2455_728">
<rect width="63" height="58" fill="white"/>
</clipPath>
</defs>
</svg>
