<svg width="62" height="61" viewBox="0 0 62 61" fill="none" xmlns="http://www.w3.org/2000/svg">
<g clip-path="url(#clip0_2455_1019)">
<path d="M61.9996 32.2095C61.167 41.9656 55.2976 50.5 47.1061 55.6297C45.4604 56.6603 43.6471 57.6518 41.7923 58.2446C42.6003 59.0211 44.4192 58.8215 43.9156 60.4296C43.7139 61.0737 43.1045 61.0687 42.572 60.9131C41.8614 60.7054 39.1477 59.5122 38.5616 59.1151C38.0199 58.7481 37.8846 58.3106 38.1539 57.689L40.7786 53.7785C42.7052 53.0292 42.748 55.1082 41.5512 56.1247C41.5322 56.2159 41.668 56.2025 41.7296 56.1829C43.3388 55.6698 45.9747 54.008 47.3966 53.014C57.2298 46.1406 62.1941 34.5646 58.965 22.7137C58.7859 22.0562 57.9579 20.0519 58.0284 19.587C58.1506 18.7807 59.2527 18.4614 59.7836 19.0481C60.2769 19.5935 61.1478 22.9724 61.3353 23.8532C61.6164 25.1737 61.9193 26.9109 61.9996 28.2134V32.2093V32.2095Z" fill="#5DA9A2"/>
<path d="M46.645 26.7487C48.5941 26.7259 50.8042 26.4417 50.9945 28.9956C51.0638 29.9267 51.0915 31.7293 50.9898 32.6337C50.7375 34.8767 48.5201 34.8434 46.7664 34.7648C46.6125 35.4659 46.3632 36.1474 46.085 36.8071C45.9185 37.2018 45.103 38.657 45.0773 38.8388C45.0186 39.2559 46.2798 40.1561 46.5649 40.5725C47.7553 42.3098 46.2612 43.7343 45.0619 44.8649C44.0267 45.8408 43.2886 46.7014 41.7432 46.4871C40.6071 46.3295 40.1172 45.0671 39.1951 44.5629C38.4084 44.9026 37.6627 45.3067 36.8623 45.62C36.5413 45.7457 35.0915 46.1341 35.0142 46.1922C34.7775 46.3703 34.9359 47.9171 34.8826 48.3611C34.7706 49.2944 33.9927 50.3437 33.01 50.4832C32.1038 50.6116 28.8501 50.5828 28.0781 50.2329C26.4991 49.5171 27.028 47.7474 26.8545 46.3718C25.8368 45.9792 24.7953 45.6425 23.8016 45.1888C23.3477 44.9815 22.8323 44.4002 22.3679 44.6731C21.3823 45.2522 21.1712 46.6248 19.4844 46.4874C18.1993 46.3828 16.3131 44.2989 15.539 43.2861C14.0458 41.3324 15.8329 40.0412 16.9854 38.6913C16.3413 37.3157 15.6649 35.9481 15.3073 34.4613C13.787 34.417 11.36 34.5553 11.0693 32.5019C10.9471 31.6385 10.9701 29.4107 11.0542 28.5118C11.2661 26.2469 13.5316 26.2823 15.282 26.385C15.4795 25.5639 15.7584 24.7575 16.0844 23.9796C16.2653 23.5482 16.899 22.5976 16.9706 22.3113C17.0588 21.9578 15.93 21.1144 15.6599 20.7639C15.0085 19.9191 14.8617 19.1237 15.3266 18.1355C15.6216 17.5087 17.9631 15.2092 18.5966 14.8691C20.539 13.8264 21.6028 15.3753 22.8742 16.5712C24.2237 15.843 25.6318 15.2027 27.1397 14.8819C27.0626 13.3269 27.0007 10.8606 29.035 10.5422C29.8292 10.418 32.3049 10.4449 33.1421 10.5345C35.2753 10.7629 35.1794 13.1635 35.1938 14.7779C36.6134 15.2915 38.0513 15.7593 39.3356 16.5698C40.7279 15.401 41.836 13.6528 43.8532 15.194C44.4775 15.671 46.5266 17.7812 46.777 18.4437C47.5135 20.3926 46.0622 21.0909 44.9588 22.3581C45.601 23.7869 46.3792 25.1779 46.6453 26.7485L46.645 26.7487ZM33.0812 12.5934C33.0812 12.4111 29.6917 12.4147 29.4505 12.5323C28.7877 12.8555 29.6912 15.6522 28.8516 16.4132C28.4706 16.7586 26.3407 17.1876 25.583 17.5014C24.8315 17.8126 23.1448 18.9694 22.5044 18.8877C21.711 18.7864 20.3067 16.5256 19.7167 16.5829C19.5361 16.6003 17.1679 18.9204 17.1219 19.0959C16.9756 19.6519 19.4839 21.0955 19.3832 22.0706C19.3379 22.5096 18.0544 24.4979 17.7766 25.1885C17.4916 25.8967 17.0587 28.4558 16.2014 28.4558H13.1158C12.9186 29.6878 12.9186 31.0985 13.1158 32.3305H16.3224C16.3883 32.3305 16.9804 32.6809 17.0152 32.8482C17.3684 34.2651 17.7376 35.617 18.374 36.9375C18.5919 37.3898 19.3291 38.2982 19.3853 38.7153C19.514 39.6677 17.5119 40.9832 16.9963 41.7315C16.9662 41.9041 19.0656 44.162 19.3409 44.3248C19.4686 44.4003 19.5319 44.4628 19.7042 44.4459C20.3106 44.3866 21.619 42.0636 22.5593 42.1906C23.0236 42.2534 24.6761 43.3657 25.341 43.6484C26.2707 44.0438 27.4227 44.1857 28.2092 44.532C28.3282 44.5844 28.8461 45.061 28.8461 45.1055V48.2537L29.0276 48.4354H32.6576L32.8392 48.2537V45.1055C32.8392 44.9579 33.1979 44.6234 33.3586 44.5354C33.9782 44.1962 35.5046 43.9893 36.3462 43.6502C37.018 43.3796 38.8437 42.201 39.3312 42.1744C40.1125 42.1317 41.3996 44.1553 42.1535 44.5149L42.3952 44.506L44.9266 42.0538C45.0669 41.5203 42.5883 40.0351 42.6422 39.0603C42.6596 38.7437 43.871 36.848 44.1135 36.2868C44.4882 35.4198 44.764 33.8089 45.1295 33.1864C45.758 32.1162 48.6549 33.1486 48.9937 32.452C49.1387 32.1539 49.1054 29.0491 48.904 28.8476C48.0221 28.3972 45.9018 29.0325 45.1844 28.5134C44.7847 28.2241 44.515 26.5086 44.3038 25.8831C43.9168 24.7368 43.0345 23.636 42.7338 22.7327C42.249 21.2767 44.1518 20.5654 44.8257 19.5611C44.9077 19.439 44.9711 19.385 44.9268 19.2167C44.8817 19.0454 42.6273 16.7314 42.4521 16.7058C41.5932 16.5806 40.51 19.0462 39.3231 18.8877C38.967 18.8401 37.3554 17.7838 36.793 17.5366C35.7628 17.0839 34.6801 16.799 33.6009 16.4929C33.4378 16.4475 33.0815 16.0322 33.0815 15.923V12.5931L33.0812 12.5934Z" fill="black"/>
<path d="M6.1306 23.4552L5.00939 21.1912C4.2831 23.4494 3.32855 25.6979 2.98601 28.0668C2.11892 34.0643 4.31947 41.1151 7.69231 46.0512C13.3276 54.298 23.0181 58.869 32.9947 58.5102C33.7701 58.8193 33.817 60.0533 33.0775 60.359C32.9519 60.4109 31.556 60.5533 31.3253 60.5539C15.4501 60.6025 1.5221 47.743 0.768002 31.7902C0.584205 27.9007 1.67729 24.2773 3.07201 20.7068C2.16272 20.8974 0.995768 22.2197 0.220814 21.0768C-0.419484 20.1326 0.471211 19.6966 1.13333 19.3102C1.74001 18.9561 4.4247 17.5671 4.95233 17.5511C5.45894 17.5356 5.6872 17.7386 5.92207 18.1563C6.63253 19.4195 7.09049 21.047 7.78348 22.3478C8.00704 23.3876 6.9943 24.0033 6.1306 23.4549V23.4552Z" fill="#5DA9A2"/>
<path d="M55.2235 13.804C51.3086 8.78249 45.4954 4.97406 39.3719 3.2092C27.9873 -0.0717173 15.8506 3.80078 8.63576 13.1359C7.4119 13.7236 6.5537 12.836 7.25769 11.6357C8.28223 9.88864 11.7404 6.9319 13.44 5.71365C27.1055 -4.0822 44.9596 -0.690145 55.894 11.378C55.9841 11.4775 56.065 11.6074 56.0722 11.7447C56.2703 11.7774 56.1852 11.5815 56.1918 11.4451C56.2088 11.0938 56.1455 10.6967 56.1984 10.36C56.3861 9.16507 58.0973 9.04002 58.2531 10.7117C58.3366 11.6059 58.3739 14.1112 58.2417 14.9475C58.1353 15.62 57.5762 15.8123 56.9826 15.8672C56.1898 15.9404 52.8459 15.9765 52.2182 15.7821C51.5867 15.5863 51.3198 14.7587 51.712 14.2246C51.785 14.1251 52.1853 13.804 52.2588 13.804H55.2233H55.2235Z" fill="#5DA9A2"/>
<path d="M26.105 25.7129C22.5828 29.1596 23.7632 35.0998 28.3303 36.9026C33.9614 39.1255 39.5505 34.1432 37.6811 28.2717C37.4759 27.627 36.7732 26.9145 37.4946 26.2732C39.1386 24.8122 40.0083 28.7011 40.0969 29.7288C40.7869 37.7231 31.3095 42.4921 25.2142 37.3569C19.3417 32.4093 22.0644 23.0593 29.5449 21.8295C30.3134 21.7032 32.2389 21.4398 32.5428 22.3949C33.0655 24.0378 30.6741 23.6956 29.6681 23.8901C28.4428 24.1269 26.9973 24.8393 26.1049 25.7127L26.105 25.7129Z" fill="black"/>
<path d="M34.6218 22.6645C35.2391 22.5406 36.7491 23.4311 36.8283 24.0474C36.8971 24.5829 36.4849 25.2662 35.9171 25.3042C35.5627 25.328 34.2336 24.5659 34.0621 24.2648C33.7438 23.7059 33.9425 22.8009 34.6218 22.6645Z" fill="black"/>
</g>
<defs>
<clipPath id="clip0_2455_1019">
<rect width="62" height="61" fill="white"/>
</clipPath>
</defs>
</svg>
