<svg width="33" height="41" viewBox="0 0 33 41" fill="none" xmlns="http://www.w3.org/2000/svg">
<g clip-path="url(#clip0_2455_865)">
<path d="M21.0515 22.5799C23.8953 22.6169 26.5008 24.3439 27.4726 26.995C28.4414 29.6377 27.5993 32.6475 25.4014 34.4419C23.1892 36.2483 19.9523 36.4629 17.4997 34.9983C15.0893 33.5588 13.7938 30.7044 14.3518 27.9834C14.9946 24.849 17.8135 22.622 21.0515 22.5799C21.7136 22.5713 21.7154 21.5607 21.0515 21.5694C17.766 21.6122 14.815 23.6027 13.6699 26.6398C12.5334 29.6546 13.5166 33.177 16.0448 35.214C18.5962 37.2697 22.2907 37.5622 25.1229 35.8708C27.9175 34.202 29.3647 30.9541 28.7631 27.8071C28.0722 24.1929 24.752 21.6175 21.0515 21.5694C20.3885 21.5607 20.3882 22.5712 21.0515 22.5799Z" fill="#5DA9A2"/>
<path d="M21.0915 37.1704C19.2383 37.1704 17.3822 36.5633 15.9095 35.3768C13.3078 33.2803 12.3044 29.6576 13.4694 26.5668C14.6229 23.5074 17.6503 21.4187 21.0111 21.3594C21.0246 21.3589 21.0376 21.3589 21.0523 21.3589C21.0672 21.3589 21.0821 21.3589 21.0965 21.3596C24.9674 21.4286 28.2771 24.1181 28.9749 27.7684C29.5957 31.0159 28.0928 34.3441 25.2353 36.0507C23.978 36.8017 22.5355 37.1705 21.0914 37.1705L21.0915 37.1704ZM20.382 21.8174C17.4565 22.1064 14.8912 24.0094 13.8721 26.7128C12.7693 29.6381 13.7192 33.067 16.1819 35.0513C18.6634 37.0507 22.2946 37.314 25.0121 35.691C27.7182 34.075 29.141 30.9223 28.553 27.846C27.9309 24.592 25.1129 22.1448 21.7219 21.8167C21.7488 21.894 21.7629 21.9756 21.7641 22.0571C21.7657 22.1751 21.7388 22.2958 21.6847 22.4046C24.4004 22.6728 26.7607 24.4295 27.6752 26.9238C28.6769 29.6566 27.8186 32.7429 25.5394 34.6041C23.2727 36.4545 19.9215 36.6908 17.389 35.1783C14.9075 33.6963 13.5724 30.7207 14.1423 27.942C14.7539 24.9589 17.3408 22.7139 20.4177 22.4053C20.3274 22.2226 20.3157 22.0071 20.3819 21.8175L20.382 21.8174ZM21.0523 22.7904C17.9052 22.8326 15.1764 25.0337 14.5631 28.025C14.0281 30.6333 15.282 33.4268 17.6122 34.8185C19.9903 36.2388 23.1374 36.0175 25.265 34.2801C27.406 32.532 28.2123 29.633 27.2715 27.0663C26.3476 24.5461 23.8484 22.8282 21.0523 22.7904ZM21.0236 21.7803C20.9289 21.7853 20.8588 21.8243 20.8147 21.8968C20.7551 21.9952 20.7541 22.1354 20.8125 22.2379C20.8611 22.3229 20.9416 22.3673 21.0523 22.3695C21.331 22.364 21.3354 22.0936 21.3351 22.0627C21.3345 22.0165 21.3191 21.7926 21.0812 21.7803C21.0619 21.7801 21.0426 21.7801 21.0237 21.7803H21.0236Z" fill="#5DA9A2"/>
<path d="M21.0519 24.6898C22.7551 24.7235 24.2421 25.5731 25.1161 27.0072C25.4559 27.5648 26.3466 27.0571 26.0054 26.4972C24.9437 24.7551 23.1194 23.7202 21.0519 23.6793C20.3889 23.6661 20.3889 24.6766 21.0519 24.6898Z" fill="#5DA9A2"/>
<path d="M25.5317 27.4593C25.2834 27.4593 25.0652 27.3343 24.9317 27.1151C24.0935 25.7398 22.6776 24.9324 21.0473 24.9003C20.8299 24.8959 20.6388 24.8084 20.5091 24.6536C20.3962 24.519 20.3362 24.3431 20.34 24.1586C20.3436 23.9781 20.4085 23.8098 20.5228 23.6849C20.654 23.5413 20.8417 23.4674 21.0559 23.4688C23.2132 23.5116 25.0842 24.5761 26.1892 26.3892C26.3235 26.6095 26.3313 26.8578 26.2106 27.0703C26.0786 27.3026 25.8165 27.4553 25.5429 27.4593C25.5392 27.4593 25.5355 27.4593 25.5317 27.4593ZM21.0559 24.4793C22.8372 24.5146 24.3841 25.3965 25.2999 26.8991C25.3571 26.9928 25.4402 27.0421 25.5363 27.0382C25.6558 27.0363 25.7788 26.9652 25.8358 26.8651C25.8816 26.7843 25.8766 26.6968 25.821 26.6051C24.7934 24.9191 23.0535 23.9295 21.0473 23.8897C20.9578 23.8855 20.8901 23.9134 20.8424 23.9659C20.7975 24.0151 20.7707 24.0883 20.769 24.167C20.7673 24.2501 20.7933 24.3298 20.8405 24.3862C20.8909 24.4461 20.9631 24.4774 21.0559 24.4793Z" fill="#5DA9A2"/>
<path d="M25.8801 34.7284C27.8889 36.6994 29.8976 38.6703 31.9064 40.6413C32.3758 41.1017 33.1041 40.3874 32.6347 39.9268C30.6258 37.9558 28.6171 35.9849 26.6083 34.0139C26.139 33.5534 25.4106 34.2678 25.8801 34.7284Z" fill="#5DA9A2"/>
<path d="M32.2499 41.0002C32.0688 41.0002 31.8947 40.9275 31.7544 40.7898L25.7281 34.8769C25.542 34.6945 25.4726 34.4537 25.5374 34.2163C25.6079 33.9582 25.8235 33.7467 26.0865 33.6777C26.3287 33.6138 26.5739 33.6822 26.7597 33.8648L32.786 39.7776C32.9721 39.9601 33.0415 40.2009 32.9767 40.4382C32.9062 40.6963 32.6906 40.9078 32.4276 40.9769C32.3682 40.9924 32.3087 41.0002 32.2499 41.0002ZM26.2646 34.0754C26.2427 34.0754 26.2203 34.0784 26.1977 34.0843C26.0835 34.1143 25.9825 34.2134 25.9519 34.3252C25.9267 34.4173 25.9536 34.5028 26.0316 34.5793L32.0579 40.4921C32.136 40.5686 32.2232 40.5944 32.3167 40.5703C32.4309 40.5403 32.5318 40.4412 32.5624 40.3293C32.5876 40.2373 32.5607 40.1518 32.4828 40.0753L26.4564 34.1624C26.3973 34.1045 26.3331 34.0754 26.2646 34.0754Z" fill="#5DA9A2"/>
<path d="M25.1209 38.3792H4.34365C3.23224 38.3792 2.08364 38.378 1.50205 37.212C1.22098 36.6484 1.28463 35.9962 1.28463 35.3859V4.46249C1.28463 4.03107 1.24901 3.5821 1.29192 3.15139C1.40278 2.03705 2.34326 1.2987 3.44494 1.25898C3.70084 1.24972 3.95888 1.25898 4.21477 1.25898H22.8508C22.7294 1.20972 22.6081 1.16032 22.4867 1.11106C25.137 3.7115 27.7872 6.31181 30.4376 8.91225C30.3874 8.7931 30.337 8.67409 30.2868 8.55493V27.6693C30.2868 28.3195 31.3167 28.3205 31.3167 27.6693V8.83745C31.3167 8.24435 30.9902 8.02527 30.5859 7.62866C28.8665 5.94158 27.147 4.2545 25.4275 2.56741L23.464 0.640902C23.2017 0.38351 23.0005 0.255936 22.624 0.248498C18.2959 0.162888 13.9574 0.248498 9.6285 0.248498H3.90982C3.19863 0.248498 2.51676 0.290181 1.87152 0.641182C0.830911 1.20733 0.27964 2.27423 0.254895 3.41523C0.187952 6.50225 0.254895 9.59784 0.254895 12.6854V28.0811C0.254895 30.8132 0.16478 33.5618 0.254895 36.2929C0.311681 38.0141 1.65338 39.3374 3.41061 39.3896C3.721 39.3989 4.03326 39.3896 4.34365 39.3896H25.1207C25.7834 39.3896 25.7847 38.3792 25.1209 38.3792Z" fill="#010101"/>
<path d="M3.72183 39.6043C3.61612 39.6043 3.50984 39.6032 3.40385 39.6001C1.5465 39.5451 0.100377 38.1263 0.0400151 36.2999C-0.0202041 34.474 0.000250412 32.613 0.0198467 30.8135C0.0295733 29.917 0.0398721 28.9902 0.0398721 28.081V12.6853C0.0398721 11.6573 0.0322911 10.6105 0.0249961 9.59819C0.0102631 7.56965 -0.00489898 5.47205 0.0398721 3.41067C0.0676216 2.13452 0.713441 1.03029 1.76721 0.45698C2.47811 0.0701901 3.21533 0.0379108 3.90949 0.0379108H9.62846C11.0703 0.0379108 12.538 0.028227 13.9574 0.0188239C16.8001 0.000298451 19.74 -0.0192095 22.6282 0.0379108C23.0761 0.0468929 23.3293 0.211096 23.6156 0.491926L30.7375 7.47968C30.79 7.53119 30.8414 7.57975 30.8904 7.62635C31.2342 7.95194 31.5311 8.2332 31.5311 8.83738V27.6692C31.5311 27.8803 31.4474 28.067 31.2957 28.195C31.1633 28.3064 30.9881 28.3677 30.802 28.3677C30.4393 28.3677 30.0721 28.1277 30.0721 27.6691V8.85127L22.5486 1.46943H4.2146C4.12834 1.46943 4.04209 1.46844 3.95555 1.46732C3.78963 1.46536 3.61784 1.46325 3.45234 1.46929C2.40187 1.50732 1.60114 2.2075 1.50516 3.17181C1.47684 3.45586 1.48442 3.75859 1.49186 4.05121C1.49529 4.18916 1.49887 4.3267 1.49887 4.46256V35.386C1.49887 35.4818 1.49729 35.5785 1.49586 35.6758C1.48785 36.1738 1.4797 36.6888 1.69454 37.1195C2.21763 38.1687 3.25023 38.1687 4.34347 38.1687H25.1205C25.588 38.1687 25.8326 38.5285 25.8326 38.8842C25.8326 39.2398 25.588 39.6004 25.1205 39.6004H4.34347C4.24077 39.6004 4.13778 39.6013 4.03494 39.6025C3.93195 39.6034 3.82725 39.6046 3.72197 39.6046L3.72183 39.6043ZM3.90949 0.458945C3.27154 0.458945 2.59654 0.487154 1.97547 0.825104C1.05645 1.32515 0.493447 2.29493 0.469131 3.41965C0.424503 5.475 0.439665 7.56951 0.454255 9.5951C0.46155 10.6082 0.469131 11.6558 0.469131 12.6853V28.081C0.469131 28.9923 0.458975 29.9204 0.449105 30.818C0.429366 32.6132 0.409055 34.4695 0.468988 36.2861C0.521912 37.8872 1.78909 39.1311 3.41673 39.1792C3.61956 39.1849 3.82853 39.183 4.03051 39.1812C4.13478 39.18 4.2392 39.179 4.34347 39.179H25.1205C25.3955 39.179 25.4035 38.9142 25.4035 38.8839C25.4035 38.8536 25.3955 38.5895 25.1205 38.5895H4.34347C3.22162 38.5895 1.95001 38.5895 1.30905 37.3043C1.04901 36.7828 1.05802 36.2165 1.06689 35.669C1.06846 35.5739 1.06989 35.4793 1.06989 35.3857V4.46242C1.06989 4.33021 1.0666 4.19618 1.06303 4.06159C1.0553 3.75634 1.04744 3.44071 1.07805 3.13097C1.19548 1.95095 2.16557 1.09457 3.43661 1.04853C3.61255 1.04222 3.78963 1.04446 3.96085 1.04629C4.04552 1.04741 4.1302 1.04839 4.21445 1.04839H22.1193L21.5719 0.511293L23.929 1.46943H23.1552L30.0718 8.25579V7.49667L31.0483 9.80941L30.5009 9.27231V27.6692C30.5009 27.939 30.7708 27.9468 30.8017 27.9468C30.8326 27.9468 31.1018 27.939 31.1018 27.6692V8.83738C31.1018 8.41199 30.91 8.23039 30.5923 7.92921C30.5413 7.88093 30.4882 7.83069 30.434 7.77736L23.3122 0.789597C23.0841 0.565887 22.9299 0.46512 22.6195 0.458945C19.7367 0.401684 16.7998 0.421192 13.9601 0.439858C12.54 0.449121 11.0717 0.458945 9.62846 0.458945H3.90949Z" fill="black"/>
<path d="M22.3359 0.753656V8.55485C22.3359 8.82796 22.5718 9.06009 22.8509 9.06009H30.8018C31.4645 9.06009 31.4657 8.04961 30.8018 8.04961H22.8509L23.3658 8.55485V0.753656C23.3658 0.103439 22.3359 0.102457 22.3359 0.753656Z" fill="#010101"/>
<path d="M30.8015 9.27077H22.8507C22.4552 9.27077 22.1211 8.94306 22.1211 8.55501V0.753811C22.1211 0.295165 22.4878 0.0551758 22.8503 0.0551758C23.2128 0.0551758 23.5802 0.295165 23.5802 0.753811V7.83911H30.8015C31.269 7.83911 31.5136 8.19895 31.5136 8.55459C31.5136 8.91022 31.269 9.27077 30.8015 9.27077ZM23.5802 8.84973H30.8015C31.0766 8.84973 31.0845 8.5849 31.0845 8.55459C31.0845 8.52455 31.0766 8.26014 30.8015 8.26014H23.5802V8.84973ZM22.5504 8.05243V8.55501C22.5504 8.71191 22.6907 8.84973 22.8509 8.84973H23.3627L22.5504 8.05243ZM22.5504 7.83925H23.1511V0.753811C23.1511 0.484069 22.8812 0.47621 22.8503 0.47621C22.8194 0.47621 22.5502 0.484069 22.5502 0.753811V7.83911L22.5504 7.83925Z" fill="black"/>
<path d="M8.172 13.1315C7.22351 12.1836 6.27502 11.2358 5.32668 10.2879V11.0024C6.27516 10.0546 7.22365 9.10681 8.172 8.15892C8.63673 7.69452 7.90909 6.97946 7.44379 7.44442C6.4953 8.39217 5.54681 9.34006 4.59847 10.2879C4.40236 10.484 4.40179 10.806 4.59847 11.0024C5.54695 11.9503 6.49544 12.8981 7.44379 13.846C7.90895 14.3108 8.63702 13.596 8.172 13.1315Z" fill="#010101"/>
<path d="M7.78744 14.2076C7.60564 14.2076 7.4307 14.1336 7.29067 13.9937L4.4452 11.1502C4.1667 10.872 4.1667 10.4191 4.4452 10.1408L7.29067 7.2973C7.61622 6.97199 8.04605 7.05212 8.30281 7.29927C8.56342 7.55049 8.65497 7.97727 8.32498 8.30694L5.98472 10.6456L8.32498 12.9843C8.51021 13.1693 8.57758 13.4125 8.50993 13.6514C8.43669 13.9099 8.2197 14.1199 7.95708 14.1864C7.90044 14.2009 7.84351 14.2077 7.7873 14.2077L7.78744 14.2076ZM5.26309 11.3666L7.59677 13.6987C7.67287 13.7749 7.75769 13.8021 7.84995 13.7784C7.96323 13.7498 8.06465 13.6511 8.09655 13.5386C8.12329 13.4445 8.09712 13.3572 8.01888 13.2791L5.68406 10.9458L5.26324 11.3665L5.26309 11.3666ZM5.11205 10.0754L4.75145 10.4357C4.63773 10.5495 4.63773 10.7415 4.75145 10.8552L5.11205 11.2154V10.0754ZM5.26309 9.92442L5.68391 10.345L8.01873 8.01194C8.21484 7.81588 8.02445 7.62136 8.00214 7.59975C7.96695 7.56578 7.78258 7.40621 7.59677 7.59217L5.26309 9.92428V9.92442Z" fill="black"/>
<path d="M15.8661 8.15937C16.8146 9.10725 17.763 10.055 18.7114 11.0029V10.2884C17.7629 11.2363 16.8144 12.184 15.8661 13.1319C15.4013 13.5963 16.129 14.3114 16.5943 13.8464C17.5428 12.8985 18.4913 11.9508 19.4396 11.0029C19.6357 10.8068 19.6363 10.4849 19.4396 10.2884C18.4911 9.34051 17.5428 8.39276 16.5943 7.44487C16.1291 6.98005 15.4011 7.69482 15.8661 8.15937Z" fill="#010101"/>
<path d="M16.253 14.2085C16.0591 14.2085 15.8718 14.124 15.7345 13.9918C15.4739 13.7407 15.3825 13.3139 15.7124 12.9843L18.0526 10.6456L15.7124 8.30686C15.3825 7.97719 15.4739 7.55054 15.7345 7.29947C15.9913 7.05204 16.4215 6.97204 16.7467 7.29722L19.5921 10.1407C19.8706 10.4189 19.8706 10.8718 19.5921 11.1501L16.7467 13.9936C16.5953 14.1448 16.4217 14.2085 16.253 14.2085ZM18.3533 10.946L16.0185 13.2793C15.8224 13.4752 16.0127 13.6698 16.0351 13.6915C16.0702 13.7253 16.255 13.8843 16.4404 13.6989L18.7741 11.3668L18.3533 10.946ZM18.9253 10.0755V11.2156L19.2859 10.8554C19.3996 10.7416 19.3996 10.5496 19.2859 10.4359L18.9253 10.0755ZM16.0185 8.012L18.3533 10.3451L18.7741 9.92447L16.4404 7.59237C16.255 7.40739 16.0702 7.56612 16.0351 7.60008C16.0127 7.62156 15.8224 7.81593 16.0185 8.012Z" fill="black"/>
<path d="M10.4661 15.5377C11.7979 12.4463 13.1298 9.35493 14.4616 6.26356C14.7166 5.67158 13.8298 5.15596 13.5723 5.75355C12.2405 8.84492 10.9087 11.9363 9.57683 15.0277C9.32179 15.6196 10.2086 16.1353 10.4661 15.5377Z" fill="#010101"/>
<path d="M10.092 16.014C9.86368 16.014 9.62866 15.8946 9.47576 15.6963C9.30468 15.4741 9.26949 15.2006 9.37921 14.9457L13.3747 5.67161C13.5232 5.32721 13.8719 5.18869 14.2231 5.33408C14.5867 5.48481 14.8494 5.90445 14.6595 6.34555L10.6638 15.6197C10.5673 15.8438 10.3915 15.9822 10.1689 16.0093C10.1433 16.0123 10.1177 16.014 10.092 16.014ZM13.9473 5.69744C13.869 5.69744 13.8097 5.74361 13.7701 5.83554L9.77456 15.1096C9.71148 15.256 9.76341 15.3713 9.81819 15.4424C9.895 15.5422 10.0169 15.6042 10.116 15.5915C10.1406 15.5885 10.2153 15.5794 10.2685 15.4557L14.2641 6.18163C14.3582 5.96311 14.199 5.78122 14.056 5.722C14.0165 5.70558 13.9802 5.69744 13.9473 5.69744Z" fill="black"/>
<path d="M4.9623 20.9714H16.1189C16.7816 20.9714 16.7826 19.9609 16.1189 19.9609H4.9623C4.2996 19.9609 4.29845 20.9714 4.9623 20.9714Z" fill="#010101"/>
<path d="M16.1186 21.1821H4.96205C4.4946 21.1821 4.25 20.8223 4.25 20.4667C4.25 20.111 4.4946 19.7505 4.96205 19.7505H16.1186C16.5861 19.7505 16.8307 20.1103 16.8307 20.466C16.8307 20.8216 16.5861 21.1821 16.1186 21.1821ZM4.96205 20.1717C4.68713 20.1717 4.67912 20.4365 4.67912 20.4668C4.67912 20.4971 4.68713 20.7612 4.96205 20.7612H16.1186C16.3935 20.7612 16.4016 20.4964 16.4016 20.4661C16.4016 20.4358 16.3935 20.1717 16.1186 20.1717H4.96205Z" fill="black"/>
<path d="M4.9623 27.7585H11.2577C11.9204 27.7585 11.9214 26.748 11.2577 26.748H4.9623C4.2996 26.748 4.29845 27.7585 4.9623 27.7585Z" fill="#010101"/>
<path d="M11.2575 27.9693H4.96205C4.4946 27.9693 4.25 27.6094 4.25 27.2538C4.25 26.8981 4.4946 26.5376 4.96205 26.5376H11.2575C11.7249 26.5376 11.9695 26.8974 11.9695 27.2531C11.9695 27.6087 11.7249 27.9693 11.2575 27.9693ZM4.96205 26.9588C4.68713 26.9588 4.67912 27.2236 4.67912 27.2539C4.67912 27.2842 4.68713 27.5484 4.96205 27.5484H11.2575C11.5324 27.5484 11.5404 27.2835 11.5404 27.2532C11.5404 27.2229 11.5324 26.9588 11.2575 26.9588H4.96205Z" fill="black"/>
<path d="M4.9623 24.3655H11.4758C12.1385 24.3655 12.1397 23.355 11.4758 23.355H4.9623C4.2996 23.355 4.29845 24.3655 4.9623 24.3655Z" fill="#010101"/>
<path d="M11.4756 24.5757H4.96205C4.4946 24.5757 4.25 24.2159 4.25 23.8602C4.25 23.5046 4.4946 23.144 4.96205 23.144H11.4756C11.943 23.144 12.1876 23.5039 12.1876 23.8595C12.1876 24.2152 11.943 24.5757 11.4756 24.5757ZM4.96205 23.5652C4.68713 23.5652 4.67912 23.83 4.67912 23.8604C4.67912 23.8907 4.68713 24.1548 4.96205 24.1548H11.4756C11.7505 24.1548 11.7585 23.89 11.7585 23.8597C11.7585 23.8293 11.7505 23.5652 11.4756 23.5652H4.96205Z" fill="black"/>
</g>
<defs>
<clipPath id="clip0_2455_865">
<rect width="33" height="41" fill="white"/>
</clipPath>
</defs>
</svg>
