<svg width="52" height="41" viewBox="0 0 52 41" fill="none" xmlns="http://www.w3.org/2000/svg">
<g clip-path="url(#clip0_2455_794)">
<path d="M48.4776 34.374C50.3803 34.2759 51.7364 32.8486 51.7907 30.9082C51.8103 30.2104 51.7907 29.5088 51.7907 28.8108V4.72322C51.7907 4.03026 51.8449 3.29652 51.6473 2.62579C50.9477 0.250802 48.7705 0.230205 46.821 0.230205H17.9979C13.2574 0.230205 8.51285 0.171473 3.7727 0.230205C2.52868 0.245704 1.37756 0.743092 0.712095 1.86879C0.232626 2.67983 0.234824 3.53879 0.234824 4.43853V12.7067C0.234824 18.7349 0.154712 24.7695 0.234824 30.7973C0.256 32.3914 1.13283 33.8473 2.71168 34.2617C3.21912 34.3948 3.73155 34.3738 4.24898 34.3738H48.4778C49.2491 34.3738 49.2503 33.1502 48.4778 33.1502H16.4251C12.1778 33.1502 7.90932 33.2781 3.66343 33.1502C1.16 33.0748 1.4333 30.6568 1.4333 28.8683V9.08776C1.4333 7.27644 1.35998 5.44718 1.4333 3.63708C1.53119 1.21988 3.75992 1.45379 5.41369 1.45379H47.8561C48.5052 1.45379 49.1175 1.43442 49.6924 1.8433C50.6116 2.4969 50.592 3.48821 50.592 4.47708V30.4428C50.592 31.8108 50.0351 33.0701 48.4776 33.1504C47.71 33.19 47.7052 34.4138 48.4776 34.374Z" fill="#010101"/>
<path d="M3.87918 34.5789C3.47982 34.5789 3.07067 34.5662 2.66253 34.4592C1.09087 34.0466 0.0598088 32.6103 0.0356356 30.8C-0.0179051 26.7793 7.49696e-05 22.6897 0.0178553 18.7348C0.0266455 16.7587 0.0356356 14.7153 0.0356356 12.7064V4.43821C0.0356356 3.49707 0.0356356 2.61935 0.541675 1.76324C1.19375 0.660585 2.34048 0.0436923 3.7711 0.0259503C6.9328 -0.0130006 10.149 5.09822e-05 13.2584 0.0128987C14.8388 0.0194245 16.4189 0.0259503 17.9989 0.0259503H46.822C48.7241 0.0259503 51.0911 0.0259504 51.8395 2.56673C52.0111 3.14957 52.0027 3.7636 51.9947 4.35725C51.9931 4.48002 51.9913 4.60197 51.9913 4.7229V28.8105C51.9913 29.0423 51.9935 29.2746 51.9955 29.5071C51.9997 29.968 52.0043 30.4446 51.9913 30.9136C51.9345 32.9333 50.5405 34.4239 48.5875 34.5709C48.5539 34.5752 48.5191 34.5772 48.4834 34.5774C48.4536 34.5787 48.4244 34.5787 48.3965 34.5774L4.06377 34.578C4.00244 34.5785 3.94091 34.5787 3.87898 34.5787L3.87918 34.5789ZM8.52463 0.407914C6.94119 0.407914 5.35175 0.41444 3.77569 0.434017C2.48872 0.449924 1.46166 0.996868 0.883696 1.97411C0.434993 2.73314 0.434993 3.55559 0.434993 4.42638V12.7066C0.434993 14.7161 0.426003 16.7602 0.417213 18.7367C0.399632 22.6899 0.381453 26.7777 0.434993 30.7945C0.456569 32.4154 1.36996 33.6989 2.76182 34.0641C3.18315 34.1747 3.60908 34.1728 4.06178 34.1704L4.24937 34.1698H47.7833C47.7346 34.066 47.7076 33.952 47.702 33.8392C47.6938 33.674 47.731 33.5023 47.8119 33.354H16.4259C15.0118 33.354 13.5708 33.3683 12.1772 33.3824C9.38308 33.4107 6.49388 33.4391 3.65822 33.354C1.17877 33.2794 1.20814 31.0084 1.22991 29.3501C1.23211 29.1859 1.23411 29.0246 1.23411 28.8682V9.08764C1.23411 8.48543 1.22592 7.88118 1.21793 7.27632C1.20194 6.07925 1.18536 4.84159 1.23431 3.6284C1.3324 1.2061 3.45824 1.22935 5.01112 1.24648C5.14837 1.24811 5.28302 1.24954 5.41428 1.24954H47.9406C48.5657 1.24628 49.2056 1.2477 49.8073 1.67576C50.7936 2.37687 50.7932 3.41407 50.7928 4.417V30.4425C50.7928 31.928 50.1711 32.937 49.0991 33.2525C49.2036 33.3985 49.2571 33.5802 49.2571 33.7613C49.2571 33.8606 49.2411 33.9601 49.2094 34.0539C50.6016 33.6793 51.548 32.4694 51.5919 30.9022C51.6049 30.4407 51.6005 29.968 51.5961 29.511C51.5939 29.2773 51.5919 29.0438 51.5919 28.8105V4.7231C51.5919 4.60034 51.5937 4.47635 51.5953 4.35174C51.6029 3.7891 51.6109 3.20728 51.4569 2.6844C50.7942 0.434017 48.6839 0.434017 46.8222 0.434017H17.9989C16.4187 0.434017 14.8378 0.427491 13.257 0.420965C11.6993 0.414643 10.1151 0.407914 8.52463 0.407914ZM48.4123 34.1698H48.4732C48.4972 34.1685 48.5211 34.1669 48.5449 34.1655C48.774 34.1333 48.8576 33.9342 48.8576 33.7617C48.8576 33.5749 48.7595 33.3569 48.4834 33.3543C48.2059 33.3714 48.0906 33.6063 48.1012 33.8188C48.1042 33.8767 48.1328 34.1518 48.4123 34.17V34.1698ZM4.55323 1.65108C3.09005 1.65108 1.70818 1.8077 1.63367 3.64512C1.58512 4.84709 1.6017 6.07925 1.61768 7.27061C1.62567 7.87751 1.63387 8.48339 1.63387 9.08744V28.868C1.63387 29.0262 1.63167 29.1894 1.62967 29.3556C1.60709 31.09 1.58372 32.8834 3.67021 32.946C6.49768 33.0314 9.38348 33.0021 12.1734 32.9745C13.5678 32.9605 15.0098 32.946 16.4259 32.946H48.4734C50.1437 32.8569 50.3933 31.3396 50.3933 30.4425V4.417C50.3937 3.47749 50.3941 2.58998 49.5792 2.01041C49.0805 1.65618 48.5547 1.65434 47.9412 1.65761H5.41448C5.28202 1.65761 5.14558 1.65597 5.00713 1.65455C4.8559 1.65291 4.70386 1.65108 4.55323 1.65108Z" fill="#231F20"/>
<path d="M0.834818 30.4892H51.1924C51.9638 30.4892 51.965 29.2656 51.1924 29.2656H0.834818C0.0634726 29.2656 0.0622739 30.4892 0.834818 30.4892Z" fill="#010101"/>
<path d="M51.1928 30.693H0.835178C0.323945 30.693 0.0566406 30.2827 0.0566406 29.8777C0.0566406 29.4726 0.324144 29.0615 0.835178 29.0615H51.1928C51.704 29.0615 51.9713 29.4718 51.9713 29.8768C51.9713 30.2818 51.7038 30.693 51.1928 30.693ZM0.835178 29.4694C0.555488 29.4694 0.456198 29.6892 0.456198 29.8777C0.456198 30.0661 0.555488 30.2851 0.835178 30.2851H51.1928C51.4725 30.2851 51.5718 30.0653 51.5718 29.8768C51.5718 29.6884 51.4725 29.4694 51.1928 29.4694H0.835178Z" fill="#231F20"/>
<path d="M16.3895 40.7963H35.6354C36.4067 40.7963 36.4079 39.5728 35.6354 39.5728H16.3895C15.6182 39.5728 15.617 40.7963 16.3895 40.7963Z" fill="#010101"/>
<path d="M35.6359 41.0001H16.3899C15.8786 41.0001 15.6113 40.5898 15.6113 40.1848C15.6113 39.7798 15.8788 39.3687 16.3899 39.3687H35.6359C36.1472 39.3687 36.4145 39.779 36.4145 40.184C36.4145 40.589 36.147 41.0001 35.6359 41.0001ZM16.3899 39.7765C16.1102 39.7765 16.0109 39.9964 16.0109 40.1848C16.0109 40.3732 16.1102 40.5922 16.3899 40.5922H35.6359C35.9156 40.5922 36.0149 40.3724 36.0149 40.184C36.0149 39.9955 35.9156 39.7765 35.6359 39.7765H16.3899Z" fill="#231F20"/>
<path d="M29.998 33.9246C30.5896 36.0655 31.1811 38.2062 31.7727 40.347C31.9818 41.1036 33.1385 40.7822 32.9286 40.0218C32.337 37.8809 31.7455 35.7402 31.1539 33.5993C30.9448 32.8428 29.788 33.1642 29.998 33.9246Z" fill="#010101"/>
<path d="M32.3282 40.9829C32.2589 40.9829 32.1897 40.9743 32.1222 40.9568C31.8557 40.8876 31.6579 40.6857 31.5796 40.4025L29.8048 33.9801C29.6667 33.48 29.9788 33.1079 30.3586 32.9984C30.7423 32.8882 31.2056 33.0393 31.3453 33.5443L33.1199 39.9667C33.1978 40.2485 33.1337 40.5236 32.9447 40.722C32.7847 40.8897 32.5571 40.9829 32.328 40.9829H32.3282ZM30.5979 33.373C30.5497 33.373 30.5044 33.3803 30.4672 33.3911C30.292 33.4415 30.1142 33.5971 30.1895 33.8695L31.9644 40.292C32.0143 40.473 32.1312 40.5385 32.2205 40.5616C32.3719 40.6013 32.5515 40.5497 32.6586 40.4376C32.7493 40.3423 32.7751 40.2212 32.7353 40.0774L30.9607 33.655C30.8998 33.4346 30.7369 33.373 30.5979 33.373Z" fill="#231F20"/>
<path d="M20.8742 33.5995C20.2826 35.7404 19.6911 37.8811 19.0995 40.0219C18.8898 40.7812 20.0459 41.105 20.2555 40.3472C20.847 38.2063 21.4386 36.0657 22.0301 33.9248C22.2399 33.1656 21.0837 32.8417 20.8742 33.5995Z" fill="#010101"/>
<path d="M19.6998 40.9829C19.4709 40.9829 19.2431 40.8897 19.0829 40.7219C18.8937 40.5234 18.8296 40.2481 18.9073 39.9665L20.6819 33.5441C20.7604 33.2606 20.958 33.0585 21.2243 32.9894C21.5156 32.9137 21.8386 33.0063 22.047 33.2247C22.2362 33.4232 22.3003 33.6983 22.2222 33.9799L20.4478 40.4023C20.3693 40.6858 20.1717 40.8879 19.9054 40.957C19.8381 40.9745 19.7687 40.9829 19.6998 40.9829ZM21.4275 33.3718C21.3917 33.3718 21.3568 33.3761 21.3228 33.3846C21.2337 33.4077 21.1168 33.4735 21.0669 33.6546L19.2923 40.077C19.2525 40.2206 19.2785 40.3417 19.3694 40.4372C19.4765 40.5495 19.6571 40.6005 19.8073 40.5616C19.8964 40.5385 20.0133 40.4727 20.0632 40.2916L21.8378 33.8692C21.8776 33.7256 21.8516 33.6045 21.7609 33.5092C21.6776 33.4219 21.5506 33.3718 21.4275 33.3718Z" fill="#231F20"/>
<path d="M14.1198 6.0817C15.3444 6.0817 16.3303 6.2526 16.7043 7.64504C16.8783 8.29293 16.995 8.96305 17.1396 9.61808C17.6389 11.8815 18.1381 14.1449 18.6374 16.4084C19.0381 18.2256 19.4049 20.29 21.6544 20.5147C23.2477 20.674 24.9138 20.5309 26.5118 20.5309H32.2873C33.0586 20.5309 33.0598 19.3073 32.2873 19.3073C28.87 19.3073 25.4217 19.4561 22.0082 19.3073C20.025 19.2208 19.9507 16.7965 19.6143 15.2713C19.1198 13.0301 18.6256 10.7888 18.1311 8.54784C17.9861 7.89057 17.8972 7.13868 17.5945 6.53137C16.8821 5.10222 15.5394 4.85791 14.12 4.85791C13.3486 4.85791 13.3474 6.0815 14.12 6.0815L14.1198 6.0817Z" fill="#5DA9A2"/>
<path d="M23.3879 20.7938C22.8001 20.7938 22.2122 20.7755 21.6356 20.7178C19.3258 20.4869 18.8805 18.4517 18.4877 16.6559L16.9452 9.66306C16.8971 9.44464 16.8519 9.2246 16.807 9.00415C16.7185 8.57243 16.627 8.12582 16.5123 7.6992C16.1932 6.51109 15.4257 6.28575 14.1203 6.28575C13.6091 6.28575 13.3418 5.87544 13.3418 5.47043C13.3418 5.06542 13.6093 4.6543 14.1203 4.6543C15.4866 4.6543 16.9888 4.86639 17.7731 6.43931C18.0172 6.92895 18.1261 7.48976 18.2312 8.03242C18.2621 8.19251 18.2929 8.35076 18.3267 8.5035L19.8096 15.2271C19.8624 15.4657 19.9077 15.7208 19.9557 15.991C20.21 17.4192 20.4983 19.0378 22.0172 19.1041C24.2881 19.2032 26.6137 19.1695 28.8628 19.1369C29.9864 19.1206 31.1483 19.1039 32.2878 19.1039C32.799 19.1039 33.0663 19.5142 33.0663 19.9192C33.0663 20.3242 32.7988 20.7353 32.2878 20.7353H26.5124C26.0042 20.7353 25.4776 20.7502 24.9683 20.7647C24.4473 20.7794 23.9173 20.7944 23.3877 20.7944L23.3879 20.7938ZM14.1207 5.06216C13.841 5.06216 13.7418 5.282 13.7418 5.47043C13.7418 5.65886 13.841 5.87789 14.1207 5.87789C15.2932 5.87789 16.4733 6.01003 16.8981 7.59111C17.0157 8.02997 17.1086 8.4827 17.1981 8.92074C17.2431 9.13895 17.2876 9.35716 17.3354 9.57353L18.8781 16.5672C19.2588 18.3089 19.6528 20.1098 21.675 20.3119C22.746 20.419 23.8705 20.387 24.9577 20.3566C25.4696 20.3421 25.999 20.327 26.5128 20.327H32.2882C32.5679 20.327 32.6672 20.1072 32.6672 19.9188C32.6672 19.7303 32.5679 19.5113 32.2882 19.5113C31.1517 19.5113 29.9912 19.528 28.869 19.5443C26.6145 19.5768 24.2829 19.6106 22.0006 19.5111C20.1628 19.431 19.8304 17.5638 19.5631 16.0636C19.516 15.7977 19.4712 15.5469 19.4203 15.3164L17.9373 8.59282C17.9027 8.43661 17.8716 8.2751 17.8398 8.11155C17.7399 7.59642 17.6364 7.06354 17.4175 6.62407C16.733 5.25141 15.4285 5.06216 14.1207 5.06216Z" fill="#5DA9A2"/>
<path d="M19.3443 17.4383C21.6096 17.2405 23.8749 17.0427 26.1402 16.8451C27.6497 16.7133 29.1592 16.5816 30.669 16.4496C31.4121 16.3848 32.3946 16.4411 33.0815 16.0989C34.1859 15.5483 34.3888 13.9015 34.7153 12.8217C35.0467 11.7256 35.7659 10.2984 35.7046 9.11789C35.6317 7.71239 34.4118 7.25049 33.2453 7.25049H21.2452C20.4738 7.25049 20.4726 8.47408 21.2452 8.47408H31.5771C32.2634 8.47408 33.0647 8.36008 33.7455 8.47408C35.1346 8.70656 34.065 10.824 33.8175 11.6426C33.6179 12.3027 33.4183 12.9628 33.2187 13.6229C33.0697 14.1156 32.9918 14.8308 32.4456 15.0515C31.901 15.2713 31.1031 15.1883 30.5281 15.2387C29.1646 15.3578 27.8013 15.4767 26.4378 15.5958C24.0733 15.8021 21.7087 16.0085 19.3443 16.2151C18.5813 16.2818 18.5746 17.506 19.3443 17.4387V17.4383Z" fill="#5DA9A2"/>
<path d="M19.2831 17.645C19.0408 17.645 18.8382 17.542 18.7069 17.3499C18.5437 17.1109 18.523 16.7722 18.6538 16.4871C18.7805 16.2111 19.0256 16.038 19.3265 16.0119L30.5103 15.0355C30.6943 15.0194 30.8936 15.0165 31.105 15.0135C31.5589 15.0071 32.0284 15.0004 32.3712 14.8619C32.7266 14.7184 32.8399 14.2769 32.9492 13.8498C32.9749 13.7497 32.9997 13.6526 33.0269 13.5629L33.626 11.5825C33.668 11.4434 33.7299 11.2762 33.8014 11.0827C34.0472 10.4183 34.4187 9.41431 34.1524 8.94323C34.0707 8.79905 33.9269 8.71136 33.7125 8.67547C33.2756 8.60246 32.7748 8.62857 32.2899 8.65345C32.0522 8.66568 31.8062 8.67833 31.5765 8.67833H21.2445C20.7331 8.67833 20.4658 8.26802 20.4658 7.86301C20.4658 7.458 20.7333 7.04688 21.2445 7.04688H33.2446C34.8425 7.04688 35.8364 7.81712 35.9035 9.1074C35.9498 10.0027 35.5743 11.0188 35.2426 11.9157C35.1156 12.2592 34.9959 12.5836 34.9054 12.8824C34.8463 13.0784 34.7909 13.2941 34.7324 13.5223C34.4731 14.534 34.1504 15.7931 33.1685 16.2825C32.6109 16.5605 31.8893 16.5925 31.2525 16.6206C31.0547 16.6294 30.8631 16.6378 30.6853 16.6533L19.3606 17.6421C19.3345 17.6446 19.3085 17.6456 19.2831 17.6456V17.645ZM33.0331 8.21928C33.287 8.21928 33.5375 8.23233 33.7775 8.2725C34.1127 8.32858 34.3554 8.48561 34.4985 8.73889C34.8597 9.3774 34.4641 10.446 34.1754 11.2262C34.1061 11.4137 34.0464 11.5756 34.0078 11.7024L33.4089 13.6828C33.3835 13.7672 33.3601 13.8584 33.3361 13.9526C33.2143 14.4288 33.0622 15.0212 32.5187 15.2406C32.1075 15.4064 31.5781 15.4144 31.1108 15.4209C30.907 15.424 30.7146 15.4266 30.5446 15.4415L19.3608 16.4179C19.1596 16.4355 19.0622 16.5593 19.0158 16.66C18.9465 16.8109 18.9543 16.9985 19.035 17.1164C19.0969 17.2067 19.1954 17.2459 19.3269 17.2353L30.6515 16.2464C30.8343 16.2305 31.0315 16.2215 31.2353 16.2126C31.833 16.1861 32.5107 16.1561 32.9935 15.9154C33.8106 15.5082 34.0951 14.398 34.3462 13.4185C34.406 13.1856 34.4623 12.9658 34.5242 12.7614C34.6181 12.4509 34.7402 12.1205 34.8694 11.7711C35.1871 10.912 35.5471 9.93821 35.5049 9.1284C35.4264 7.61727 33.8987 7.45413 33.2452 7.45413H21.2451C20.9652 7.45413 20.866 7.67396 20.866 7.8624C20.866 8.05083 20.9652 8.26985 21.2451 8.26985H31.5771C31.797 8.26985 32.0268 8.25782 32.2703 8.24538C32.5232 8.23253 32.7802 8.21928 33.0337 8.21928H33.0331Z" fill="#5DA9A2"/>
<path d="M24.0106 23.705C23.9481 24.8897 22.2004 24.8992 22.2004 23.705C22.2004 22.5108 23.9481 22.5208 24.0106 23.705C24.052 24.4883 25.2509 24.4932 25.2093 23.705C25.148 22.5418 24.2947 21.5576 23.1056 21.5576C21.9595 21.5576 21.0068 22.5393 21.002 23.705C20.9972 24.8466 21.9172 25.7974 23.0237 25.8479C24.2446 25.9038 25.1464 24.8968 25.2093 23.705C25.2509 22.918 24.052 22.9205 24.0106 23.705Z" fill="#5DA9A2"/>
<path d="M23.1182 26.0541C23.084 26.0541 23.0499 26.0533 23.0153 26.0517C21.7903 25.9956 20.7976 24.9423 20.8028 23.704C20.8079 22.4299 21.863 21.3535 23.1062 21.3535C24.2753 21.3535 25.2207 22.2435 25.3873 23.4597C25.4055 23.5335 25.4138 23.6155 25.4099 23.7048C25.4132 23.785 25.4061 23.8619 25.3893 23.9339C25.2279 25.1552 24.2739 26.0539 23.118 26.0539L23.1182 26.0541ZM23.1062 21.7614C22.0785 21.7614 21.2067 22.6517 21.2023 23.7057C21.1981 24.7282 22.0196 25.5975 23.0333 25.6442C23.8254 25.6756 24.51 25.2037 24.8271 24.479C24.6343 24.5212 24.4247 24.4961 24.2419 24.4015C24.1708 24.3644 24.1073 24.3187 24.0524 24.2652C23.8368 24.6305 23.4386 24.8132 23.0473 24.8004C22.5436 24.7867 22.0014 24.438 22.0014 23.7048C22.0014 22.9717 22.5434 22.6228 23.0469 22.6091C23.4384 22.5957 23.8366 22.779 24.0522 23.144C24.224 22.9786 24.4631 22.9026 24.6906 22.913C24.7366 22.9156 24.7831 22.922 24.8287 22.9321C24.5242 22.2304 23.8734 21.7614 23.1062 21.7614ZM23.0796 23.0166C23.0724 23.0166 23.0652 23.0166 23.0579 23.017C22.7548 23.0253 22.4012 23.2105 22.4012 23.705C22.4012 24.1996 22.7552 24.3845 23.0583 24.3929C23.4041 24.3966 23.7801 24.1908 23.8114 23.705C23.7811 23.2295 23.4161 23.0166 23.0796 23.0166ZM24.2116 23.705C24.2254 23.8963 24.3338 23.9916 24.4231 24.0381C24.5668 24.1125 24.7524 24.1074 24.875 24.0254C24.9352 23.9857 24.9755 23.9306 24.9959 23.8615C25.0021 23.8099 25.0071 23.7577 25.0099 23.7048C25.0069 23.653 25.0025 23.6021 24.9963 23.5515C24.9368 23.3469 24.7196 23.3231 24.6693 23.3202C24.4653 23.3053 24.2322 23.4246 24.2116 23.705Z" fill="#5DA9A2"/>
<path d="M29.8876 23.705C29.8251 24.8897 28.0774 24.8992 28.0774 23.705C28.0774 22.5108 29.8251 22.5208 29.8876 23.705C29.9289 24.4883 31.1278 24.4932 31.0863 23.705C31.0249 22.5418 30.1717 21.5576 28.9826 21.5576C27.8365 21.5576 26.8837 22.5393 26.8789 23.705C26.8741 24.8466 27.7941 25.7974 28.9007 25.8479C30.1215 25.9038 31.0235 24.8968 31.0865 23.705C31.128 22.918 29.9291 22.9205 29.8878 23.705H29.8876Z" fill="#5DA9A2"/>
<path d="M28.9951 26.0541C28.961 26.0541 28.9268 26.0533 28.8923 26.0517C27.6672 25.9956 26.6745 24.9423 26.6797 23.704C26.6849 22.4299 27.7399 21.3535 28.9832 21.3535C30.1579 21.3535 31.107 22.2524 31.2668 23.4779C31.2832 23.5497 31.2902 23.6257 31.287 23.7048C31.291 23.7948 31.2826 23.8772 31.264 23.9514C31.096 25.1638 30.1455 26.0539 28.9951 26.0541ZM28.9832 21.7614C27.9555 21.7614 27.0837 22.6517 27.0793 23.7057C27.0751 24.7282 27.8966 25.5975 28.9102 25.6442C29.7034 25.6789 30.3874 25.2035 30.7045 24.4782C30.6593 24.4881 30.6138 24.4943 30.5682 24.4967C30.3407 24.5118 30.1011 24.4315 29.9291 24.2655C29.7133 24.6307 29.3106 24.8183 28.9242 24.8004C28.4206 24.7867 27.8784 24.438 27.8784 23.7048C27.8784 22.9717 28.4204 22.6228 28.9238 22.6091C29.3164 22.5957 29.7133 22.779 29.9291 23.144C29.984 23.0908 30.0476 23.0451 30.1185 23.0082C30.3019 22.9132 30.5127 22.8881 30.7054 22.9313C30.4006 22.23 29.7499 21.7614 28.983 21.7614H28.9832ZM28.9566 23.0166C28.9494 23.0166 28.9422 23.0166 28.9348 23.017C28.6317 23.0253 28.2781 23.2105 28.2781 23.705C28.2781 24.1996 28.6321 24.3845 28.9352 24.3929C29.2816 24.3966 29.657 24.1908 29.6884 23.705C29.658 23.2295 29.2932 23.0166 28.9568 23.0166H28.9566ZM30.0885 23.705C30.1091 23.9855 30.3433 24.1056 30.5468 24.0897C30.597 24.087 30.8133 24.0632 30.8731 23.8592C30.8793 23.8084 30.8841 23.7571 30.8868 23.705C30.8839 23.6526 30.8793 23.6008 30.8731 23.5499C30.8525 23.4801 30.8119 23.4251 30.7516 23.3847C30.6287 23.3029 30.4429 23.2978 30.2997 23.372C30.2106 23.4183 30.1025 23.5134 30.0885 23.705Z" fill="#5DA9A2"/>
</g>
<defs>
<clipPath id="clip0_2455_794">
<rect width="52" height="41" fill="white"/>
</clipPath>
</defs>
</svg>
