<svg width="58" height="43" viewBox="0 0 58 43" fill="none" xmlns="http://www.w3.org/2000/svg">
<g clip-path="url(#clip0_2446_63)">
<path d="M47.5902 26.7024C47.5902 27.6883 47.4971 28.6534 46.2483 28.7284C45.9507 28.7464 45.646 28.7284 45.3477 28.7284H8.86131C7.84877 28.7284 6.70282 28.8034 6.61899 27.3965C6.41261 23.9406 6.61899 20.4104 6.61899 16.9497V3.95634C6.61899 2.89493 6.52346 1.66887 7.99791 1.59151C8.92705 1.54269 9.87236 1.59151 10.8024 1.59151H38.3989C41.0058 1.59151 43.6769 1.42285 46.2798 1.59151C47.5679 1.675 47.5905 2.71845 47.5905 3.70061C47.5905 4.51664 48.867 4.51791 48.867 3.70061C48.867 2.39043 48.6941 1.08722 47.3036 0.520798C46.872 0.344953 46.4477 0.328678 45.9973 0.323395C44.795 0.309868 43.5918 0.323395 42.3895 0.323395H8.62046C7.04729 0.323395 5.50709 0.858963 5.35262 2.69943C5.26433 3.75133 5.34241 4.83811 5.34241 5.89213V26.6311C5.34241 28.2934 5.88177 29.904 7.8843 29.9965C8.69982 30.0341 9.52598 29.9965 10.3421 29.9965H44.5884C45.445 29.9965 46.4937 30.1293 47.3034 29.7989C48.6562 29.2471 48.8668 27.9889 48.8668 26.7024C48.8668 25.8863 47.5902 25.8851 47.5902 26.7024Z" fill="#141414"/>
<path d="M45.805 30.3397C45.5856 30.3397 45.369 30.3327 45.1601 30.3261C44.9639 30.3198 44.772 30.3134 44.5893 30.3134H10.3428C10.0728 30.3134 9.80177 30.3177 9.53007 30.3217C8.98625 30.3299 8.42391 30.3386 7.8703 30.313C6.03479 30.2285 5.02395 28.9206 5.02395 26.631V5.89202C5.02395 5.55893 5.01608 5.22267 5.00821 4.88514C4.99119 4.15829 4.97374 3.40672 5.03544 2.67269C5.17991 0.953335 6.4533 0.00626167 8.62136 0.00626167H42.3899C42.7901 0.00626167 43.1908 0.0047822 43.5912 0.00309138C44.3808 -7.89206e-05 45.1973 -0.00303786 46.0014 0.00626167C46.4786 0.0115455 46.9467 0.0324695 47.4252 0.227337C48.9733 0.857803 49.1867 2.26922 49.1867 3.7005C49.1867 3.98097 49.0765 4.22952 48.8762 4.4005C48.7028 4.54845 48.4731 4.63003 48.2297 4.63003C47.7537 4.63003 47.2718 4.31089 47.2718 3.70071C47.2718 2.62619 47.2037 1.96931 46.2595 1.90823C44.5356 1.79621 42.7499 1.83447 41.0229 1.87145C40.161 1.88984 39.2695 1.90886 38.3993 1.90886H10.803C10.4918 1.90886 10.1786 1.90358 9.86496 1.89787C9.25497 1.8873 8.62413 1.87631 8.01541 1.90844C6.98138 1.96255 6.93244 2.65177 6.93819 3.77173L6.93883 3.95645V16.95C6.93883 18.1042 6.91563 19.2855 6.89308 20.4274C6.84798 22.7168 6.80138 25.0839 6.9384 27.378C6.99755 28.3696 7.62201 28.4161 8.71455 28.4121L8.86221 28.4117H45.3488C45.4501 28.4117 45.552 28.4138 45.6541 28.4157C45.855 28.4201 46.0441 28.4233 46.2303 28.4123C47.1163 28.3591 47.272 27.8186 47.272 26.7027C47.272 26.0923 47.7535 25.7732 48.2292 25.7732C48.705 25.7732 49.1869 26.0925 49.1869 26.7027C49.1869 28.0237 48.9777 29.4594 47.4256 30.0924C46.9267 30.2959 46.3578 30.3401 45.8052 30.3401L45.805 30.3397ZM10.3428 29.6794H44.5891C44.7784 29.6794 44.9771 29.6857 45.1805 29.6923C45.8844 29.7151 46.6122 29.7384 47.1829 29.5054C48.3831 29.0162 48.5484 27.8689 48.5484 26.7023C48.5484 26.421 48.2822 26.4068 48.229 26.4068C48.1758 26.4068 47.9101 26.421 47.9101 26.7023C47.9101 27.4866 47.9101 28.9462 46.2684 29.0447C46.0571 29.0576 45.8458 29.0529 45.6414 29.0491C45.5435 29.047 45.4456 29.0451 45.3486 29.0451L8.71668 29.0455C7.73648 29.0436 6.39883 29.0538 6.30096 27.415C6.16266 25.096 6.20947 22.7162 6.25479 20.4145C6.27713 19.2753 6.30032 18.0975 6.30032 16.9494L6.29968 3.77426C6.29458 2.75681 6.28734 1.36336 7.98137 1.27459C8.61242 1.24162 9.25476 1.25261 9.87581 1.26339C10.1856 1.26867 10.495 1.27417 10.8026 1.27417H38.3991C39.2625 1.27417 40.1504 1.25515 41.0091 1.23676C42.7495 1.19956 44.5493 1.16152 46.3009 1.2748C47.9099 1.379 47.9099 2.77604 47.9099 3.70029C47.9099 3.98139 48.176 3.99555 48.2294 3.99555C48.2828 3.99555 48.5482 3.98139 48.5482 3.70029C48.5482 2.30156 48.316 1.27523 47.1829 0.813842C46.8075 0.661034 46.438 0.645182 45.9939 0.640321C45.1946 0.631021 44.3805 0.634192 43.5933 0.637151C43.1921 0.638841 42.7908 0.640321 42.3897 0.640321H8.62136C6.32798 0.640321 5.75139 1.77423 5.67139 2.72553C5.61267 3.42553 5.62969 4.1602 5.64629 4.87034C5.65437 5.21273 5.66224 5.55386 5.66224 5.89181V26.6308C5.66224 28.5852 6.41521 29.6111 7.89988 29.6796C8.4337 29.7039 8.98604 29.6952 9.52029 29.6876C9.79518 29.6832 10.0694 29.6792 10.3428 29.6792V29.6794Z" fill="#141414"/>
<path d="M46.5117 28.7287H9.11855C8.40877 28.7287 7.60878 28.6509 6.91283 28.8212C4.77349 29.3448 3.96052 32.0167 3.0718 33.758C2.18309 35.4996 1.29438 37.2409 0.405876 38.9825C0.190985 39.4037 0.451195 39.9365 0.956934 39.9365H53.2525C53.7583 39.9365 54.0187 39.4037 53.8036 38.9825L50.9987 33.4862C49.9681 31.4667 49.1841 28.881 46.512 28.7289C45.6913 28.6822 45.6939 29.9505 46.512 29.997C47.7841 30.0695 48.2796 30.9578 48.7785 31.9353C49.2762 32.9105 49.7736 33.8855 50.2713 34.8606C51.0813 36.4479 51.8913 38.0354 52.7013 39.6226L53.2523 38.6686H0.956721C1.14034 38.9867 1.32416 39.3046 1.50778 39.6226C2.2382 38.1916 2.9684 36.7603 3.69882 35.3292C4.42945 33.8975 5.05178 32.2948 5.94369 30.9519C6.65496 29.881 7.77665 29.997 8.86983 29.997H46.5117C47.3332 29.997 47.3345 28.7287 46.5117 28.7287Z" fill="#141414"/>
<path d="M1.52586 40.289L1.50522 40.2532H0.957351C0.62161 40.2532 0.329911 40.0928 0.156935 39.8132C-0.0230634 39.522 -0.0366803 39.1485 0.121403 38.8389L2.78733 33.6144C2.94307 33.3094 3.09626 32.9757 3.25839 32.6221C4.00285 30.9994 4.92944 28.9801 6.83665 28.5134C7.41047 28.3731 8.02217 28.3887 8.61322 28.4031C8.78514 28.4075 8.9545 28.4118 9.11875 28.4118H46.4192C46.4526 28.4101 46.4866 28.4101 46.5211 28.4118C46.5694 28.4122 46.6158 28.4156 46.6603 28.4217C49.0398 28.6265 50 30.6544 50.8491 32.448C50.9968 32.7601 51.1366 33.0548 51.2836 33.3426L54.0885 38.8389C54.2465 39.1491 54.2329 39.5224 54.0529 39.8134C53.88 40.093 53.5883 40.2534 53.2525 40.2534H52.7044L52.6838 40.2892L52.6655 40.2534H1.54415L1.52607 40.2892L1.52586 40.289ZM53.0712 39.6192H53.2527C53.3942 39.6192 53.4702 39.5444 53.5093 39.4814C53.574 39.3765 53.5778 39.2402 53.5193 39.1252L53.4429 38.9758L53.0712 39.6192ZM1.86777 39.6192H52.3425L52.0189 38.9851H2.19138L1.86777 39.6192ZM0.767141 38.9758L0.690759 39.1255C0.632249 39.2402 0.636078 39.3765 0.700758 39.4814C0.739694 39.5444 0.815863 39.6192 0.957351 39.6192H1.13884L0.767141 38.9758ZM52.4108 38.3511H53.1242L50.7145 33.629C50.5632 33.3327 50.4151 33.0199 50.2717 32.7174C49.5819 31.2604 48.8726 29.7623 47.4402 29.2358C47.4453 29.2777 47.4479 29.3199 47.4479 29.3622C47.4479 29.5302 47.4073 29.6991 47.3275 29.8468C48.2547 30.2074 48.6951 31.0702 49.0634 31.7915L52.4106 38.3511H52.4108ZM2.51499 38.3511H51.6953L48.4945 32.0781C47.9715 31.0537 47.55 30.3769 46.5032 30.3135H8.87046C8.77195 30.3135 8.67322 30.3127 8.5745 30.3116C7.60196 30.3015 6.76282 30.2947 6.2107 31.126C5.62177 32.0126 5.14284 33.0368 4.67986 34.0272C4.45582 34.5065 4.22391 35.002 3.98413 35.472L2.51499 38.3511ZM1.08607 38.3511H1.79926L3.41477 35.1852C3.64966 34.7249 3.87902 34.2343 4.10093 33.76C4.57369 32.7487 5.06284 31.7029 5.67794 30.7768C6.42155 29.6573 7.56919 29.6689 8.58067 29.6778C8.67748 29.6788 8.77407 29.6797 8.87067 29.6797H45.6396C45.5658 29.4738 45.5592 29.2489 45.6177 29.0456H9.11918C8.9496 29.0456 8.77471 29.0412 8.59748 29.0367C8.04834 29.0234 7.48047 29.0088 6.98941 29.1289C5.3822 29.5222 4.56242 31.3088 3.83923 32.885C3.67434 33.2448 3.51839 33.5846 3.35669 33.9012L1.08586 38.3513L1.08607 38.3511ZM46.4362 29.0456C46.3364 29.0541 46.2928 29.1016 46.2677 29.139C46.2032 29.2365 46.2 29.3929 46.2598 29.5112C46.3117 29.6135 46.3996 29.6702 46.5215 29.6797C46.7958 29.674 46.8098 29.4146 46.8098 29.3622C46.8098 29.3138 46.7977 29.0877 46.5773 29.0507C46.5528 29.0486 46.5281 29.0469 46.503 29.0456H46.4362Z" fill="#141414"/>
<path d="M22.9369 35.2955H31.2713C32.0928 35.2955 32.094 34.0273 31.2713 34.0273H22.9369C22.1154 34.0273 22.1141 35.2955 22.9369 35.2955Z" fill="#141414"/>
<path d="M31.2721 35.6126H22.9377C22.3234 35.6126 22.002 35.1343 22.002 34.662C22.002 34.1896 22.3234 33.7104 22.9377 33.7104H31.2721C31.8863 33.7104 32.2078 34.1887 32.2078 34.6611C32.2078 35.1335 31.8863 35.6126 31.2721 35.6126ZM22.9377 34.3445C22.6545 34.3445 22.6402 34.6089 22.6402 34.662C22.6402 34.715 22.6545 34.9786 22.9377 34.9786H31.2721C31.5553 34.9786 31.5695 34.7142 31.5695 34.6611C31.5695 34.6081 31.5553 34.3445 31.2721 34.3445H22.9377Z" fill="#141414"/>
<path d="M52.614 39.302C52.614 41.7651 49.7125 41.3328 47.9655 41.332C47.1989 41.3316 46.4323 41.332 45.6657 41.332H9.51549C8.4687 41.332 7.4219 41.3316 6.37489 41.332C4.60597 41.3326 1.59494 41.804 1.59494 39.302C1.59494 38.4859 0.318359 38.4847 0.318359 39.302C0.318359 43.2781 4.96065 42.6001 7.80551 42.6001H45.5047C48.4944 42.6001 53.8905 43.5104 53.8905 39.302C53.8905 38.4859 52.614 38.4847 52.614 39.302Z" fill="#141414"/>
<path d="M48.6484 42.9999C48.0499 42.9999 47.4561 42.9769 46.8965 42.9549C46.3972 42.9355 45.9257 42.9171 45.5055 42.9171H7.8063C7.46332 42.9171 7.09482 42.927 6.70461 42.9376C4.71825 42.9917 2.24615 43.0578 0.926586 41.7821C0.311699 41.1878 0 40.3534 0 39.3021C0 39.0216 0.110212 38.7731 0.310422 38.6021C0.483824 38.4541 0.713609 38.3726 0.957011 38.3726C1.43296 38.3726 1.91487 38.6917 1.91487 39.3019C1.91487 39.8131 2.05189 40.1934 2.3338 40.4645C3.01039 41.1153 4.45719 41.0686 5.62015 41.0316C5.88696 41.0231 6.14185 41.0149 6.37546 41.0149H47.9663C48.1856 41.0149 48.4229 41.0219 48.6703 41.0288C49.8043 41.061 51.2167 41.102 51.8792 40.4628C52.1592 40.1927 52.2954 39.8129 52.2954 39.3019C52.2954 38.6915 52.7769 38.3726 53.2524 38.3726C53.7279 38.3726 54.2103 38.6917 54.2103 39.3019C54.2103 40.3479 53.8915 41.1829 53.2628 41.7834C52.1979 42.8004 50.4039 42.9997 48.6482 42.9997L48.6484 42.9999ZM7.8063 42.2832H45.5055C45.9382 42.2832 46.4159 42.3018 46.9216 42.3217C49.0014 42.4026 51.5888 42.5032 52.8207 41.3266C53.3264 40.8437 53.5722 40.1815 53.5722 39.3023C53.5722 39.0212 53.306 39.007 53.2526 39.007C53.1992 39.007 52.9339 39.0212 52.9339 39.3023C52.9339 39.9841 52.7288 40.5277 52.3243 40.9181C51.4684 41.7441 49.9067 41.6988 48.6522 41.6631C48.4112 41.6561 48.1799 41.6496 47.9663 41.6494H6.37589C6.14866 41.6494 5.90057 41.6574 5.64079 41.6659C4.35825 41.7071 2.76082 41.7582 1.88977 40.9206C1.48275 40.5292 1.27658 39.9848 1.27658 39.3025C1.27658 39.0214 1.01041 39.0073 0.957011 39.0073C0.903607 39.0073 0.638291 39.0214 0.638291 39.3025C0.638291 40.1885 0.878075 40.8511 1.37169 41.3283C2.49848 42.4174 4.82101 42.3555 6.68716 42.3041C7.08184 42.2936 7.4546 42.2834 7.80608 42.2834L7.8063 42.2832Z" fill="#141414"/>
<path d="M54.3245 22.8275H36.6879C36.0377 22.8275 35.2938 22.9117 34.6921 22.6337C33.4141 22.0432 33.5113 20.7975 33.5113 19.6441V11.1894C33.5113 10.2951 33.3488 9.18194 33.9002 8.41875C34.5307 7.54586 35.4455 7.57481 36.3836 7.57481H39.6163C44.4922 7.57481 49.4254 7.34972 54.2962 7.57481C56.0138 7.65407 56.3547 9.00906 56.3547 10.3841V19.5065C56.3547 20.9852 56.3332 22.7202 54.3245 22.8275C53.5073 22.8713 53.5021 24.1398 54.3245 24.0959C56.2317 23.9938 57.5668 22.62 57.6313 20.7296C57.6685 19.6414 57.6313 18.5455 57.6313 17.4568C57.6313 14.8445 57.7406 12.207 57.6313 9.59662C57.5532 7.7346 56.1653 6.37855 54.2962 6.30648C53.5921 6.27943 52.8817 6.30648 52.1775 6.30648H42.7272C40.3727 6.30648 38.0064 6.23653 35.6528 6.30648C33.9747 6.35636 32.5185 7.41989 32.2732 9.13396C32.1471 10.0153 32.2347 10.9543 32.2347 11.8401C32.2347 14.7251 32.2047 17.6118 32.2347 20.4965C32.2505 22.0263 32.9713 23.444 34.5283 23.9378C35.2466 24.1656 36.0536 24.0957 36.7983 24.0957L54.3245 24.0959C55.146 24.0959 55.1472 22.8275 54.3245 22.8275Z" fill="#5DA9A2"/>
<path d="M35.927 24.4231C35.4256 24.4231 34.9185 24.3942 34.4319 24.2401C32.8758 23.747 31.9354 22.3489 31.9162 20.5004C31.8962 18.575 31.903 16.6177 31.9096 14.7248C31.913 13.7633 31.9162 12.8017 31.9162 11.8407C31.9162 11.5877 31.909 11.3302 31.9018 11.0711C31.8835 10.4182 31.8645 9.74318 31.9579 9.08989C32.2109 7.32171 33.7266 6.04704 35.6438 5.99019C37.2196 5.94305 38.8238 5.95933 40.3749 5.97455C41.16 5.98215 41.9446 5.98997 42.728 5.98997H52.1783C52.4115 5.98997 52.6454 5.98702 52.8794 5.98406C53.3477 5.97835 53.8315 5.97201 54.3094 5.99019C56.3353 6.06796 57.867 7.57956 57.9508 9.58382C58.0242 11.3336 57.9993 13.1189 57.9753 14.8455C57.9634 15.7029 57.951 16.5895 57.951 17.4571C57.951 17.8186 57.9553 18.181 57.9593 18.5435C57.9676 19.2634 57.9759 20.008 57.9508 20.7407C57.8823 22.7513 56.4564 24.2414 54.4662 24.4043C54.4236 24.4098 54.3796 24.4128 54.3336 24.4132C54.3013 24.4147 54.2692 24.4147 54.2379 24.4132H36.7992C36.6606 24.4132 36.52 24.4157 36.3781 24.4181C36.2287 24.4206 36.0781 24.4231 35.927 24.4231ZM38.0153 6.59275C37.2298 6.59275 36.4421 6.60036 35.663 6.62361C34.0366 6.67201 32.8018 7.69876 32.5898 9.17887C32.5041 9.77911 32.5222 10.4267 32.5398 11.0531C32.5473 11.3182 32.5547 11.5815 32.5547 11.8404C32.5547 12.8025 32.5513 13.7646 32.5481 14.7269C32.5415 16.6174 32.5349 18.5725 32.5547 20.4937C32.5709 22.0553 33.3452 23.23 34.6262 23.6361C35.159 23.8047 35.7732 23.7941 36.3672 23.7838C36.5128 23.7813 36.6572 23.7789 36.7994 23.7789H53.4307C53.3717 23.5756 53.3781 23.3507 53.4517 23.1449H36.6887C36.5704 23.1449 36.4489 23.1478 36.3258 23.1506C35.7592 23.1637 35.1158 23.1789 34.5583 22.9213C33.1788 22.2836 33.1858 21.0022 33.1922 19.8712L33.193 19.6442V11.1895C33.193 11.0305 33.1877 10.8646 33.1824 10.6949C33.1564 9.87528 33.1273 8.94617 33.6417 8.23391C34.3481 7.25577 35.3832 7.25429 36.2975 7.25767H39.6174C41.2383 7.25767 42.895 7.23231 44.4972 7.20779C47.7201 7.15876 51.053 7.1074 54.3122 7.25809C55.88 7.33038 56.6749 8.38207 56.6749 10.384V19.5062C56.6749 20.72 56.6749 22.4726 55.1511 22.9965C55.2243 23.1396 55.2613 23.3006 55.2613 23.4613C55.2613 23.5086 55.2581 23.5557 55.2517 23.6025C56.47 23.192 57.2655 22.1204 57.3134 20.7187C57.3379 20.0001 57.3296 19.2627 57.3215 18.5498C57.3174 18.185 57.3132 17.8205 57.3132 17.4565C57.3132 16.5843 57.3255 15.6955 57.3374 14.8359C57.3613 13.1183 57.386 11.3421 57.3134 9.60961C57.2425 7.91709 55.997 6.68913 54.2849 6.62319C53.8236 6.60522 53.3481 6.61156 52.8879 6.61748C52.6511 6.62044 52.4145 6.6234 52.1786 6.6234H42.7282C41.9427 6.6234 41.1559 6.61558 40.3689 6.60797C39.594 6.60036 38.8059 6.59254 38.0157 6.59254L38.0153 6.59275ZM54.2532 23.7789H54.3164C54.3398 23.7777 54.363 23.776 54.3862 23.7745C54.6107 23.7394 54.6228 23.5105 54.6228 23.4617C54.6228 23.4095 54.6087 23.1504 54.3341 23.1451C54.2128 23.154 54.1251 23.2098 54.073 23.3112C54.0128 23.4289 54.0158 23.5855 54.0802 23.6838C54.1056 23.7223 54.1502 23.7709 54.2532 23.7789ZM36.2083 7.89173C35.3758 7.89173 34.6579 7.91456 34.1602 8.60357C33.772 9.14125 33.7966 9.92093 33.8202 10.6752C33.8258 10.8517 33.8311 11.0242 33.8311 11.1897L33.8303 19.875C33.8243 20.9512 33.8192 21.8806 34.8275 22.3464C35.2498 22.5417 35.7892 22.5288 36.3106 22.5169C36.4389 22.5138 36.5653 22.511 36.6885 22.511H54.3164C55.9128 22.4214 56.0362 21.2091 56.0362 19.5066V10.3844C56.0362 8.71643 55.4953 7.94795 54.2819 7.89173C51.0426 7.74209 47.7199 7.79324 44.5065 7.84227C42.9019 7.86679 41.2427 7.89215 39.617 7.89215H36.2966C36.267 7.89215 36.2375 7.89215 36.2081 7.89215L36.2083 7.89173Z" fill="#5DA9A2"/>
<path d="M33.386 8.00048C36.3927 10.721 39.3993 13.4418 42.4061 16.1623C42.9812 16.6827 43.5275 17.1935 44.3209 17.371C45.4116 17.6151 46.342 17.1542 47.132 16.459C48.7754 15.013 50.3796 13.5204 52.0028 12.0517C53.4951 10.7014 54.9876 9.35082 56.48 8.00048C57.0887 7.4497 56.1838 6.55504 55.5772 7.10371C52.703 9.70441 49.829 12.3049 46.9547 14.9056C46.6405 15.1899 46.3367 15.5145 45.9982 15.7711C44.945 16.5694 44.089 15.9719 43.3084 15.2655C41.6905 13.8015 40.0725 12.3377 38.4546 10.8736C37.0659 9.61691 35.677 8.36042 34.2883 7.10371C33.6821 6.55525 32.7766 7.44949 33.3855 8.00048H33.386Z" fill="#5DA9A2"/>
<path d="M44.9172 17.7556C44.697 17.7556 44.4751 17.7304 44.2512 17.6803C43.3978 17.4895 42.8091 16.9562 42.24 16.4407L33.1714 8.23516C32.9222 8.00964 32.8177 7.70402 32.8854 7.39735C32.9599 7.05898 33.2309 6.76984 33.576 6.66057C33.9043 6.55743 34.2424 6.63331 34.5039 6.8696L43.524 15.0312C44.3887 15.8136 45.0085 16.1235 45.8053 15.5194C46.017 15.3588 46.2235 15.1612 46.4233 14.9695C46.5291 14.8683 46.6342 14.7679 46.7403 14.6717L55.3628 6.8696C55.6243 6.6331 55.9622 6.5568 56.2907 6.66057C56.6358 6.76984 56.9068 7.05898 56.9813 7.39735C57.0487 7.70402 56.9447 8.00943 56.6953 8.23516L52.2179 12.2866C51.6763 12.7765 51.1367 13.2692 50.5971 13.762C49.5369 14.7302 48.4408 15.7312 47.344 16.6967C46.538 17.4056 45.7384 17.7558 44.917 17.7558L44.9172 17.7556ZM33.8639 7.2494C33.8333 7.2494 33.8018 7.25427 33.7699 7.26441C33.6441 7.30414 33.5345 7.41701 33.509 7.53262C33.4971 7.5863 33.4939 7.66915 33.6013 7.76595L42.6702 15.9719C43.2012 16.453 43.7029 16.9076 44.3914 17.0617C45.2363 17.2511 46.0635 16.9761 46.9208 16.2216C48.0131 15.2603 49.1071 14.2613 50.1652 13.2949C50.7056 12.8014 51.2458 12.3079 51.7882 11.8172L56.2656 7.76574C56.3728 7.66873 56.3696 7.58588 56.3579 7.53241C56.3324 7.4168 56.2228 7.30414 56.0971 7.2642C55.9879 7.22933 55.8854 7.25448 55.7928 7.33796L47.1703 15.1401C47.0684 15.2322 46.9676 15.3288 46.8665 15.4258C46.6538 15.6298 46.4335 15.8405 46.1927 16.0231C44.8212 17.063 43.6978 16.0461 43.0942 15.4996L34.0741 7.33817C34.0088 7.27899 33.9384 7.2494 33.8639 7.2494Z" fill="#5DA9A2"/>
<path d="M56.4813 22.4024C54.3245 20.6949 52.1679 18.9876 50.0112 17.28C49.375 16.7764 48.4659 17.6681 49.1084 18.1768C51.2652 19.8841 53.422 21.5916 55.5785 23.2992C56.2147 23.8028 57.1238 22.9111 56.4813 22.4024Z" fill="#5DA9A2"/>
<path d="M55.9945 23.766C55.7757 23.766 55.563 23.6919 55.38 23.5471L48.9099 18.4249C48.5114 18.1094 48.4556 17.6114 48.7743 17.2141C49.0924 16.8178 49.7164 16.6409 50.2105 17.0323L56.6808 22.1547C56.9353 22.3561 57.0559 22.6395 57.0117 22.9323C56.9619 23.2618 56.7085 23.561 56.3664 23.6944C56.2434 23.7424 56.1181 23.766 55.9945 23.766ZM49.5941 17.4483C49.4584 17.4483 49.3369 17.5307 49.2735 17.6095C49.1299 17.7886 49.2592 17.8906 49.3077 17.9293L55.7779 23.0515C55.9117 23.1578 56.0449 23.1387 56.1328 23.1045C56.2602 23.0548 56.3642 22.9426 56.3802 22.838C56.3842 22.8111 56.3951 22.7395 56.2828 22.6505L49.8126 17.5282C49.7401 17.4709 49.6652 17.4483 49.5941 17.4483Z" fill="#5DA9A2"/>
<path d="M39.8559 17.2801C37.6991 18.9874 35.5425 20.6949 33.3857 22.4025C32.7434 22.911 33.6519 23.8029 34.2885 23.2992C36.4453 21.5919 38.6018 19.8844 40.7586 18.1769C41.4009 17.6684 40.4924 16.7762 39.8559 17.2801Z" fill="#5DA9A2"/>
<path d="M33.8734 23.7659C33.7498 23.7659 33.6247 23.7425 33.5017 23.6943C33.1598 23.5609 32.9064 23.2616 32.8566 22.9321C32.8124 22.6394 32.933 22.356 33.1877 22.1546L39.6578 17.0322C40.1517 16.6412 40.7757 16.8175 41.0938 17.2138C41.4127 17.6113 41.357 18.1091 40.9585 18.4246L34.4881 23.5468C34.3053 23.6917 34.0924 23.7657 33.8737 23.7657L33.8734 23.7659ZM40.0555 17.5281L33.5854 22.6504C33.473 22.7394 33.4837 22.811 33.4879 22.8379C33.5037 22.9425 33.6077 23.0545 33.7354 23.1044C33.823 23.1388 33.9562 23.1574 34.0902 23.0513L40.5606 17.9292C40.6093 17.8905 40.7385 17.7884 40.5946 17.6092C40.4985 17.4892 40.2663 17.3611 40.0555 17.5281Z" fill="#5DA9A2"/>
<path d="M28.6553 9.19092H20.4564C19.635 9.19092 19.6337 10.459 20.4564 10.459H28.6553C29.4768 10.459 29.478 9.19092 28.6553 9.19092Z" fill="#5DA9A2"/>
<path d="M28.6561 10.7762H20.4572C19.843 10.7762 19.5215 10.2979 19.5215 9.82553C19.5215 9.35316 19.843 8.87402 20.4572 8.87402H28.6561C29.2703 8.87402 29.5918 9.35232 29.5918 9.82469C29.5918 10.2971 29.2703 10.7762 28.6561 10.7762ZM20.4572 9.50808C20.174 9.50808 20.1598 9.77249 20.1598 9.82553C20.1598 9.87858 20.174 10.1421 20.4572 10.1421H28.6561C28.9393 10.1421 28.9535 9.87774 28.9535 9.82469C28.9535 9.77164 28.9393 9.50808 28.6561 9.50808H20.4572Z" fill="#5DA9A2"/>
<path d="M28.6548 14.5674H14.8705C14.049 14.5674 14.0477 15.8355 14.8705 15.8355H28.6548C29.4763 15.8355 29.4776 14.5674 28.6548 14.5674Z" fill="#5DA9A2"/>
<path d="M28.6556 16.1527H14.8713C14.257 16.1527 13.9355 15.6744 13.9355 15.202C13.9355 14.7296 14.257 14.2505 14.8713 14.2505H28.6556C29.2698 14.2505 29.5913 14.7288 29.5913 15.2012C29.5913 15.6735 29.2698 16.1527 28.6556 16.1527ZM14.8713 14.8845C14.5881 14.8845 14.5738 15.149 14.5738 15.202C14.5738 15.255 14.5881 15.5186 14.8713 15.5186H28.6556C28.9388 15.5186 28.953 15.2542 28.953 15.2012C28.953 15.1481 28.9388 14.8845 28.6556 14.8845H14.8713Z" fill="#5DA9A2"/>
<path d="M28.6544 19.9438H22.6517C21.8303 19.9438 21.829 21.212 22.6517 21.212H28.6544C29.4759 21.212 29.4772 19.9438 28.6544 19.9438Z" fill="#5DA9A2"/>
<path d="M28.655 21.5286H22.6523C22.0381 21.5286 21.7168 21.0504 21.7168 20.578C21.7168 20.1056 22.0381 19.6265 22.6523 19.6265H28.655C29.2693 19.6265 29.5908 20.1048 29.5908 20.5771C29.5908 21.0495 29.2693 21.5286 28.655 21.5286ZM22.6521 20.2605C22.3691 20.2605 22.3549 20.5249 22.3549 20.578C22.3549 20.631 22.3691 20.8946 22.6521 20.8946H28.6548C28.938 20.8946 28.9522 20.6302 28.9522 20.5771C28.9522 20.5241 28.938 20.2605 28.6548 20.2605H22.6521Z" fill="#5DA9A2"/>
</g>
<defs>
<clipPath id="clip0_2446_63">
<rect width="58" height="43" fill="white"/>
</clipPath>
</defs>
</svg>
