<svg width="53" height="62" viewBox="0 0 53 62" fill="none" xmlns="http://www.w3.org/2000/svg">
<g clip-path="url(#clip0_2455_959)">
<path d="M26.4997 22.1024C22.675 22.1024 19.5995 18.1595 18.5384 14.2644C18.4048 13.774 18.6949 13.2683 19.186 13.1351C19.6776 13.0016 20.1839 13.2912 20.3175 13.7816C21.4642 17.9908 24.3584 20.262 26.4997 20.262C28.6281 20.262 31.5145 18.0044 32.671 13.8206C32.8066 13.3307 33.3147 13.043 33.8048 13.1782C34.2957 13.3134 34.5837 13.8202 34.4482 14.3101C33.3778 18.1824 30.3038 22.1024 26.4997 22.1024Z" fill="#5DA9A2"/>
<path d="M19.5878 36.4087C19.0788 36.4087 18.666 35.9968 18.666 35.4885V32.2991C18.666 31.7908 19.0788 31.3789 19.5878 31.3789C20.0968 31.3789 20.5096 31.7908 20.5096 32.2991V35.4885C20.5096 35.9968 20.0968 36.4087 19.5878 36.4087Z" fill="#5DA9A2"/>
<path d="M39.434 36.4084C38.925 36.4084 38.5122 35.9964 38.5122 35.4881V34.9758C38.5122 29.5763 36.1935 26.8163 30.5319 25.5291L27.026 27.9604C26.7098 28.1797 26.2904 28.1797 25.9743 27.9604L22.4684 25.5291C16.8068 26.8163 14.4882 29.5763 14.4882 34.9758V35.4881C14.4882 35.9964 14.0754 36.4084 13.5663 36.4084C13.0573 36.4084 12.6445 35.9964 12.6445 35.4881V34.9758C12.6445 28.5677 15.6761 25.0729 22.4739 23.6439C22.7221 23.5915 22.9811 23.6439 23.1898 23.7886L26.5001 26.0841L29.8104 23.7886C30.0191 23.644 30.2783 23.5918 30.5262 23.6439C37.3242 25.0729 40.3556 28.5679 40.3556 34.9758V35.4881C40.3556 35.9964 39.943 36.4084 39.434 36.4084Z" fill="#5DA9A2"/>
<path d="M33.412 36.4087C32.903 36.4087 32.4902 35.9968 32.4902 35.4885V32.2991C32.4902 31.7908 32.903 31.3789 33.412 31.3789C33.9211 31.3789 34.3339 31.7908 34.3339 32.2991V35.4885C34.3339 35.9968 33.9211 36.4087 33.412 36.4087Z" fill="#5DA9A2"/>
<path d="M22.6644 25.4647C22.3996 25.4647 22.1368 25.3514 21.9545 25.1319C21.6296 24.7409 21.6836 24.1611 22.0751 23.8365C22.3996 23.5464 22.6963 21.8621 22.6976 20.302C22.6981 19.7941 23.1107 19.3823 23.6194 19.3823H23.6198C24.1288 19.3825 24.5412 19.7942 24.5412 20.3024C24.5412 21.2134 24.4482 24.2629 23.2525 25.2529C23.0806 25.3952 22.8719 25.4647 22.6646 25.4647H22.6644Z" fill="#5DA9A2"/>
<path d="M30.3361 25.465C30.1286 25.465 29.92 25.3954 29.7477 25.253C28.5518 24.263 28.459 21.2136 28.459 20.3025C28.459 19.7942 28.8718 19.3823 29.3808 19.3823C29.8898 19.3823 30.3026 19.7942 30.3026 20.3025C30.304 21.8626 30.6008 23.5474 30.9254 23.8369C31.3173 24.1613 31.3711 24.7412 31.0463 25.1324C30.8639 25.3517 30.6009 25.465 30.3361 25.465Z" fill="#5DA9A2"/>
<path d="M33.6637 14.9996C33.0687 14.9996 32.5483 14.6055 32.3904 14.0306C32.0146 12.6609 31.5242 10.1144 31.4129 9.52816C29.7969 9.47513 28.1385 8.87012 27.0718 8.39562L27.6667 9.98861C27.8004 10.3465 27.6987 10.7494 27.4112 11.0015C27.1238 11.2535 26.7102 11.3019 26.3723 11.1235L21.8039 8.71234C21.7875 8.70381 21.7701 8.69879 21.7525 8.69662L20.621 13.9335C20.6183 13.9462 20.6153 13.959 20.6119 13.9717C20.4594 14.5556 19.9358 14.9578 19.3328 14.9578C19.3236 14.9578 19.3147 14.9578 19.3056 14.9577C18.6919 14.9454 18.172 14.5193 18.0412 13.9215C16.8337 8.39528 17.0864 4.8111 18.8367 2.64171C20.2477 0.892783 22.5261 0.0719438 26.1876 0.00568769C26.2831 -0.00384917 26.3825 0.00133754 26.4795 0.0020068C26.5762 0.00133754 26.6755 -0.00384917 26.7712 0.00568769C30.4479 0.0721111 32.7365 0.897803 34.1552 2.6571C35.9137 4.83787 36.1685 8.43025 34.9566 13.9623C34.8265 14.5568 34.3093 14.9833 33.6989 14.9991C33.6871 14.9993 33.6752 14.9996 33.6637 14.9996ZM33.212 9.11958C33.2512 9.32739 33.4126 10.1735 33.6107 11.1243C34.1345 7.60356 33.8386 5.1996 32.7192 3.81123C31.643 2.47657 29.7143 1.86655 26.4795 1.84245C23.2599 1.86655 21.341 2.47189 20.2727 3.79601C19.1714 5.16128 18.8729 7.52358 19.3734 10.9801L20.0327 7.92831C20.0659 7.77422 20.1383 7.63133 20.2429 7.51321C20.8367 6.84228 21.8537 6.66142 22.6624 7.08338L25.094 8.36684L24.9136 7.88364C24.8984 7.84298 24.8861 7.80115 24.8768 7.75882C24.779 7.3126 24.9146 6.84964 25.2396 6.52054C25.5819 6.1737 26.0765 6.02529 26.5608 6.124C26.657 6.14358 26.7495 6.17821 26.8347 6.2269C26.8593 6.24096 29.3942 7.6673 31.5864 7.69123C32.4487 7.70026 33.1342 8.30895 33.2125 9.11975L33.212 9.11958Z" fill="#5DA9A2"/>
<path d="M46.8059 46.8979H6.19344C5.87784 46.8979 5.5842 46.7367 5.41509 46.4707C5.24581 46.2047 5.22486 45.8709 5.35928 45.5858L10.3049 35.0967C10.4569 34.7742 10.7821 34.5684 11.1391 34.5684H41.8603C42.2173 34.5684 42.5423 34.7742 42.6945 35.0967L47.6401 45.5858C47.7745 45.8709 47.7534 46.2047 47.5843 46.4707C47.4152 46.7367 47.1215 46.8979 46.8059 46.8979ZM7.64622 45.0574H45.3531L41.2754 36.4088H11.724L7.64622 45.0574Z" fill="#1E1E1E"/>
<path d="M44.6857 50.8847H8.31307C7.972 50.8847 7.65875 50.6966 7.49885 50.3959L5.37901 46.4089C5.2275 46.1236 5.23655 45.7799 5.40332 45.5032C5.57008 45.2264 5.86992 45.0571 6.1934 45.0571H46.8057C47.1292 45.0571 47.429 45.2264 47.5956 45.5032C47.7624 45.7799 47.7716 46.1236 47.6201 46.4089L45.5004 50.3959C45.3405 50.6966 45.0273 50.8847 44.6862 50.8847H44.6857ZM8.86733 49.0442H44.1313L45.2727 46.8976H7.72596L8.86733 49.0442Z" fill="#1E1E1E"/>
<path d="M26.0779 62.0002C22.9839 62.0002 19.5459 61.6528 16.064 60.65C14.9362 60.3252 14.1484 59.2872 14.1484 58.1259V49.9647C14.1484 49.4564 14.5612 49.0444 15.0703 49.0444C15.5793 49.0444 15.9921 49.4564 15.9921 49.9647V58.1259C15.9921 58.472 16.2317 58.7829 16.575 58.8816C25.0414 61.3199 33.2746 59.6737 36.4212 58.8529C36.7656 58.763 37.0061 58.4531 37.0061 58.0993V49.9647C37.0061 49.4564 37.4189 49.0444 37.9279 49.0444C38.4369 49.0444 38.8497 49.4564 38.8497 49.9647V58.0993C38.8497 59.29 38.0429 60.3321 36.8873 60.6336C34.8809 61.1569 30.8973 62.0002 26.0779 62.0002Z" fill="#1E1E1E"/>
<path d="M52.0788 26.9195H47.5585C47.0495 26.9195 46.6367 26.5076 46.6367 25.9993C46.6367 25.491 47.0495 25.0791 47.5585 25.0791H52.0788C52.5878 25.0791 53.0006 25.491 53.0006 25.9993C53.0006 26.5076 52.5878 26.9195 52.0788 26.9195Z" fill="#1E1E1E"/>
<path d="M5.44206 26.9195H0.921815C0.412805 26.9195 0 26.5076 0 25.9993C0 25.491 0.412805 25.0791 0.921815 25.0791H5.44206C5.95107 25.0791 6.36388 25.491 6.36388 25.9993C6.36388 26.5076 5.95107 26.9195 5.44206 26.9195Z" fill="#1E1E1E"/>
<path d="M11.6102 12.0549C11.3744 12.0549 11.1384 11.9651 10.9584 11.7854L7.7622 8.59471C7.40218 8.23532 7.40218 7.65273 7.7622 7.29334C8.12187 6.93412 8.70597 6.93412 9.06564 7.29334L12.2618 10.484C12.6218 10.8434 12.6218 11.426 12.2618 11.7854C12.082 11.9651 11.8462 12.0549 11.6102 12.0549Z" fill="#1E1E1E"/>
<path d="M41.3906 12.0549C41.1547 12.0549 40.9188 11.9651 40.7388 11.7854C40.3787 11.426 40.3787 10.8434 40.7388 10.484L43.9348 7.29334C44.2948 6.93412 44.8787 6.93412 45.2384 7.29334C45.5984 7.65273 45.5984 8.23532 45.2384 8.59471L42.0424 11.7854C41.8624 11.9651 41.6264 12.0549 41.3904 12.0549H41.3906Z" fill="#1E1E1E"/>
<path d="M47.2153 18.3543C46.8537 18.3543 46.5104 18.1405 46.3634 17.7861C46.1685 17.3165 46.3919 16.7782 46.8624 16.5836L48.5196 15.8983C48.9898 15.7041 49.5291 15.9268 49.724 16.3964C49.9189 16.8661 49.6955 17.4043 49.2251 17.5989L47.5678 18.2842C47.4525 18.3319 47.333 18.3545 47.2153 18.3545V18.3543Z" fill="#1E1E1E"/>
<path d="M4.12941 36.1706C3.76772 36.1706 3.42447 35.9566 3.27749 35.6022C3.08256 35.1327 3.30598 34.5945 3.77644 34.3999L5.43369 33.7147C5.90382 33.5205 6.44317 33.7432 6.63809 34.2128C6.83301 34.6823 6.6096 35.2205 6.13913 35.4151L4.48188 36.1003C4.36657 36.148 4.24707 36.1706 4.12941 36.1706Z" fill="#1E1E1E"/>
<path d="M48.8721 36.1706C48.7546 36.1706 48.6351 36.148 48.5196 36.1004L46.8624 35.4152C46.3919 35.2206 46.1685 34.6824 46.3634 34.2129C46.5582 33.7432 47.0974 33.5204 47.5678 33.7148L49.2251 34.3999C49.6955 34.5945 49.919 35.1328 49.724 35.6023C49.577 35.9566 49.2338 36.1706 48.8721 36.1706Z" fill="#1E1E1E"/>
<path d="M5.78616 18.3545C5.66851 18.3545 5.54917 18.3319 5.4337 18.2842L3.77644 17.5989C3.30598 17.4043 3.08256 16.8661 3.27749 16.3964C3.47224 15.9268 4.01175 15.7041 4.48188 15.8983L6.13913 16.5836C6.6096 16.7782 6.83301 17.3165 6.63809 17.7861C6.4911 18.1405 6.14785 18.3545 5.78616 18.3545Z" fill="#1E1E1E"/>
<path d="M33.412 57.1942C32.903 57.1942 32.4902 56.7822 32.4902 56.2739V53.7244C32.4902 53.2161 32.903 52.8042 33.412 52.8042C33.9211 52.8042 34.3339 53.2161 34.3339 53.7244V56.2739C34.3339 56.7822 33.9211 57.1942 33.412 57.1942Z" fill="#1E1E1E"/>
</g>
<defs>
<clipPath id="clip0_2455_959">
<rect width="53" height="62" fill="white"/>
</clipPath>
</defs>
</svg>
