<svg width="53" height="53" viewBox="0 0 53 53" fill="none" xmlns="http://www.w3.org/2000/svg">
<g clip-path="url(#clip0_2455_937)">
<path d="M28.5598 0C32.0702 1.32367 30.3682 6.03794 26.8032 4.91234L22.2476 9.41553C23.5964 8.97935 24.9137 8.46149 26.3021 8.14198C33.2756 6.5375 40.8438 8.04917 46.5141 12.3991C47.4748 11.7259 47.9552 10.1187 49.2576 11.1216C49.8463 11.575 52.3819 14.0773 52.7736 14.6421C53.1002 15.1133 53.0557 15.3882 52.724 15.8342C51.7864 17.0945 50.0107 18.2886 49.0023 19.5629L48.1896 19.639L44.1601 15.7025C43.7552 14.7169 44.7925 14.2512 45.3215 13.6072C37.7479 7.94814 26.7711 7.7042 19.0488 13.2097C19.8186 15.073 19.6109 17.1234 18.0068 18.472C17.0204 19.3012 15.9298 19.582 14.6436 19.4529C14.2376 19.412 13.326 18.9522 13.0847 19.1352C12.9082 19.2691 12.2169 20.5032 12.0533 20.797C7.75598 28.5163 8.36795 38.15 13.5549 45.2749C13.8163 45.4663 14.5951 43.5924 15.7676 44.1988L19.563 48.0604C19.725 48.343 19.7409 48.8108 19.5118 49.0552C18.2618 50.0016 17.0063 51.9245 15.7806 52.7746C15.3698 53.0594 14.9758 53.091 14.5884 52.725L10.8079 48.8479C10.5027 47.8989 11.926 47.2071 12.3991 46.5153C7.1745 39.6983 6.10673 30.2732 9.41556 22.3516L4.91195 26.7021C5.09146 27.8253 5.26911 28.6303 4.49221 29.5859C3.13702 31.2527 0.592085 30.5222 0 28.5603V27.3185C0.331441 26.6199 0.691518 25.9296 1.44879 25.6112C2.28455 25.2596 2.88804 25.3747 3.72221 25.6173L11.6797 17.5591C9.19761 13.7101 13.6911 9.18458 17.5587 11.68L25.6166 3.7223C25.374 2.88811 25.259 2.28461 25.6105 1.44883C25.929 0.691535 26.6192 0.331714 27.3179 0L28.5598 0ZM27.8113 1.67474C26.7557 1.80123 26.8748 3.53404 28.085 3.41366C29.0589 3.31687 29.0467 1.52679 27.8113 1.67474ZM15.0885 12.6484C11.6381 12.8748 11.9931 18.274 15.6684 17.7895C18.7908 17.378 18.3491 12.4341 15.0885 12.6484ZM48.4935 12.839L46.1585 15.249L48.5685 17.584L50.9034 15.174L48.4935 12.839ZM2.24743 27.1335C1.46497 27.3109 1.60258 28.7021 2.54175 28.7637C3.7482 28.8427 3.71267 26.8015 2.24743 27.1335ZM15.2632 46.0504L12.8389 48.4944L15.1739 50.9044L17.6931 48.4801L15.2632 46.0502V46.0504Z" fill="#5DA9A2"/>
<path d="M21.2889 17.7108C21.4681 17.6777 21.6251 17.7227 21.7863 17.7938L43.3551 26.4409L43.686 26.9378L47.1391 35.7986C48.7274 36.8335 50.8749 37.4628 52.4316 38.4741C52.8638 38.7549 53.1064 38.9925 52.955 39.5559C48.6638 44.1302 44.1456 48.5682 39.6276 52.9247C39.0803 53.114 38.8096 52.938 38.5111 52.4989C37.4772 50.9785 36.8494 48.7111 35.798 47.1405L26.9374 43.6874L26.4005 43.2931L17.713 21.5479C17.6544 21.2234 17.8668 20.9367 18.0548 20.6938C18.4958 20.1237 20.0183 18.615 20.5913 18.1597C20.752 18.0319 21.1096 17.7445 21.2894 17.7113L21.2889 17.7108ZM42.1954 27.7558L21.7558 19.5725L21.2587 19.8695L31.7696 30.5851L31.9035 30.6164C34.1358 29.0827 37.2871 29.7024 38.7436 31.9835C41.1528 35.7567 37.7403 40.4548 33.4223 39.3746C30.1569 38.5576 28.7256 34.6799 30.6156 31.904L20.0734 21.2584C19.8695 21.1443 19.6807 21.4283 19.5784 21.589L27.7565 42.1937L36.0876 45.4122L45.4109 36.2481L42.1954 27.7553V27.7558ZM34.0173 31.4824C30.1691 32.0901 30.9068 38.2397 34.9114 37.8632C39.2119 37.4591 38.5463 30.7672 34.0173 31.4824ZM46.6149 37.488L37.5072 46.5638L39.5799 50.703L50.7017 39.5809L46.6149 37.488Z" fill="black"/>
</g>
<defs>
<clipPath id="clip0_2455_937">
<rect width="53" height="53" fill="white"/>
</clipPath>
</defs>
</svg>
