<svg width="51" height="49" viewBox="0 0 51 49" fill="none" xmlns="http://www.w3.org/2000/svg">
<g clip-path="url(#clip0_2455_1308)">
<path d="M24.0445 41.7778C21.0041 41.7778 18.2042 40.1872 16.6085 37.5911C16.118 37.6747 15.6226 37.7168 15.1297 37.7168C10.7647 37.7168 7.08508 34.5527 6.32838 30.2586C2.73257 29.7726 0 26.6637 0 22.9195C0 20.4479 1.22012 18.1475 3.22158 16.7759C3.01513 16.0118 2.91081 15.2247 2.91081 14.4282C2.91081 9.52607 6.84161 5.53793 11.673 5.53793C12.9542 5.53793 14.2174 5.82336 15.3712 6.36882C17.2741 2.47354 21.1646 0 25.5 0C28.767 0 31.8145 1.4012 33.964 3.86819C35.3661 3.02626 36.9547 2.58442 38.5992 2.58442C43.6314 2.58442 47.7253 6.73818 47.7253 11.8439C47.7253 13.1933 47.4328 14.5279 46.8747 15.7458C49.4373 17.364 51 20.1886 51 23.2887C51 25.5349 50.172 27.6789 48.6688 29.3256C47.3121 30.8118 45.5172 31.7743 43.563 32.0752C42.7332 36.7003 38.7454 40.1163 34.051 40.1163C32.6851 40.1163 31.371 39.8341 30.1367 39.2769C28.5091 40.8728 26.3196 41.7777 24.0447 41.7777L24.0445 41.7778ZM16.9912 35.9623C17.2651 35.9623 17.5236 36.1136 17.6578 36.3664C18.9254 38.7567 21.3727 40.2417 24.0445 40.2417C26.0837 40.2417 28.0402 39.3624 29.4122 37.8293C29.6428 37.572 30.0149 37.5035 30.3196 37.663C31.4833 38.2717 32.7387 38.5803 34.0509 38.5803C38.1807 38.5803 41.6621 35.4464 42.1488 31.2903C42.1913 30.9275 42.4798 30.6454 42.8388 30.6155C46.5661 30.3053 49.486 27.0869 49.486 23.2887C49.486 20.5103 47.9679 17.9988 45.5243 16.7344C45.3397 16.6391 45.2019 16.4711 45.1427 16.2698C45.0836 16.0686 45.1082 15.8515 45.211 15.6691C45.8655 14.5074 46.2115 13.1846 46.2115 11.8438C46.2115 7.58514 42.7966 4.12039 38.5994 4.12039C37.0326 4.12039 35.5269 4.60119 34.2447 5.51084C33.9153 5.74447 33.4629 5.67618 33.215 5.35485C31.342 2.92795 28.5299 1.53596 25.5001 1.53596C21.5038 1.53596 17.9441 3.96245 16.4311 7.7178C16.3479 7.92433 16.1806 8.08381 15.9722 8.15503C15.7638 8.22611 15.5356 8.20209 15.346 8.08884C14.2355 7.42482 12.9653 7.07375 11.673 7.07375C7.67636 7.07375 4.42477 10.3729 4.42477 14.4279C4.42477 15.2592 4.56213 16.0782 4.83327 16.8624C4.95507 17.2147 4.80932 17.605 4.48795 17.7871C2.65357 18.8268 1.51397 20.7932 1.51397 22.9193C1.51397 26.0573 3.93617 28.6321 7.0281 28.7814C7.4004 28.7994 7.70443 29.0897 7.74462 29.4657C8.1545 33.2938 11.3293 36.1805 15.1296 36.1805C15.6936 36.1805 16.2622 36.1138 16.8193 35.9822C16.8766 35.9687 16.9343 35.9621 16.9911 35.9621L16.9912 35.9623Z" fill="#1E1E1E"/>
<path d="M13.3184 46.1185C11.2894 46.1185 9.63867 44.6099 9.63867 42.7555C9.63867 40.9012 11.2894 39.3926 13.3184 39.3926C15.3474 39.3926 16.9982 40.9012 16.9982 42.7555C16.9982 44.6099 15.3474 46.1185 13.3184 46.1185ZM13.3184 40.9287C12.1242 40.9287 11.1526 41.7481 11.1526 42.7555C11.1526 43.7629 12.1243 44.5824 13.3184 44.5824C14.5125 44.5824 15.4842 43.7629 15.4842 42.7555C15.4842 41.7481 14.5125 40.9287 13.3184 40.9287Z" fill="#1E1E1E"/>
<path d="M6.47988 49C5.03913 49 3.86719 47.9163 3.86719 46.5845C3.86719 45.2527 5.03927 44.1689 6.47988 44.1689C7.92049 44.1689 9.09257 45.2526 9.09257 46.5845C9.09257 47.9165 7.92049 49 6.47988 49ZM6.47988 45.705C5.88434 45.705 5.38115 46.1078 5.38115 46.5845C5.38115 47.0613 5.88434 47.4639 6.47988 47.4639C7.07542 47.4639 7.57861 47.0611 7.57861 46.5845C7.57861 46.1079 7.07542 45.705 6.47988 45.705Z" fill="#1E1E1E"/>
<path d="M19.8032 26.2098H15.7775C12.7705 26.2098 10.3242 23.7277 10.3242 20.6767C10.3242 17.6258 12.7705 15.1436 15.7775 15.1436H19.8032C20.2211 15.1436 20.5601 15.4875 20.5601 15.9116V25.4417C20.5601 25.8658 20.2211 26.2098 19.8032 26.2098ZM15.7775 16.6795C13.6054 16.6795 11.8382 18.4726 11.8382 20.6766C11.8382 22.8806 13.6054 24.6735 15.7775 24.6735H19.0462V16.6795H15.7775Z" fill="#5DA9A2"/>
<path d="M33.2223 31.9958C33.046 31.9958 32.8714 31.9334 32.7319 31.8129C32.6671 31.7572 26.1497 26.2094 19.8039 26.2094C19.3859 26.2094 19.0469 25.8655 19.0469 25.4414C19.0469 25.0173 19.3859 24.6733 19.8039 24.6733C22.7187 24.6733 25.9481 25.6803 29.4021 27.6664C30.6645 28.3921 31.7163 29.1141 32.4652 29.6653V11.6874C31.7164 12.2386 30.6645 12.9606 29.4021 13.6863C25.9479 15.6723 22.7185 16.6793 19.8039 16.6793C19.3859 16.6793 19.0469 16.3354 19.0469 15.9113C19.0469 15.4872 19.3859 15.1432 19.8039 15.1432C26.1496 15.1432 32.6671 9.59552 32.7322 9.53952C32.9568 9.34569 33.2721 9.30226 33.5401 9.42808C33.8078 9.55377 33.9791 9.82579 33.9791 10.1249V31.2276C33.9791 31.527 33.8076 31.799 33.5399 31.9247C33.4385 31.9723 33.33 31.9957 33.2223 31.9957V31.9958Z" fill="#5DA9A2"/>
<path d="M15.3982 32.5258C15.1481 32.5258 14.8973 32.4831 14.6547 32.3975C14.0845 32.1963 13.6251 31.7801 13.3609 31.226C13.097 30.6719 13.0608 30.0482 13.2592 29.4697L14.7292 25.1852C14.8666 24.7846 15.2985 24.573 15.6929 24.7122C16.0877 24.8517 16.2965 25.2895 16.159 25.69L14.6891 29.9745C14.5527 30.3722 14.7607 30.8083 15.1524 30.9467C15.3408 31.013 15.5446 31.0008 15.7267 30.9114C15.9087 30.822 16.0449 30.6677 16.1106 30.4767L17.875 25.3334C18.0124 24.9329 18.444 24.7212 18.8387 24.8605C19.2336 25 19.4424 25.4378 19.3049 25.8385L17.5404 30.9816C17.3421 31.56 16.932 32.0262 16.386 32.2942C16.0723 32.4482 15.7358 32.5257 15.3983 32.5257L15.3982 32.5258Z" fill="#5DA9A2"/>
<path d="M33.3644 24.1936C32.9464 24.1936 32.6074 23.8496 32.6074 23.4255C32.6074 23.0014 32.9464 22.6575 33.3644 22.6575C34.441 22.6575 35.317 21.7689 35.317 20.6764C35.317 19.584 34.4411 18.6953 33.3644 18.6953C32.9464 18.6953 32.6074 18.3513 32.6074 17.9272C32.6074 17.5031 32.9464 17.1592 33.3644 17.1592C35.2759 17.1592 36.831 18.737 36.831 20.6764C36.831 22.6158 35.2759 24.1936 33.3644 24.1936Z" fill="#5DA9A2"/>
<path d="M35.5643 26.1944C35.2835 26.1944 35.0138 26.0352 34.8829 25.7618C34.7002 25.3803 34.857 24.9207 35.233 24.7353C36.7616 23.9817 37.7494 22.3887 37.7494 20.6767C37.7494 18.9648 36.7643 17.3762 35.2399 16.6216C34.8643 16.4356 34.7082 15.9757 34.8915 15.5945C35.075 15.2134 35.5282 15.055 35.9038 15.241C37.9447 16.2514 39.2633 18.3851 39.2633 20.6769C39.2633 22.9686 37.9411 25.1084 35.8945 26.1172C35.7881 26.1697 35.6752 26.1946 35.5643 26.1946V26.1944Z" fill="#5DA9A2"/>
<path d="M36.914 28.5336C36.6417 28.5336 36.3784 28.384 36.2431 28.1224C36.0489 27.7469 36.1913 27.2825 36.5614 27.0853C38.9286 25.8247 40.3991 23.369 40.3991 20.6767C40.3991 17.9843 38.9286 15.5286 36.5616 14.2681C36.1915 14.0709 36.0489 13.6067 36.2432 13.2309C36.4374 12.8555 36.8948 12.7109 37.2654 12.9079C40.1322 14.4348 41.9132 17.4115 41.9132 20.6767C41.9132 23.9419 40.1323 26.9184 37.2653 28.4454C37.153 28.5052 37.0327 28.5336 36.914 28.5336Z" fill="#5DA9A2"/>
<path d="M22.9144 19.1657C22.5563 19.1657 22.2382 18.907 22.1709 18.537C22.095 18.1201 22.3667 17.7194 22.7778 17.6423C24.7225 17.2777 26.8136 16.4766 28.9926 15.2615C29.3594 15.0573 29.8194 15.1931 30.0207 15.5647C30.2221 15.9364 30.0882 16.4035 29.7219 16.6078C27.4007 17.9021 25.1569 18.7582 23.0528 19.1529C23.0064 19.1615 22.96 19.1659 22.9144 19.1659V19.1657Z" fill="#5DA9A2"/>
<path d="M14.8158 19.6819C14.5057 19.6819 14.2149 19.4869 14.1037 19.174C13.9619 18.7749 14.1657 18.3347 14.5591 18.191C15.1484 17.9754 15.7665 17.8662 16.3965 17.8662H17.256C17.674 17.8662 18.013 18.2102 18.013 18.6343C18.013 19.0584 17.674 19.4023 17.256 19.4023H16.3965C15.9422 19.4023 15.4968 19.4809 15.0726 19.6361C14.9878 19.6672 14.901 19.6819 14.8158 19.6819Z" fill="#5DA9A2"/>
</g>
<defs>
<clipPath id="clip0_2455_1308">
<rect width="51" height="49" fill="white"/>
</clipPath>
</defs>
</svg>
