<svg width="60" height="56" viewBox="0 0 60 56" fill="none" xmlns="http://www.w3.org/2000/svg">
<g clip-path="url(#clip0_2446_947)">
<path d="M19.015 7.05832C18.9392 9.97475 16.6531 12.3929 13.696 12.4003C10.8022 12.4076 8.36965 9.96508 8.37699 7.05832C8.38433 4.14581 10.7914 1.71637 13.696 1.71637C16.6533 1.71637 18.9394 4.14719 19.015 7.05832C19.0382 7.94573 20.4138 7.94918 20.3907 7.05832C20.3177 4.25334 18.6576 1.73778 16.0064 0.748832C13.3918 -0.226534 10.3443 0.597093 8.56407 2.74815C4.6688 7.45482 8.8087 14.698 14.8226 13.6833C18.0583 13.1373 20.3065 10.2941 20.3907 7.05832C20.4138 6.16907 19.0382 6.16953 19.015 7.05832Z" fill="#141414"/>
<path d="M13.6837 14.1253C11.2176 14.1253 8.9864 12.8174 7.68026 10.5365C6.16434 7.88923 6.4014 4.82037 8.29883 2.52748C10.1687 0.268199 13.387 -0.596184 16.1256 0.425233C18.8147 1.42823 20.6128 3.97947 20.7304 6.94311C20.7337 6.9811 20.7348 7.01955 20.7341 7.05869C20.7348 7.09807 20.7337 7.13675 20.7302 7.17497C20.5927 10.6012 18.1471 13.4727 14.8788 14.0242C14.4765 14.0921 14.0768 14.1253 13.6837 14.1253ZM13.738 0.689338C11.8811 0.689338 10.0403 1.50399 8.82775 2.96888C6.7852 5.43723 7.20361 8.31843 8.27636 10.1918C9.34819 12.0633 11.6152 13.8741 14.7649 13.3426C17.4219 12.8943 19.4761 10.7398 19.9468 8.04834C19.7219 8.09439 19.4809 8.0709 19.2673 7.97581C18.7849 10.7069 16.4871 12.7391 13.6965 12.746H13.6825C12.1957 12.746 10.7834 12.1499 9.7047 11.0663C8.62255 9.9795 8.02875 8.55605 8.03265 7.05777C8.04044 3.97533 10.6337 1.37136 13.6956 1.37136C16.4871 1.37136 18.7856 3.40337 19.2675 6.14089C19.4819 6.0458 19.7235 6.02254 19.9489 6.06951C19.5566 3.77869 18.037 1.87516 15.8862 1.07294C15.1925 0.814137 14.4639 0.689568 13.7382 0.689568L13.738 0.689338ZM13.6953 2.0619C11.0053 2.0619 8.72687 4.35042 8.72022 7.05938C8.71701 8.37231 9.23929 9.62191 10.191 10.5777C11.1399 11.5307 12.3793 12.055 13.6825 12.055H13.6947C16.4092 12.0484 18.5932 9.85401 18.6707 7.05846C18.5932 4.25601 16.4094 2.0619 13.6953 2.0619ZM19.3585 7.05846C19.364 7.18603 19.4161 7.27491 19.5176 7.3304C19.6407 7.39786 19.8115 7.39579 19.9239 7.32671C19.9936 7.28365 20.0332 7.21918 20.0433 7.13053C20.0442 7.10659 20.0449 7.08241 20.0456 7.05846C20.0449 7.03452 20.0442 7.01057 20.0433 6.98662C20.033 6.89774 19.9936 6.83327 19.9237 6.79022C19.8111 6.72068 19.6403 6.7193 19.5172 6.78584C19.4158 6.8411 19.3638 6.93021 19.3583 7.05823L19.3585 7.05846Z" fill="#141414"/>
<path d="M14.3834 54.9418V38.0115C14.3834 37.1225 13.0078 37.1211 13.0078 38.0115V54.9418C13.0078 55.8308 14.3834 55.8322 14.3834 54.9418Z" fill="#141414"/>
<path d="M13.6962 55.9547C13.1834 55.9547 12.6641 55.607 12.6641 54.9423V38.012C12.6641 37.3472 13.1829 36.9995 13.6953 36.9995C14.2077 36.9995 14.7275 37.3474 14.7275 38.012V54.9423C14.7275 55.6072 14.2086 55.9547 13.6962 55.9547ZM13.6953 37.6898C13.638 37.6898 13.3519 37.7052 13.3519 38.0115V54.9418C13.3519 55.248 13.6387 55.2635 13.6962 55.2635C13.7538 55.2635 14.0397 55.248 14.0397 54.9418V38.0115C14.0397 37.7052 13.7529 37.6898 13.6953 37.6898Z" fill="#141414"/>
<path d="M6.26236 35.5097C4.20147 35.5097 2.32583 34.0459 1.85583 32.0208C1.66714 31.2078 1.73248 30.3307 1.73248 29.5009V21.837C1.73248 20.9139 1.65384 19.9563 2.03351 19.0892C2.78138 17.3804 4.28882 17.1483 5.90333 16.8598C8.92509 16.3199 11.9216 15.577 15.0156 15.7882C16.5056 15.89 17.9768 16.2142 19.4437 16.484C20.6432 16.7046 21.6646 16.8918 22.5097 17.8944C23.7143 19.3233 24.8368 20.8313 25.9973 22.2962C27.6316 24.359 29.266 26.4217 30.9002 28.4845C31.2778 28.9609 31.7015 29.4244 32.0438 29.9278C33.3566 31.8587 31.1786 34.4178 29.1305 33.0501C28.5094 32.6354 28.0131 31.9303 27.516 31.3832C26.5444 30.3137 25.573 29.2439 24.6013 28.1744C23.1306 26.5552 21.6598 24.9358 20.189 23.3167C19.7796 22.8658 19.0168 23.2262 19.015 23.805L18.9198 52.8634C18.9173 53.6302 18.9184 54.1713 17.9218 54.2509C16.5318 54.3622 15.0913 54.2509 13.6957 54.2509C12.8105 54.2509 12.8091 55.6325 13.6957 55.6325H17.7852C19.0828 55.6325 20.1943 55.0619 20.2929 53.6212C20.4023 52.0214 20.3034 50.3792 20.3087 48.7766C20.3303 42.1982 20.3518 35.6197 20.3734 29.0415C20.3791 27.296 20.3848 25.5506 20.3906 23.805L19.2165 24.2934C20.7129 25.9409 22.2091 27.5884 23.7056 29.2359C24.6877 30.3172 25.6697 31.3984 26.6519 32.4797C27.1771 33.0581 27.7017 33.7671 28.3583 34.205C29.9309 35.2536 32.1312 34.855 33.2163 33.2958C34.1893 31.8974 33.9722 30.1965 32.9731 28.896C31.5653 27.0639 30.1019 25.2722 28.6672 23.4613C27.03 21.3947 25.3925 19.3282 23.7553 17.2616C22.163 15.2519 19.8149 15.1407 17.4552 14.7187C13.5861 14.0265 9.97284 14.712 6.18716 15.408C4.78725 15.6655 3.42746 15.7115 2.2504 16.6424C0.959845 17.6632 0.373147 19.1497 0.357099 20.7684C0.327064 23.7839 0.357099 26.8011 0.357099 29.8168C0.357099 31.1143 0.370625 32.3476 0.95526 33.5539C1.93332 35.5721 4.02493 36.891 6.26259 36.891C7.1478 36.891 7.14917 35.5094 6.26259 35.5094L6.26236 35.5097Z" fill="#141414"/>
<path d="M17.7854 55.9778H13.6959C13.0341 55.9778 12.6876 55.4568 12.6876 54.9421C12.6876 54.4275 13.0341 53.9055 13.6959 53.9055C14.1641 53.9055 14.6437 53.9182 15.1076 53.9302C16.0306 53.9543 16.9848 53.9792 17.8948 53.9064C18.5729 53.8521 18.5736 53.6435 18.5762 52.8682L18.6699 24.2036L18.6323 24.1621L18.6702 24.1467L18.6713 23.8036C18.6727 23.3786 18.9414 23.0003 19.3559 22.8395C19.7514 22.6871 20.168 22.7801 20.4435 23.0836L20.6581 23.3196L20.7366 23.2869V23.4055L27.7705 31.1502C27.9051 31.2985 28.0399 31.4583 28.177 31.6206C28.5351 32.0454 28.9058 32.4848 29.3213 32.7622C30.2161 33.3597 31.0488 33.05 31.5296 32.5607C32.0675 32.0141 32.3689 31.0178 31.76 30.1221C31.5408 29.8002 31.2779 29.484 31.0236 29.178C30.8908 29.0187 30.7586 28.8594 30.6313 28.6989L25.7284 22.5107C25.3412 22.0221 24.9581 21.5285 24.575 21.0346C23.8234 20.0663 23.0464 19.0647 22.2474 18.117C21.4824 17.2095 20.5566 17.0391 19.3843 16.8236C19.0987 16.7709 18.8153 16.717 18.5314 16.6629C17.3727 16.4416 16.1748 16.213 14.9922 16.1322C12.487 15.9634 9.98295 16.4393 7.56141 16.901C7.02905 17.0025 6.49669 17.1043 5.96364 17.1994L5.85474 17.219C4.32598 17.4914 3.00562 17.7265 2.34854 19.228C2.05439 19.9001 2.06356 20.6415 2.07319 21.4262C2.07479 21.5637 2.07663 21.7005 2.07663 21.8368V29.5006C2.07663 29.671 2.07388 29.8435 2.07113 30.0171C2.06104 30.6653 2.05026 31.336 2.19103 31.942C2.62435 33.8087 4.33676 35.1638 6.26261 35.1638C6.92451 35.1638 7.27093 35.6849 7.27093 36.1995C7.27093 36.7141 6.92451 37.2361 6.26261 37.2361C3.89014 37.2361 1.68572 35.85 0.645993 33.7049C0.0132118 32.3996 0.0132118 31.0866 0.0132118 29.817C0.0132118 28.8122 0.00977275 27.8071 0.00656299 26.802C0.000143479 24.8234 -0.00673457 22.7776 0.0132118 20.7652C0.0315532 18.9236 0.73151 17.4041 2.03788 16.3712C3.07028 15.5547 4.23977 15.3712 5.37053 15.1936C5.6202 15.1545 5.87217 15.1149 6.12551 15.0684L6.28943 15.0382C10.0703 14.3426 13.6414 13.6855 17.5158 14.3788C17.8267 14.4343 18.1376 14.4844 18.4466 14.5344C20.4692 14.8611 22.5608 15.1989 24.0249 17.0467L28.9368 23.2464C29.4144 23.8487 29.8949 24.4495 30.3755 25.05C31.3239 26.2349 32.3047 27.4603 33.2457 28.6851C34.4106 30.2011 34.5076 32.0436 33.4985 33.4935C32.3047 35.2087 29.9137 35.6565 28.1685 34.4928C27.6284 34.1327 27.1905 33.6245 26.7672 33.1336C26.643 32.9895 26.5205 32.8474 26.3981 32.7125L20.726 26.4677L20.6531 48.7782C20.6513 49.3073 20.6614 49.8523 20.6708 50.3794C20.6902 51.4526 20.7104 52.5622 20.6364 53.6451C20.5364 55.1061 19.4708 55.9783 17.7856 55.9783L17.7854 55.9778ZM13.6959 54.5963C13.3908 54.5963 13.3754 54.8843 13.3754 54.9421C13.3754 54.9999 13.3908 55.2871 13.6959 55.2871H17.7854C18.5507 55.2871 19.8493 55.0676 19.9499 53.5974C20.0219 52.5447 20.0022 51.4501 19.9829 50.3916C19.9733 49.8608 19.9635 49.3121 19.9651 48.7754L20.0405 25.7129L19.3552 24.9584L19.264 52.8643C19.2614 53.6297 19.2587 54.4904 17.9496 54.5951C17.0034 54.6707 16.0306 54.6451 15.0899 54.6207C14.6307 54.6085 14.1554 54.5963 13.6959 54.5963ZM14.0946 14.776C11.5326 14.776 9.02415 15.2376 6.41324 15.7179L6.24931 15.7481C5.99024 15.7958 5.73231 15.8363 5.47668 15.8763C4.38513 16.0477 3.35411 16.2095 2.46317 16.9143C1.32646 17.813 0.717066 19.1471 0.700788 20.7723C0.680841 22.7804 0.68749 24.8239 0.694139 26.8002C0.697578 27.8059 0.700788 28.8117 0.700788 29.8175C0.700788 31.0088 0.700788 32.2407 1.26433 33.4035C2.18966 35.3125 4.15151 36.546 6.26261 36.546C6.56777 36.546 6.58313 36.258 6.58313 36.2002C6.58313 36.1424 6.56777 35.8552 6.26261 35.8552C4.02036 35.8552 2.02619 34.2759 1.52111 32.0995C1.36131 31.4104 1.37254 30.6966 1.38332 30.0065C1.38607 29.8368 1.38859 29.6678 1.38859 29.5011V21.8372C1.38859 21.7039 1.38699 21.5699 1.38515 21.4354C1.37507 20.6113 1.36452 19.7594 1.71874 18.9505C2.5237 17.1114 4.15586 16.8206 5.7346 16.5393L5.84328 16.5199C6.3738 16.425 6.90364 16.324 7.43325 16.2229C9.89766 15.7529 12.4462 15.2659 15.039 15.4437C16.2626 15.527 17.4814 15.7596 18.6598 15.9848C18.9421 16.0384 19.2238 16.0926 19.5056 16.1441C20.7116 16.3659 21.8483 16.5749 22.7722 17.6714C23.5799 18.6298 24.3615 19.6367 25.1172 20.6107C25.4991 21.1027 25.8806 21.5943 26.2665 22.0815L31.1694 28.2697C31.2932 28.4258 31.4221 28.5808 31.5511 28.7357C31.8159 29.0542 32.0899 29.3832 32.3279 29.7332C33.1562 30.9517 32.7484 32.3049 32.0188 33.0468C31.1726 33.9073 29.9641 34.0217 28.9402 33.3381C28.4436 33.0065 28.0413 32.5292 27.652 32.0678C27.5204 31.9119 27.3913 31.7585 27.262 31.6162L20.7327 24.4274L20.7292 25.4465L26.9062 32.2471C27.0325 32.3862 27.159 32.5329 27.2872 32.6816C27.6804 33.1378 28.0869 33.6096 28.5489 33.9174C29.9619 34.8596 31.97 34.4845 32.9345 33.0979C33.765 31.9047 33.6753 30.3756 32.7009 29.1071C31.7641 27.8879 30.7856 26.6655 29.8392 25.4831C29.3577 24.8817 28.8763 24.28 28.3982 23.6765L23.4864 17.4769C22.1883 15.8386 20.3177 15.5365 18.3373 15.2167C18.0245 15.1662 17.71 15.1156 17.395 15.0589C16.2777 14.8591 15.1812 14.776 14.0946 14.776ZM19.8009 24.4242L20.0439 24.6917L20.0451 24.3224L19.8009 24.4242ZM19.7342 23.4585C19.6831 23.4585 19.6368 23.4716 19.6035 23.4843C19.4822 23.5312 19.3598 23.6491 19.3591 23.8059V23.86L19.9823 23.6008L19.9353 23.549C19.872 23.4792 19.7993 23.458 19.7342 23.458V23.4585Z" fill="#141414"/>
<path d="M5.57509 23.8051C5.81146 28.4365 6.04807 33.0679 6.28444 37.699C6.55246 42.9484 6.65953 48.2346 7.08986 53.4734C7.19991 54.8133 8.0051 55.5865 9.35389 55.6326C10.7976 55.6818 12.2514 55.6326 13.6962 55.6326C14.5814 55.6326 14.5828 54.251 13.6962 54.251H9.93279C9.16979 54.251 8.51546 54.1437 8.45562 53.2782C8.32218 51.3544 8.25867 49.4232 8.16055 47.4974C7.84049 41.2272 7.5202 34.9571 7.20014 28.6868C7.11715 27.0596 7.03392 25.4323 6.95093 23.8051C6.90576 22.9205 5.52969 22.9152 5.57509 23.8051Z" fill="#141414"/>
<path d="M10.8032 55.9998C10.3162 55.9998 9.82744 55.9945 9.34254 55.9777C7.81836 55.9259 6.8724 55.0233 6.74745 53.5018C6.45995 50.0012 6.31436 46.4262 6.17336 42.9689C6.10321 41.2457 6.03053 39.4637 5.94134 37.7168L5.23199 23.8226C5.21342 23.4593 5.36588 23.1448 5.65063 22.9594C5.96519 22.7547 6.39346 22.7381 6.74172 22.9166C7.07347 23.0867 7.275 23.404 7.29449 23.787L8.50411 47.4794C8.53712 48.123 8.56601 48.7673 8.5949 49.4117C8.65175 50.6729 8.71022 51.9768 8.79894 53.254C8.83013 53.7046 9.00116 53.9057 9.93291 53.9057H13.6966C14.3585 53.9057 14.7049 54.4267 14.7049 54.9414C14.7049 55.456 14.3585 55.978 13.6966 55.978C13.2165 55.978 12.7355 55.9833 12.2543 55.989C11.7767 55.9943 11.2911 55.9998 10.8032 55.9998ZM6.22724 23.4851C6.1525 23.4851 6.07982 23.5033 6.02434 23.5394C5.97528 23.5714 5.91085 23.6318 5.91888 23.7872L6.62823 37.6813C6.71765 39.4322 6.79032 41.2158 6.86048 42.9406C7.00102 46.3908 7.14638 49.9586 7.43296 53.4451C7.52857 54.6107 8.19712 55.2476 9.36593 55.2874C10.3211 55.3199 11.2998 55.3091 12.2465 55.2983C12.7302 55.2927 13.214 55.2872 13.6966 55.2872C14.0017 55.2872 14.0171 54.9991 14.0171 54.9414C14.0171 54.8836 14.0017 54.5964 13.6966 54.5964H9.93291C9.41499 54.5964 8.20239 54.5964 8.11274 53.3022C8.02356 52.0164 7.96487 50.7081 7.90778 49.4431C7.87889 48.8 7.85 48.1573 7.81699 47.5151L6.60737 23.8226C6.60049 23.687 6.54042 23.5892 6.42854 23.5318C6.36732 23.5003 6.29625 23.4851 6.22724 23.4851Z" fill="#141414"/>
<path d="M39.93 7.05853C40.0029 9.86352 41.663 12.3791 44.3143 13.368C46.9289 14.3434 49.9763 13.5198 51.7566 11.3687C55.6518 6.66203 51.5119 -0.581151 45.4982 0.433589C42.2626 0.979528 40.0141 3.82251 39.93 7.05853C39.9068 7.94778 41.2824 7.94732 41.3056 7.05853C41.3815 4.1421 43.6675 1.72395 46.6246 1.71658C49.5184 1.70921 51.951 4.15177 51.9436 7.05853C51.9363 9.97105 49.5292 12.4005 46.6246 12.4005C43.6673 12.4005 41.3812 9.96966 41.3056 7.05853C41.2824 6.17112 39.9068 6.16767 39.93 7.05853Z" fill="#5DA9A2"/>
<path d="M47.3131 54.9418V38.0115C47.3131 37.1225 45.9375 37.1211 45.9375 38.0115V54.9418C45.9375 55.8308 47.3131 55.8322 47.3131 54.9418Z" fill="#5DA9A2"/>
<path d="M35.5967 30.3573C37.4327 28.3361 39.2686 26.3146 41.1044 24.2935L39.9303 23.8051C39.9454 28.4365 39.9606 33.0678 39.9757 37.699C39.9929 42.9378 39.7705 48.2401 40.0273 53.4734C40.0931 54.8163 40.9579 55.5874 42.2826 55.6325C43.7263 55.6818 45.1801 55.6325 46.6249 55.6325C47.5101 55.6325 47.5115 54.251 46.6249 54.251H42.8615C42.1047 54.251 41.4261 54.1494 41.4024 53.2781C41.3504 51.3539 41.3898 49.4223 41.3834 47.4973C41.3628 41.2272 41.3424 34.9571 41.3217 28.6867C41.3165 27.0595 41.3112 25.4323 41.3057 23.8051C41.3039 23.2281 40.5413 22.8654 40.1316 23.3167C38.2956 25.3379 36.4599 27.3593 34.6239 29.3805C34.0282 30.0363 34.9985 31.016 35.5967 30.3575V30.3573Z" fill="#5DA9A2"/>
<path d="M54.0584 36.8913C56.4114 36.8913 58.5929 35.4305 59.4996 33.253C60.0602 31.9067 59.9641 30.4881 59.9641 29.0653V23.4137C59.9641 22.2359 60.0758 20.9884 59.9059 19.8173C59.5402 17.2988 57.5405 15.8855 55.1777 15.6002C53.6519 15.416 52.1305 15.0363 50.618 14.7618C47.9988 14.2866 45.4051 14.2624 42.7834 14.7342C41.265 15.0075 39.3568 15.0814 38.0041 15.8901C36.665 16.6909 35.6974 18.3582 34.7503 19.5537C33.7565 20.8081 32.7628 22.0623 31.7689 23.3168C31.2233 24.0054 32.1903 24.9893 32.7417 24.2937C34.3677 22.2415 35.9794 20.1767 37.6203 18.1362C38.572 16.9527 39.6876 16.7029 41.0898 16.4452C43.2232 16.0531 45.3205 15.6642 47.5057 15.7634C49.2662 15.8433 51.0006 16.2318 52.73 16.5497C54.1895 16.8182 56.1794 16.8383 57.3291 17.8076C58.5773 18.8604 58.589 20.2905 58.589 21.7602V26.6654C58.589 28.061 58.6229 29.4614 58.589 30.8565C58.5275 33.3746 56.6633 35.51 54.0591 35.51C53.1739 35.51 53.1725 36.8915 54.0591 36.8915L54.0584 36.8913Z" fill="#5DA9A2"/>
<path d="M53.3709 23.8051C52.8764 33.4913 52.3818 43.1773 51.8873 52.8635C51.8483 53.6254 51.8307 54.1727 50.8515 54.251C49.4614 54.3622 48.0211 54.251 46.6254 54.251C45.7402 54.251 45.7388 55.6326 46.6254 55.6326H50.7148C52.0379 55.6326 53.0873 55.059 53.2242 53.6213C53.3771 52.0168 53.3895 50.3859 53.4715 48.7767C53.8074 42.1982 54.1433 35.6198 54.4792 29.0416C54.5684 27.296 54.6573 25.5507 54.7465 23.8051C54.7919 22.9166 53.4161 22.9191 53.3709 23.8051Z" fill="#5DA9A2"/>
</g>
<defs>
<clipPath id="clip0_2446_947">
<rect width="60" height="56" fill="white"/>
</clipPath>
</defs>
</svg>
