<svg width="57" height="56" viewBox="0 0 57 56" fill="none" xmlns="http://www.w3.org/2000/svg">
<g clip-path="url(#clip0_2446_127)">
<path d="M32.4255 55.9996C32.2271 55.9996 32.0328 55.9356 31.8727 55.8152L28.4999 53.2785L25.1267 55.8153C24.9318 55.962 24.6863 56.0249 24.4436 55.9903C24.2016 55.9557 23.9835 55.8265 23.838 55.6313L21.3227 52.2546L17.3659 53.7461C17.1372 53.8323 16.8833 53.8242 16.6609 53.7234C16.4384 53.6226 16.2658 53.4375 16.1817 53.2095L14.7265 49.2658L10.5068 49.5905C10.2629 49.6087 10.0217 49.5304 9.83684 49.3714C9.652 49.2125 9.53899 48.9869 9.52298 48.7446L9.24618 44.5538L5.10501 43.6861C4.86573 43.636 4.65649 43.4928 4.52426 43.2887C4.39204 43.0844 4.34766 42.8362 4.40104 42.5992L5.32584 38.5016L1.59858 36.5109C1.38324 36.3959 1.22326 36.2001 1.15432 35.9672C1.08539 35.7345 1.1133 35.484 1.2318 35.2716L3.2821 31.5972L0.27192 28.6456C0.0979093 28.475 0 28.2424 0 27.9997C0 27.757 0.0979093 27.5244 0.27192 27.3539L3.2824 24.4022L1.2321 20.728C1.1136 20.5157 1.0857 20.2651 1.15463 20.0324C1.22356 19.7995 1.38354 19.6037 1.59888 19.4887L5.32615 17.498L4.40134 13.4004C4.34781 13.1635 4.39219 12.9152 4.52457 12.7109C4.65679 12.5068 4.86588 12.3636 5.10532 12.3135L9.24648 11.4458L9.52328 7.25468C9.5393 7.01241 9.6523 6.78678 9.83714 6.62789C10.0221 6.46884 10.2643 6.39061 10.5071 6.40877L14.7267 6.73351L16.1819 2.78965C16.2659 2.5616 16.4385 2.37668 16.6611 2.27574C16.8836 2.17511 17.1375 2.16648 17.3661 2.25304L21.3229 3.74452L23.8382 0.367819C23.9837 0.172608 24.2016 0.0432238 24.4438 0.00887274C24.6858 -0.0259323 24.9318 0.0371708 25.1269 0.183957L28.5 2.72079L31.8728 0.184109C32.0679 0.0373221 32.3137 -0.0259323 32.5559 0.00902407C32.7979 0.0435265 33.0162 0.172759 33.1615 0.36797L35.6773 3.74467L39.6341 2.25319C39.8628 2.16679 40.1166 2.17511 40.3391 2.27589C40.5616 2.37668 40.7342 2.56175 40.8183 2.7898L42.2735 6.73367L46.4931 6.40892C46.7369 6.39031 46.9782 6.469 47.163 6.62804C47.3479 6.78693 47.4609 7.01271 47.4769 7.25483L47.7535 11.446L51.8948 12.3137C52.1341 12.3638 52.3434 12.5069 52.4756 12.7111C52.6078 12.9153 52.6522 13.1635 52.5988 13.4005L51.674 17.4981L55.4013 19.4888C55.6166 19.6038 55.7766 19.7996 55.8455 20.0325C55.9145 20.2653 55.8866 20.5157 55.7681 20.7282L53.7178 24.4024L56.7282 27.354C56.9022 27.5245 57.0002 27.7571 57.0002 27.9999C57.0002 28.2426 56.9022 28.4752 56.7282 28.6457L53.7178 31.5975L55.7681 35.2719C55.8866 35.4842 55.9145 35.7348 55.8455 35.9675C55.7766 36.2004 55.6166 36.3962 55.4013 36.5112L51.674 38.5019L52.5988 42.5995C52.6523 42.8364 52.608 43.0847 52.4756 43.289C52.3434 43.4931 52.1343 43.6363 51.8948 43.6864L47.7535 44.5541L47.4769 48.7449C47.4609 48.987 47.3479 49.2128 47.163 49.3717C46.9782 49.5309 46.7361 49.6091 46.4931 49.5908L42.2733 49.2661L40.8181 53.2098C40.7341 53.4378 40.5615 53.6228 40.339 53.7237C40.1164 53.8246 39.8625 53.8329 39.6339 53.7464L35.6771 52.2549L33.1614 55.6316C33.016 55.8268 32.7979 55.9562 32.5558 55.9906C32.5123 55.9968 32.4688 55.9999 32.4255 55.9999V55.9996ZM21.6462 50.2533C21.9303 50.2533 22.2059 50.3848 22.3823 50.6216L24.7595 53.813L27.9473 51.4157C28.2741 51.1701 28.7259 51.1699 29.0528 51.4157L32.2402 53.8128L34.6178 50.6215C34.8617 50.2942 35.2952 50.1678 35.6786 50.3125L39.4181 51.7221L40.7934 47.9951C40.9345 47.6128 41.3162 47.3709 41.7234 47.4019L45.7113 47.7088L45.9727 43.7481C45.9995 43.3419 46.2954 43.0033 46.6968 42.9191L50.6106 42.0991L49.7366 38.2265C49.6469 37.8293 49.8346 37.4214 50.1958 37.2285L53.7185 35.3471L51.7808 31.8744C51.5821 31.5184 51.6464 31.0748 51.9382 30.7888L54.7832 27.9993L51.9382 25.2099C51.6464 24.9239 51.5822 24.4803 51.7808 24.1242L53.7184 20.6518L50.1956 18.7703C49.8345 18.5775 49.6467 18.1696 49.7364 17.7723L50.6104 13.8997L46.6966 13.0797C46.2954 12.9956 45.9994 12.6569 45.9725 12.2507L45.7111 8.28975L41.7233 8.59665C41.3139 8.62646 40.9342 8.3857 40.7933 8.00345L39.418 4.27613L35.6785 5.68573C35.2954 5.83055 34.8617 5.70419 34.6177 5.37672L32.2402 2.1854L29.0527 4.58271C28.7257 4.82862 28.274 4.82847 27.9472 4.58271L24.7593 2.18525L22.3822 5.37657C22.1383 5.70404 21.7051 5.8304 21.3214 5.68558L17.5819 4.27597L16.2066 8.00329C16.0655 8.38554 15.6842 8.62631 15.2766 8.59649L11.2887 8.28945L11.027 12.2506C11.0002 12.6567 10.7043 12.9954 10.3029 13.0795L6.38942 13.8996L7.26344 17.7722C7.35311 18.1694 7.16538 18.5772 6.80424 18.7702L3.28149 20.6516L5.21909 24.1241C5.4178 24.4802 5.35344 24.9237 5.0617 25.2097L2.21669 27.9991L5.0617 30.7887C5.35344 31.0747 5.41765 31.5182 5.21909 31.8743L3.28134 35.3469L6.80409 37.2284C7.16522 37.4211 7.35296 37.8291 7.26329 38.2263L6.38927 42.0989L10.3027 42.919C10.704 43.0031 10.9999 43.3418 11.0268 43.7479L11.2885 47.7088L15.2764 47.4017C15.6853 47.371 16.0654 47.6127 16.2064 47.9949L17.5817 51.7219L21.3212 50.3123C21.4273 50.2722 21.5373 50.253 21.6459 50.253L21.6462 50.2533Z" fill="#141414"/>
<path d="M4.3211 26.0574C3.92535 26.0574 3.56055 25.8008 3.44358 25.4049C3.30114 24.9237 3.57885 24.4192 4.06367 24.278L47.299 11.6811C47.7838 11.5396 48.2925 11.8155 48.4347 12.2964C48.5772 12.7776 48.2995 13.2822 47.8147 13.4233L4.5793 26.0204C4.49328 26.0455 4.40651 26.0574 4.3211 26.0574Z" fill="#141414"/>
<path d="M8.96173 44.3746C8.56597 44.3746 8.20133 44.1179 8.0842 43.7221C7.94176 43.2408 8.21948 42.7363 8.7043 42.5951L53.2012 29.6304C53.6862 29.4888 54.1946 29.7648 54.3369 30.2457C54.4793 30.7269 54.2016 31.2314 53.7168 31.3726L9.21992 44.3375C9.13391 44.3626 9.04713 44.3746 8.96173 44.3746Z" fill="#141414"/>
<path d="M17.8051 35.9472V37.331H13.3887V26.5679H14.9384V35.9472H17.8051Z" fill="#5DA9A2"/>
<path d="M20.0684 26.4054C20.3681 25.5751 20.7735 24.9522 21.2848 24.5371C21.7963 24.1219 22.367 23.9146 22.9973 23.9146C23.6276 23.9146 24.2007 24.1219 24.7171 24.5371C25.234 24.9522 25.6416 25.5749 25.9413 26.4054C26.241 27.2356 26.3907 28.2505 26.3907 29.4498C26.3907 30.649 26.2382 31.664 25.9338 32.4942C25.6288 33.3246 25.2181 33.9473 24.7019 34.3624C24.185 34.7777 23.6118 34.9851 22.9818 34.9851C22.3411 34.9851 21.7677 34.7804 21.2616 34.3701C20.7556 33.9602 20.3553 33.3378 20.0606 32.502C19.7663 31.6667 19.6191 30.6492 19.6191 29.4498C19.6191 28.2504 19.7687 27.2356 20.0684 26.4054ZM21.432 31.7638C21.6077 32.3738 21.8323 32.8224 22.1064 33.1093C22.3798 33.3964 22.672 33.5398 22.9818 33.5398C23.2915 33.5398 23.5886 33.3965 23.8727 33.1093C24.1568 32.8224 24.3892 32.374 24.57 31.7638C24.7508 31.1543 24.8413 30.3827 24.8413 29.4498C24.8413 28.5273 24.7507 27.7584 24.57 27.1434C24.3892 26.5284 24.1568 26.0773 23.8727 25.7904C23.5886 25.5035 23.297 25.3597 22.9973 25.3597C22.6976 25.3597 22.4085 25.5035 22.1297 25.7904C21.8506 26.0773 21.6206 26.5284 21.4399 27.1434C21.2594 27.7585 21.1689 28.5273 21.1689 29.4498C21.1689 30.3827 21.2565 31.1543 21.4323 31.7638H21.432Z" fill="#5DA9A2"/>
<path d="M35.0544 31.548C34.7341 31.7939 34.383 31.9837 34.0009 32.117C33.6184 32.25 33.2311 32.3167 32.8386 32.3167C31.9089 32.3167 31.1157 32.058 30.4598 31.5401C29.8039 31.0227 29.3107 30.3462 28.9803 29.5107C28.6494 28.6751 28.4844 27.7807 28.4844 26.8277C28.4844 25.8846 28.6494 25.0004 28.9803 24.1751C29.3107 23.3502 29.8066 22.6813 30.4679 22.1686C31.1288 21.6562 31.9188 21.3999 32.8386 21.3999C33.7062 21.3999 34.4658 21.6357 35.1167 22.1071L34.2642 23.2757C33.8615 22.9581 33.3861 22.7992 32.8386 22.7992C32.2395 22.7992 31.7229 22.989 31.2891 23.3681C30.8551 23.7474 30.5298 24.2445 30.3128 24.8594C30.0959 25.4744 29.9875 26.1307 29.9875 26.8278C29.9875 27.535 30.0959 28.2014 30.3128 28.8265C30.5299 29.452 30.8525 29.9568 31.2815 30.3412C31.7099 30.7255 32.229 30.9177 32.8387 30.9177C33.1384 30.9177 33.4122 30.8563 33.6603 30.7333V28.4112H32.529V27.2426H35.0547V31.548H35.0544Z" fill="#5DA9A2"/>
<path d="M38.3684 20.8704C38.6678 20.04 39.0731 19.4172 39.5849 19.0021C40.096 18.5869 40.6668 18.3794 41.297 18.3794C41.9271 18.3794 42.5004 18.5869 43.0168 19.0021C43.5336 19.417 43.9413 20.0399 44.2413 20.8704C44.5406 21.7006 44.6904 22.7155 44.6904 23.9148C44.6904 25.114 44.5379 26.1288 44.2335 26.9591C43.9288 27.7895 43.5181 28.4122 43.0015 28.8274C42.4847 29.2427 41.9113 29.4501 41.2814 29.4501C40.6407 29.4501 40.0673 29.2451 39.5613 28.8351C39.0553 28.4252 38.6549 27.8025 38.3606 26.9669C38.066 26.1314 37.9189 25.114 37.9189 23.9148C37.9189 22.7155 38.0684 21.7006 38.3684 20.8704ZM39.7319 26.2288C39.9073 26.8388 40.132 27.2872 40.406 27.5743C40.6795 27.8612 40.9717 28.0048 41.2814 28.0048C41.5912 28.0048 41.8882 27.8614 42.1727 27.5743C42.4565 27.2872 42.6889 26.839 42.8696 26.2288C43.0505 25.6192 43.1409 24.8475 43.1409 23.9148C43.1409 22.9921 43.0503 22.2234 42.8696 21.6082C42.6889 20.9933 42.4565 20.5425 42.1727 20.2552C41.8882 19.9683 41.5966 19.8247 41.297 19.8247C40.9973 19.8247 40.7081 19.9683 40.4294 20.2552C40.1506 20.5425 39.9203 20.9933 39.7399 21.6082C39.5587 22.2235 39.4686 22.9923 39.4686 23.9148C39.4686 24.8475 39.5564 25.6192 39.7321 26.2288H39.7319Z" fill="#5DA9A2"/>
</g>
<defs>
<clipPath id="clip0_2446_127">
<rect width="57" height="56" fill="white"/>
</clipPath>
</defs>
</svg>
