<svg width="62" height="41" viewBox="0 0 62 41" fill="none" xmlns="http://www.w3.org/2000/svg">
<g clip-path="url(#clip0_2455_580)">
<path d="M22.1346 41.0001H12.99C12.8162 41.0001 12.6529 40.9174 12.5509 40.7777C12.4488 40.6379 12.4202 40.458 12.4738 40.2939L14.1069 35.3043C14.1996 35.0209 14.5064 34.8663 14.791 34.9581C15.0761 35.0502 15.232 35.3547 15.1394 35.6379L13.7374 39.9213H22.1347C22.4344 39.9213 22.6775 40.1629 22.6775 40.4607C22.6775 40.7586 22.4343 41.0001 22.1346 41.0001Z" fill="#1E1E1E"/>
<path d="M49.0154 40.9998H40.0311C39.7314 40.9998 39.4883 40.7582 39.4883 40.4604C39.4883 40.1625 39.7314 39.921 40.0311 39.921H48.2681L46.8492 35.5853C46.7566 35.302 46.9124 34.9977 47.1976 34.9054C47.4833 34.8135 47.7891 34.9684 47.8817 35.2516L49.5316 40.2935C49.5853 40.4577 49.5567 40.6376 49.4545 40.7774C49.3524 40.9171 49.1891 40.9998 49.0154 40.9998Z" fill="#1E1E1E"/>
<path d="M17.545 27.0845C17.4894 27.0845 17.4329 27.0759 17.3771 27.0579C17.0921 26.9659 16.936 26.6615 17.0287 26.3782L18.9974 20.3591C19.0701 20.1368 19.2784 19.9863 19.5136 19.9863H42.4907C42.7258 19.9863 42.9342 20.1367 43.0069 20.359L44.9701 26.358C45.0627 26.6413 44.9069 26.9456 44.6217 27.0379C44.3368 27.1301 44.0304 26.975 43.9376 26.6917L42.0963 21.0652H19.9076L18.0609 26.7117C17.9863 26.9396 17.7736 27.0845 17.5448 27.0845H17.545Z" fill="#1E1E1E"/>
<path d="M7.40921 21.347C5.16964 21.347 3.34766 19.5371 3.34766 17.3124C3.34766 15.0876 5.16973 13.2778 7.40921 13.2778C9.64869 13.2778 11.4708 15.0877 11.4708 17.3124C11.4708 19.537 9.64869 21.347 7.40921 21.347ZM7.40921 14.3567C5.76816 14.3567 4.43325 15.6826 4.43325 17.3124C4.43325 18.9421 5.76825 20.2681 7.40921 20.2681C9.05017 20.2681 10.3852 18.9422 10.3852 17.3124C10.3852 15.6825 9.05017 14.3567 7.40921 14.3567Z" fill="#1E1E1E"/>
<path d="M11.7045 36.1583H0L0.0116701 26.8613C0.0116701 24.2166 2.17796 22.0645 4.84082 22.0645H6.8858C8.09723 22.0645 9.25221 22.5104 10.1446 23.3214C10.342 23.4456 10.5266 23.5937 10.6937 23.7622L15.8748 28.9905H21.2685C22.4807 28.9905 23.4668 29.9704 23.4668 31.1751C23.4668 32.3798 22.4807 33.3593 21.2685 33.3593H14.9402C14.2693 33.3593 13.6276 33.0486 13.2125 32.5256C13.1787 32.4946 13.1453 32.4628 13.1127 32.4297L11.7105 31.0154L11.7044 36.1584L11.7045 36.1583ZM1.08704 35.0795H10.6201L10.6283 28.3864L13.8865 31.6729C13.9161 31.7028 13.9462 31.7307 13.9768 31.7579L14.0164 31.7934L14.0484 31.836C14.2611 32.1185 14.5862 32.2805 14.9403 32.2805H21.2687C21.8822 32.2805 22.3814 31.7846 22.3814 31.1752C22.3814 30.5657 21.8822 30.0694 21.2687 30.0694H15.4205L9.9203 24.5194C9.80251 24.4006 9.67215 24.2978 9.53292 24.2139L9.4847 24.1849L9.44354 24.1466C8.74759 23.4996 7.83931 23.1434 6.88589 23.1434H4.84092C2.77676 23.1434 1.09735 24.8117 1.09735 26.8622L1.08713 35.0795L1.08704 35.0795Z" fill="#1E1E1E"/>
<path d="M56.0034 21.347C53.7647 21.347 51.9434 19.5371 51.9434 17.3124C51.9434 15.0876 53.7647 13.2778 56.0034 13.2778C58.242 13.2778 60.063 15.0877 60.063 17.3124C60.063 19.537 58.2419 21.347 56.0034 21.347ZM56.0034 14.3567C54.3632 14.3567 53.0289 15.6826 53.0289 17.3124C53.0289 18.9421 54.3632 20.2681 56.0034 20.2681C57.6435 20.2681 58.9774 18.9422 58.9774 17.3124C58.9774 15.6825 57.6432 14.3567 56.0034 14.3567Z" fill="#1E1E1E"/>
<path d="M61.9992 36.1584H50.2993L50.2932 31.2263L49.1004 32.43C48.8647 32.6677 48.5977 32.8623 48.3065 33.0091C47.9504 33.2384 47.5384 33.3594 47.1126 33.3594H40.7825C39.5702 33.3594 38.584 32.3796 38.584 31.1752C38.584 29.9708 39.5702 28.9906 40.7825 28.9906H46.3383L51.1309 24.153C52.0333 22.8442 53.5188 22.0645 55.1157 22.0645H57.1597C59.8218 22.0645 61.9876 24.2166 61.9876 26.8621L61.9992 36.1583L61.9992 36.1584ZM51.3834 35.0795H60.9121L60.9019 26.8629C60.9019 24.8117 59.223 23.1434 57.1596 23.1434H55.1156C53.8642 23.1434 52.7008 23.7614 52.0035 24.7966L51.9751 24.8387L46.793 30.0696H40.7826C40.1689 30.0696 39.6697 30.5657 39.6697 31.1754C39.6697 31.7851 40.1689 32.2807 40.7826 32.2807H47.1126C47.3345 32.2807 47.5487 32.2159 47.7322 32.0934L47.7626 32.0731L47.7953 32.057C47.9896 31.962 48.1687 31.8327 48.3272 31.673L51.3757 28.5965L51.3836 35.0796L51.3834 35.0795Z" fill="#1E1E1E"/>
<path d="M30.9519 7.62556C28.8363 7.62556 27.1152 5.91518 27.1152 3.81283C27.1152 1.71047 28.8364 0 30.9519 0C33.0673 0 34.7885 1.71038 34.7885 3.81283C34.7885 5.91527 33.0674 7.62556 30.9519 7.62556ZM30.9519 1.07882C29.4349 1.07882 28.2008 2.30526 28.2008 3.81283C28.2008 5.32039 29.435 6.54674 30.9519 6.54674C32.4688 6.54674 33.703 5.3203 33.703 3.81283C33.703 2.30535 32.4688 1.07882 30.9519 1.07882Z" fill="#1E1E1E"/>
<path d="M35.8762 18.9328C35.5764 18.9328 35.3334 18.6912 35.3334 18.3934V11.9212C35.3334 10.6423 34.2863 9.60177 32.9993 9.60177H28.9959C27.7088 9.60177 26.6618 10.6423 26.6618 11.9212V18.3934C26.6618 18.6912 26.4187 18.9328 26.119 18.9328C25.8193 18.9328 25.5762 18.6912 25.5762 18.3934V11.9212C25.5762 10.0474 27.1102 8.52295 28.9959 8.52295H32.9993C34.8849 8.52295 36.4189 10.0474 36.4189 11.9212V18.3934C36.4189 18.6912 36.1759 18.9328 35.8762 18.9328Z" fill="#1E1E1E"/>
<path d="M31.1485 34.4897C29.3435 34.4897 27.875 33.0304 27.875 31.2365C27.875 29.4426 29.3434 27.9834 31.1485 27.9834C32.9536 27.9834 34.4221 29.4427 34.4221 31.2365C34.4221 33.0303 32.9537 34.4897 31.1485 34.4897ZM31.1485 29.0623C29.9421 29.0623 28.9606 30.0377 28.9606 31.2366C28.9606 32.4354 29.9421 33.411 31.1485 33.411C32.3549 33.411 33.3365 32.4355 33.3365 31.2366C33.3365 30.0377 32.355 29.0623 31.1485 29.0623Z" fill="#5DA9A2"/>
</g>
<defs>
<clipPath id="clip0_2455_580">
<rect width="62" height="41" fill="white"/>
</clipPath>
</defs>
</svg>
