<svg width="57" height="72" viewBox="0 0 57 72" fill="none" xmlns="http://www.w3.org/2000/svg">
<g clip-path="url(#clip0_2455_1230)">
<path d="M23.2898 33.9795C19.2895 33.9795 16.0352 30.7187 16.0352 26.7103C16.0352 22.702 19.2895 19.4414 23.2898 19.4414C27.2901 19.4414 30.5433 22.7022 30.5433 26.7103C30.5433 30.7185 27.2895 33.9795 23.2898 33.9795ZM23.2898 21.579C20.4657 21.579 18.168 23.8809 18.168 26.7105C18.168 29.5402 20.4657 31.8423 23.2898 31.8423C26.1139 31.8423 28.4105 29.5402 28.4105 26.7105C28.4105 23.8809 26.1134 21.579 23.2898 21.579Z" fill="#1E1E1E"/>
<path d="M27.8093 71.9999C25.6113 71.9999 23.8231 70.1808 23.8231 67.9446V56.909C23.8231 56.6135 23.5833 56.3733 23.2884 56.3733C22.9935 56.3733 22.7538 56.6137 22.7538 56.9092V67.9446C22.7538 70.1808 20.9655 71.9999 18.7675 71.9999C16.6375 71.9999 15.0312 70.2564 15.0312 67.9446V53.9031C15.0312 53.8965 15.0312 53.8899 15.0312 53.8831V42.6063C15.0312 42.0162 15.5088 41.5376 16.0977 41.5376C16.6866 41.5376 17.1641 42.0162 17.1641 42.6063V53.8666C17.1641 53.8732 17.1641 53.8798 17.1641 53.8866V67.9446C17.1641 68.8683 17.6659 69.8626 18.7675 69.8626C19.7895 69.8626 20.6209 69.0022 20.6209 67.9446V56.909C20.6213 55.435 21.8179 54.236 23.2884 54.236C24.7589 54.236 25.9558 55.435 25.9558 56.909V67.9446C25.9558 69.0022 26.7872 69.8626 27.8093 69.8626C28.9108 69.8626 29.4126 68.8683 29.4126 67.9446V53.8866C29.4126 53.8802 29.4126 53.8736 29.4126 53.8668V42.6065C29.4126 42.0164 29.8902 41.5378 30.4791 41.5378C31.0679 41.5378 31.5455 42.0164 31.5455 42.6065V53.8831C31.5455 53.8895 31.5455 53.896 31.5455 53.9028V67.9446C31.5455 70.2564 29.9394 71.9999 27.8093 71.9999Z" fill="#1E1E1E"/>
<path d="M33.2156 55.6749C31.1372 55.6749 29.4465 53.9553 29.4465 51.8417C29.4465 51.2516 29.924 50.773 30.5129 50.773C31.1018 50.773 31.5793 51.2516 31.5793 51.8417C31.5793 52.7767 32.3134 53.5376 33.2156 53.5376C34.1808 53.5376 34.6204 52.6585 34.6204 51.8417V42.3015C34.6204 39.4062 32.2696 37.0504 29.3803 37.0504H17.1991C14.3097 37.0504 11.959 39.4062 11.959 42.3015V51.8417C11.959 52.6584 12.3988 53.5376 13.3638 53.5376C14.266 53.5376 15.0001 52.7769 15.0001 51.8417C15.0001 51.2516 15.4777 50.773 16.0666 50.773C16.6554 50.773 17.133 51.2516 17.133 51.8417C17.133 53.9553 15.442 55.6749 13.3638 55.6749C11.3471 55.6749 9.82617 54.027 9.82617 51.8417V42.3015C9.82617 38.2273 13.1339 34.9131 17.1991 34.9131H29.3803C33.4458 34.9131 36.7533 38.2275 36.7533 42.3015V51.8417C36.7533 54.0268 35.2323 55.6749 33.2156 55.6749Z" fill="#1E1E1E"/>
<path d="M7.3112 40.1447C7.07173 40.1447 6.83072 40.0643 6.63178 39.8993C5.18162 38.6966 4.34961 36.9253 4.34961 35.0402C4.34961 31.5637 7.17237 28.7354 10.642 28.7354C12.839 28.7354 14.8408 29.8549 15.9972 31.7298C16.3069 32.2319 16.1518 32.8906 15.6507 33.2007C15.1493 33.511 14.4924 33.3553 14.1829 32.8534C13.4182 31.613 12.0945 30.8727 10.642 30.8727C8.34835 30.8727 6.48248 32.7423 6.48248 35.0402C6.48248 36.2862 7.03257 37.4571 7.99158 38.2526C8.4453 38.629 8.50871 39.3026 8.13313 39.7573C7.92217 40.0124 7.61775 40.1445 7.311 40.1445L7.3112 40.1447Z" fill="#1E1E1E"/>
<path d="M7.71736 71.9999C5.82415 71.9999 4.39648 70.4561 4.39648 68.4091V57.195C4.39648 57.1884 4.39648 57.1818 4.39648 57.1752V48.3441C4.39648 47.754 4.87405 47.2754 5.46292 47.2754C6.05179 47.2754 6.52935 47.754 6.52935 48.3441V57.1583C6.52935 57.1649 6.52935 57.1713 6.52935 57.1781V68.4091C6.52935 69.1327 6.89679 69.8625 7.71736 69.8625C8.48888 69.8625 9.11691 69.2106 9.11691 68.4091V59.7307C9.11691 58.3945 10.2018 57.3071 11.5354 57.3071C12.1243 57.3071 12.6018 57.7857 12.6018 58.3758C12.6018 58.9659 12.1243 59.4445 11.5354 59.4445C11.378 59.4445 11.2498 59.5727 11.2498 59.7307V68.4091C11.2498 70.3891 9.66506 71.9999 7.71736 71.9999Z" fill="#1E1E1E"/>
<path d="M3.15355 58.8548C1.35592 58.8548 0 57.3917 0 55.4513V48.087C0 44.7467 2.56487 41.9951 5.82448 41.7062C5.89874 41.6899 5.97592 41.6812 6.05503 41.6812H6.39241C6.98127 41.6812 7.45884 42.1597 7.45884 42.7498C7.45884 43.3399 6.98127 43.8185 6.39241 43.8185C4.04373 43.8185 2.13268 45.7332 2.13268 48.087V55.4513C2.13268 56.0815 2.44834 56.7174 3.15335 56.7174C3.82404 56.7174 4.36948 56.1495 4.36948 55.4513C4.36948 54.8612 4.84705 54.3827 5.43591 54.3827C6.02478 54.3827 6.50235 54.8612 6.50235 55.4513C6.50235 57.3279 5.00022 58.8548 3.15355 58.8548Z" fill="#1E1E1E"/>
<path d="M39.1701 40.1445C38.8633 40.1445 38.5589 40.0126 38.3479 39.7573C37.9724 39.3026 38.036 38.6288 38.4895 38.2526C39.4483 37.4573 39.9984 36.2864 39.9984 35.0402C39.9984 32.7423 38.1325 30.8727 35.8391 30.8727C34.3868 30.8727 33.0631 31.6132 32.2979 32.8534C31.9881 33.3555 31.3306 33.5108 30.8301 33.2007C30.3291 32.8902 30.174 32.2319 30.4837 31.7298C31.6402 29.8547 33.6422 28.7354 35.8391 28.7354C39.3087 28.7354 42.1313 31.5638 42.1313 35.0402C42.1313 36.9255 41.2996 38.6964 39.8493 39.8993C39.6503 40.0643 39.4093 40.1447 39.1699 40.1447L39.1701 40.1445Z" fill="#1E1E1E"/>
<path d="M38.7632 71.9999C36.8155 71.9999 35.231 70.3891 35.231 68.4091V59.7307C35.231 59.5729 35.1028 59.4445 34.9453 59.4445C34.3565 59.4445 33.8789 58.9659 33.8789 58.3758C33.8789 57.7857 34.3565 57.3071 34.9453 57.3071C36.2788 57.3071 37.3636 58.3945 37.3636 59.7307V68.4091C37.3636 69.2106 37.9915 69.8625 38.7632 69.8625C39.5839 69.8625 39.9514 69.1325 39.9514 68.4091V57.1781C39.9514 57.1715 39.9514 57.1651 39.9514 57.1583V48.3441C39.9514 47.754 40.429 47.2754 41.0178 47.2754C41.6067 47.2754 42.0843 47.754 42.0843 48.3441V57.1752C42.0843 57.1816 42.0843 57.1882 42.0843 57.195V68.4091C42.0843 70.4561 40.6566 71.9999 38.7632 71.9999Z" fill="#1E1E1E"/>
<path d="M43.327 58.8548C41.4803 58.8548 39.978 57.3281 39.978 55.4513C39.978 54.8612 40.4555 54.3827 41.0444 54.3827C41.6333 54.3827 42.1109 54.8612 42.1109 55.4513C42.1109 56.1495 42.6563 56.7174 43.327 56.7174C44.032 56.7174 44.3475 56.0817 44.3475 55.4513V48.087C44.3475 45.7334 42.4368 43.8185 40.0879 43.8185C39.4991 43.8185 39.0215 43.3399 39.0215 42.7498C39.0215 42.1597 39.4991 41.6812 40.0879 41.6812H40.4253C40.5044 41.6812 40.5818 41.6899 40.6558 41.7062C43.9156 41.9953 46.4801 44.7465 46.4801 48.087V55.4513C46.4801 57.3915 45.1248 58.8548 43.327 58.8548Z" fill="#1E1E1E"/>
<path d="M34.6414 22.0905C32.8205 22.0905 31.0584 21.105 30.1529 19.3817C29.5246 18.1865 29.3998 16.8136 29.8013 15.516C30.2029 14.2184 31.0811 13.1573 32.2737 12.528L35.3051 10.9283C35.5552 10.7963 35.8478 10.7691 36.1177 10.8531C36.388 10.937 36.6137 11.1251 36.7454 11.3758L40.4702 18.4636C40.7447 18.9859 40.5446 19.6321 40.0234 19.9071L36.9922 21.5068C36.2418 21.9028 35.436 22.0905 34.6414 22.0905ZM35.3551 13.3171L33.2673 14.4188C32.5785 14.7823 32.0711 15.3967 31.8384 16.1488C31.6058 16.901 31.6773 17.6953 32.0399 18.3855C32.7928 19.8183 34.5689 20.3697 35.9985 19.6154L38.0862 18.5137L35.3551 13.3171Z" fill="#5DA9A2"/>
<path d="M39.5287 20.0302C39.1453 20.0302 38.775 19.8227 38.5842 19.4594C38.3096 18.9371 38.5098 18.2908 39.0309 18.0159C42.6702 16.0954 47.289 16.2374 49.959 16.5444L43.6932 4.62168C42.4356 7.00153 39.9397 10.8983 36.2999 12.819C35.7787 13.0943 35.1334 12.8934 34.8594 12.3715C34.5849 11.8492 34.785 11.203 35.3062 10.928C39.9434 8.48077 42.6297 1.9053 42.6562 1.83924C42.8114 1.45315 43.1765 1.19201 43.5912 1.17102C44.0054 1.15237 44.3955 1.37174 44.589 1.73995L52.837 17.4345C53.0307 17.8029 52.9931 18.2508 52.7407 18.5817C52.4876 18.9124 52.0671 19.0663 51.661 18.9754C51.5924 18.9602 44.6619 17.4598 40.0245 19.9069C39.8661 19.9906 39.696 20.0302 39.5285 20.0302H39.5287Z" fill="#5DA9A2"/>
<path d="M38.0775 26.6262C37.5794 26.6262 37.0954 26.4672 36.6857 26.1645C36.1796 25.7903 35.8494 25.2422 35.7558 24.6214L35.1879 20.8509C35.1 20.2674 35.5008 19.7227 36.0833 19.6347C36.665 19.5457 37.2088 19.9483 37.2969 20.532L37.8648 24.3025C37.8757 24.3748 37.9181 24.4199 37.9519 24.4447C37.9858 24.4696 38.042 24.4972 38.113 24.4861C38.1853 24.4752 38.2301 24.4327 38.2549 24.3987C38.2799 24.3649 38.3075 24.3095 38.2964 24.2372L37.6147 19.7111C37.5268 19.1276 37.9276 18.5829 38.5101 18.4949C39.0902 18.4073 39.6359 18.8083 39.7237 19.3922L40.4054 23.9184C40.4989 24.5394 40.3449 25.1606 39.9713 25.6679C39.5979 26.175 39.0509 26.5059 38.4314 26.5996C38.3131 26.6174 38.1948 26.6264 38.0775 26.6264V26.6262Z" fill="#5DA9A2"/>
<path d="M48.9512 13.142C48.5678 13.142 48.1975 12.9345 48.0067 12.5712C47.7322 12.0489 47.9323 11.4026 48.4534 11.1277C48.7441 10.9744 48.9584 10.7144 49.0571 10.3957C49.1557 10.0771 49.1257 9.74131 48.9725 9.45005C48.6541 8.84401 47.9024 8.61046 47.298 8.9297C46.7768 9.20484 46.1319 9.00412 45.8574 8.48202C45.583 7.95973 45.7831 7.31347 46.3043 7.03853C47.9495 6.17077 49.993 6.80517 50.8595 8.45404C51.2781 9.2505 51.3613 10.1649 51.0939 11.0288C50.8266 11.8927 50.2416 12.5993 49.447 13.0188C49.2886 13.1024 49.1185 13.142 48.951 13.142H48.9512Z" fill="#5DA9A2"/>
<path d="M52.6906 8.55711C52.3073 8.55711 51.937 8.34959 51.7462 7.98624C51.4716 7.46395 51.6717 6.81769 52.1929 6.54275L55.1719 4.97063C55.6933 4.6953 56.3382 4.89602 56.6124 5.41811C56.887 5.94041 56.6869 6.58666 56.1657 6.8616L53.1866 8.43372C53.0282 8.51747 52.8582 8.55711 52.6906 8.55711Z" fill="#5DA9A2"/>
<path d="M48.0905 5.36033C47.9858 5.36033 47.8794 5.34479 47.7743 5.31214C47.2118 5.13727 46.8971 4.53862 47.0716 3.97494L48.0688 0.752395C48.2433 0.188523 48.8415 -0.126251 49.4032 0.0480404C49.9657 0.222915 50.2804 0.821567 50.1059 1.38525L49.1087 4.60779C48.9669 5.06615 48.5456 5.36033 48.0905 5.36033Z" fill="#5DA9A2"/>
<path d="M55.9333 15.1656C55.8286 15.1656 55.7221 15.15 55.617 15.1174L52.4012 14.1181C51.8387 13.9432 51.524 13.3445 51.6985 12.7809C51.8729 12.217 52.4708 11.9018 53.0329 12.0765L56.2487 13.0758C56.8112 13.2507 57.1259 13.8493 56.9514 14.413C56.8097 14.8714 56.3881 15.1656 55.9333 15.1656Z" fill="#5DA9A2"/>
</g>
<defs>
<clipPath id="clip0_2455_1230">
<rect width="57" height="72" fill="white"/>
</clipPath>
</defs>
</svg>
