<svg width="46" height="44" viewBox="0 0 46 44" fill="none" xmlns="http://www.w3.org/2000/svg">
<g clip-path="url(#clip0_2455_1252)">
<path d="M30.3121 15.7618C34.0489 15.8081 37.4663 18.1101 38.7541 21.6358C40.0358 25.1444 38.9469 29.1511 36.0863 31.5555C33.2007 33.981 28.9519 34.3087 25.7135 32.3859C22.491 30.4726 20.7552 26.633 21.498 22.9627C22.3429 18.7871 26.0614 15.8144 30.3121 15.7618C30.9744 15.7536 30.9763 14.7283 30.3121 14.7365C26.1392 14.7883 22.3851 17.3499 20.9169 21.2567C19.4397 25.1876 20.7143 29.7832 23.9824 32.423C27.2095 35.0296 31.8501 35.397 35.4304 33.2712C39.0338 31.1319 40.9167 26.8989 40.1408 22.8043C39.2557 18.1325 35.0344 14.795 30.312 14.7364C29.649 14.7282 29.6485 15.7534 30.312 15.7616L30.3121 15.7618Z" fill="#5DA9A2"/>
<path d="M30.3371 34.9173C28.0169 34.9173 25.7022 34.1417 23.8206 32.6218C20.4559 29.9041 19.1627 25.1934 20.6761 21.1666C22.1548 17.2314 26.0085 14.5482 30.2731 14.4806C30.2863 14.48 30.299 14.4799 30.3125 14.48C30.3247 14.48 30.3385 14.48 30.3519 14.4806C35.2792 14.5583 39.4994 18.0338 40.3943 22.7567C41.1958 26.9858 39.2539 31.2996 35.5627 33.4911C33.953 34.4468 32.1433 34.9172 30.3369 34.9173H30.3371ZM29.5852 15.0289C25.8122 15.3553 22.4829 17.8225 21.1586 21.3464C19.7217 25.17 20.9499 29.643 24.1452 32.2239C27.3246 34.7917 31.8069 35.1244 35.2992 33.0511C38.8057 30.9692 40.65 26.8705 39.8885 22.8521C39.081 18.5912 35.4204 15.3998 31.0399 15.0284C31.0847 15.1957 31.0758 15.377 31.0133 15.54C34.6173 15.8503 37.7723 18.1968 38.9968 21.5483C40.3167 25.1621 39.2143 29.2625 36.2531 31.7514C33.3012 34.2325 28.9135 34.5841 25.582 32.6061C22.2717 30.6409 20.4886 26.6545 21.246 22.9122C22.0578 18.901 25.5173 15.8957 29.6116 15.5401C29.5493 15.3775 29.5406 15.1958 29.5852 15.0289ZM30.3125 16.0181C26.1609 16.071 22.5606 19.0124 21.7509 23.0132C21.0359 26.5463 22.7197 30.3099 25.8457 32.1658C28.9911 34.0336 33.1343 33.7021 35.9206 31.3594C38.7176 29.0086 39.7591 25.1361 38.5125 21.7233C37.2831 18.3575 33.9878 16.0651 30.3124 16.0179L30.3125 16.0181ZM30.287 14.9932C30.2059 14.9971 30.1486 15.0294 30.1117 15.0909C30.0602 15.1772 30.0597 15.3047 30.1101 15.3942C30.1512 15.467 30.2174 15.5034 30.3125 15.5053C30.4076 15.5032 30.4736 15.4668 30.5148 15.394C30.5654 15.3042 30.5649 15.1767 30.5136 15.0907C30.4768 15.0294 30.4195 14.9973 30.3385 14.9932C30.3215 14.9932 30.3046 14.9928 30.287 14.9932Z" fill="#5DA9A2"/>
<path d="M30.3129 18.5727C32.864 18.6175 35.1956 20.1584 36.0902 22.5687C36.9881 24.9888 36.2371 27.7569 34.2575 29.413C32.2834 31.0644 29.3852 31.2838 27.1727 29.9772C24.969 28.676 23.7749 26.0675 24.2608 23.5575C24.8212 20.6609 27.3802 18.624 30.3129 18.5727C30.975 18.5611 30.977 17.5358 30.3129 17.5475C27.2853 17.6004 24.5869 19.4476 23.5423 22.2962C22.5213 25.081 23.4328 28.33 25.7249 30.2096C28.0677 32.1307 31.4742 32.3972 34.0692 30.8056C36.5897 29.2595 37.8986 26.2918 37.3804 23.3981C36.7727 20.0049 33.7214 17.6071 30.3129 17.5475C29.6497 17.5358 29.6497 18.5611 30.3129 18.5727Z" fill="#5DA9A2"/>
<path d="M30.3465 32.094C28.6357 32.094 26.9228 31.5233 25.5617 30.4075C23.1775 28.4524 22.248 25.0805 23.3011 22.2082C24.37 19.2928 27.0967 17.3679 30.257 17.2922C30.2756 17.2912 30.2938 17.291 30.3133 17.291C30.3317 17.291 30.3514 17.291 30.3703 17.2922C33.9692 17.3792 37.0195 19.9206 37.6344 23.353C38.1717 26.3535 36.7934 29.4361 34.2047 31.0238C33.0349 31.7413 31.6911 32.0942 30.3461 32.0942L30.3465 32.094ZM29.5821 17.8528C26.9319 18.163 24.7022 19.8819 23.7848 22.384C22.8052 25.0558 23.6705 28.1925 25.8893 30.0117C28.153 31.8679 31.4618 32.1047 33.9347 30.5872C36.3449 29.109 37.628 26.238 37.1276 23.4431C36.595 20.4706 34.0945 18.2165 31.0451 17.8537C31.086 18.0212 31.0736 18.2024 31.0077 18.3643C33.4146 18.658 35.5037 20.2474 36.3323 22.4797C37.2693 25.0049 36.5023 27.87 34.4238 29.6092C32.3822 31.3165 29.3467 31.5586 27.0418 30.1975C24.7551 28.8471 23.5076 26.0967 24.0085 23.5089C24.5369 20.7773 26.8413 18.7046 29.619 18.3644C29.5529 18.2023 29.5409 18.0208 29.5821 17.8528ZM30.3135 18.8289C27.4785 18.8808 25.0399 20.8892 24.5142 23.6059C24.0537 25.9853 25.2012 28.5146 27.3048 29.7566C29.4248 31.0086 32.216 30.7866 34.0927 29.2167C36.0055 27.6165 36.7114 24.9804 35.8493 22.6572C35.016 20.4122 32.7916 18.8741 30.3135 18.8289ZM30.2773 17.8045C30.2021 17.81 30.148 17.8412 30.113 17.8993C30.0615 17.9846 30.0605 18.1121 30.1109 18.2024C30.152 18.2763 30.2182 18.3133 30.3135 18.3162C30.4086 18.3133 30.4747 18.2761 30.5161 18.2021C30.5664 18.1117 30.5657 17.9841 30.5142 17.899C30.4792 17.8411 30.4253 17.81 30.3501 17.8045C30.3379 17.8041 30.3257 17.804 30.3135 17.8036C30.3015 17.804 30.2895 17.8041 30.2773 17.8045Z" fill="#5DA9A2"/>
<path d="M37.8745 30.3691C39.9865 32.4714 42.0984 34.5734 44.2102 36.6757C44.6433 37.1068 44.7619 37.5487 44.2645 38.0439C43.7972 38.5088 43.275 39.3068 42.5561 38.7509C42.0778 38.3812 41.6641 37.8631 41.2365 37.4374C40.5667 36.7707 39.8969 36.1039 39.227 35.4374C38.1529 34.3682 37.079 33.2993 36.0049 32.2301C35.5356 31.7629 34.8071 32.4878 35.2766 32.9551C37.4912 35.1595 39.6171 37.521 41.9508 39.5988C42.8072 40.3612 43.7203 40.0355 44.4433 39.3158C45.1314 38.631 46.0836 37.8902 45.6153 36.7958C45.4089 36.3136 44.9262 35.9389 44.562 35.5763C43.8703 34.8878 43.1787 34.1994 42.4872 33.5111C41.1924 32.2222 39.8976 30.9334 38.6027 29.6445C38.1334 29.1773 37.4048 29.9022 37.8743 30.3695L37.8745 30.3691Z" fill="#5DA9A2"/>
<path d="M42.9968 40.2934C42.5709 40.2934 42.1572 40.1261 41.779 39.7896C40.215 38.3974 38.7251 36.8585 37.2842 35.3704C36.5692 34.632 35.8299 33.8684 35.0943 33.1362C34.8972 32.9402 34.8236 32.6808 34.8924 32.4251C34.9667 32.1488 35.1942 31.9224 35.4719 31.8482C35.7287 31.7795 35.9897 31.8525 36.1866 32.049L41.4181 37.2565C41.563 37.4007 41.7076 37.5565 41.8471 37.7072C42.1239 38.0056 42.4102 38.3143 42.7137 38.5489C43.0972 38.8449 43.3705 38.6267 43.8623 38.0944C43.9371 38.0134 44.0101 37.9343 44.082 37.8631C44.2638 37.6823 44.3446 37.5177 44.3295 37.3605C44.3153 37.2119 44.2138 37.0427 44.0278 36.8575L37.692 30.5509C37.531 30.3907 37.451 30.1858 37.467 29.9742C37.4809 29.7911 37.565 29.6139 37.7041 29.4756C37.9755 29.2053 38.4341 29.1148 38.7843 29.4635L44.7436 35.3953C44.8191 35.4705 44.9001 35.5464 44.9825 35.6236C45.3039 35.925 45.6683 36.2668 45.8518 36.6957C46.3411 37.8386 45.5102 38.6409 44.8425 39.2852C44.7685 39.3568 44.6954 39.4274 44.625 39.4973C44.093 40.0268 43.5347 40.2939 42.9964 40.2939L42.9968 40.2934ZM35.6613 32.3355C35.6431 32.3355 35.6244 32.3383 35.6053 32.3432C35.507 32.3694 35.4161 32.4597 35.3899 32.5575C35.3688 32.6361 35.3913 32.7068 35.4584 32.7738C36.1974 33.5094 36.9383 34.2746 37.655 35.0146C39.0892 36.4961 40.5724 38.0279 42.1221 39.4076C42.9358 40.1319 43.7344 39.6586 44.261 39.1343C44.3331 39.0626 44.408 38.9901 44.484 38.9168C45.2359 38.191 45.7044 37.6582 45.3782 36.8961C45.2368 36.5656 44.9281 36.2762 44.6294 35.9961C44.5433 35.9153 44.4588 35.8358 44.3797 35.7572L38.4204 29.8254C38.3648 29.77 38.3075 29.7461 38.2441 29.7504C38.1835 29.7548 38.1195 29.7868 38.0685 29.8377C38.0175 29.8886 37.9854 29.9524 37.9808 30.0125C37.9761 30.0752 38.0007 30.1326 38.0563 30.188L44.392 36.4945C44.6687 36.77 44.8162 37.0374 44.8423 37.3115C44.8725 37.6262 44.739 37.9336 44.4461 38.2251C44.379 38.2919 44.311 38.3656 44.2413 38.4413C43.8254 38.8914 43.1974 39.5716 42.3978 38.9536C42.0607 38.693 41.7598 38.3685 41.4688 38.0546C41.3263 37.901 41.1917 37.7557 41.0541 37.6187L35.8225 32.4112C35.7715 32.3605 35.7184 32.3355 35.6613 32.3355Z" fill="#5DA9A2"/>
<path d="M37.6943 34.637L40.2921 32.0512C40.7614 31.584 40.0332 30.8588 39.5637 31.3262L36.966 33.912C36.4967 34.3791 37.2248 35.1043 37.6943 34.637Z" fill="#5DA9A2"/>
<path d="M37.3535 35.0461C37.1439 35.0461 36.9425 34.9525 36.7957 34.8065C36.5242 34.5362 36.4328 34.08 36.7835 33.7309L39.3815 31.1451C39.5425 30.9848 39.7476 30.9045 39.9608 30.9211C40.1449 30.9349 40.3229 31.0186 40.4618 31.1571C40.7333 31.4272 40.8246 31.8834 40.4739 32.2324L37.876 34.8183C37.715 34.9786 37.5313 35.0461 37.3535 35.0461ZM39.9085 31.4323C39.858 31.4323 39.8019 31.4515 39.7456 31.5075L37.1476 34.0933C36.9859 34.2545 37.1296 34.4137 37.1598 34.4439C37.19 34.4742 37.3499 34.6167 37.5119 34.4559L40.1098 31.8699C40.2715 31.709 40.128 31.5497 40.0977 31.5195C40.0779 31.4998 40.0029 31.4322 39.9085 31.4322V31.4323Z" fill="#5DA9A2"/>
<path d="M0.257812 0.751534V43.2311C0.257812 43.5083 0.493676 43.7437 0.772799 43.7437H42.9743C43.637 43.7437 43.6381 42.7185 42.9743 42.7185H0.772799L1.28779 43.2311V0.751534C1.28779 0.0917982 0.257812 0.0907729 0.257812 0.751534Z" fill="black"/>
<path d="M42.9738 44H0.77248C0.353796 44 0 43.6478 0 43.2311V0.751494C0 0.258187 0.388472 0 0.772137 0C1.1558 0 1.54496 0.258187 1.54496 0.751494V42.4622H42.9738C43.4695 42.4622 43.7287 42.8488 43.7287 43.2307C43.7287 43.6126 43.4694 44 42.9738 44ZM1.54496 43.4874H42.9738C43.2022 43.4874 43.2137 43.2736 43.2137 43.2307C43.2137 43.1879 43.2022 42.9748 42.9738 42.9748H1.54496V43.4874ZM0.514987 42.8247V43.2313C0.514987 43.3678 0.635322 43.4876 0.77248 43.4876H1.18086L0.514987 42.8247ZM0.514987 42.4622H1.02997V0.751494C1.02997 0.524064 0.815224 0.512615 0.772137 0.512615C0.72905 0.512615 0.514987 0.524064 0.514987 0.751494V42.4622Z" fill="black"/>
<path d="M12.1895 36.8327H6.32553L6.84052 37.3453V23.6205L6.32553 24.1331H12.1895L11.6745 23.6205V37.3453C11.6745 38.005 12.7045 38.0061 12.7045 37.3453V23.6205C12.7045 23.3434 12.4686 23.1079 12.1895 23.1079H6.32553C6.0471 23.1079 5.81055 23.3429 5.81055 23.6205V37.3453C5.81055 37.6224 6.04641 37.8579 6.32553 37.8579H12.1895C12.8523 37.8579 12.8533 36.8327 12.1895 36.8327Z" fill="black"/>
<path d="M12.189 38.1142H6.32521C5.90653 38.1142 5.55273 37.762 5.55273 37.3453V23.6205C5.55273 23.2037 5.90653 22.8516 6.32521 22.8516H12.189C12.6077 22.8516 12.9615 23.2037 12.9615 23.6205V37.3453C12.9615 37.5826 12.8717 37.7654 12.7358 37.8912C12.6094 38.0255 12.4263 38.1142 12.189 38.1142ZM7.09769 37.6016H11.4564C11.4308 37.5248 11.4167 37.4394 11.4167 37.3453V37.0889H7.09787L7.09769 37.6016ZM6.06772 36.9387V37.3453C6.06772 37.4818 6.18806 37.6016 6.32521 37.6016H6.7336L6.06772 36.9387ZM11.9315 37.0889V37.3453C11.9315 37.5725 12.1463 37.584 12.1894 37.584C12.2153 37.584 12.3042 37.5799 12.3701 37.526C12.4247 37.4601 12.4292 37.3709 12.4292 37.3447C12.4292 37.302 12.4177 37.0888 12.1892 37.0888H11.9317L11.9315 37.0889ZM11.9315 36.5763H12.189C12.2836 36.5763 12.3694 36.5903 12.4465 36.6156V24.3892H11.9315V36.5762V36.5763ZM7.09769 36.5763H11.4165V24.3894H7.09769V36.5763ZM6.06772 36.5763H6.58271V24.3894H6.06772V36.5763ZM11.7806 23.3642L12.4465 24.027V23.6205C12.4465 23.484 12.3262 23.3642 12.189 23.3642H11.7806ZM6.32521 23.3642C6.18806 23.3642 6.06772 23.484 6.06772 23.6205V24.027L6.7336 23.3642H6.32521ZM7.09769 23.8768H11.4165V23.3642H7.09769V23.8768Z" fill="black"/>
<path d="M21.8542 34.3842V37.3451L22.3692 36.8325H16.5052L17.0202 37.3451V14.8403L16.5052 15.3529H21.0052C21.668 15.3529 21.669 14.3276 21.0052 14.3276H16.5052C16.2268 14.3276 15.9902 14.5624 15.9902 14.8403V37.3451C15.9902 37.6222 16.2261 37.8577 16.5052 37.8577H22.3692C22.6476 37.8577 22.8842 37.6229 22.8842 37.3451V34.3842C22.8842 33.7245 21.8542 33.7235 21.8542 34.3842Z" fill="black"/>
<path d="M22.3687 38.114H16.5049C16.0862 38.114 15.7324 37.7618 15.7324 37.3451V14.8402C15.7324 14.4235 16.0862 14.0713 16.5049 14.0713H21.0049C21.5006 14.0713 21.7598 14.458 21.7598 14.8399C21.7598 15.2218 21.5004 15.6091 21.0049 15.6091H17.2774V36.5761H21.5962V34.3842C21.5962 33.8907 21.9847 33.6329 22.3684 33.6329C22.752 33.6329 23.1412 33.8909 23.1412 34.3842V37.3451C23.1412 37.7618 22.7874 38.114 22.3687 38.114ZM21.9603 37.6014H22.3687C22.5059 37.6014 22.6262 37.4816 22.6262 37.3451V36.9385L21.9603 37.6014ZM17.2772 37.6014H21.5961V37.0887H17.2772V37.6014ZM16.2472 36.9385V37.3451C16.2472 37.4816 16.3676 37.6014 16.5047 37.6014H16.9131L16.2472 36.9385ZM22.1112 36.5761H22.6262V34.3842C22.6262 34.1569 22.4115 34.1455 22.3684 34.1455C22.3253 34.1455 22.1112 34.1569 22.1112 34.3842V36.5761ZM16.2472 36.5761H16.7622V15.6091H16.2472V36.5761ZM16.5047 14.5839C16.3676 14.5839 16.2472 14.7037 16.2472 14.8402V15.2467L16.9131 14.5839H16.5047ZM17.2772 15.0965H21.0047C21.2332 15.0965 21.2447 14.8828 21.2447 14.8399C21.2447 14.797 21.2332 14.5839 21.0047 14.5839H17.2772V15.0965Z" fill="black"/>
<path d="M32.0359 35.6549V37.3453L32.5508 36.8327H26.6869L27.2018 37.3453V35.6549C27.2018 34.9951 26.1719 34.9941 26.1719 35.6549V37.3453C26.1719 37.6224 26.4077 37.8579 26.6869 37.8579H32.5508C32.8293 37.8579 33.0658 37.6231 33.0658 37.3453V35.6549C33.0658 34.9951 32.0359 34.9941 32.0359 35.6549Z" fill="black"/>
<path d="M32.5504 38.1142H26.6865C26.2679 38.1142 25.9141 37.762 25.9141 37.3452V35.6548C25.9141 35.1615 26.3025 34.9035 26.6862 34.9035C27.0699 34.9035 27.459 35.1617 27.459 35.6548V36.5763H31.7779V35.6548C31.7779 35.4281 31.867 35.2271 32.0283 35.0889C32.1682 34.9693 32.3536 34.9033 32.55 34.9033C32.934 34.9033 33.3228 35.1615 33.3228 35.6546V37.3451C33.3228 37.7618 32.969 38.114 32.5504 38.114V38.1142ZM32.142 37.6016H32.5504C32.6875 37.6016 32.8078 37.4818 32.8078 37.3452V36.9387L32.142 37.6016ZM27.459 37.6016H31.7779V37.0889H27.459V37.6016ZM26.429 36.9387V37.3452C26.429 37.4818 26.5494 37.6016 26.6865 37.6016H27.0949L26.429 36.9387ZM32.2929 36.5763H32.8078V35.6548C32.8078 35.4276 32.5931 35.4161 32.55 35.4161C32.5069 35.4161 32.2929 35.4276 32.2929 35.6548V36.5763ZM26.429 36.5763H26.944V35.6548C26.944 35.4276 26.7293 35.4161 26.6862 35.4161C26.6431 35.4161 26.429 35.4276 26.429 35.6548V36.5763Z" fill="black"/>
<path d="M38.9643 17.2806H42.7323L42.2173 16.768V31.5463C42.2173 32.2061 43.2472 32.2071 43.2472 31.5463V16.768C43.2472 16.4908 43.0114 16.2554 42.7323 16.2554H38.9643C38.3015 16.2554 38.3005 17.2806 38.9643 17.2806Z" fill="black"/>
<path d="M42.7321 32.2976C42.3481 32.2976 41.9593 32.0394 41.9593 31.5463V17.5369H38.964C38.4682 17.5369 38.209 17.1502 38.209 16.7683C38.209 16.3864 38.4684 15.999 38.964 15.999H42.7318C43.1505 15.999 43.5043 16.3512 43.5043 16.7679V31.5463C43.5043 32.0396 43.1158 32.2976 42.7321 32.2976ZM42.4743 17.5367V31.5461C42.4743 31.7734 42.689 31.7848 42.7321 31.7848C42.8044 31.7848 42.8722 31.7623 42.9182 31.7232C42.9659 31.6823 42.9893 31.6244 42.9893 31.5461V17.5367H42.4743ZM42.3234 16.5115L42.9893 17.1743V16.7678C42.9893 16.6312 42.8689 16.5115 42.7318 16.5115H42.3234ZM38.9638 16.5115C38.7353 16.5115 38.7238 16.7252 38.7238 16.7681C38.7238 16.811 38.7353 17.0241 38.9638 17.0241H41.9591V16.5115H38.9638Z" fill="black"/>
<path d="M11.127 17.0881C11.0132 19.4711 7.39128 19.4967 7.38544 17.0881C7.37961 14.6832 11.0132 14.703 11.127 17.0881C11.1584 17.7449 12.1886 17.7487 12.157 17.0881C12.0821 15.5208 10.8892 14.2007 9.25622 14.2007C7.6795 14.2007 6.35547 15.5186 6.35547 17.0881C6.35547 18.6575 7.6795 19.9755 9.25622 19.9755C10.8894 19.9755 12.0821 18.6555 12.157 17.0881C12.1884 16.4285 11.1584 16.4302 11.127 17.0881Z" fill="black"/>
<path d="M9.2559 20.2316C7.54391 20.2316 6.09766 18.7918 6.09766 17.0879C6.09766 15.3839 7.54408 13.9443 9.2559 13.9443C10.9202 13.9443 12.248 15.2119 12.4028 16.9182C12.4123 16.9715 12.4162 17.0281 12.4141 17.0879C12.4164 17.1482 12.4121 17.2049 12.4028 17.2581C12.2476 18.9642 10.92 20.2316 9.2559 20.2316ZM9.2559 14.4568C7.82303 14.4568 6.61264 15.6616 6.61264 17.0877C6.61264 18.5138 7.82321 19.7188 9.2559 19.7188C10.4387 19.7188 11.4185 18.9469 11.7668 17.8322C11.7471 17.8346 11.7271 17.8361 11.7072 17.8371C11.5562 17.8433 11.4018 17.811 11.2661 17.7385C10.9449 18.6853 10.0294 19.1599 9.15479 19.1402C8.18061 19.1183 7.13089 18.467 7.12746 17.0882C7.12403 15.7125 8.17134 15.06 9.14586 15.0357C10.0222 15.0125 10.9439 15.4878 11.2661 16.4365C11.4015 16.3642 11.5553 16.3302 11.7064 16.3382C11.7265 16.3391 11.7465 16.3408 11.7668 16.3432C11.4187 15.2283 10.4387 14.4564 9.2559 14.4564V14.4568ZM9.20526 15.548C9.18964 15.548 9.17419 15.548 9.15874 15.5485C8.40222 15.5673 7.63987 16.0505 7.64245 17.0872C7.64502 18.1281 8.4096 18.611 9.16629 18.6281C9.94203 18.6471 10.8108 18.171 10.8687 17.0879C10.8117 16.024 9.97705 15.548 9.20526 15.548ZM11.3845 17.0877C11.4008 17.285 11.5787 17.3288 11.6825 17.3252C11.7534 17.3218 11.8638 17.297 11.8926 17.1796C11.8952 17.149 11.8971 17.1186 11.8986 17.0877C11.8971 17.0569 11.895 17.0265 11.8926 16.9961C11.8638 16.8785 11.7532 16.8538 11.6818 16.8504C11.5781 16.8473 11.4006 16.8903 11.3845 17.0877Z" fill="black"/>
<path d="M21.4082 6.85468C21.2944 9.23766 17.6725 9.26329 17.6667 6.85468C17.6609 4.44983 21.2944 4.46965 21.4082 6.85468C21.4397 7.51151 22.4698 7.51527 22.4382 6.85468C22.3634 5.28744 21.1705 3.96729 19.5375 3.96729C17.9607 3.96729 16.6367 5.28522 16.6367 6.85468C16.6367 8.42413 17.9607 9.74207 19.5375 9.74207C21.1707 9.74207 22.3634 8.42208 22.4382 6.85468C22.4696 6.19511 21.4397 6.19682 21.4082 6.85468Z" fill="black"/>
<path d="M19.5371 9.99834C17.8252 9.99834 16.3789 8.55874 16.3789 6.85464C16.3789 5.15053 17.8253 3.71094 19.5371 3.71094C21.2014 3.71094 22.5292 4.97864 22.6842 6.68513C22.6937 6.73827 22.6976 6.79483 22.6956 6.85464C22.6978 6.91478 22.6935 6.97134 22.6842 7.02465C22.5291 8.73098 21.2012 9.99834 19.5371 9.99834ZM19.5371 4.22355C18.1043 4.22355 16.8939 5.42854 16.8939 6.85464C16.8939 8.28073 18.1045 9.48572 19.5371 9.48572C20.7199 9.48572 21.6997 8.71389 22.0482 7.59895C22.0283 7.60135 22.0084 7.60306 21.9881 7.60391C21.8407 7.61177 21.6833 7.57777 21.5475 7.50532C21.2263 8.45212 20.3155 8.92885 19.4359 8.90698C18.4619 8.88511 17.4121 8.23374 17.4087 6.85498C17.4053 5.47946 18.4526 4.82673 19.4271 4.80264C20.304 4.77906 21.2251 5.25459 21.5475 6.20344C21.6829 6.13117 21.8367 6.09682 21.9875 6.10502C22.0077 6.10588 22.0278 6.10776 22.0482 6.11015C21.6999 4.99521 20.7199 4.22355 19.5371 4.22355ZM19.4865 5.31474C19.4709 5.31474 19.4554 5.31474 19.44 5.31525C18.6835 5.33405 17.9211 5.8171 17.9237 6.85395C17.9263 7.89456 18.6909 8.37762 19.4474 8.39453C20.2329 8.4135 21.0921 7.93745 21.1501 6.85447C21.0931 5.79062 20.2583 5.31474 19.4865 5.31474ZM21.6659 6.85464C21.6824 7.05199 21.8589 7.09745 21.9638 7.09198C22.0347 7.08856 22.1452 7.06378 22.1741 6.94639C22.1766 6.91598 22.1785 6.88539 22.1801 6.85464C22.1785 6.82388 22.1765 6.79346 22.1741 6.76305C22.1452 6.64549 22.0345 6.62054 21.9631 6.61713C21.8603 6.61251 21.6824 6.65711 21.6661 6.85447L21.6659 6.85464Z" fill="black"/>
<path d="M41.5941 3.93876C42.1533 6.26006 38.6973 7.29964 38.0053 4.99185C37.3138 2.68542 40.8159 1.68001 41.5941 3.93876C41.8078 4.5592 42.8031 4.29281 42.5873 3.66622C42.0764 2.18323 40.5677 1.23916 38.997 1.6906C37.4829 2.12564 36.5753 3.75644 37.0122 5.26439C37.4488 6.77148 39.0878 7.67505 40.6025 7.24001C42.1686 6.79027 42.955 5.19211 42.5873 3.66622C42.4328 3.02494 41.4394 3.29646 41.5941 3.93876Z" fill="black"/>
<path d="M39.8194 7.60703C39.2905 7.60703 38.7628 7.47135 38.2789 7.20496C37.533 6.79436 36.9954 6.13035 36.7654 5.33563C36.2912 3.69919 37.2809 1.91734 38.9261 1.4447C40.5212 0.986597 42.1482 1.83788 42.7765 3.43365C42.8007 3.48252 42.8206 3.53635 42.8355 3.59496C42.8527 3.64707 42.864 3.69885 42.87 3.74994C43.2053 5.4349 42.2812 7.02504 40.6746 7.48656C40.3938 7.56721 40.1064 7.6072 39.8196 7.6072L39.8194 7.60703ZM39.7892 1.83463C39.5514 1.83463 39.3097 1.86778 39.0689 1.93699C37.6918 2.33273 36.8634 3.82392 37.2603 5.19363C37.4523 5.85696 37.9026 6.41212 38.5283 6.75642C39.1542 7.10107 39.8659 7.18514 40.5318 6.99394C41.6732 6.6662 42.4015 5.65174 42.4221 4.48298C42.406 4.48964 42.3897 4.49579 42.3729 4.50143C42.2278 4.55115 42.0653 4.56209 41.9114 4.5286C41.868 5.52734 41.1283 6.23766 40.2813 6.46441C39.3437 6.71559 38.155 6.38461 37.7593 5.06531C37.3633 3.74447 38.1855 2.82296 39.1171 2.52581C39.9598 2.25703 40.973 2.45592 41.5479 3.27782C41.6558 3.17393 41.7923 3.10096 41.9346 3.06713C41.9568 3.06184 41.9793 3.05739 42.0017 3.05398C41.4921 2.28864 40.6686 1.83463 39.7894 1.83463H39.7892ZM39.8431 2.9248C39.6484 2.9248 39.455 2.95624 39.2742 3.01382C38.5508 3.24467 37.9545 3.9232 38.2528 4.91853C38.5515 5.91488 39.4199 6.16418 40.1476 5.96922C40.9012 5.76759 41.5959 5.0689 41.3472 4.01034C41.0746 3.23373 40.4535 2.9248 39.8431 2.9248ZM41.8424 3.86715C41.9157 4.05802 42.1107 4.04879 42.2057 4.01667C42.2829 3.99018 42.3648 3.9367 42.3602 3.82802C42.354 3.79795 42.3475 3.76805 42.3403 3.73797C42.3301 3.7091 42.3197 3.68022 42.3088 3.65186C42.2422 3.53669 42.1133 3.55155 42.0544 3.56557C42.0275 3.57206 41.7945 3.63477 41.8424 3.86715Z" fill="black"/>
<path d="M17.4857 8.17138L10.5793 15.0461C10.1099 15.5132 10.8381 16.2384 11.3076 15.7711C13.6098 13.4795 15.9119 11.188 18.2141 8.89639C18.6834 8.42923 17.9552 7.70405 17.4857 8.17138Z" fill="black"/>
<path d="M10.964 16.1785C10.9014 16.1785 10.838 16.1701 10.7747 16.1533C10.4971 16.0792 10.2697 15.8528 10.1952 15.5765C10.1263 15.3205 10.1998 15.0611 10.397 14.8651L17.3035 7.99044C17.6539 7.64152 18.1121 7.73226 18.3836 8.00241C18.6552 8.27255 18.7465 8.72878 18.3958 9.07787L11.4893 15.9526C11.3408 16.1005 11.1561 16.1786 10.9639 16.1786L10.964 16.1785ZM17.8305 8.27751C17.7801 8.27751 17.7241 8.29682 17.6678 8.35269L10.7613 15.2274C10.694 15.2944 10.6717 15.3651 10.693 15.4437C10.7192 15.5416 10.8099 15.6318 10.9082 15.6581C10.9876 15.679 11.0585 15.6569 11.1256 15.59L18.0321 8.71528C18.1938 8.55432 18.0501 8.3949 18.0199 8.36482C18.0001 8.345 17.9251 8.27751 17.8305 8.27751Z" fill="black"/>
<path d="M38.3363 6.35364C37.196 8.71133 36.0556 11.069 34.9154 13.4267C34.6293 14.0184 35.5171 14.5391 35.8048 13.9441C36.9452 11.5864 38.0855 9.22873 39.2257 6.87104C39.5119 6.27932 38.624 5.75867 38.3363 6.35364Z" fill="black"/>
<path d="M35.4095 14.4632C35.3 14.4632 35.1865 14.4378 35.0753 14.3843C34.7124 14.2103 34.4662 13.763 34.6827 13.3157L38.1036 6.24258C38.2835 5.87145 38.6874 5.73321 39.0642 5.91365C39.4272 6.0876 39.6736 6.53494 39.4571 6.98229L36.0361 14.0554C35.9094 14.3171 35.6713 14.4632 35.4097 14.4632H35.4095ZM38.5676 6.46506L35.1467 13.538C35.05 13.738 35.2038 13.877 35.2988 13.9224C35.4232 13.9822 35.5147 13.952 35.572 13.8331L38.9931 6.76015C39.0898 6.56023 38.9358 6.42114 38.8408 6.37569C38.7167 6.31623 38.6252 6.34647 38.5676 6.46506Z" fill="black"/>
<path d="M24.4022 13.7609C23.3293 12.0566 22.2565 10.3524 21.1836 8.64809C20.8323 8.0902 19.9409 8.60435 20.2942 9.16549C21.3671 10.8698 22.44 12.574 23.5129 14.2783C23.8641 14.8362 24.7555 14.3221 24.4022 13.7609Z" fill="black"/>
<path d="M23.9314 14.7739C23.6943 14.7739 23.454 14.6682 23.294 14.4144L20.0755 9.3016C19.9298 9.07024 19.9157 8.80693 20.0367 8.5795C20.1694 8.3302 20.443 8.1624 20.734 8.15198C21.0109 8.14121 21.2512 8.27347 21.4014 8.512L24.6201 13.6248C24.8777 14.0342 24.6917 14.4486 24.3746 14.6465C24.2448 14.7275 24.0888 14.7739 23.9314 14.7739ZM20.7628 8.66408C20.7594 8.66408 20.7561 8.66408 20.7525 8.66408C20.6475 8.66784 20.5376 8.73328 20.4918 8.8194C20.4573 8.88433 20.4638 8.95302 20.5119 9.0294L23.7304 14.1421C23.8624 14.3522 24.0773 14.2266 24.101 14.2118C24.1617 14.174 24.2908 14.0677 24.1832 13.8969L20.9645 8.78403C20.9137 8.70321 20.8475 8.66391 20.7625 8.66391L20.7628 8.66408Z" fill="black"/>
</g>
<defs>
<clipPath id="clip0_2455_1252">
<rect width="46" height="44" fill="white"/>
</clipPath>
</defs>
</svg>
