<svg width="50" height="35" viewBox="0 0 50 35" fill="none" xmlns="http://www.w3.org/2000/svg">
<g clip-path="url(#clip0_2455_1163)">
<path d="M42.4218 34.9998C42.2885 34.9998 42.155 34.9642 42.0367 34.893L41.8677 34.7914C41.6799 34.6783 39.9881 33.645 38.311 32.0941C36.0103 29.9666 34.8438 27.9091 34.8438 25.979C34.8438 23.5833 36.8095 21.6343 39.2257 21.6343C40.4526 21.6343 41.604 22.1425 42.4219 23.0072C43.2398 22.1425 44.391 21.6343 45.618 21.6343C48.0341 21.6343 50 23.5833 50 25.979C50 27.9091 48.8333 29.9666 46.5327 32.0941C44.8552 33.6451 43.1633 34.6786 42.9758 34.7914L42.8074 34.8928C42.689 34.9641 42.5556 34.9997 42.4222 34.9997L42.4218 34.9998ZM39.2256 23.1061C37.6278 23.1061 36.3279 24.3948 36.3279 25.9791C36.3279 29.2985 41.3133 32.6857 42.4215 33.3975C43.5304 32.6853 48.5153 29.2981 48.5153 25.9791C48.5153 24.395 47.2153 23.1061 45.6176 23.1061C44.5574 23.1061 43.5822 23.6804 43.073 24.605C42.9428 24.8413 42.6931 24.9882 42.4217 24.9882C42.1502 24.9882 41.9005 24.8413 41.7703 24.6051C41.2609 23.6805 40.2858 23.1061 39.2256 23.1061Z" fill="#5DA9A2"/>
<path d="M47.0188 26.7153C46.609 26.7153 46.2767 26.3859 46.2767 25.9795C46.2767 25.6189 45.9809 25.3257 45.6171 25.3257C45.2073 25.3257 44.875 24.9963 44.875 24.5898C44.875 24.1834 45.2073 23.854 45.6171 23.854C46.7993 23.854 47.761 24.8075 47.761 25.9795C47.761 26.3859 47.4286 26.7153 47.0188 26.7153Z" fill="#5DA9A2"/>
<path d="M22.6282 30.7584C16.5524 30.7584 11.6094 25.8574 11.6094 19.8331C11.6094 13.8088 16.5524 8.90771 22.6282 8.90771C28.7041 8.90771 33.6472 13.8088 33.6472 19.8331C33.6472 25.8574 28.7041 30.7584 22.6282 30.7584ZM22.6282 10.3795C17.3708 10.3795 13.0937 14.6204 13.0937 19.8332C13.0937 25.0461 17.3708 29.2869 22.6282 29.2869C27.8857 29.2869 32.163 25.046 32.163 19.8332C32.163 14.6205 27.8857 10.3795 22.6282 10.3795Z" fill="#1E1E1E"/>
<path d="M37.7895 35H5.22236C2.34273 35 0 32.6772 0 29.8221V10.9287C0 8.07388 2.34259 5.75121 5.22209 5.75121H12.213C12.3458 5.75121 12.472 5.69649 12.562 5.6007L15.6418 1.49747C15.652 1.48396 15.6625 1.47085 15.6735 1.458C16.4744 0.5314 17.6393 0 18.8699 0H26.3887C27.6191 0 28.7842 0.5314 29.585 1.45787C29.5959 1.47071 29.6066 1.48383 29.6167 1.49734L32.6966 5.60057C32.7867 5.69649 32.9129 5.75121 33.0457 5.75121H40.0366C42.9158 5.75121 45.2581 8.07361 45.2581 10.9283V19.8332C45.2581 20.2396 44.9258 20.569 44.516 20.569C44.1062 20.569 43.7739 20.2396 43.7739 19.8332V10.9283C43.7739 8.88516 42.0973 7.22286 40.0366 7.22286H33.0457C32.4725 7.22286 31.9296 6.97536 31.5565 6.54376C31.5455 6.53092 31.5348 6.51767 31.5247 6.50416L28.4422 2.39759C27.9242 1.80879 27.1772 1.47165 26.3885 1.47165H18.8697C18.081 1.47165 17.3341 1.80893 16.8162 2.39759L13.7336 6.50416C13.7235 6.51767 13.713 6.53078 13.7019 6.54349C13.3288 6.97522 12.7861 7.22286 12.2128 7.22286H5.22182C3.16083 7.22286 1.48401 8.88529 1.48401 10.9287V29.8221C1.48401 31.8657 3.16097 33.5283 5.22209 33.5283H37.7891C38.1989 33.5283 38.5313 33.8577 38.5313 34.2642C38.5313 34.6706 38.1989 35 37.7891 35H37.7895Z" fill="#1E1E1E"/>
<path d="M22.6289 27.7575C18.2219 27.7575 14.6367 24.2027 14.6367 19.8334C14.6367 15.464 18.2219 11.9092 22.6289 11.9092C27.0358 11.9092 30.621 15.464 30.621 19.8334C30.621 24.2027 27.0358 27.7575 22.6289 27.7575ZM22.6289 13.3807C19.0403 13.3807 16.121 16.2753 16.121 19.8332C16.121 23.3911 19.0404 26.2857 22.6289 26.2857C26.2173 26.2857 29.1367 23.3911 29.1367 19.8332C29.1367 16.2753 26.2173 13.3807 22.6289 13.3807Z" fill="#1E1E1E"/>
<path d="M28.0048 7.22322H17.2538C17.0032 7.22322 16.7694 7.09773 16.6324 6.88956C16.4954 6.68139 16.4736 6.41877 16.5744 6.1912L17.3516 4.43806C17.3667 4.40394 17.3844 4.37103 17.4046 4.33946C17.8905 3.58129 18.624 3.14648 19.4172 3.14648H25.8414C26.6343 3.14648 27.3678 3.58129 27.8539 4.33932C27.874 4.3709 27.8918 4.40381 27.9071 4.43806L28.6843 6.1912C28.7851 6.41877 28.7634 6.68139 28.6263 6.88956C28.4892 7.09773 28.2555 7.22322 28.0049 7.22322H28.0048ZM18.3907 5.75157H26.8678L26.573 5.08652C26.3683 4.78831 26.1037 4.61827 25.8413 4.61827H19.417C19.1545 4.61827 18.89 4.78818 18.6856 5.08639L18.3907 5.75157Z" fill="#1E1E1E"/>
<path d="M39.0264 13.3805H37.6462C36.4025 13.3805 35.3906 12.3772 35.3906 11.1441C35.3906 9.91098 36.4025 8.90771 37.6462 8.90771H39.0264C40.2701 8.90771 41.282 9.91098 41.282 11.1441C41.282 12.3772 40.2701 13.3805 39.0264 13.3805ZM37.6462 10.3794C37.221 10.3794 36.8749 10.7224 36.8749 11.1441C36.8749 11.5658 37.2209 11.9088 37.6462 11.9088H39.0264C39.4516 11.9088 39.7977 11.5658 39.7977 11.1441C39.7977 10.7224 39.4517 10.3794 39.0264 10.3794H37.6462Z" fill="#1E1E1E"/>
</g>
<defs>
<clipPath id="clip0_2455_1163">
<rect width="50" height="35" fill="white"/>
</clipPath>
</defs>
</svg>
