<svg width="48" height="46" viewBox="0 0 48 46" fill="none" xmlns="http://www.w3.org/2000/svg">
<g clip-path="url(#clip0_2446_609)">
<path d="M8.68091 8.1543C8.28143 7.14251 7.88196 6.13073 7.48248 5.11895C7.26767 4.5748 6.37884 4.81184 6.59657 5.3635C6.99604 6.37528 7.39552 7.38707 7.79499 8.39885C8.00981 8.94299 8.89864 8.70595 8.68091 8.1543Z" fill="#141414"/>
<path d="M8.25501 8.93675C8.21704 8.93675 8.17891 8.93399 8.14079 8.92832C7.88126 8.88983 7.67716 8.72762 7.5807 8.48337L6.38212 5.44818C6.24692 5.1055 6.39223 4.7711 6.73581 4.63511C7.0768 4.50003 7.52864 4.61272 7.69523 5.03436L8.89365 8.06971C8.98001 8.28865 8.9529 8.51097 8.81924 8.67978C8.69062 8.842 8.47764 8.93675 8.25501 8.93675ZM7.02229 5.04141C6.97865 5.04141 6.93731 5.05 6.90455 5.06303C6.74822 5.12482 6.79247 5.23705 6.80916 5.27906L8.00773 8.31426C8.05259 8.42787 8.1414 8.4636 8.20801 8.47341C8.30554 8.48782 8.41134 8.45455 8.45942 8.39368C8.47182 8.37789 8.50489 8.33618 8.46646 8.23882L7.26804 5.20348C7.21981 5.08112 7.116 5.04126 7.02244 5.04126L7.02229 5.04141Z" fill="#141414"/>
<path d="M4.0232 12.1898C3.02628 11.7572 2.02935 11.3247 1.03243 10.892C0.495456 10.659 0.0270801 11.4514 0.568797 11.6864C1.56572 12.1189 2.56265 12.5515 3.55957 12.9841C4.09654 13.217 4.56492 12.4248 4.0232 12.1898Z" fill="#141414"/>
<path d="M3.75778 13.2567C3.66086 13.2567 3.56271 13.2362 3.46748 13.195L0.476703 11.8972C0.262802 11.8046 0.125919 11.6298 0.101573 11.4179C0.074013 11.1787 0.193595 10.9222 0.40627 10.7642C0.619252 10.6058 0.880617 10.5757 1.123 10.6809L4.11377 11.9786C4.32767 12.0712 4.4644 12.246 4.48875 12.4579C4.51631 12.6971 4.39673 12.9536 4.18405 13.1117C4.05482 13.2078 3.90768 13.2567 3.75778 13.2567ZM0.833918 11.0797C0.769457 11.0797 0.717092 11.1061 0.680038 11.1337C0.600572 11.1927 0.549279 11.2902 0.558006 11.3653C0.56015 11.3844 0.565968 11.4348 0.659368 11.4754L3.65014 12.7732C3.76467 12.8227 3.85486 12.7837 3.91059 12.7425C3.99006 12.6835 4.04135 12.586 4.03262 12.5108C4.03048 12.4918 4.02466 12.4414 3.93126 12.4007L0.940485 11.103C0.902206 11.0864 0.866531 11.0799 0.834071 11.0799L0.833918 11.0797Z" fill="#141414"/>
<path d="M3.56916 18.3388C2.55876 18.7388 1.54836 19.1388 0.537962 19.5389C-0.00543959 19.754 0.231275 20.644 0.782179 20.426C1.79258 20.026 2.80298 19.626 3.81338 19.2259C4.35678 19.0108 4.12006 18.1208 3.56916 18.3388Z" fill="#141414"/>
<path d="M0.615132 20.6896C0.484373 20.6896 0.36035 20.6478 0.256845 20.5653C0.0671372 20.4147 -0.0302433 20.1479 0.00834141 19.8859C0.046773 19.626 0.208768 19.4217 0.452678 19.3251L3.48372 18.125C3.70237 18.0385 3.92423 18.0655 4.09281 18.1994C4.28252 18.3501 4.38005 18.6169 4.34131 18.8789C4.30288 19.1386 4.14089 19.343 3.89698 19.4396L0.86578 20.6397C0.78172 20.6731 0.696895 20.6895 0.615132 20.6895V20.6896ZM3.73498 18.5348C3.71339 18.5348 3.68644 18.5394 3.65276 18.5528L0.621716 19.7528C0.508258 19.7978 0.472583 19.8867 0.462784 19.9535C0.448391 20.0512 0.48177 20.157 0.54225 20.2051C0.55802 20.2179 0.599974 20.2508 0.696895 20.2123L3.72809 19.0123C3.84155 18.9674 3.87722 18.8784 3.88702 18.8116C3.90142 18.7139 3.86804 18.6081 3.8074 18.56C3.79715 18.5517 3.77586 18.5348 3.73498 18.5348Z" fill="#141414"/>
<path d="M14.82 8.60883C15.2519 7.61054 15.6838 6.61225 16.1159 5.61396C16.3487 5.07625 15.5574 4.60723 15.3226 5.14969C14.8907 6.14798 14.4588 7.14627 14.0267 8.14456C13.7941 8.68227 14.5853 9.15129 14.82 8.60883Z" fill="#141414"/>
<path d="M14.4845 9.08073C14.3971 9.08073 14.3058 9.06172 14.2147 9.02216C13.8762 8.87528 13.6344 8.47265 13.816 8.053L15.112 5.05813C15.257 4.72312 15.5926 4.59096 15.9282 4.73615C16.2666 4.88304 16.5084 5.28582 16.3268 5.70531L15.031 8.70018C14.9255 8.94412 14.7186 9.08058 14.4847 9.08058L14.4845 9.08073ZM15.6609 5.13832C15.5779 5.13832 15.547 5.20992 15.5335 5.2412L14.2376 8.23607C14.1593 8.41684 14.2941 8.55529 14.3972 8.60022C14.5456 8.66461 14.5919 8.55774 14.6093 8.51742L15.9051 5.52255C15.9834 5.34178 15.8486 5.20333 15.7454 5.15841C15.7125 5.14415 15.6846 5.13832 15.6609 5.13832Z" fill="#141414"/>
<path d="M18.8505 13.2722C19.8609 12.8722 20.8713 12.4721 21.8817 12.0721C22.4251 11.857 22.1884 10.967 21.6375 11.185C20.6271 11.585 19.6167 11.985 18.6063 12.3851C18.0629 12.6002 18.2996 13.4902 18.8505 13.2722Z" fill="#141414"/>
<path d="M18.6835 13.5359C18.5527 13.5359 18.4289 13.4941 18.3252 13.4116C18.1355 13.261 18.0381 12.9942 18.0767 12.7322C18.1151 12.4723 18.2771 12.268 18.521 12.1714L21.5522 10.9711C21.8943 10.8356 22.2284 10.9811 22.3642 11.3253C22.4989 11.6666 22.3866 12.1194 21.9655 12.286L18.9343 13.4861C18.8501 13.5195 18.7654 13.5359 18.6835 13.5359ZM21.8015 11.3804C21.7684 11.3804 21.7387 11.392 21.7211 11.3989L18.6901 12.5991C18.5766 12.6441 18.5411 12.733 18.5311 12.7998C18.5166 12.8975 18.5501 13.0033 18.6106 13.0514C18.6264 13.0642 18.6683 13.0971 18.7653 13.0586L21.7965 11.8586C21.9754 11.7876 21.9776 11.5978 21.9369 11.4947C21.9009 11.4034 21.8477 11.3805 21.8014 11.3805L21.8015 11.3804Z" fill="#141414"/>
<path d="M22.6679 45.0606C22.2231 44.2102 21.8308 43.3344 21.3623 42.4959C20.8889 41.649 20.3367 41.1433 19.556 40.576C17.5093 39.0889 15.2703 37.8554 13.047 36.6578C11.3552 35.7466 9.64494 34.8688 7.91812 34.0262C6.92532 33.5417 6.48252 32.3381 6.8186 31.2801C7.08074 30.4551 7.76638 29.8266 8.61187 29.6465C9.41098 29.4763 10.0193 29.7432 10.6769 30.1593C11.4166 30.6273 12.1845 31.0555 12.9367 31.5028C13.5014 31.8385 14.3126 32.573 14.9963 32.6104C15.197 32.6214 15.3864 32.4595 15.4392 32.2728C15.5559 31.8599 15.1639 31.2525 15.0084 30.885C14.5948 29.9084 14.1812 28.9315 13.7677 27.9549C12.672 25.3671 11.5763 22.7793 10.4806 20.1915C10.0707 19.2234 9.66086 18.2555 9.25097 17.2874C9.14379 17.0344 9.03661 16.7814 8.92959 16.5283C8.90953 16.4807 8.88932 16.4332 8.86926 16.3855C8.92484 16.5174 8.78061 16.1736 8.72916 16.0511C8.31805 15.0705 8.09343 14.0706 8.78612 13.1311C9.52352 12.1309 10.9233 11.8654 11.9813 12.5092C12.8876 13.0607 13.1499 14.1573 13.5175 15.0881C14.4077 17.3426 15.2979 19.597 16.188 21.8515C16.4009 22.3907 17.274 22.1732 17.0739 21.607C16.4071 19.7214 18.0935 17.6662 20.1095 18.4215C21.3681 18.8931 21.6956 20.1872 22.1395 21.3113C22.3519 21.8494 23.2182 21.6378 23.0254 21.0668C22.67 20.0144 23.0078 18.8628 24.0439 18.3474C24.8165 17.9631 25.7752 18.1162 26.4026 18.7006C27.0218 19.2772 27.2521 20.2841 27.5548 21.0504C27.7675 21.5889 28.637 21.3747 28.4407 20.8058C27.7964 18.9393 30.0048 17.2602 31.5064 18.7351C31.972 19.1924 32.1613 19.9169 32.3951 20.5089L34.5411 25.9442C34.9818 27.0602 35.1033 28.2058 35.2888 29.3889C35.5844 31.2757 35.8799 33.1627 36.1756 35.0494C36.3979 36.4689 36.9937 37.872 37.4158 39.2436C37.5229 39.055 37.6297 38.8664 37.7366 38.6779C33.1913 40.4774 28.6458 42.2771 24.1004 44.0767L22.1494 44.8491C21.606 45.0642 21.8428 45.9543 22.3937 45.7363C26.939 43.9367 31.4845 42.137 36.0298 40.3374L37.981 39.565C38.2064 39.4757 38.3814 39.2579 38.3017 38.9992C37.8847 37.6437 37.3109 36.2645 37.0712 34.8662C36.7147 32.7885 36.4183 30.6987 36.092 28.616C35.998 28.0159 35.9331 27.4011 35.8084 26.8063C35.6752 26.1706 35.3675 25.5488 35.13 24.9474C34.3823 23.0537 33.6546 21.1507 32.8864 19.2652C32.3738 18.0072 31.2414 17.1055 29.8278 17.2774C28.0197 17.4971 26.9764 19.3741 27.5551 21.0507C27.8503 20.9691 28.1457 20.8877 28.4411 20.8061C27.8857 19.3997 27.4608 17.8295 25.8335 17.3432C23.4304 16.6249 21.3624 19.0089 22.1401 21.3117C22.4355 21.2301 22.7307 21.1487 23.026 21.0671C22.3632 19.3884 21.7074 17.6011 19.6303 17.3714C17.1728 17.0995 15.387 19.5851 16.1887 21.8518C16.4841 21.7702 16.7793 21.6888 17.0746 21.6073C16.2166 19.4342 15.3587 17.2612 14.5006 15.0881C14.1673 14.2437 13.9119 13.2723 13.3642 12.548C12.1229 10.9062 9.59961 10.8042 8.23322 12.3497C6.56367 14.2381 7.93174 16.5077 8.74937 18.439C9.86083 21.064 10.9723 23.6891 12.0837 26.314C12.6764 27.714 13.2693 29.114 13.862 30.514C14.0428 30.9411 14.2238 31.3683 14.4046 31.7955C14.4573 31.9198 14.5005 32.0563 14.5653 32.1748C14.6879 32.3989 14.4867 32.2671 14.5541 32.0285C14.7017 31.916 14.8494 31.8034 14.997 31.6907C15.225 31.7032 15.1188 31.7433 14.964 31.6378C14.839 31.5528 14.7012 31.4816 14.5712 31.4043C14.094 31.1207 13.6167 30.8369 13.1395 30.5532C12.4697 30.1551 11.7855 29.7745 11.1275 29.3572C9.91794 28.5899 8.49306 28.3969 7.2464 29.2483C5.95305 30.1314 5.44364 31.8496 6.05303 33.2933C6.71893 34.8708 8.59029 35.3734 9.99618 36.0939C12.4756 37.3646 14.9413 38.6829 17.3 40.1685C18.2383 40.7594 19.5528 41.4153 20.2015 42.3424C20.8861 43.3208 21.324 44.471 21.8754 45.5253C22.1498 46.05 22.9429 45.5854 22.6687 45.061L22.6679 45.0606Z" fill="#141414"/>
<path d="M22.2267 46C22.096 46 21.9721 45.9581 21.8684 45.8756C21.8317 45.8465 21.7985 45.8129 21.7689 45.776C21.7326 45.7346 21.6995 45.6867 21.6708 45.6317C21.4887 45.2835 21.3169 44.9209 21.1508 44.5702C20.8124 43.8559 20.4624 43.1173 20.0122 42.4741C19.5168 41.7659 18.5823 41.208 17.7579 40.7158C17.5551 40.5947 17.3589 40.4776 17.1767 40.3627C14.6961 38.8005 12.1014 37.4315 9.89033 36.2981C9.60186 36.1503 9.29701 36.0134 8.97409 35.8684C7.76863 35.3271 6.40239 34.7135 5.84031 33.3822C5.18467 31.8289 5.72119 30.0102 7.1159 29.0577C8.3304 28.2284 9.83689 28.2664 11.2494 29.1623C11.6848 29.4387 12.1411 29.704 12.5824 29.9606C12.8075 30.0916 13.0324 30.2224 13.2556 30.355L13.6416 30.5844L8.53695 18.5284C8.43773 18.2941 8.3304 18.0549 8.22138 17.8119C7.41279 16.0091 6.4961 13.9659 8.06016 12.1969C8.75606 11.4097 9.77166 10.9813 10.8504 11.0233C11.9292 11.0649 12.9117 11.5696 13.5462 12.4088C13.9809 12.9836 14.2342 13.6893 14.4792 14.3719C14.5582 14.5919 14.6327 14.7997 14.7131 15.0032L16.2519 18.9003C16.3425 18.7435 16.4454 18.5914 16.5604 18.4462C17.3217 17.4844 18.45 17.0102 19.6546 17.1423C20.8487 17.2743 21.6058 17.8961 22.1528 18.7007C22.2964 18.4368 22.4769 18.1892 22.6923 17.9655C23.536 17.0897 24.7346 16.7747 25.8984 17.1224C26.71 17.3651 27.24 17.8495 27.6321 18.4436C27.6352 18.4385 27.6384 18.4335 27.6416 18.4284C28.1211 17.6598 28.9078 17.1569 29.7996 17.0485C31.2064 16.8781 32.5017 17.7135 33.0984 19.178C33.612 20.438 34.1151 21.7262 34.6018 22.972C34.8482 23.6025 35.0946 24.2331 35.3431 24.8625C35.4029 25.0141 35.4674 25.167 35.5322 25.3211C35.7271 25.7843 35.9287 26.2632 36.0327 26.7588C36.1175 27.1636 36.1756 27.5795 36.2316 27.982C36.2595 28.1821 36.2873 28.3819 36.3183 28.58C36.4268 29.2733 36.5322 29.9677 36.6375 30.6619C36.845 32.0291 37.0595 33.4428 37.297 34.8268C37.4608 35.7825 37.7903 36.7487 38.1089 37.6831C38.2486 38.0926 38.3929 38.5163 38.5206 38.9313C38.6266 39.2757 38.4349 39.632 38.0648 39.7786L22.4777 45.9498C22.3935 45.9833 22.3088 45.9997 22.2269 45.9997L22.2267 46ZM22.1182 45.4759C22.1941 45.5556 22.2916 45.5242 22.3484 45.4945C22.432 45.4506 22.5504 45.3323 22.4642 45.1673C22.436 45.1133 22.408 45.0593 22.3801 45.0049L22.2335 45.063C22.12 45.1079 22.0843 45.1969 22.0745 45.2637C22.0632 45.3399 22.081 45.421 22.1182 45.4759ZM22.8093 44.8352C22.8298 44.8749 22.8504 44.9146 22.871 44.9538C22.9268 45.0604 22.9526 45.166 22.9548 45.2666L37.2827 39.594L37.1957 39.3114C37.1801 39.2605 37.1641 39.2093 37.148 39.1581L22.8095 44.835L22.8093 44.8352ZM9.01329 28.9167C8.49439 28.9167 7.93445 29.0557 7.37466 29.438C6.17961 30.2541 5.70189 31.8729 6.26352 33.2034C6.75501 34.3681 7.9787 34.9176 9.16212 35.449C9.476 35.5901 9.8006 35.7357 10.0998 35.8891C12.3198 37.0269 14.9256 38.4019 17.4214 39.9737C17.6005 40.0866 17.7938 40.2019 17.9933 40.321C18.8573 40.8368 19.8366 41.4216 20.3886 42.2104C20.8609 42.8854 21.2194 43.6417 21.5659 44.3732C21.6375 44.5245 21.7104 44.6782 21.7844 44.8315C21.8577 44.7469 21.9525 44.68 22.0644 44.6357L22.1719 44.5932C22.0918 44.4324 22.013 44.2722 21.9353 44.1144C21.6901 43.6158 21.4363 43.1002 21.1617 42.6086C20.7042 41.79 20.177 41.3118 19.4209 40.7624C17.4084 39.3002 15.206 38.0825 12.9379 36.8608C11.2517 35.9525 9.52882 35.0686 7.81716 34.2333C6.74215 33.7088 6.21865 32.4094 6.59945 31.2107C6.88745 30.3041 7.64016 29.6186 8.56375 29.4219C9.41828 29.2393 10.0754 29.5074 10.7994 29.9652C11.2889 30.2751 11.8009 30.573 12.2959 30.8613C12.5492 31.0086 12.8024 31.1559 13.0537 31.3053C13.2141 31.4007 13.3888 31.5235 13.5739 31.6535C13.8025 31.8142 14.046 31.9851 14.2855 32.1211C14.2694 32.0822 14.2544 32.0432 14.2395 32.0049C14.2239 31.9644 14.2084 31.9243 14.1919 31.8853L13.9439 31.2996L13.0209 30.751C12.7987 30.619 12.5752 30.4888 12.3513 30.3587C11.9064 30.0999 11.4461 29.8322 11.0033 29.5513C10.553 29.2656 9.83459 28.9167 9.01298 28.9167H9.01329ZM9.08923 29.8245C8.95158 29.8245 8.80919 29.8395 8.65944 29.8714C7.89709 30.0339 7.27545 30.6005 7.0372 31.3501C6.725 32.3327 7.14683 33.3943 8.01851 33.8195C9.73568 34.6576 11.464 35.5444 13.1555 36.4553C15.4378 37.6848 17.655 38.9107 19.6907 40.3899C20.4782 40.9619 21.066 41.4952 21.5625 42.3837C21.843 42.8857 22.0993 43.4068 22.3474 43.9109C22.4304 44.0798 22.5149 44.2515 22.6006 44.4232L37.0053 38.72C36.9329 38.5031 36.8584 38.2863 36.7851 38.0731C36.4516 37.102 36.1068 36.0979 35.9482 35.0853L35.0613 29.4248C35.033 29.2438 35.0062 29.0638 34.9794 28.8848C34.8311 27.8902 34.691 26.9506 34.327 26.0291L32.181 20.5938C32.1338 20.4742 32.0883 20.3492 32.0421 20.2221C31.8646 19.7341 31.681 19.2294 31.3451 18.8996C30.6644 18.2309 29.8829 18.3341 29.3787 18.6533C28.8111 19.0129 28.3436 19.8144 28.6558 20.7264L28.748 20.9598L28.6982 20.9736C28.6952 21.2279 28.5424 21.4464 28.2795 21.5441C28.0026 21.6465 27.65 21.5818 27.4453 21.3193L27.4078 21.3296L27.339 21.1306C27.27 20.9555 27.2066 20.7736 27.1394 20.5812C26.9157 19.9403 26.6843 19.2777 26.246 18.8694C25.6851 18.3473 24.8214 18.2174 24.1458 18.5537C23.2769 18.9859 22.9053 19.9865 23.2409 20.988L23.3328 21.2207L23.282 21.2348C23.2782 21.4906 23.1244 21.7097 22.8608 21.8064C22.585 21.9078 22.2341 21.842 22.03 21.5803L21.9911 21.591L21.9234 21.3906C21.8674 21.2485 21.8132 21.1037 21.7586 20.9584C21.3838 19.9577 21.0298 19.0123 20.0288 18.6372C19.2327 18.3389 18.4385 18.5006 17.8486 19.0813C17.2075 19.712 16.9879 20.6715 17.2888 21.5266L17.3813 21.7607L17.3324 21.7742C17.3301 22.0271 17.1785 22.2449 16.9164 22.3434C16.6381 22.4476 16.2839 22.3837 16.0786 22.1203L16.0428 22.1302L15.9728 21.9323L13.3037 15.1727C13.2426 15.0179 13.1844 14.8587 13.1256 14.698C12.8428 13.9247 12.5505 13.1248 11.8618 12.7059C10.9029 12.1222 9.63294 12.3692 8.97072 13.2678C8.32091 14.149 8.57217 15.0836 8.94056 15.9622L8.98818 16.0753C9.02447 16.162 9.05524 16.2351 9.07683 16.2975L9.08051 16.296L9.84899 18.1109L15.2196 30.7952C15.2527 30.8732 15.2969 30.9625 15.3444 31.0584C15.5363 31.4462 15.775 31.9289 15.6601 32.3353C15.5742 32.6394 15.2818 32.8548 14.9838 32.8401C14.4196 32.8092 13.8304 32.3953 13.3104 32.0297C13.1327 31.9051 12.965 31.787 12.8195 31.7007C12.5694 31.5518 12.3175 31.4053 12.0655 31.2587C11.5668 30.9683 11.0509 30.6681 10.5542 30.3541C10.0448 30.0316 9.60002 29.8246 9.08939 29.8246L9.08923 29.8245ZM37.9736 38.7249L37.5381 39.4929L37.8959 39.3513C37.9863 39.3154 38.1273 39.2151 38.0817 39.067C38.0468 38.9537 38.0106 38.8395 37.9736 38.7249ZM30.2076 17.9444C30.7284 17.9444 31.245 18.1569 31.6667 18.571C32.077 18.9741 32.2877 19.5535 32.4737 20.0647C32.5184 20.1878 32.5625 20.3088 32.6082 20.4245L34.7542 25.8598C35.1374 26.8304 35.2814 27.7952 35.4337 28.8167C35.4602 28.9949 35.487 29.1736 35.5152 29.3535L36.402 35.014C36.5544 35.9867 36.8926 36.9714 37.2195 37.9237C37.2904 38.1302 37.3626 38.3401 37.4331 38.5507L37.8604 38.3815C37.7989 38.1972 37.7361 38.0132 37.6744 37.8321C37.3499 36.8806 37.0145 35.8969 36.8444 34.905C36.6063 33.5165 36.3914 32.1007 36.1837 30.7314C36.0783 30.0378 35.9731 29.3443 35.8647 28.6516C35.8333 28.4507 35.805 28.2485 35.7768 28.0458C35.7219 27.6511 35.6651 27.243 35.5833 26.8535C35.4885 26.4015 35.2958 25.9433 35.1091 25.5001C35.0428 25.343 34.9773 25.1868 34.916 25.0321C34.6672 24.402 34.4209 23.771 34.1742 23.1399C33.6882 21.8957 33.1854 20.609 32.6734 19.352C32.1572 18.0851 31.0517 17.3591 29.8552 17.5055C29.0907 17.5983 28.443 18.0129 28.0313 18.6725C27.9838 18.7484 27.9405 18.8261 27.9013 18.9054C28.0048 19.105 28.0986 19.3122 28.1867 19.5228C28.3335 19.0155 28.6603 18.5639 29.1332 18.2645C29.4722 18.0498 29.8411 17.9444 30.2078 17.9444H30.2076ZM14.8246 32.3522C14.8875 32.3678 14.9489 32.3776 15.0085 32.3809C15.0916 32.3836 15.1914 32.3042 15.2179 32.2104C15.2403 32.1311 15.2322 32.0322 15.206 31.9243C15.1588 31.941 15.1088 31.941 15.0598 31.931L14.7984 32.1303C14.8243 32.1901 14.8482 32.2728 14.8244 32.3523L14.8246 32.3522ZM14.6093 31.6918L14.6107 31.695L14.6125 31.6937C14.6114 31.6929 14.6104 31.6923 14.6093 31.6917V31.6918ZM14.3083 30.9809L14.6874 31.2062C14.7295 31.2314 14.7725 31.2556 14.8154 31.28C14.8734 31.313 14.9328 31.3467 14.9918 31.3827C14.9717 31.3412 14.9517 31.301 14.9327 31.2625C14.8808 31.1576 14.8327 31.0601 14.7966 30.9749L8.6573 16.4752C8.63831 16.4297 8.59912 16.3361 8.56451 16.2537L8.51705 16.1405C8.11635 15.1847 7.81288 14.0636 8.60111 12.9948C9.40327 11.9065 10.9404 11.6069 12.1004 12.3128C12.9266 12.8155 13.2614 13.7316 13.5569 14.54C13.6144 14.6968 13.6712 14.8524 13.7309 15.0035L15.7955 20.2326C15.8305 19.9741 15.8936 19.7197 15.9841 19.473L14.2859 15.1724C14.2029 14.9622 14.1236 14.7413 14.0469 14.5275C13.8136 13.8776 13.5723 13.2053 13.18 12.6864C12.6289 11.9577 11.7733 11.5192 10.8326 11.483C9.89354 11.4445 9.00824 11.8183 8.4039 12.5018C7.03644 14.0486 7.85177 15.8659 8.64015 17.6235C8.75039 17.8694 8.8591 18.1118 8.95939 18.3487L14.308 30.9807L14.3083 30.9809ZM16.2671 20.1899C16.1896 20.645 16.2121 21.1156 16.3398 21.5712L16.7661 21.4535L16.2671 20.1899ZM22.2482 19.799C22.1763 20.2022 22.19 20.6214 22.295 21.03L22.7176 20.9133C22.5663 20.53 22.4152 20.1531 22.2482 19.7988V19.799ZM27.6851 19.519C27.595 19.9279 27.6019 20.3554 27.7093 20.7692L28.134 20.6519C28.1061 20.5795 28.0786 20.507 28.051 20.4342C27.9321 20.1211 27.8146 19.8125 27.6851 19.519ZM16.4782 19.4738L16.7553 20.1754C16.8653 19.6436 17.128 19.1453 17.5267 18.7531C18.2387 18.0526 19.2344 17.8484 20.1898 18.2064C20.9977 18.5092 21.4544 19.1259 21.7816 19.8039C21.8129 19.5978 21.8632 19.3951 21.9321 19.1982C21.4302 18.354 20.7519 17.7268 19.6042 17.6C18.5599 17.4841 17.5815 17.8971 16.9206 18.7323C16.7379 18.963 16.5901 19.2127 16.4784 19.4739L16.4782 19.4738ZM22.4373 19.1667C22.5362 19.3457 22.6279 19.5299 22.7144 19.7172C22.8615 19.0422 23.2898 18.4658 23.9414 18.1417C24.7983 17.7159 25.85 17.8726 26.5588 18.5325C26.8437 18.7979 27.0512 19.1421 27.2184 19.5075C27.2562 19.3094 27.3132 19.1147 27.3891 18.9256C27.0285 18.2979 26.5474 17.7969 25.7672 17.5635C24.7713 17.2656 23.7453 17.5354 23.0231 18.285C22.7712 18.5466 22.5746 18.8457 22.4373 19.1667Z" fill="#141414"/>
<path d="M27.5547 21.05L28.0811 22.3833C28.1722 22.6142 28.3885 22.7755 28.6461 22.7045C28.8656 22.6441 29.0586 22.371 28.9669 22.1387L28.4405 20.8054C28.3493 20.5745 28.133 20.4132 27.8755 20.4842C27.6559 20.5446 27.4628 20.8177 27.5547 21.05Z" fill="#141414"/>
<path d="M28.5245 22.9514C28.242 22.9514 27.986 22.7701 27.8667 22.4681L27.3403 21.1348C27.2786 20.9782 27.2893 20.8019 27.371 20.6383C27.4613 20.4569 27.6309 20.313 27.8138 20.2627C28.163 20.1665 28.5087 20.3551 28.6533 20.7211L29.1797 22.0544C29.2414 22.211 29.2307 22.3873 29.1491 22.5509C29.0587 22.7323 28.8889 22.8762 28.7061 22.9265C28.645 22.9432 28.5841 22.9514 28.5244 22.9514H28.5245ZM27.9961 20.6975C27.9771 20.6975 27.9571 20.7003 27.9355 20.7061C27.8776 20.722 27.8144 20.7788 27.7821 20.8436C27.7691 20.8698 27.7498 20.9204 27.7675 20.9655L28.2939 22.2988C28.3097 22.3385 28.3965 22.5336 28.5845 22.483C28.6426 22.467 28.7058 22.4103 28.7381 22.3454C28.7511 22.3192 28.7704 22.2686 28.7527 22.2235L28.2262 20.8902C28.2123 20.8551 28.1419 20.6975 27.9961 20.6975Z" fill="#141414"/>
<path d="M22.1395 21.3113C22.5294 22.2985 22.9192 23.2858 23.3089 24.273C23.5237 24.8172 24.4125 24.5801 24.1948 24.0285C23.805 23.0412 23.4151 22.054 23.0255 21.0667C22.8106 20.5226 21.9218 20.7596 22.1395 21.3113Z" fill="#141414"/>
<path d="M23.7689 24.8109C23.7309 24.8109 23.6928 24.808 23.6547 24.8025C23.3951 24.764 23.191 24.6016 23.0944 24.3576L21.9251 21.396C21.7899 21.0533 21.9352 20.7189 22.2788 20.5829C22.6196 20.4478 23.0716 20.5603 23.2382 20.9821L24.4075 23.9439C24.4939 24.1627 24.4668 24.385 24.3331 24.5538C24.2045 24.7162 23.9915 24.8109 23.7689 24.8109ZM22.3523 21.2267L23.5216 24.1883C23.5665 24.3019 23.6553 24.3376 23.7219 24.3474C23.8196 24.362 23.9252 24.3286 23.9731 24.2677C23.9857 24.2519 24.0188 24.2102 23.9802 24.1129L22.8109 21.1511C22.7401 20.9719 22.5504 20.9694 22.4475 21.0105C22.2912 21.0723 22.3354 21.1844 22.3521 21.2265L22.3523 21.2267Z" fill="#141414"/>
<path d="M16.1864 21.8513C16.7829 23.3621 17.3795 24.8728 17.976 26.3835C18.1908 26.9277 19.0797 26.6906 18.8619 26.139C18.2654 24.6283 17.6689 23.1174 17.0723 21.6067C16.8575 21.0626 15.9687 21.2996 16.1864 21.8513Z" fill="#141414"/>
<path d="M18.4376 26.9219C18.3996 26.9219 18.3613 26.919 18.3232 26.9134C18.0637 26.8748 17.8596 26.7126 17.7631 26.4685L15.9735 21.9361C15.8872 21.7172 15.9143 21.4948 16.0479 21.326C16.1984 21.1364 16.4644 21.0382 16.7264 21.0773C16.9859 21.1158 17.19 21.278 17.2865 21.5223L19.0761 26.0547C19.1624 26.2736 19.1353 26.4958 19.0016 26.6646C18.873 26.827 18.6602 26.9219 18.4376 26.9219ZM16.4007 21.767L18.1903 26.2994C18.2352 26.413 18.324 26.4487 18.3906 26.4585C18.4886 26.4733 18.5939 26.4397 18.642 26.3788C18.6544 26.363 18.6875 26.3213 18.649 26.224L16.8594 21.6916C16.8146 21.5779 16.7258 21.5422 16.6592 21.5324C16.5618 21.5183 16.456 21.5514 16.4077 21.6121C16.3953 21.6279 16.3623 21.6696 16.4007 21.767Z" fill="#141414"/>
<path d="M29.1237 15.7351C27.6335 12.9673 27.8004 9.56317 29.6496 7.00527C31.2991 4.72351 34.07 3.4638 36.868 3.67278C42.7407 4.11144 46.2103 10.8167 43.2423 15.8904C41.5579 18.7698 38.2569 20.3024 34.9732 19.8262C34.3949 19.7423 34.1452 20.6285 34.729 20.7133C37.9654 21.1828 41.2241 20.0275 43.2855 17.4408C45.2479 14.9781 45.8213 11.5545 44.6927 8.59953C43.5935 5.72134 41.0612 3.51241 38.0285 2.91015C34.9429 2.29732 31.682 3.33655 29.5573 5.67075C26.9353 8.55108 26.4925 12.7859 28.3304 16.1993C28.611 16.7206 29.4045 16.2567 29.1237 15.7351Z" fill="#5DA9A2"/>
<path d="M36.1631 21.0475C35.6793 21.0475 35.1896 21.0124 34.6966 20.9409C34.337 20.8888 34.1224 20.6004 34.1745 20.2398C34.2276 19.873 34.5536 19.5331 35.0067 19.5986C38.2048 20.0618 41.4352 18.5256 43.0447 15.7744C44.4048 13.4492 44.4463 10.5907 43.1559 8.12798C41.8737 5.68109 39.517 4.1014 36.8515 3.90223C34.1162 3.69693 31.4281 4.9387 29.8363 7.14012C28.0682 9.58594 27.868 12.9169 29.3266 15.626C29.5391 16.0208 29.333 16.4068 29.0314 16.5697C28.7382 16.7281 28.334 16.6891 28.1289 16.3086C26.225 12.7722 26.7312 8.43478 29.3883 5.51581C31.5547 3.13576 34.8825 2.05054 38.0739 2.68438C41.1484 3.29507 43.7671 5.53022 44.9079 8.51727C46.0636 11.5433 45.5111 15.0176 43.4656 17.5842C41.6936 19.8079 39.0368 21.0475 36.1633 21.0475H36.1631ZM34.8995 20.0507C34.7389 20.0507 34.6452 20.1941 34.6291 20.3057C34.6064 20.463 34.7158 20.479 34.7625 20.4857C38.0201 20.9579 41.139 19.7663 43.1064 17.2973C45.0212 14.8945 45.5599 11.5126 44.4788 8.68179C43.3938 5.84101 40.9052 3.71579 37.9841 3.13576C34.9503 2.53305 31.7864 3.564 29.7275 5.82583C27.2015 8.60068 26.7215 12.7255 28.533 16.0902C28.618 16.2483 28.7572 16.1951 28.8132 16.1647C28.8356 16.1528 29.0282 16.0413 28.9221 15.8441C27.3804 12.9807 27.5931 9.45822 29.4641 6.87027C31.1485 4.54051 33.9917 3.22822 36.8855 3.44333C39.71 3.65446 42.2061 5.32553 43.5624 7.91394C44.9271 10.5183 44.8818 13.5437 43.441 16.0065C41.738 18.9177 38.3224 20.5449 34.9408 20.0536C34.9266 20.0515 34.9128 20.0506 34.8995 20.0506V20.0507Z" fill="#5DA9A2"/>
<path d="M26.3668 15.7828C24.9676 12.1557 25.5332 8.00688 28.0334 4.99652C30.2877 2.28224 33.7856 0.842375 37.2953 1.18827C40.7446 1.52804 43.8654 3.61401 45.5409 6.64475C47.253 9.74174 47.2933 13.617 45.6371 16.7462C43.791 20.2343 40.1545 22.3938 36.227 22.4313C35.6361 22.4369 35.6348 23.3569 36.227 23.3512C40.0239 23.315 43.5835 21.4639 45.7498 18.33C47.944 15.1556 48.3786 10.9508 46.9098 7.38561C45.4892 3.93767 42.4056 1.30741 38.7623 0.497856C35.027 -0.331931 31.0528 0.75912 28.2746 3.39521C24.8765 6.61946 23.7992 11.6679 25.4809 16.0272C25.6917 16.5737 26.5802 16.3363 26.3668 15.7828Z" fill="#5DA9A2"/>
<path d="M36.2216 23.5813C35.7877 23.5813 35.5574 23.2414 35.5542 22.9035C35.551 22.5663 35.7851 22.2055 36.2253 22.2014C40.1095 22.1644 43.6383 20.0328 45.4346 16.6387C47.0544 13.5782 47.0183 9.79154 45.3403 6.75634C43.7015 3.79199 40.6105 1.74619 37.273 1.41746C33.8182 1.07708 30.4307 2.47018 28.2102 5.14399C25.8089 8.03522 25.1848 12.0802 26.5814 15.7005C26.7148 16.0461 26.5655 16.3811 26.2184 16.5154C25.8785 16.6468 25.4294 16.5315 25.2669 16.1105C23.5479 11.6541 24.6932 6.47729 28.117 3.22867C30.9249 0.564063 35.0232 -0.567925 38.8121 0.273515C42.4895 1.09058 45.6736 3.78217 47.1222 7.29804C48.6272 10.9504 48.1737 15.2278 45.9388 18.4611C43.7482 21.6303 40.1187 23.5442 36.2294 23.5813H36.2216ZM36.2453 0.906741C36.6016 0.906741 36.9593 0.924067 37.3181 0.959484C40.8034 1.30293 44.0313 3.43888 45.7422 6.53341C47.4945 9.70307 47.5321 13.6576 45.8404 16.8539C43.9649 20.3974 40.2823 22.6227 36.2296 22.6614C36.0216 22.6634 36.0129 22.8596 36.0134 22.899C36.0138 22.9515 36.0305 23.1213 36.2221 23.1213H36.2253C39.9655 23.0859 43.4556 21.2459 45.5614 18.1993C47.7085 15.093 48.144 10.9833 46.6978 7.47359C45.3055 4.09434 42.2459 1.50762 38.7129 0.722753C35.0705 -0.0869493 31.1318 1.00165 28.433 3.56246C25.1429 6.68413 24.0428 11.6601 25.6956 15.9447C25.7641 16.1218 25.951 16.1258 26.053 16.0861C26.2139 16.0238 26.1681 15.9049 26.153 15.8658C24.6966 12.0902 25.3494 7.86901 27.8571 4.84961C29.9445 2.33602 33.0209 0.906588 36.2455 0.906588L36.2453 0.906741Z" fill="#5DA9A2"/>
<path d="M38.328 8.4278C37.0593 7.35684 35.0554 6.73189 34.0844 8.53176C33.4459 9.71526 34.1591 10.8738 35.2479 11.4064C36.2974 11.9197 38.28 12.2587 38.0165 13.8587C37.9563 14.2239 37.5775 14.703 37.2139 14.9361C36.2801 15.5345 35.108 15.13 34.2069 14.68C33.6793 14.4166 33.2135 15.2099 33.7433 15.4744C35.2066 16.205 37.0871 16.5808 38.3021 15.1992C39.0814 14.313 39.179 13.0044 38.3904 12.0745C37.531 11.061 36.0805 11.1051 35.1363 10.2646C34.707 9.88254 34.6587 9.27507 34.9907 8.81035C35.7189 7.79074 36.934 8.44988 37.6786 9.07836C38.128 9.45768 38.781 8.81004 38.3283 8.4278H38.328Z" fill="#5DA9A2"/>
<path d="M36.1558 16.3674C35.474 16.3674 34.6429 16.1813 33.64 15.6807C33.4252 15.5735 33.2943 15.3837 33.2805 15.1603C33.2653 14.9121 33.3967 14.658 33.6153 14.5131C33.8259 14.3736 34.0785 14.3598 34.3086 14.4745C35.5185 15.0787 36.4282 15.1664 37.0895 14.7427C37.4159 14.5337 37.743 14.1032 37.7894 13.8215C37.9566 12.8062 37.1053 12.3934 35.8843 11.921C35.6179 11.818 35.3662 11.7207 35.1465 11.6132C34.44 11.2676 33.9165 10.7004 33.7104 10.0571C33.5373 9.51693 33.5965 8.95163 33.8818 8.42266C34.2488 7.74221 34.7746 7.33284 35.4441 7.20558C36.3599 7.03187 37.493 7.42299 38.4755 8.25232C38.6574 8.4058 38.7395 8.61815 38.7007 8.8348C38.6574 9.0769 38.4695 9.29124 38.2221 9.38078C37.9806 9.46818 37.7283 9.42218 37.5299 9.25444C37.236 9.00652 36.4833 8.43876 35.8383 8.51941C35.5737 8.55268 35.3573 8.69175 35.177 8.94442C34.9072 9.32206 34.9531 9.79445 35.2884 10.0928C35.6871 10.4478 36.1893 10.6344 36.721 10.8318C37.3787 11.0764 38.059 11.3291 38.5651 11.9258C39.3959 12.9057 39.3576 14.3463 38.474 15.3515C38.0765 15.8034 37.3423 16.3673 36.156 16.3674H36.1558ZM33.9917 14.8575C33.9493 14.8575 33.9082 14.8705 33.8689 14.8966C33.7887 14.95 33.734 15.0489 33.7391 15.1321C33.7414 15.1692 33.7548 15.2239 33.845 15.2689C34.9064 15.7989 36.8744 16.4748 38.129 15.0476C38.8606 14.2154 38.8965 13.0277 38.2147 12.2236C37.7866 11.7185 37.1912 11.4974 36.5609 11.2631C36.013 11.0597 35.4463 10.849 34.983 10.4366C34.474 9.98365 34.3984 9.24356 34.803 8.67672C35.0586 8.31871 35.3876 8.11218 35.7808 8.06281C36.5779 7.96315 37.4035 8.54609 37.8257 8.90272C37.8984 8.96405 37.9792 8.97923 38.0658 8.9481C38.1573 8.91499 38.2342 8.83326 38.2483 8.75369C38.2544 8.7195 38.2538 8.66706 38.1791 8.60374C37.5014 8.03169 36.4492 7.48325 35.5294 7.65727C35.0021 7.75739 34.5836 8.08842 34.2855 8.64115C34.0578 9.06325 34.0113 9.49225 34.1474 9.9165C34.3155 10.4412 34.7531 10.909 35.3478 11.1998C35.5498 11.2987 35.7926 11.3925 36.0495 11.4919C37.0766 11.8892 38.4833 12.4331 38.2423 13.8962C38.167 14.3535 37.7226 14.8828 37.3368 15.13C36.5277 15.6482 35.47 15.5682 34.1033 14.886C34.065 14.8669 34.0277 14.8572 33.9914 14.8572L33.9917 14.8575Z" fill="#5DA9A2"/>
<path d="M35.7695 6.60058V7.80571C35.7695 8.39769 36.6882 8.39861 36.6882 7.80571V6.60058C36.6882 6.0086 35.7695 6.00768 35.7695 6.60058Z" fill="#5DA9A2"/>
<path d="M36.2284 8.48003C35.8859 8.48003 35.5391 8.24836 35.5391 7.80571V6.60059C35.5391 6.39713 35.6184 6.21682 35.7625 6.09278C35.8872 5.98545 36.0526 5.92627 36.2278 5.92627C36.5703 5.92627 36.9171 6.15794 36.9171 6.60043V7.80556C36.9171 8.24836 36.5706 8.48003 36.2284 8.48003ZM36.2278 6.38624C36.1895 6.38624 35.9984 6.39651 35.9984 6.60043V7.80556C35.9984 8.00963 36.1899 8.0199 36.2284 8.0199C36.2668 8.0199 36.4577 8.00963 36.4577 7.80556V6.60043C36.4577 6.39651 36.2662 6.38624 36.2278 6.38624Z" fill="#5DA9A2"/>
<path d="M35.7695 15.7632V16.9683C35.7695 17.5603 36.6882 17.5612 36.6882 16.9683V15.7632C36.6882 15.1712 35.7695 15.1703 35.7695 15.7632Z" fill="#5DA9A2"/>
<path d="M36.2284 17.6425C35.8859 17.6425 35.5391 17.4108 35.5391 16.9683V15.7632C35.5391 15.3204 35.8856 15.0889 36.2278 15.0889C36.57 15.0889 36.9171 15.3205 36.9171 15.7632V16.9683C36.9171 17.411 36.5706 17.6425 36.2284 17.6425ZM36.2278 15.5487C36.1895 15.5487 35.9984 15.559 35.9984 15.763V16.9682C35.9984 17.1721 36.1899 17.1823 36.2284 17.1823C36.2668 17.1823 36.4577 17.1721 36.4577 16.9682V15.763C36.4577 15.559 36.2662 15.5487 36.2278 15.5487Z" fill="#5DA9A2"/>
</g>
<defs>
<clipPath id="clip0_2446_609">
<rect width="48" height="46" fill="white"/>
</clipPath>
</defs>
</svg>
