<svg width="51" height="51" viewBox="0 0 51 51" fill="none" xmlns="http://www.w3.org/2000/svg">
<g clip-path="url(#clip0_2446_569)">
<path d="M26.0793 4.83271V0.75135C26.0793 0.0144686 24.9219 0.0132777 24.9219 0.75135V4.83271C24.9219 5.56959 26.0793 5.57078 26.0793 4.83271Z" fill="#231F20"/>
<path d="M25.5004 5.5845C25.113 5.5845 24.7207 5.32634 24.7207 4.8328V0.751568C24.7207 0.258153 25.1127 0 25.4997 0C25.8868 0 26.2795 0.258153 26.2795 0.751568V4.83293C26.2795 5.32634 25.8875 5.5845 25.5004 5.5845ZM25.4997 0.396955C25.3253 0.396955 25.1219 0.489843 25.1219 0.751568V4.83293C25.1219 5.09479 25.3257 5.18767 25.5004 5.18767C25.6751 5.18767 25.8782 5.09479 25.8782 4.83293V0.751568C25.8782 0.489843 25.6744 0.396955 25.4997 0.396955Z" fill="black"/>
<path d="M4.88448 24.6558H0.759248C0.0144463 24.6558 0.0132426 25.8008 0.759248 25.8008H4.88448C5.62928 25.8008 5.63049 24.6558 4.88448 24.6558Z" fill="#231F20"/>
<path d="M4.88488 25.9996H0.759781C0.261062 25.9996 0 25.6119 0 25.2289C0 24.846 0.260928 24.4575 0.759781 24.4575H4.88501C5.38373 24.4575 5.64466 24.8452 5.64466 25.2281C5.64466 25.6111 5.3836 25.9996 4.88488 25.9996ZM0.759781 24.8545C0.495108 24.8545 0.401222 25.0561 0.401222 25.2289C0.401222 25.4017 0.495108 25.6026 0.759781 25.6026H4.88501C5.14968 25.6026 5.24344 25.401 5.24344 25.2281C5.24344 25.0553 5.14968 24.8545 4.88501 24.8545H0.759781Z" fill="black"/>
<path d="M11.3316 10.4016C10.3593 9.43965 9.3869 8.47769 8.4146 7.51561C7.88726 6.99388 7.0685 7.8034 7.59611 8.3254C8.5684 9.28735 9.5407 10.2493 10.5131 11.2114C11.0405 11.7331 11.8592 10.9236 11.3316 10.4016Z" fill="#231F20"/>
<path d="M10.9 11.5782C10.7072 11.5782 10.5214 11.5 10.3715 11.3517L7.45447 8.46568C7.10166 8.11662 7.19421 7.65973 7.46811 7.38887C7.60921 7.24914 7.78922 7.16472 7.97512 7.1507C8.18643 7.13588 8.39413 7.21434 8.55676 7.37524L11.4738 10.2612C11.6723 10.4575 11.7466 10.7161 11.6776 10.9709C11.6022 11.2498 11.3711 11.4783 11.0891 11.5531C11.026 11.5697 10.9628 11.5779 10.9002 11.5779L10.9 11.5782ZM8.02916 7.54567C8.02126 7.54567 8.01337 7.54606 8.00535 7.54659C7.91641 7.55334 7.824 7.5982 7.75178 7.66965C7.67956 7.7411 7.63422 7.8324 7.62753 7.92039C7.62018 8.01632 7.65749 8.10524 7.73814 8.18516L10.6552 11.0712C10.7537 11.1687 10.8649 11.2016 10.9852 11.17C11.1269 11.1324 11.252 11.0084 11.2899 10.8684C11.3221 10.7495 11.2885 10.6397 11.19 10.5421L8.27296 7.65615C8.19887 7.58285 8.11689 7.54567 8.02916 7.54567Z" fill="black"/>
<path d="M46.1157 25.8008H50.2409C50.9857 25.8008 50.9869 24.6558 50.2409 24.6558H46.1157C45.3709 24.6558 45.3697 25.8008 46.1157 25.8008Z" fill="#231F20"/>
<path d="M50.2403 25.9996H46.1151C45.6164 25.9996 45.3555 25.6119 45.3555 25.2289C45.3555 24.846 45.6164 24.4575 46.1151 24.4575H50.2403C50.7391 24.4575 51.0001 24.8452 51.0001 25.2281C51.0001 25.6111 50.7392 25.9996 50.2403 25.9996ZM46.1152 24.8545C45.8506 24.8545 45.7568 25.0561 45.7568 25.2289C45.7568 25.4017 45.8506 25.6026 46.1152 25.6026H50.2405C50.5052 25.6026 50.599 25.401 50.599 25.2281C50.599 25.0553 50.5052 24.8545 50.2405 24.8545H46.1152Z" fill="black"/>
<path d="M40.4858 11.2115C41.4581 10.2495 42.4304 9.28756 43.4028 8.32547C43.9302 7.80374 43.1119 6.99369 42.5843 7.51568C41.612 8.47764 40.6397 9.43959 39.6673 10.4017C39.14 10.9234 39.9582 11.7335 40.4858 11.2115Z" fill="#231F20"/>
<path d="M40.1025 11.5794C39.8912 11.5794 39.6877 11.4852 39.5394 11.3385C39.2656 11.0676 39.1729 10.6105 39.5257 10.2615L42.4427 7.37548C42.7953 7.02629 43.2572 7.11785 43.5314 7.38884C43.6725 7.52857 43.7578 7.70654 43.772 7.89046C43.788 8.10085 43.7075 8.30515 43.545 8.46591L40.628 11.3519C40.4663 11.512 40.2816 11.5794 40.1025 11.5794ZM42.9705 7.54577C42.8826 7.54577 42.8006 7.58269 42.7265 7.65613L39.8095 10.5421C39.6223 10.7274 39.6998 10.9358 39.8233 11.0576C39.8955 11.1291 39.9878 11.1739 40.0767 11.1807C40.1742 11.1878 40.2637 11.1511 40.3445 11.0711L43.2615 8.18513C43.3423 8.10521 43.3795 8.01616 43.3721 7.92037C43.3653 7.83237 43.3199 7.74107 43.2477 7.66949C43.1755 7.59791 43.0832 7.55318 42.9943 7.54643C42.9863 7.5459 42.9784 7.54577 42.9705 7.54577Z" fill="black"/>
<path d="M30.689 42.5521V44.5869C30.689 45.5317 30.5476 46.1951 29.386 46.2589C28.0995 46.3296 26.7883 46.2589 25.5004 46.2589C24.2125 46.2589 22.9081 46.3268 21.6239 46.2589C20.4578 46.1972 20.3118 45.537 20.3118 44.5869V42.5521C20.3118 41.8152 19.1544 41.8141 19.1544 42.5521C19.1544 43.6637 18.8524 45.3263 19.4351 46.3326C20.1283 47.5297 21.592 47.4041 22.7891 47.4041H27.6781C28.7797 47.4041 30.2273 47.6091 31.1277 46.8525C32.2443 45.9141 31.8465 43.8389 31.8465 42.5521C31.8465 41.8152 30.6891 41.8141 30.6891 42.5521H30.689Z" fill="#231F20"/>
<path d="M28.9336 47.6283C28.7066 47.6283 28.4809 47.6215 28.2616 47.6149C28.0565 47.6086 27.8627 47.6028 27.6778 47.6028H22.7888C22.6868 47.6028 22.5829 47.6037 22.4778 47.6047C21.3532 47.6146 19.9529 47.627 19.2607 46.4314C18.7892 45.6172 18.8574 44.4532 18.9178 43.4263C18.9362 43.1121 18.9536 42.8153 18.9536 42.5525C18.9536 42.0591 19.3455 41.8008 19.7325 41.8008C20.1196 41.8008 20.5122 42.0589 20.5122 42.5525V44.5873C20.5122 45.5654 20.6743 46.0102 21.6344 46.061C22.4842 46.106 23.3602 46.0907 24.2079 46.0759C25.0571 46.061 25.9457 46.0613 26.7955 46.0764C27.6453 46.0919 28.5237 46.108 29.3747 46.061C30.3274 46.0086 30.4882 45.564 30.4882 44.5873V42.5525C30.4882 42.3252 30.5771 42.1244 30.7388 41.9871C30.8801 41.8671 31.0677 41.8009 31.2671 41.8009C31.6546 41.8009 32.0468 42.0591 32.0468 42.5526C32.0468 42.7999 32.0619 43.08 32.078 43.3767C32.1458 44.6286 32.2303 46.1865 31.2571 47.0043C30.624 47.5364 29.7691 47.6286 28.9336 47.6286V47.6283ZM22.7888 47.206H27.6778C27.8689 47.206 28.0655 47.2119 28.2739 47.2182C29.2281 47.2471 30.3097 47.2797 30.9975 46.7016C31.8191 46.0112 31.7406 44.5621 31.6774 43.3979C31.661 43.0958 31.6456 42.8106 31.6456 42.5525C31.6456 42.2906 31.4418 42.1977 31.2671 42.1977C31.0924 42.1977 30.8894 42.2906 30.8894 42.5525V44.5873C30.8894 45.4921 30.7743 46.3818 29.3969 46.4575C28.5312 46.5047 27.6451 46.4888 26.788 46.4733C26.3647 46.4655 25.927 46.4577 25.5002 46.4577C25.0734 46.4577 24.6375 46.4654 24.215 46.4727C23.3605 46.4878 22.4771 46.5032 21.613 46.4575C20.2271 46.3842 20.1111 45.4934 20.1111 44.5873V42.5525C20.1111 42.2906 19.9073 42.1977 19.7326 42.1977C19.558 42.1977 19.355 42.2906 19.355 42.5525C19.355 42.8268 19.3372 43.1291 19.3186 43.4493C19.2615 44.4211 19.197 45.5224 19.6092 46.2341C20.1847 47.2281 21.3481 47.2176 22.4746 47.2077C22.5809 47.2068 22.686 47.2059 22.7892 47.2059L22.7888 47.206Z" fill="black"/>
<path d="M29.4535 46.7128C29.4535 47.8725 29.3298 48.9674 28.0829 49.4455C27.2853 49.7515 26.3406 49.6525 25.5003 49.6525C24.66 49.6525 23.7152 49.7515 22.9176 49.4455C21.6708 48.9674 21.547 47.8725 21.547 46.7128C21.547 45.9759 20.3896 45.9747 20.3896 46.7128C20.3896 48.0903 20.5936 49.4129 21.8767 50.2062C22.9729 50.884 24.2644 50.7977 25.5003 50.7977C26.7362 50.7977 28.0312 50.8864 29.1239 50.2062C30.4091 49.4064 30.6109 48.095 30.6109 46.7128C30.6109 45.9759 29.4535 45.9747 29.4535 46.7128Z" fill="#231F20"/>
<path d="M26.2731 51.0001C26.1422 51.0001 26.0118 50.9992 25.8815 50.9983C25.628 50.9961 25.3775 50.9963 25.1243 50.9983C23.9836 51.0067 22.8043 51.0145 21.77 50.3749C20.3764 49.5131 20.1885 48.0401 20.1885 46.713C20.1885 46.2196 20.5803 45.9614 20.9674 45.9614C21.3544 45.9614 21.7471 46.2196 21.7471 46.713C21.7471 47.8045 21.8422 48.8208 22.9897 49.2608C23.5953 49.4931 24.3073 49.4774 24.9965 49.4619C25.3374 49.4544 25.6623 49.4544 26.0031 49.4619C26.6916 49.4774 27.4042 49.4933 28.01 49.2608C29.1574 48.8208 29.2525 47.8045 29.2525 46.713C29.2525 46.2196 29.6443 45.9614 30.0314 45.9614C30.4184 45.9614 30.8111 46.2196 30.8111 46.713C30.8111 48.1038 30.6196 49.5098 29.2301 50.3745C28.318 50.9423 27.2886 51.0002 26.2731 51.0002V51.0001ZM25.4999 50.5993C25.6276 50.5993 25.7558 50.6002 25.8846 50.6013C26.9666 50.6087 28.0863 50.6174 29.0166 50.0384C30.2412 49.2763 30.41 47.9897 30.41 46.7129C30.41 46.4511 30.2062 46.3582 30.0315 46.3582C29.8569 46.3582 29.6538 46.4511 29.6538 46.7129C29.6538 47.8464 29.538 49.1004 28.1551 49.6307C27.4749 49.8917 26.7222 49.8745 25.9943 49.8587C25.6594 49.8512 25.3404 49.8512 25.0055 49.8587C24.2776 49.8743 23.5248 49.8917 22.8448 49.6307C21.4618 49.1004 21.346 47.8466 21.346 46.7129C21.346 46.4511 21.1422 46.3582 20.9675 46.3582C20.7929 46.3582 20.5898 46.4511 20.5898 46.7129C20.5898 47.9926 20.7586 49.2812 21.9827 50.038C22.9185 50.6166 24.0399 50.6092 25.1216 50.6012C25.2482 50.6002 25.3744 50.5993 25.5 50.5993H25.4999Z" fill="black"/>
<path d="M25.5005 42.0474C23.6936 42.0474 21.8726 42.1178 20.0675 42.0474C19.2014 42.0137 18.2793 41.5873 18.0207 40.6996C17.8716 40.1878 17.9719 39.5634 17.941 39.0312C17.9113 38.5182 17.8601 38.0062 17.7822 37.498C17.5857 36.2188 17.1695 34.9884 16.4005 33.9321C15.7639 33.0576 14.9521 32.3292 14.2971 31.4696C13.0698 29.8588 12.3142 27.8723 11.9873 25.8917C11.3637 22.1134 12.4407 18.1366 14.8947 15.1774C19.6703 9.4189 28.5881 8.54388 34.3442 13.4031C40.1702 18.3213 40.739 27.0977 35.6269 32.7109C34.7813 33.6394 34.0549 34.5941 33.6314 35.7858C33.3278 36.6402 33.1853 37.5466 33.1032 38.4458C32.9928 39.6539 33.3363 41.0819 32.0578 41.7665C31.1089 42.2746 29.6439 42.0472 28.6071 42.0472H25.5006C24.7558 42.0472 24.7546 43.1922 25.5006 43.1922H28.5128C29.5186 43.1922 30.6423 43.3219 31.6385 43.1222C32.4544 42.9587 33.2419 42.498 33.7151 41.8098C34.3438 40.8955 34.1588 39.7792 34.2372 38.7327C34.3564 37.1393 34.7353 35.598 35.7439 34.3217C36.5191 33.3411 37.4436 32.5016 38.1252 31.4449C39.3536 29.5407 40.0655 27.3091 40.2781 25.0674C40.651 21.1362 39.3486 17.1738 36.7632 14.1765C31.6313 8.22724 22.387 7.41639 16.2274 12.2764C9.92516 17.249 8.70932 26.9861 14.135 33.0594C15.1063 34.1466 15.9973 35.1356 16.4048 36.5692C16.7227 37.6873 16.7862 38.8427 16.8157 39.9975C16.8426 41.0468 17.1348 41.9177 18.0294 42.55C19.1776 43.3615 20.5994 43.1924 21.9295 43.1924H25.5005C26.2453 43.1924 26.2465 42.0474 25.5005 42.0474Z" fill="#231F20"/>
<path d="M30.2871 43.4325C29.9801 43.4325 29.6724 43.4218 29.3687 43.4112C29.0707 43.4009 28.7893 43.3911 28.5126 43.3911H21.9294C21.7358 43.3911 21.5402 43.3947 21.3437 43.3984C20.1656 43.4201 18.9467 43.4427 17.9127 42.7119C17.0593 42.1087 16.647 41.2479 16.6152 40.0028C16.5886 38.9605 16.5332 37.7539 16.2115 36.6233C15.8198 35.2456 14.9809 34.3064 14.0092 33.2189L13.9845 33.1912C11.42 30.3209 10.2016 26.538 10.5536 22.5393C10.9167 18.4144 12.939 14.6174 16.102 12.1217C22.3857 7.16377 31.7224 8.02808 36.9154 14.0483C39.5542 17.1075 40.8526 21.1308 40.4774 25.0867C40.2533 27.4494 39.4983 29.6852 38.294 31.5522C37.8674 32.2136 37.3436 32.796 36.8369 33.3591C36.5225 33.7088 36.1973 34.0703 35.9015 34.4445C35.0405 35.5339 34.5749 36.9013 34.4368 38.7478C34.4181 38.9976 34.4147 39.2588 34.4114 39.5115C34.4007 40.3326 34.3896 41.1815 33.8806 41.922C33.3973 42.6248 32.5945 43.1333 31.678 43.3171C31.2286 43.4074 30.7588 43.4326 30.2871 43.4326V43.4325ZM26.1717 42.9941H28.5125C28.7963 42.9941 29.0945 43.0045 29.3827 43.0145C30.1302 43.0406 30.9028 43.0673 31.5983 42.9281C32.401 42.7671 33.1301 42.3075 33.5487 41.6986C33.9898 41.057 33.9996 40.3038 34.0101 39.5064C34.0134 39.2478 34.017 38.9803 34.0365 38.7185C34.1808 36.7899 34.6731 35.3541 35.5853 34.2C35.8891 33.8159 36.2185 33.4495 36.537 33.0951C37.0332 32.5435 37.5461 31.9732 37.9555 31.3386C39.1257 29.5244 39.8596 27.3497 40.0778 25.0494C40.4428 21.1998 39.179 17.284 36.6101 14.3059C31.5557 8.44687 22.4679 7.60651 16.352 12.4322C13.2743 14.8603 11.3065 18.5568 10.953 22.5738C10.6106 26.4631 11.7939 30.1405 14.2849 32.9285L14.3096 32.9562C15.2719 34.0335 16.1809 35.0509 16.5975 36.516C16.9315 37.6908 16.9886 38.9268 17.0159 39.9929C17.0446 41.1181 17.393 41.8571 18.1456 42.3889C19.0714 43.0434 20.2224 43.0218 21.3358 43.0017C21.5347 42.998 21.7329 42.9943 21.929 42.9943H24.8283C24.7699 42.8792 24.7403 42.7495 24.7403 42.6206C24.7403 42.488 24.7705 42.3607 24.827 42.2489C24.4466 42.2518 24.0661 42.257 23.6935 42.2618C22.5012 42.2772 21.2681 42.2931 20.0589 42.246C19.2203 42.2133 18.1329 41.8031 17.8271 40.7549C17.7207 40.3894 17.7308 39.9876 17.7406 39.5992C17.7455 39.4029 17.7501 39.2174 17.7401 39.0428C17.7096 38.5182 17.6569 38.0086 17.5829 37.5282C17.3724 36.1568 16.9196 34.986 16.2371 34.0484C15.9078 33.5962 15.5209 33.1729 15.1467 32.7635C14.8047 32.3896 14.4512 32.0028 14.1361 31.5895C12.9567 30.0412 12.1449 28.0823 11.7886 25.9243C11.158 22.1045 12.2608 18.0401 14.7389 15.0519C17.073 12.2374 20.5615 10.4342 24.3098 10.1043C28.0675 9.77389 31.6773 10.8918 34.4737 13.2525C37.3297 15.6636 39.0389 19.0468 39.2864 22.7787C39.5339 26.5115 38.2869 30.0862 35.7751 32.8441C35.0563 33.6335 34.2618 34.6083 33.8198 35.852C33.5639 36.5727 33.3992 37.4028 33.3023 38.4641C33.2789 38.7204 33.2764 38.9957 33.274 39.2621C33.2655 40.2411 33.2556 41.3509 32.1525 41.9415C31.3692 42.3609 30.2994 42.3126 29.3552 42.2696C29.0882 42.2575 28.8361 42.246 28.6062 42.246H26.1713C26.2298 42.3611 26.2593 42.4908 26.2593 42.6197C26.2593 42.7486 26.2295 42.8789 26.1712 42.9941H26.1717ZM25.5002 42.2459C25.2357 42.2459 25.1418 42.4475 25.1418 42.6203C25.1418 42.7931 25.2357 42.994 25.5002 42.994C25.7648 42.994 25.8588 42.7923 25.8588 42.6195C25.8588 42.4467 25.7649 42.2459 25.5002 42.2459ZM25.5002 41.8489H28.6069C28.8459 41.8489 29.1025 41.8606 29.374 41.8729C30.2662 41.9138 31.2769 41.9593 31.9622 41.5924C32.857 41.1132 32.8651 40.2123 32.8734 39.2585C32.8759 38.9842 32.8783 38.7005 32.9032 38.4284C33.0033 37.3333 33.1745 36.4728 33.4419 35.7203C33.9073 34.4104 34.7321 33.3968 35.4777 32.5783C37.9163 29.9006 39.1269 26.4295 38.8866 22.8045C38.6463 19.1803 36.9868 15.8952 34.2138 13.5542C31.5 11.2635 27.9952 10.178 24.3459 10.4995C20.7042 10.8199 17.3158 12.5708 15.0495 15.3035C12.6436 18.2048 11.5729 22.1511 12.1851 25.86C12.5309 27.9548 13.3166 29.8533 14.4571 31.3502C14.7613 31.7496 15.1087 32.1296 15.4447 32.4971C15.8264 32.9145 16.2209 33.3461 16.563 33.8161C17.2832 34.8055 17.76 36.0342 17.9803 37.4684C18.0558 37.9611 18.1101 38.4831 18.141 39.0201C18.1521 39.2109 18.1472 39.4133 18.1422 39.609C18.1333 39.9675 18.1239 40.3382 18.2132 40.645C18.4596 41.4899 19.3701 41.8219 20.0752 41.8493C21.274 41.8963 22.5018 41.8803 23.6888 41.8648C24.2829 41.8571 24.8973 41.8492 25.5004 41.8492L25.5002 41.8489Z" fill="black"/>
<path d="M32.4482 23.7171C29.9742 22.374 27.5003 21.0309 25.0264 19.6878C24.2552 19.2691 23.1115 18.3743 22.1729 18.4604C20.6141 18.6036 20.6375 20.0744 20.6375 21.2288C20.6375 24.1805 20.517 27.1579 20.6375 30.1072C20.6975 31.5741 22.0291 32.231 23.3051 31.5832C24.5113 30.9708 25.6869 30.2901 26.8755 29.6449C28.4818 28.7728 30.0882 27.9006 31.6947 27.0285C32.0413 26.8402 32.4586 26.6689 32.7544 26.4013C33.6409 25.5998 33.3638 24.3396 32.448 23.7173C31.8326 23.2989 31.2531 24.2909 31.8639 24.7061C32.893 25.4057 30.6681 26.2799 30.2491 26.5075C28.9299 27.2237 27.6105 27.9399 26.2913 28.6562C25.2226 29.2364 24.1538 29.8166 23.0851 30.3968C22.9103 30.4917 22.6749 30.6829 22.4717 30.718C21.7347 30.8453 21.7949 30.1408 21.7949 29.7002V21.6949C21.7949 21.0901 21.4995 19.3665 22.5934 19.6731C23.3562 19.8868 24.1798 20.5343 24.8714 20.9099C27.2022 22.1754 29.533 23.4406 31.8639 24.7061C32.5172 25.0608 33.1019 24.0724 32.448 23.7174L32.4482 23.7171Z" fill="#5DA9A2"/>
<path d="M22.3165 32.0331C21.9792 32.0331 21.6559 31.9502 21.3682 31.7841C20.8067 31.46 20.4674 30.8518 20.4374 30.1154C20.3567 28.1431 20.3841 26.1295 20.4105 24.182C20.4237 23.2129 20.4372 22.2107 20.4372 21.2291V21.1784C20.4368 20.0146 20.4364 18.4209 22.1546 18.2631C22.9501 18.1888 23.8447 18.7401 24.5638 19.1822C24.7649 19.3059 24.955 19.4226 25.1232 19.5139L32.4188 23.4749C32.4645 23.4943 32.5097 23.5188 32.5539 23.5483C32.6206 23.5855 32.6794 23.6297 32.7299 23.6797C33.1728 24.0457 33.4533 24.5645 33.491 25.1027C33.5294 25.6495 33.3159 26.1629 32.8901 26.5481C32.6483 26.7667 32.3475 26.9187 32.0567 27.0656C31.9659 27.1115 31.8766 27.1567 31.7917 27.2027L26.9725 29.8192C26.576 30.0343 26.1811 30.2533 25.786 30.4726C25.0083 30.9042 24.204 31.3504 23.3973 31.76C23.039 31.9418 22.6702 32.033 22.3168 32.033L22.3165 32.0331ZM22.3021 18.6533C22.2649 18.6533 22.228 18.6551 22.1918 18.6582C20.9375 18.7735 20.8382 19.8209 20.8386 21.1782V21.2291C20.8386 22.2134 20.8249 23.2169 20.8118 24.1873C20.7855 26.1295 20.7583 28.1377 20.8384 30.0994C20.8632 30.7065 21.1232 31.183 21.5705 31.4414C22.0389 31.7117 22.6378 31.6994 23.2141 31.4069C24.014 31.0006 24.8152 30.5562 25.5898 30.1264C25.986 29.9065 26.382 29.6868 26.7795 29.471L31.5987 26.8547C31.6871 26.8068 31.7799 26.7597 31.8745 26.7121C32.1415 26.5771 32.4177 26.4376 32.6197 26.255C33.0472 25.8683 33.1121 25.4299 33.091 25.1301C33.0746 24.8971 33.0004 24.6679 32.8788 24.4596C32.8122 24.628 32.6897 24.7766 32.5298 24.8726C32.4609 24.9139 32.3883 24.9432 32.3139 24.9608C32.3335 25.0302 32.3369 25.0945 32.3327 25.1495C32.2889 25.7095 31.41 26.1726 30.5895 26.5627C30.4852 26.6123 30.4001 26.6525 30.3463 26.6818L23.1824 30.5711C23.1344 30.5972 23.0813 30.6315 23.0254 30.6673C22.8682 30.768 22.6899 30.8822 22.507 30.9138C22.2391 30.9601 22.0237 30.9169 21.867 30.7855C21.5878 30.5511 21.5917 30.1125 21.5946 29.7922L21.5951 29.7005V21.6952C21.5951 21.6081 21.5885 21.4936 21.5807 21.3608C21.5453 20.7535 21.4967 19.9217 21.9251 19.5817C22.1118 19.4335 22.3556 19.4001 22.6489 19.4825C23.1936 19.635 23.7436 19.9821 24.2752 20.3176C24.5199 20.4722 24.7512 20.6181 24.9688 20.7362L31.4046 24.2303C31.4046 24.2091 31.4054 24.1877 31.4072 24.1663C31.4267 23.922 31.552 23.6964 31.7378 23.558L24.9308 19.8623C24.753 19.7659 24.5586 19.6463 24.3527 19.5196C23.7214 19.1314 22.9441 18.6536 22.3028 18.6536L22.3021 18.6533ZM22.3552 19.8352C22.2458 19.8352 22.1963 19.8746 22.1757 19.8909C21.9086 20.1029 21.9538 20.8758 21.9807 21.3377C21.9889 21.4765 21.9958 21.5965 21.9958 21.6949L21.9953 29.7956C21.993 30.0374 21.9901 30.3685 22.1261 30.4825C22.1875 30.5342 22.2923 30.5474 22.4374 30.5226C22.54 30.5048 22.6818 30.4139 22.8068 30.3337C22.8714 30.2925 22.9331 30.2532 22.9887 30.2229L30.1528 26.3334C30.211 26.3019 30.3026 26.2582 30.4152 26.2045C30.822 26.0112 31.9027 25.4974 31.9322 25.1187C31.9382 25.0411 31.8798 24.9592 31.7585 24.875L24.7751 21.0838C24.5459 20.9594 24.3094 20.81 24.0588 20.6518C23.5516 20.3317 23.0271 20.0006 22.5391 19.8639C22.4641 19.8429 22.4037 19.8352 22.3552 19.8352ZM31.9697 24.5369C32.1228 24.616 32.2452 24.5788 32.3214 24.5332C32.4495 24.4563 32.5367 24.3039 32.5337 24.1624C32.5321 24.0895 32.5073 24.0264 32.4596 23.9736C32.4221 23.9433 32.3832 23.9142 32.3429 23.8865L32.2471 23.8344C32.1732 23.8065 32.1022 23.8089 32.0348 23.8406C31.9126 23.8984 31.8187 24.0449 31.8066 24.1968C31.7989 24.2942 31.8212 24.4316 31.9697 24.5367V24.5369Z" fill="#5DA9A2"/>
</g>
<defs>
<clipPath id="clip0_2446_569">
<rect width="51" height="51" fill="white"/>
</clipPath>
</defs>
</svg>
