<svg width="54" height="40" viewBox="0 0 54 40" fill="none" xmlns="http://www.w3.org/2000/svg">
<g clip-path="url(#clip0_2446_991)">
<path d="M48.8362 38.414H6.74289C6.2478 38.414 5.75083 38.4268 5.25595 38.414C3.20751 38.3607 1.64146 36.9211 1.5688 34.8954C1.38371 29.7337 1.5688 24.5336 1.5688 19.3694V6.00822C1.5688 5.21555 1.52862 4.4467 1.85445 3.69292C2.85982 1.36683 5.18808 1.545 7.2842 1.545H45.8844C47.3534 1.545 49.334 1.27134 50.6498 2.02471C52.8656 3.29363 52.4294 5.97381 52.4294 8.09791V17.7488C52.4294 23.416 52.4931 29.0871 52.4294 34.7541C52.4067 36.7704 50.926 38.345 48.8364 38.4138C48.0346 38.4403 48.0311 39.662 48.8364 39.6355C51.3768 39.5518 53.496 37.7091 53.669 35.1823C53.7057 34.6488 53.6788 34.1066 53.6788 33.5727V5.5959C53.6788 2.70784 51.8036 0.358129 48.6938 0.323311C46.9759 0.304171 45.2564 0.323311 43.5386 0.323311H21.439C16.0975 0.323311 10.7544 0.283606 5.41314 0.323311C2.40242 0.345708 0.3317 2.49913 0.319625 5.40613C0.30984 7.78923 0.319625 10.1723 0.319625 12.5554V33.1895C0.319625 33.7533 0.303594 34.3197 0.319625 34.8834C0.382084 37.0926 1.88672 39.0638 4.14585 39.53C5.56845 39.8236 7.19426 39.6357 8.63185 39.6357H48.8362C49.64 39.6357 49.6413 38.414 48.8362 38.414Z" fill="#141414"/>
<path d="M6.09816 40.0001C5.41257 40.0001 4.73094 39.9626 4.08116 39.8284C1.75103 39.3477 0.0758874 37.3175 0.00718276 34.8914C-0.00364343 34.51 0.000104098 34.1238 0.00343523 33.7505C0.005309 33.5632 0.00697457 33.3759 0.00697457 33.189V12.5551C0.00697457 11.761 0.00593359 10.9667 0.00468441 10.1726C0.00260245 8.58323 0.000312294 6.99402 0.00697457 5.40481C0.0198827 2.30641 2.29234 0.0407993 5.4107 0.0175873C8.97293 -0.00888256 12.5949 7.64651e-05 16.0978 0.00883187C17.8783 0.0131078 19.6586 0.0175873 21.4387 0.0175873H43.538C44.1104 0.0175873 44.6827 0.0153475 45.255 0.0133114C46.3828 0.00903549 47.5491 0.00475959 48.6967 0.0175873C51.8136 0.0526089 53.9905 2.34632 53.9905 5.5956V33.5726C53.9905 33.7296 53.9928 33.8872 53.9951 34.045C54.0007 34.4233 54.0065 34.8146 53.9799 35.2025C53.8027 37.7901 51.6329 39.814 48.9187 39.9378C48.8837 39.9404 48.8466 39.9408 48.8106 39.9412C48.8006 39.9412 48.7908 39.9412 48.781 39.9408H8.6317C8.23967 39.9408 7.8391 39.9547 7.415 39.9697C6.97946 39.9848 6.53808 40.0003 6.09816 40.0003V40.0001ZM10.7659 0.610715C8.98189 0.610715 7.19119 0.614991 5.41528 0.62843C2.61026 0.649198 0.643221 2.61448 0.631771 5.40725C0.625108 6.99544 0.627399 8.58363 0.62948 10.1718C0.630521 10.9661 0.631771 11.7608 0.631771 12.5551V33.1892C0.631771 33.3781 0.630105 33.5671 0.628231 33.7562C0.624692 34.1242 0.621153 34.5043 0.631771 34.8745C0.692356 37.0171 2.16388 38.8085 4.21024 39.2308C5.2023 39.4357 6.31594 39.3966 7.39273 39.3591C7.80371 39.3448 8.22863 39.3298 8.6317 39.3298H47.963C47.9025 39.1335 47.9066 38.9169 47.9762 38.7189H6.74274C6.57868 38.7189 6.41441 38.7204 6.25015 38.7218C5.92203 38.725 5.58288 38.7279 5.24748 38.7187C3.01208 38.6607 1.3336 37.057 1.25657 34.9056C1.1329 31.4562 1.17475 27.9376 1.21534 24.535C1.23554 22.8399 1.25636 21.087 1.25636 19.3687L1.25553 5.77396C1.25199 5.05439 1.24824 4.31018 1.56657 3.5733C2.58652 1.21341 4.86127 1.22583 6.86703 1.23724C7.00673 1.23805 7.14581 1.23887 7.28384 1.23887H45.8842C46.1767 1.23887 46.4898 1.22767 46.8211 1.21606C48.161 1.16923 49.6802 1.11507 50.8072 1.76073C52.875 2.94454 52.813 5.20262 52.7582 7.19478C52.7497 7.50285 52.7413 7.80542 52.7413 8.09761V17.7483C52.7413 19.6368 52.7484 21.526 52.7555 23.4149C52.7695 27.1325 52.7838 30.9767 52.7413 34.757C52.7195 36.6977 51.467 38.2144 49.6632 38.6161C49.7217 38.7436 49.7514 38.8839 49.7514 39.0237C49.7514 39.0885 49.7452 39.1535 49.7325 39.217C51.722 38.7817 53.2198 37.1631 53.357 35.1612C53.3818 34.7985 53.3761 34.4196 53.3707 34.0535C53.3682 33.8927 53.3659 33.7322 53.3659 33.5724V5.59539C53.3659 2.70163 51.443 0.659175 48.6896 0.628226C47.5466 0.615602 46.383 0.619674 45.2573 0.62395C44.6842 0.625986 44.111 0.628226 43.538 0.628226H21.4387C19.658 0.628226 17.8771 0.62395 16.0962 0.619471C14.3419 0.615195 12.5572 0.610512 10.7657 0.610512L10.7659 0.610715ZM48.7908 39.3298H48.8306C48.8448 39.3294 48.8591 39.3288 48.8731 39.3281C49.1144 39.3066 49.1271 39.0726 49.1271 39.024C49.1271 38.9735 49.1133 38.7222 48.8412 38.7189C48.723 38.724 48.6407 38.7723 48.5897 38.8657C48.5295 38.9761 48.5314 39.1276 48.5941 39.2261C48.6359 39.2917 48.7005 39.3255 48.7908 39.3298ZM6.42295 1.84686C4.60332 1.84686 2.93588 1.97432 2.14202 3.81133C1.87345 4.43276 1.87678 5.08269 1.88011 5.77111L1.88095 6.00771V19.3687C1.88095 21.0906 1.86013 22.8452 1.83993 24.5419C1.79954 27.9376 1.75769 31.4489 1.88074 34.8841C1.94694 36.7321 3.33811 38.058 5.26413 38.1081C5.5885 38.1166 5.92203 38.1136 6.24453 38.1109C6.41067 38.1093 6.57681 38.1079 6.74274 38.1079H48.8304C50.7139 38.0435 52.0957 36.6323 52.117 34.7503C52.1594 30.9745 52.1451 27.1327 52.1311 23.4173C52.124 21.5274 52.117 19.6376 52.117 17.7483V8.09761C52.117 7.80033 52.1255 7.49206 52.134 7.17849C52.1865 5.26635 52.2408 3.28926 50.4918 2.28788C49.5214 1.73222 48.0988 1.78251 46.8438 1.8265C46.5065 1.83851 46.1882 1.84971 45.8844 1.84971H7.28405C7.14476 1.84971 7.00465 1.84889 6.8637 1.84808C6.71609 1.84726 6.5691 1.84645 6.42316 1.84645L6.42295 1.84686Z" fill="#141414"/>
<path d="M0.945149 10.9004H53.0543C53.8582 10.9004 53.8594 9.67871 53.0543 9.67871H0.945149C0.141304 9.67871 0.140055 10.9004 0.945149 10.9004Z" fill="#010101"/>
<path d="M53.0539 11.2056H0.944735C0.343673 11.2056 0.0292969 10.7448 0.0292969 10.2897C0.0292969 9.83464 0.343673 9.37305 0.944735 9.37305H53.0541C53.6552 9.37305 53.9698 9.83383 53.9698 10.2889C53.9698 10.744 53.655 11.2056 53.0539 11.2056ZM0.944735 9.98389C0.667834 9.98389 0.653885 10.2386 0.653885 10.2897C0.653885 10.3408 0.667834 10.5947 0.944735 10.5947H53.0541C53.3312 10.5947 53.3452 10.34 53.3452 10.2889C53.3452 10.2378 53.3312 9.98389 53.0541 9.98389H0.944735Z" fill="#141414"/>
<path d="M12.415 5.61157C12.4146 5.62032 12.4139 5.62928 12.4135 5.63804C12.421 5.58388 12.4283 5.52971 12.4358 5.47555C12.4314 5.50223 12.4252 5.52422 12.4152 5.54946C12.4362 5.5008 12.4572 5.45214 12.4781 5.40347C12.471 5.41874 12.4625 5.4332 12.4523 5.44664C12.4847 5.40551 12.5174 5.36418 12.5499 5.32305C12.533 5.34341 12.5168 5.35908 12.4962 5.37558C12.5382 5.34381 12.5805 5.31185 12.6226 5.28008C12.6088 5.29006 12.594 5.29841 12.5784 5.30533C12.6282 5.28477 12.6779 5.2642 12.7277 5.24384C12.7019 5.25361 12.6796 5.25972 12.6521 5.264C12.7075 5.25667 12.7629 5.24934 12.8181 5.24221C12.7999 5.24404 12.782 5.24404 12.7639 5.24221C12.8193 5.24954 12.8747 5.25667 12.9301 5.264C12.9028 5.25972 12.8803 5.25361 12.8545 5.24384L13.0038 5.30533C12.9881 5.29841 12.9734 5.29006 12.9596 5.28008C13.0017 5.31185 13.0439 5.34381 13.086 5.37558C13.0652 5.35908 13.0491 5.34341 13.0323 5.32305C13.0648 5.36418 13.0974 5.40551 13.1299 5.44664C13.1197 5.4332 13.1112 5.41874 13.1041 5.40347C13.1251 5.45214 13.1462 5.5008 13.167 5.54946C13.157 5.52422 13.1507 5.50243 13.1464 5.47555C13.1539 5.52971 13.1612 5.58388 13.1687 5.63804C13.1668 5.62032 13.1668 5.60281 13.1687 5.5851C13.1612 5.63926 13.1539 5.69342 13.1464 5.74758C13.1507 5.72091 13.157 5.69892 13.167 5.67367L13.1041 5.81966C13.1112 5.80439 13.1197 5.78993 13.1299 5.77649C13.0974 5.81762 13.0648 5.85896 13.0323 5.90009C13.0491 5.87973 13.0654 5.86405 13.086 5.84756C13.0439 5.87932 13.0017 5.91129 12.9596 5.94305C12.9734 5.93307 12.9881 5.92472 13.0038 5.9178L12.8545 5.97929C12.8803 5.96932 12.9026 5.96341 12.9301 5.95914C12.8747 5.96647 12.8193 5.97359 12.7639 5.98092C12.782 5.97909 12.7999 5.97909 12.8181 5.98092C12.7627 5.97359 12.7073 5.96647 12.6521 5.95914C12.6794 5.96341 12.7019 5.96952 12.7277 5.97929C12.6779 5.95873 12.6282 5.93816 12.5784 5.9178C12.594 5.92472 12.6086 5.93307 12.6226 5.94305C12.5805 5.91129 12.5382 5.87932 12.4962 5.84756C12.517 5.86405 12.533 5.87993 12.5499 5.90009C12.5174 5.85896 12.4847 5.81762 12.4523 5.77649C12.4625 5.78993 12.471 5.80439 12.4781 5.81966L12.4152 5.67367C12.4252 5.69892 12.4314 5.7207 12.4358 5.74758C12.4283 5.69342 12.4208 5.63926 12.4135 5.5851C12.4139 5.59385 12.4146 5.60281 12.415 5.61157C12.4325 5.93002 12.6898 6.23768 13.0396 6.22241C13.3629 6.20836 13.6829 5.95323 13.6642 5.61157C13.6517 5.38413 13.5759 5.17196 13.4083 5.00805C13.2469 4.85025 13.0196 4.75781 12.7912 4.75781C12.3086 4.75781 11.9303 5.14896 11.9182 5.61157C11.9062 6.07275 12.318 6.45453 12.7777 6.46471C13.0025 6.4696 13.2399 6.3798 13.3993 6.22404C13.5726 6.05483 13.6513 5.84756 13.6642 5.61177C13.6816 5.2921 13.3644 4.98667 13.0396 5.00093C12.6861 5.0164 12.4339 5.26949 12.415 5.61177V5.61157Z" fill="#5DA9A2"/>
<path d="M12.7955 6.77017C12.7869 6.77017 12.7786 6.77017 12.7703 6.77017C12.4565 6.76325 12.1492 6.62866 11.9273 6.40082C11.7122 6.1801 11.5981 5.89708 11.6058 5.60407C11.6225 4.96921 12.1542 4.45264 12.7911 4.45264C13.103 4.45264 13.4082 4.57643 13.6289 4.79247C13.7827 4.94294 13.8883 5.13291 13.9405 5.35017C13.967 5.43548 13.9795 5.52385 13.9766 5.61161C13.9801 5.70975 13.9655 5.80667 13.9343 5.89891C13.8798 6.10741 13.7744 6.28883 13.6197 6.43991C13.4071 6.6478 13.1005 6.77017 12.7955 6.77017ZM12.7738 5.66679L12.7909 5.66923L12.8329 5.65274L12.85 5.61161L12.8215 5.56172L12.7911 5.55399L12.7492 5.57048L12.7322 5.61161L12.7607 5.66149L12.7738 5.66679Z" fill="#5DA9A2"/>
<path d="M9.12983 5.61157C9.12941 5.62032 9.12879 5.62928 9.12837 5.63804C9.13587 5.58388 9.14315 5.52971 9.15065 5.47555C9.14627 5.50223 9.14003 5.52422 9.13004 5.54946C9.15106 5.5008 9.17209 5.45214 9.19291 5.40347C9.18583 5.41874 9.1773 5.4332 9.16709 5.44664C9.19957 5.40551 9.23226 5.36418 9.26474 5.32305C9.24787 5.34341 9.23164 5.35908 9.21102 5.37558C9.25308 5.34381 9.29534 5.31185 9.3374 5.28008C9.32366 5.29006 9.30888 5.29841 9.29326 5.30533C9.34302 5.28477 9.39278 5.2642 9.44254 5.24384C9.41672 5.25361 9.39444 5.25972 9.36696 5.264C9.42234 5.25667 9.47772 5.24934 9.5329 5.24221C9.51478 5.24404 9.49688 5.24404 9.47876 5.24221C9.53414 5.24954 9.58952 5.25667 9.6447 5.264C9.61742 5.25972 9.59494 5.25361 9.56912 5.24384L9.7184 5.30533C9.70278 5.29841 9.688 5.29006 9.67426 5.28008C9.71632 5.31185 9.75858 5.34381 9.80063 5.37558C9.77982 5.35908 9.76378 5.34341 9.74692 5.32305C9.7794 5.36418 9.81209 5.40551 9.84456 5.44664C9.83436 5.4332 9.82583 5.41874 9.81875 5.40347C9.83978 5.45214 9.8608 5.5008 9.88162 5.54946C9.87163 5.52422 9.86538 5.50243 9.86101 5.47555C9.86851 5.52971 9.87579 5.58388 9.88329 5.63804C9.88141 5.62032 9.88141 5.60281 9.88329 5.5851C9.87579 5.63926 9.86851 5.69342 9.86101 5.74758C9.86538 5.72091 9.87163 5.69892 9.88162 5.67367L9.81875 5.81966C9.82583 5.80439 9.83436 5.78993 9.84456 5.77649C9.81209 5.81762 9.7794 5.85896 9.74692 5.90009C9.76378 5.87973 9.78002 5.86405 9.80063 5.84756C9.75858 5.87932 9.71632 5.91129 9.67426 5.94305C9.688 5.93307 9.70278 5.92472 9.7184 5.9178L9.56912 5.97929C9.59494 5.96932 9.61721 5.96341 9.6447 5.95914C9.58932 5.96647 9.53394 5.97359 9.47876 5.98092C9.49688 5.97909 9.51478 5.97909 9.5329 5.98092C9.47751 5.97359 9.42213 5.96647 9.36696 5.95914C9.39424 5.96341 9.41672 5.96952 9.44254 5.97929C9.39278 5.95873 9.34302 5.93816 9.29326 5.9178C9.30888 5.92472 9.32345 5.93307 9.3374 5.94305C9.29534 5.91129 9.25308 5.87932 9.21102 5.84756C9.23184 5.86405 9.24787 5.87993 9.26474 5.90009C9.23226 5.85896 9.19957 5.81762 9.16709 5.77649C9.1773 5.78993 9.18583 5.80439 9.19291 5.81966L9.13004 5.67367C9.14003 5.69892 9.14627 5.7207 9.15065 5.74758C9.14315 5.69342 9.13566 5.63926 9.12837 5.5851C9.12879 5.59385 9.12941 5.60281 9.12983 5.61157C9.14732 5.93002 9.40465 6.23768 9.75442 6.22241C10.0777 6.20836 10.3977 5.95323 10.379 5.61157C10.3665 5.38413 10.2907 5.17196 10.1231 5.00805C9.96178 4.85025 9.73443 4.75781 9.50604 4.75781C9.02344 4.75781 8.64515 5.14896 8.63307 5.61157C8.621 6.07275 9.03281 6.45453 9.49251 6.46471C9.71736 6.4696 9.9547 6.3798 10.1142 6.22404C10.2874 6.05483 10.3661 5.84756 10.379 5.61177C10.3965 5.2921 10.0792 4.98667 9.75442 5.00093C9.4009 5.0164 9.14877 5.26949 9.12983 5.61177V5.61157Z" fill="#5DA9A2"/>
<path d="M9.51031 6.77017C9.50177 6.77017 9.49345 6.77017 9.48512 6.77017C9.17137 6.76325 8.86407 6.62866 8.64213 6.40082C8.42707 6.1801 8.31298 5.89708 8.32068 5.60407C8.33733 4.96921 8.86907 4.45264 9.50594 4.45264C9.81782 4.45264 10.123 4.57643 10.3437 4.79247C10.4976 4.94294 10.6031 5.13291 10.6554 5.35017C10.6818 5.43548 10.6943 5.52385 10.6914 5.61161C10.6949 5.70975 10.6804 5.80667 10.6491 5.89891C10.5946 6.10741 10.4892 6.28883 10.3346 6.43991C10.122 6.6478 9.81532 6.77017 9.51031 6.77017ZM9.48866 5.66679L9.50594 5.66923L9.55695 5.64113L9.56486 5.6114L9.54779 5.57027L9.50573 5.55378L9.46388 5.57027L9.44681 5.6114L9.47533 5.66129L9.48845 5.66658L9.48866 5.66679Z" fill="#5DA9A2"/>
<path d="M5.84467 5.61157C5.84425 5.62032 5.84363 5.62928 5.84321 5.63804C5.85071 5.58388 5.858 5.52971 5.86549 5.47555C5.86112 5.50223 5.85487 5.52422 5.84488 5.54946C5.86591 5.5008 5.88693 5.45214 5.90775 5.40347C5.90068 5.41874 5.89214 5.4332 5.88194 5.44664C5.91442 5.40551 5.9471 5.36418 5.97958 5.32305C5.96272 5.34341 5.94648 5.35908 5.92587 5.37558C5.96792 5.34381 6.01019 5.31185 6.05224 5.28008C6.0385 5.29006 6.02372 5.29841 6.0081 5.30533C6.05786 5.28477 6.10762 5.2642 6.15738 5.24384C6.13157 5.25361 6.10929 5.25972 6.08181 5.264C6.13719 5.25667 6.19257 5.24934 6.24774 5.24221C6.22963 5.24404 6.21172 5.24404 6.19361 5.24221C6.24899 5.24954 6.30437 5.25667 6.35954 5.264C6.33227 5.25972 6.30978 5.25361 6.28396 5.24384L6.43324 5.30533C6.41763 5.29841 6.40284 5.29006 6.3891 5.28008C6.43116 5.31185 6.47342 5.34381 6.51548 5.37558C6.49466 5.35908 6.47863 5.34341 6.46176 5.32305C6.49424 5.36418 6.52693 5.40551 6.55941 5.44664C6.54921 5.4332 6.54067 5.41874 6.53359 5.40347C6.55462 5.45214 6.57565 5.5008 6.59647 5.54946C6.58647 5.52422 6.58023 5.50243 6.57586 5.47555C6.58335 5.52971 6.59064 5.58388 6.59813 5.63804C6.59626 5.62032 6.59626 5.60281 6.59813 5.5851C6.59064 5.63926 6.58335 5.69342 6.57586 5.74758C6.58023 5.72091 6.58647 5.69892 6.59647 5.67367L6.53359 5.81966C6.54067 5.80439 6.54921 5.78993 6.55941 5.77649C6.52693 5.81762 6.49424 5.85896 6.46176 5.90009C6.47863 5.87973 6.49487 5.86405 6.51548 5.84756C6.47342 5.87932 6.43116 5.91129 6.3891 5.94305C6.40284 5.93307 6.41763 5.92472 6.43324 5.9178L6.28396 5.97929C6.30978 5.96932 6.33206 5.96341 6.35954 5.95914C6.30416 5.96647 6.24878 5.97359 6.19361 5.98092C6.21172 5.97909 6.22963 5.97909 6.24774 5.98092C6.19236 5.97359 6.13698 5.96647 6.08181 5.95914C6.10908 5.96341 6.13157 5.96952 6.15738 5.97929C6.10762 5.95873 6.05786 5.93816 6.0081 5.9178C6.02372 5.92472 6.03829 5.93307 6.05224 5.94305C6.01019 5.91129 5.96792 5.87932 5.92587 5.84756C5.94669 5.86405 5.96272 5.87993 5.97958 5.90009C5.9471 5.85896 5.91442 5.81762 5.88194 5.77649C5.89214 5.78993 5.90068 5.80439 5.90775 5.81966L5.84488 5.67367C5.85487 5.69892 5.86112 5.7207 5.86549 5.74758C5.858 5.69342 5.8505 5.63926 5.84321 5.5851C5.84363 5.59385 5.84425 5.60281 5.84467 5.61157C5.86216 5.93002 6.11949 6.23768 6.46926 6.22241C6.79259 6.20836 7.11258 5.95323 7.09385 5.61157C7.08136 5.38413 7.00557 5.17196 6.83797 5.00805C6.67662 4.85025 6.44927 4.75781 6.22088 4.75781C5.73828 4.75781 5.35999 5.14896 5.34792 5.61157C5.33584 6.07275 5.74765 6.45453 6.20735 6.46471C6.4322 6.4696 6.66954 6.3798 6.82902 6.22404C7.00224 6.05483 7.08094 5.84756 7.09385 5.61177C7.11154 5.2921 6.79404 4.98667 6.46926 5.00093C6.11574 5.0164 5.86362 5.26949 5.84467 5.61177V5.61157Z" fill="#5DA9A2"/>
<path d="M6.22515 6.77017C6.21662 6.77017 6.20829 6.77017 6.19996 6.77017C5.88621 6.76325 5.57891 6.62866 5.35698 6.40082C5.14191 6.1801 5.02782 5.89708 5.03552 5.60407C5.05218 4.96921 5.58391 4.45264 6.22078 4.45264C6.53266 4.45264 6.83787 4.57643 7.05856 4.79247C7.21242 4.94294 7.31798 5.13291 7.37023 5.35017C7.39667 5.43548 7.40916 5.52385 7.40625 5.61161C7.40979 5.70975 7.39522 5.80667 7.36399 5.89891C7.30944 6.10741 7.20409 6.28883 7.0494 6.43991C6.83683 6.6478 6.53016 6.77017 6.22515 6.77017ZM6.2035 5.66679L6.22078 5.66923L6.27179 5.64113L6.2797 5.6114L6.26263 5.57027L6.22057 5.55378L6.16957 5.58188L6.16165 5.61161L6.17852 5.65253L6.2035 5.66679Z" fill="#5DA9A2"/>
<path d="M29.6538 29.5134H24.0914L24.716 30.1242V19.1899L24.0914 19.8008C25.9456 19.8008 27.7998 19.8008 29.6538 19.8008C30.4576 19.8008 30.4588 18.5791 29.6538 18.5791C27.7996 18.5791 25.9454 18.5791 24.0914 18.5791C23.7537 18.5791 23.4668 18.8589 23.4668 19.1899V30.1242C23.4668 30.4545 23.7529 30.7351 24.0914 30.7351H29.6538C30.4576 30.7351 30.4588 29.5134 29.6538 29.5134Z" fill="#5DA9A2"/>
<path d="M29.6536 31.0402H24.0912C23.5834 31.0402 23.1543 30.6206 23.1543 30.124V19.1897C23.1543 18.6931 23.5834 18.2734 24.0912 18.2734H29.6536C30.2546 18.2734 30.5692 18.7342 30.5692 19.1893C30.5692 19.6444 30.2546 20.106 29.6536 20.106H25.0281V29.2077H29.6536C30.2546 29.2077 30.5692 29.6685 30.5692 30.1236C30.5692 30.5787 30.2546 31.0402 29.6536 31.0402ZM25.0281 30.4294H29.6536C29.9307 30.4294 29.9446 30.1747 29.9446 30.1236C29.9446 30.0725 29.9307 29.8186 29.6536 29.8186H25.0281V30.4294ZM23.7789 29.6396V30.124C23.7789 30.2867 23.9248 30.4294 24.0912 30.4294H24.5865L23.7789 29.6396ZM23.7789 29.2077H24.4035V20.106H23.7789V29.2077ZM24.0912 18.8843C23.9248 18.8843 23.7789 19.027 23.7789 19.1897V19.6741L24.5865 18.8843H24.0912ZM25.0281 19.4951H29.6536C29.9307 19.4951 29.9446 19.2404 29.9446 19.1893C29.9446 19.1382 29.9307 18.8843 29.6536 18.8843H25.0281V19.4951Z" fill="#5DA9A2"/>
<path d="M28.8506 24.0464H24.2928C23.489 24.0464 23.4877 25.2681 24.2928 25.2681H28.8506C29.6545 25.2681 29.6557 24.0464 28.8506 24.0464Z" fill="#5DA9A2"/>
<path d="M28.8504 25.5733H24.2926C23.6915 25.5733 23.377 25.1125 23.377 24.6574C23.377 24.2023 23.6915 23.7407 24.2926 23.7407H28.8504C29.4515 23.7407 29.7659 24.2015 29.7659 24.6566C29.7659 25.1117 29.4515 25.5733 28.8504 25.5733ZM24.2926 24.3516C24.0155 24.3516 24.0015 24.6063 24.0015 24.6574C24.0015 24.7085 24.0155 24.9624 24.2926 24.9624H28.8504C29.1273 24.9624 29.1413 24.7077 29.1413 24.6566C29.1413 24.6055 29.1273 24.3516 28.8504 24.3516H24.2926Z" fill="#5DA9A2"/>
<path d="M11.8398 28.4212C13.1475 30.4073 15.8697 31.1438 18.164 30.5852C20.0121 30.1353 21.6207 28.169 20.4991 26.3293C19.9118 25.3662 18.7973 24.8052 17.7711 24.4015C16.5319 23.9138 14.6351 23.6145 13.9012 22.3686C13.2177 21.2082 14.4277 20.1637 15.4897 19.9073C16.9019 19.5663 18.2714 19.8222 19.2535 20.8566C19.8016 21.434 20.6834 20.5686 20.1368 19.9926C18.6164 18.3908 15.8062 18.0304 13.8935 19.2559C12.2183 20.3292 12.0157 22.505 13.5345 23.7904C14.5218 24.6261 15.7774 24.981 16.9779 25.4077C18.0164 25.7769 19.8601 26.5144 19.5735 27.8967C19.2995 29.218 17.7078 29.5609 16.5378 29.5181C15.1077 29.4658 13.7204 29.0221 12.9189 27.8045C12.485 27.1456 11.4034 27.7574 11.8402 28.421L11.8398 28.4212Z" fill="#5DA9A2"/>
<path d="M16.5999 31.0782C14.5438 31.0782 12.6126 30.1591 11.5772 28.5866C11.3982 28.3146 11.3769 28.0041 11.5187 27.7343C11.6748 27.437 12.0046 27.2342 12.3586 27.2175C12.6948 27.2002 12.9938 27.3554 13.1809 27.639C13.8303 28.6255 14.9635 29.1547 16.5489 29.2127C16.9509 29.227 18.9777 29.2304 19.2669 27.8359C19.4901 26.7596 18.0063 26.0983 16.8706 25.6945C16.7074 25.6365 16.5433 25.5798 16.3788 25.523C15.3206 25.1578 14.2265 24.7803 13.3296 24.021C12.5466 23.3582 12.1352 22.4261 12.201 21.4632C12.2686 20.4736 12.8228 19.5757 13.7216 18.9999C15.7442 17.7041 18.7244 18.0561 20.3649 19.7844C20.7801 20.2215 20.6402 20.7882 20.2977 21.0991C19.9667 21.3997 19.4231 21.4841 19.024 21.0637C18.1791 20.1739 16.9503 19.8681 15.5639 20.203C14.9121 20.3602 14.3096 20.8084 14.0985 21.2923C13.9654 21.5974 13.99 21.9077 14.1711 22.2153C14.6749 23.0705 15.8681 23.4511 16.921 23.787C17.2649 23.8968 17.5897 24.0004 17.8872 24.1175C18.8838 24.5097 20.1118 25.0975 20.767 26.1722C21.2498 26.9644 21.3149 27.8296 20.9552 28.6744C20.5092 29.7218 19.4431 30.5877 18.2391 30.8811C17.6934 31.0139 17.1421 31.0778 16.5997 31.0778L16.5999 31.0782ZM12.4052 27.8271C12.3998 27.8271 12.3942 27.8271 12.3885 27.8275C12.2597 27.8337 12.1275 27.9118 12.0737 28.0136C12.0346 28.0882 12.0438 28.1674 12.1021 28.2555C13.2494 29.9987 15.7669 30.8539 18.0881 30.2884C19.107 30.0404 20.0058 29.3149 20.3785 28.4398C20.5742 27.9801 20.7074 27.2678 20.2304 26.4853C19.6708 25.5674 18.5597 25.0407 17.654 24.6844C17.3763 24.575 17.0611 24.4744 16.7273 24.3679C15.5679 23.9982 14.2536 23.5787 13.63 22.5205C13.3496 22.0445 13.3129 21.5369 13.524 21.0529C13.8561 20.2914 14.7126 19.7795 15.4143 19.6103C17.0307 19.2202 18.4754 19.5885 19.4816 20.6483C19.6465 20.8218 19.8099 20.7086 19.8726 20.6516C19.898 20.6286 20.1153 20.4195 19.9071 20.2002C18.4643 18.6802 15.8429 18.3713 14.0637 19.5111C13.3302 19.9811 12.8784 20.7074 12.8239 21.5039C12.7712 22.2738 13.1045 23.0231 13.7381 23.5594C14.5457 24.2427 15.5369 24.5848 16.5864 24.947C16.7525 25.0042 16.9187 25.0614 17.0838 25.1203C17.9457 25.4267 20.2348 26.2408 19.8788 27.9572C19.5769 29.4123 17.9501 29.8757 16.5252 29.8232C14.7491 29.7582 13.411 29.1172 12.6554 27.9697C12.593 27.8748 12.5089 27.8269 12.405 27.8269L12.4052 27.8271Z" fill="#5DA9A2"/>
<path d="M40.994 24.8394C40.9528 26.778 39.9855 29.5669 37.564 29.5669C35.1687 29.5669 34.1377 26.7788 34.134 24.8394C34.1304 22.9515 35.1391 19.7472 37.564 19.7472C40.0194 19.7472 40.954 22.9492 40.994 24.8394C41.0107 25.6245 42.2598 25.6272 42.2432 24.8394C42.1959 22.6047 41.3294 19.9718 39.1386 18.901C37.1399 17.9242 35.0894 19.0516 34.0047 20.7657C32.6841 22.8525 32.514 25.698 33.5437 27.9278C34.3911 29.7628 36.299 31.1791 38.4334 30.6898C41.0798 30.0833 42.1924 27.2278 42.2432 24.8394C42.2598 24.0528 41.0107 24.053 40.994 24.8394Z" fill="#5DA9A2"/>
<path d="M37.5715 31.0943C35.5806 31.0943 33.981 29.6173 33.2588 28.0534C32.1736 25.7041 32.3621 22.7804 33.7389 20.6049C34.8292 18.8816 37.0277 17.5281 39.2777 18.6278C41.5945 19.7601 42.4868 22.5195 42.553 24.7548C42.5549 24.7823 42.5555 24.8104 42.5551 24.8393C42.5555 24.8686 42.5551 24.8967 42.553 24.9246C42.4739 27.5115 41.1983 30.3697 38.5045 30.987C38.1857 31.0601 37.874 31.0941 37.5717 31.0941L37.5715 31.0943ZM37.6173 18.8461C36.2314 18.8461 34.9837 19.7984 34.2698 20.9264C33.0189 22.9031 32.8413 25.6662 33.828 27.8023C34.5581 29.383 36.2884 30.8669 38.3616 30.3929C40.465 29.9107 41.5872 27.8176 41.8637 25.7085C41.7946 25.7244 41.7238 25.7332 41.6528 25.7346C41.5141 25.7413 41.3711 25.7116 41.2397 25.6574C40.9732 27.5834 39.891 29.8726 37.5632 29.8726C36.3723 29.8726 35.3757 29.2543 34.6811 28.0841C34.1446 27.1803 33.823 25.9673 33.8207 24.8401C33.818 23.4507 34.3368 21.444 35.4819 20.3221C36.0777 19.7382 36.7781 19.4421 37.5632 19.4421C39.8827 19.4421 40.9791 21.9883 41.2427 24.0204C41.3732 23.9672 41.5141 23.9454 41.6522 23.9446C41.725 23.9463 41.7977 23.9554 41.8687 23.9721C41.6447 22.0989 40.8063 20.0582 38.9983 19.1746C38.5324 18.9469 38.0675 18.8463 37.6171 18.8463L37.6173 18.8461ZM37.5636 20.0525C36.9505 20.0525 36.399 20.2883 35.9245 20.7532C34.905 21.7519 34.4434 23.5712 34.4457 24.8385C34.4492 26.6751 35.419 29.2614 37.5636 29.2614C39.7797 29.2614 40.6416 26.6191 40.6814 24.8391C40.6628 24.0084 40.4498 22.7559 39.9069 21.724C39.3233 20.6147 38.5349 20.0523 37.5638 20.0523L37.5636 20.0525ZM41.3059 24.8393C41.3161 25.1221 41.6072 25.1242 41.6401 25.1235C41.7055 25.1221 41.9099 25.1007 41.9291 24.8874C41.9295 24.8715 41.9299 24.8552 41.9303 24.8393C41.9301 24.8234 41.9297 24.8075 41.9293 24.7917C41.9103 24.5781 41.7051 24.5565 41.6395 24.5553C41.6053 24.5514 41.3164 24.5569 41.3059 24.8393Z" fill="#5DA9A2"/>
</g>
<defs>
<clipPath id="clip0_2446_991">
<rect width="54" height="40" fill="white"/>
</clipPath>
</defs>
</svg>
