<svg width="37" height="49" viewBox="0 0 37 49" fill="none" xmlns="http://www.w3.org/2000/svg">
<g clip-path="url(#clip0_2446_828)">
<path d="M17.374 20.9254H28.324C29.0748 20.9254 29.076 19.7563 28.324 19.7563H17.374C16.6233 19.7563 16.6221 20.9254 17.374 20.9254Z" fill="#5DA9A2"/>
<path d="M28.3245 21.2175H17.3745C16.8131 21.2175 16.5195 20.7765 16.5195 20.3411C16.5195 19.9056 16.8131 19.4639 17.3745 19.4639H28.3245C28.8859 19.4639 29.1797 19.9048 29.1797 20.3403C29.1797 20.7757 28.8859 21.2175 28.3245 21.2175ZM17.3745 20.0484C17.1159 20.0484 17.1029 20.2921 17.1029 20.3411C17.1029 20.39 17.1159 20.6329 17.3745 20.6329H28.3245C28.5833 20.6329 28.5963 20.3892 28.5963 20.3403C28.5963 20.2914 28.5833 20.0484 28.3245 20.0484H17.3745Z" fill="#5DA9A2"/>
<path d="M15.5361 26.3575H26.4862C27.2369 26.3575 27.2381 25.1885 26.4862 25.1885H15.5361C14.7854 25.1885 14.7842 26.3575 15.5361 26.3575Z" fill="#5DA9A2"/>
<path d="M26.4866 26.6496H15.5366C14.9752 26.6496 14.6816 26.2087 14.6816 25.7732C14.6816 25.3377 14.9752 24.896 15.5366 24.896H26.4866C27.048 24.896 27.3418 25.3369 27.3418 25.7724C27.3418 26.2079 27.048 26.6496 26.4866 26.6496ZM15.5366 25.4805C15.278 25.4805 15.265 25.7243 15.265 25.7732C15.265 25.8221 15.278 26.0651 15.5366 26.0651H26.4866C26.7454 26.0651 26.7584 25.8213 26.7584 25.7724C26.7584 25.7235 26.7454 25.4805 26.4866 25.4805H15.5366Z" fill="#5DA9A2"/>
<path d="M18.841 28.5621C19.6502 24.9955 20.4597 21.4291 21.269 17.8625C21.4352 17.1299 20.3108 16.8172 20.1439 17.5517L17.7159 28.2513C17.5497 28.9839 18.6741 29.2967 18.841 28.5621Z" fill="#5DA9A2"/>
<path d="M18.324 29.2723C18.255 29.2723 18.186 29.2645 18.1187 29.2493C17.6904 29.1517 17.3038 28.7461 17.4308 28.1865L19.8588 17.4869C19.9272 17.1858 20.1248 16.9639 20.4011 16.8784C20.7062 16.7841 21.0598 16.8684 21.3027 17.0939C21.5333 17.3078 21.6243 17.6114 21.5528 17.9272L19.1248 28.6264C19.0238 29.0707 18.6746 29.2723 18.324 29.2723ZM20.6558 17.4249C20.6272 17.4249 20.5992 17.4288 20.5735 17.4368C20.5249 17.4518 20.4571 17.4869 20.4277 17.6164L17.9997 28.316C17.9474 28.5463 18.1312 28.6527 18.248 28.6792C18.3427 28.7005 18.5084 28.7057 18.5558 28.497L20.9838 17.7975C21.0091 17.6864 20.983 17.5937 20.9064 17.5225C20.8397 17.4608 20.7439 17.4249 20.6558 17.4249Z" fill="#5DA9A2"/>
<path d="M23.7179 28.5616C24.5272 24.995 25.3367 21.4286 26.1459 17.862C26.3122 17.1294 25.1877 16.8167 25.0209 17.5513C24.2116 21.1179 23.4022 24.6843 22.5929 28.2508C22.4266 28.9835 23.5511 29.2962 23.7179 28.5616Z" fill="#5DA9A2"/>
<path d="M23.2044 29.2731C22.9717 29.2731 22.7358 29.1837 22.5591 29.0194C22.3285 28.8055 22.2375 28.5017 22.309 28.1861L24.737 17.4867C24.8578 16.955 25.3345 16.7705 25.7431 16.8642C26.1712 16.9616 26.558 17.3675 26.431 17.927L24.003 28.6266C23.9346 28.9277 23.737 29.1494 23.4607 29.2349C23.3779 29.2606 23.2914 29.2731 23.2044 29.2731ZM25.53 17.424C25.4417 17.424 25.3412 17.461 25.306 17.6163L22.878 28.3157C22.8527 28.4267 22.8787 28.5193 22.9554 28.5904C23.0438 28.6728 23.184 28.7087 23.288 28.6763C23.3367 28.6613 23.4045 28.6262 23.4339 28.4967L25.8619 17.7971C25.9142 17.5668 25.7304 17.4602 25.6136 17.4337C25.5893 17.4282 25.5603 17.4238 25.5298 17.4238L25.53 17.424Z" fill="#5DA9A2"/>
<path d="M22.0979 35.2254C21.0701 35.2143 20.0516 35.1275 19.0436 34.9189C18.6131 34.8298 18.1875 34.7227 17.7662 34.5974C17.3444 34.4717 16.8214 34.1619 16.3916 34.1165C15.8073 34.0549 15.1111 34.4168 14.5662 34.5853C13.5775 34.8912 12.5889 35.1969 11.6002 35.5028C11.3865 35.5689 10.8403 35.6302 10.6805 35.7873C10.6661 35.8015 10.5961 35.7984 10.5891 35.8155C10.5852 35.8167 10.5811 35.8181 10.5772 35.8192C10.4075 35.8681 10.5296 35.9776 10.9434 36.1477C10.9737 36.1357 10.9955 35.8966 11.0074 35.8717C11.4001 35.0463 11.4725 33.8673 11.679 32.9778C11.8156 32.3886 12.1742 31.6149 11.8407 31.0655C11.3974 30.3348 10.682 29.7425 10.2251 28.9937C9.71917 28.1646 9.31959 27.2785 9.04776 26.3452C8.57605 24.7255 8.49866 22.9861 8.84341 21.3331C10.1654 14.9937 16.7043 11.378 22.8205 11.6513C28.8836 11.9222 35.0911 16.2134 35.5368 22.6666C36.0534 30.147 28.9629 35.1646 22.0976 35.2257C21.3472 35.2324 21.3454 36.4016 22.0976 36.3948C26.9652 36.3514 31.8024 34.2256 34.6155 30.1446C37.2621 26.3053 37.4025 21.2062 34.9543 17.234C29.6516 8.62992 15.9839 8.2531 9.94414 16.2132C6.2861 21.0344 6.89607 27.556 11.0153 31.8924C10.9654 31.7028 10.9154 31.5132 10.8654 31.3236C10.5596 32.6414 10.2537 33.9591 9.94803 35.2768C9.84148 35.736 9.67017 36.2154 9.98264 36.6349C10.3443 37.1204 10.8522 36.9577 11.3286 36.8104C12.7838 36.3603 14.2388 35.9102 15.694 35.46C15.8628 35.4077 16.1383 35.2591 16.3207 35.2661C16.4422 35.2708 16.3314 35.3354 16.5315 35.4177C16.8803 35.5611 17.2497 35.6684 17.612 35.7717C19.0724 36.1881 20.5813 36.3786 22.0974 36.395C22.8483 36.4032 22.8489 35.2341 22.0974 35.2259L22.0979 35.2254Z" fill="#5DA9A2"/>
<path d="M10.6118 37.2507C10.3054 37.2507 10.0005 37.1466 9.7489 36.8088C9.38918 36.3258 9.5212 35.7913 9.62717 35.3619C9.63962 35.311 9.65226 35.2604 9.66393 35.2097L10.4716 31.7298C8.61044 29.6193 7.47917 26.9838 7.27248 24.256C7.05023 21.3213 7.91667 18.402 9.71215 16.0358C12.6677 12.1407 17.6156 9.96921 22.9496 10.2283C28.1332 10.4801 32.7137 13.0415 35.2027 17.0798C37.7184 21.1617 37.5821 26.3551 34.8557 30.3102C32.1412 34.248 27.3865 36.6301 22.1319 36.6862C22.1203 36.6868 22.1088 36.6866 22.0971 36.6866C22.0855 36.6866 22.0724 36.6866 22.0604 36.6862C20.4607 36.6662 18.9375 36.453 17.5322 36.052C17.133 35.9384 16.7739 35.8324 16.421 35.6875C16.3352 35.6522 16.2746 35.6121 16.2306 35.5711C16.1546 35.5922 16.0537 35.6333 15.9852 35.6612C15.91 35.6919 15.8392 35.7202 15.7803 35.7383L11.4147 37.089C11.1724 37.1638 10.8914 37.2507 10.6118 37.2507ZM10.9505 32.2473L10.2323 35.3424C10.22 35.3954 10.2068 35.449 10.1936 35.5026C10.0868 35.9353 10.0351 36.2155 10.2167 36.4592C10.4296 36.7455 10.689 36.702 11.2296 36.5346L15.6082 35.1801C15.6535 35.1663 15.7078 35.1435 15.7659 35.1197C15.9428 35.0478 16.146 34.9702 16.3321 34.9734C16.4702 34.9784 16.5756 35.0377 16.639 35.1452C16.6401 35.1458 16.6413 35.1462 16.6426 35.1468C16.9674 35.2802 17.31 35.3812 17.692 35.4901C18.8153 35.8104 20.0184 36.0064 21.2783 36.0754C21.2554 35.9938 21.2433 35.909 21.2426 35.824C21.2416 35.7132 21.2608 35.6002 21.2997 35.4934C20.4759 35.4511 19.7125 35.356 18.9843 35.2052C18.5476 35.1148 18.1097 35.0047 17.6827 34.8775C17.5042 34.8245 17.3139 34.7433 17.1295 34.6645C16.86 34.5494 16.5812 34.4305 16.3607 34.4073C15.9985 34.3692 15.5351 34.5432 15.126 34.6965C14.9601 34.7586 14.8036 34.8175 14.6518 34.8644L11.6859 35.782C11.6095 35.8055 11.5127 35.8258 11.4007 35.849C11.3801 35.8531 11.3563 35.8581 11.3305 35.8636C11.3157 35.8985 11.3005 35.9328 11.2848 35.9667C11.2832 35.9768 11.2815 35.9885 11.2795 36.0012C11.2519 36.18 11.2257 36.349 11.0519 36.4191L10.942 36.4633L10.8325 36.4183C10.4841 36.2749 10.1969 36.1338 10.2121 35.8593C10.215 35.8046 10.2428 35.6249 10.4699 35.5468C10.4934 35.5357 10.5193 35.5265 10.5473 35.5197C10.6385 35.4552 10.7544 35.4083 10.8936 35.3683C11.0435 34.9134 11.1316 34.3824 11.2173 33.8655C11.2733 33.5282 11.326 33.2095 11.3952 32.9115C11.4069 32.8611 11.4201 32.8092 11.4345 32.7562L10.9511 32.2475L10.9505 32.2473ZM22.0759 36.1019H22.1207C22.2156 36.0982 22.2824 36.0614 22.325 35.9893C22.3832 35.8907 22.3839 35.7453 22.3266 35.6434C22.2801 35.5606 22.2051 35.5195 22.0971 35.5176C21.8364 35.5217 21.8253 35.7691 21.8257 35.8188C21.8263 35.8841 21.8465 36.0929 22.0759 36.1019ZM22.8961 35.4893C22.9645 35.6766 22.9715 35.8843 22.9177 36.075C27.6654 35.8036 31.9056 33.5617 34.3758 29.978C36.9706 26.2138 37.1005 21.2713 34.7065 17.3869C32.3186 13.5122 27.9131 11.0545 22.9216 10.8123C17.7797 10.5596 13.0159 12.6475 10.1767 16.3897C8.46772 18.642 7.64309 21.4197 7.85445 24.2118C8.04111 26.6766 9.0211 29.064 10.6359 31.0227L10.8199 30.2301C10.5239 29.8919 10.2181 29.5421 9.9762 29.1458C9.44693 28.2784 9.04035 27.3636 8.76755 26.4266C8.27775 24.7451 8.20522 22.9629 8.55774 21.2728C9.19804 18.2019 11.0371 15.6064 13.8755 13.7667C16.489 12.0729 19.6707 11.2187 22.8333 11.3592C28.8561 11.6283 35.3633 15.9238 35.8277 22.6463C36.0398 25.7176 35.0166 28.5708 32.869 30.8978C30.4033 33.5693 26.7221 35.2532 22.8957 35.4897L22.8961 35.4893ZM22.1934 11.9291C16.706 11.9291 10.43 15.1518 9.12882 21.3921C8.79574 22.9886 8.86457 24.6728 9.32754 26.2627C9.58595 27.15 9.97153 28.0175 10.474 28.8407C10.69 29.1947 10.9799 29.5261 11.2599 29.8463C11.5527 30.181 11.8557 30.5271 12.0898 30.913C12.4196 31.4566 12.2238 32.1267 12.0665 32.6649C12.028 32.7966 11.9904 32.9238 11.9628 33.0434C11.8981 33.323 11.8465 33.6327 11.7923 33.9606C11.7227 34.3807 11.6515 34.8095 11.5463 35.2128L14.4797 34.3054C14.6154 34.2636 14.7639 34.2078 14.9214 34.1486C15.391 33.9725 15.923 33.7741 16.4218 33.8253C16.7294 33.8579 17.049 33.9943 17.3582 34.1262C17.5351 34.2018 17.7022 34.2731 17.8488 34.3169C18.2598 34.4391 18.6816 34.5453 19.1021 34.6324C20.0211 34.8227 21.0011 34.9208 22.0977 34.9328C26.0459 34.8968 29.9122 33.24 32.4407 30.5004C34.4765 28.2947 35.4464 25.5927 35.2455 22.6862C34.8037 16.2895 28.5742 12.2005 22.807 11.9426C22.6039 11.9336 22.3987 11.9291 22.193 11.9291H22.1934ZM10.9043 30.3268L11.4915 32.5532C11.4965 32.5359 11.5018 32.5183 11.5068 32.5006C11.6449 32.0283 11.7876 31.54 11.5914 31.2168C11.4036 30.9074 11.1625 30.6225 10.9043 30.3268Z" fill="#5DA9A2"/>
<path d="M0.877946 41.7926H28.6278C29.3785 41.7926 29.3797 40.6235 28.6278 40.6235H0.877946C0.127205 40.6235 0.126039 41.7926 0.877946 41.7926Z" fill="#141414"/>
<path d="M28.6284 42.0846H0.878594C0.317239 42.0846 0.0234375 41.6437 0.0234375 41.2082C0.0234375 40.7728 0.317239 40.3311 0.878594 40.3311H28.6282C29.1896 40.3311 29.4834 40.772 29.4834 41.2075C29.4834 41.6429 29.1896 42.0846 28.6282 42.0846H28.6284ZM0.878594 40.9156C0.619791 40.9156 0.606764 41.1593 0.606764 41.2082C0.606764 41.2571 0.619791 41.5001 0.878594 41.5001H28.6282C28.887 41.5001 28.9 41.2564 28.9 41.2075C28.9 41.1586 28.887 40.9156 28.6282 40.9156H0.878594Z" fill="#141414"/>
<path d="M12.7647 45.1481H16.7393C17.49 45.1481 17.4912 43.979 16.7393 43.979H12.7647C12.0139 43.979 12.0128 45.1481 12.7647 45.1481Z" fill="#141414"/>
<path d="M16.7399 45.4406H12.7653C12.204 45.4406 11.9102 44.9997 11.9102 44.5642C11.9102 44.1287 12.204 43.687 12.7653 43.687H16.7399C17.3013 43.687 17.5951 44.1279 17.5951 44.5634C17.5951 44.9989 17.3013 45.4406 16.7399 45.4406ZM12.7653 44.2715C12.5065 44.2715 12.4935 44.5153 12.4935 44.5642C12.4935 44.6131 12.5065 44.8561 12.7653 44.8561H16.7399C16.9987 44.8561 17.0117 44.6123 17.0117 44.5634C17.0117 44.5145 16.9987 44.2715 16.7399 44.2715H12.7653Z" fill="#141414"/>
<path d="M28.6278 7.01221H0.877946C0.127205 7.01221 0.126039 8.18126 0.877946 8.18126H28.6278C29.3785 8.18126 29.3797 7.01221 28.6278 7.01221Z" fill="#141414"/>
<path d="M28.6284 8.47331H0.878594C0.317239 8.47331 0.0234375 8.03238 0.0234375 7.59691C0.0234375 7.16144 0.317239 6.71973 0.878594 6.71973H28.6282C29.1896 6.71973 29.4834 7.16066 29.4834 7.59613C29.4834 8.0316 29.1896 8.47331 28.6282 8.47331H28.6284ZM0.878594 7.30425C0.619791 7.30425 0.606764 7.548 0.606764 7.59691C0.606764 7.64581 0.619791 7.88878 0.878594 7.88878H28.6282C28.887 7.88878 28.9 7.64503 28.9 7.59613C28.9 7.54722 28.887 7.30425 28.6282 7.30425H0.878594Z" fill="#141414"/>
<path d="M28.0438 37.1934V42.6761C28.0438 43.4469 28.1171 44.281 27.8922 45.0261C27.4302 46.5558 26.052 47.4846 24.4937 47.5386C21.0937 47.6562 17.6692 47.5386 14.2676 47.5386H7.64937C6.58578 47.5386 5.40279 47.6757 4.34697 47.4823C0.839818 46.8397 1.46087 42.8325 1.46087 40.2177V13.7899C1.46087 10.9882 1.45095 8.18619 1.46087 5.38455C1.46825 3.28083 2.77121 1.54615 4.99077 1.46938C6.04095 1.43314 7.09891 1.46938 8.14967 1.46938H21.5012C22.5042 1.46938 23.5139 1.43529 24.5164 1.46938C26.4918 1.5366 27.9727 3.02793 28.0438 5.00402C28.072 5.78417 28.0438 6.57075 28.0438 7.35129V9.69856C28.0438 10.4508 29.2105 10.452 29.2105 9.69856C29.2105 7.93855 29.4135 6.05637 29.1551 4.31155C28.7802 1.78152 26.5958 0.310849 24.1661 0.300132C19.9784 0.281817 15.7903 0.300132 11.6024 0.300132H5.88151C3.90928 0.300327 2.05897 0.758792 0.958233 2.5946C0.310352 3.6752 0.294213 4.82087 0.294213 6.02032V42.7002C0.294213 43.7191 0.23627 44.7299 0.613682 45.7031C1.44648 47.8517 3.4467 48.7074 5.59976 48.7074H23.9769C26.1482 48.7074 28.1615 47.7599 28.9359 45.5821C29.247 44.7073 29.2109 43.8128 29.2109 42.9023V37.1932C29.2109 36.4409 28.0442 36.4397 28.0442 37.1932L28.0438 37.1934Z" fill="#141414"/>
<path d="M23.9773 49H5.60034C3.04498 49 1.12856 47.837 0.342428 45.8091C-0.0106791 44.8982 -0.00445692 43.9625 0.00157079 43.0575C0.00234856 42.9386 0.00312633 42.8194 0.00312633 42.7003V6.02044C0.00312633 4.89601 0.00312629 3.62135 0.708951 2.4443C2.01813 0.2607 4.28863 0.00818339 5.88228 0.00818339H11.6032C12.9989 0.00818339 14.3948 0.00604012 15.7905 0.0040917C18.5362 0 21.3754 -0.0040917 24.168 0.00818339C26.9046 0.0202636 29.0744 1.77229 29.4442 4.26881C29.6283 5.51093 29.5834 6.81735 29.54 8.0809C29.5218 8.61633 29.5027 9.17007 29.5027 9.69888C29.5027 10.2614 29.0627 10.5556 28.6281 10.5556C28.1935 10.5556 27.7527 10.2612 27.7527 9.69888V7.35161C27.7527 7.09032 27.7558 6.82845 27.759 6.56659C27.7652 6.0561 27.7714 5.52827 27.7529 5.01486C27.6872 3.19172 26.3222 1.82334 24.5071 1.76157C23.8448 1.73917 23.1658 1.74696 22.509 1.75417C22.1728 1.75807 21.8368 1.76177 21.5018 1.76177H8.15044C7.79928 1.76177 7.44734 1.75768 7.09521 1.75378C6.40688 1.74598 5.69522 1.738 5.00146 1.76157C3.06598 1.8286 1.76069 3.28505 1.75311 5.38584C1.74649 7.25302 1.74883 9.15176 1.75097 10.988C1.75194 11.922 1.75311 12.8561 1.75311 13.7902V40.2181C1.75311 40.5518 1.74338 40.9016 1.73288 41.272C1.66172 43.8061 1.58122 46.6784 4.40005 47.195C5.1189 47.3265 5.91844 47.2975 6.69194 47.2698C7.00907 47.2583 7.3369 47.2466 7.64995 47.2466H14.2682C15.4029 47.2466 16.5589 47.2599 17.6766 47.2727C19.9121 47.2986 22.2234 47.3253 24.4842 47.2468C25.9779 47.195 27.2064 46.2901 27.6135 44.9416C27.7811 44.3863 27.7697 43.7527 27.7584 43.1401C27.7555 42.9838 27.7527 42.8288 27.7527 42.6764V37.1935C27.7527 36.6308 28.1928 36.3368 28.6273 36.3368C29.0619 36.3368 29.5027 36.631 29.5027 37.1935L29.5033 43.1598C29.5064 43.9859 29.5097 44.8403 29.2109 45.6807C28.4716 47.7592 26.5151 49.0002 23.9771 49.0002L23.9773 49ZM5.88228 0.592711C3.57444 0.592711 2.08949 1.2768 1.20886 2.74533C0.586453 3.78345 0.586453 4.92075 0.586453 6.02064V42.7005C0.586453 42.821 0.585675 42.9414 0.584897 43.0616C0.578869 43.9508 0.573231 44.791 0.886088 45.5979C1.83652 48.0498 4.2476 48.4159 5.60014 48.4159H23.9773C26.2917 48.4159 27.9991 47.3475 28.6616 45.4845C28.9262 44.7407 28.9233 43.9738 28.9202 43.1623L28.9196 37.1937C28.9196 36.9346 28.6763 36.9215 28.6275 36.9215C28.5787 36.9215 28.3363 36.9346 28.3363 37.1937V42.6766C28.3363 42.8256 28.339 42.9768 28.3419 43.1296C28.354 43.7876 28.3664 44.4678 28.172 45.1111C27.6913 46.7028 26.2516 47.7705 24.5044 47.8311C22.2304 47.9095 19.9121 47.8834 17.6699 47.8574C16.5536 47.8448 15.3996 47.8313 14.2682 47.8313H7.64995C7.3474 47.8313 7.03921 47.8424 6.71293 47.8541C5.90853 47.8832 5.07651 47.9134 4.29524 47.7702C0.984087 47.1634 1.07995 43.7488 1.14995 41.2556C1.16025 40.8893 1.16997 40.5436 1.16997 40.2181V13.79C1.16997 12.8561 1.16881 11.9222 1.16783 10.9885C1.1657 9.15156 1.16336 7.25204 1.16997 5.3837C1.17833 2.9844 2.74573 1.25479 4.98162 1.17724C5.68881 1.15288 6.40727 1.16107 7.10201 1.16906C7.45201 1.17315 7.80162 1.17704 8.15064 1.17704H21.5022C21.8351 1.17704 22.1689 1.17315 22.5028 1.16945C23.166 1.16224 23.852 1.15444 24.5273 1.17724C26.6574 1.24992 28.2593 2.85483 28.3363 4.99362C28.3553 5.52087 28.3489 6.0559 28.3427 6.57341C28.3396 6.83313 28.3365 7.09266 28.3365 7.35141V9.69868C28.3365 9.95782 28.5797 9.97088 28.6285 9.97088C28.6773 9.97088 28.9198 9.95782 28.9198 9.69868C28.9198 9.15975 28.939 8.60094 28.9575 8.06083C28.9999 6.82319 29.0438 5.54386 28.8675 4.35473C28.5358 2.11541 26.6464 0.603428 24.1659 0.592516C21.3748 0.580436 18.5366 0.584333 15.7916 0.588425C14.3955 0.590373 12.9994 0.592516 11.6033 0.592516H5.88247L5.88228 0.592711Z" fill="#141414"/>
</g>
<defs>
<clipPath id="clip0_2446_828">
<rect width="37" height="49" fill="white"/>
</clipPath>
</defs>
</svg>
