<svg width="49" height="56" viewBox="0 0 49 56" fill="none" xmlns="http://www.w3.org/2000/svg">
<g clip-path="url(#clip0_2446_513)">
<path d="M44.7192 43.9793C50.0577 43.9793 49.931 36.2913 45.3215 35.7864V20.2043C49.5065 19.6425 50.1303 13.3302 45.7665 12.1602C44.0504 11.6987 42.4581 12.4007 41.5172 13.6163L28.2683 5.85974C29.2973 3.24694 27.4443 0.240723 24.5173 0.240723C21.5902 0.240723 19.7396 3.25432 20.7663 5.85974L7.53162 13.6073C5.71058 11.2962 2.22455 11.5705 0.789753 14.075C-0.673779 16.6259 0.951363 19.7606 3.71285 20.1765V35.7822C-1.33101 36.5804 -0.614882 43.9795 4.31595 43.9795C5.91362 43.9795 7.02044 43.0362 7.54401 42.4008L20.7663 50.1421C19.7396 52.7636 21.595 55.7595 24.5173 55.7595C27.3494 55.7595 29.3519 52.8778 28.3124 50.1163L41.5455 42.3687C42.3319 43.3881 43.5132 43.9795 44.7194 43.9795L44.7192 43.9793ZM21.718 51.6414C21.718 47.9027 27.3162 47.8815 27.3162 51.643C27.3162 55.4044 21.718 55.3868 21.718 51.6414ZM4.30483 37.0268C5.70122 37.0268 6.45592 37.9595 6.73024 38.437C7.99994 40.6546 5.95585 43.2372 3.59236 42.5988C0.44288 41.7593 1.04772 37.0268 4.30483 37.0268ZM4.98239 35.7921V20.2022C6.03396 20.0356 6.87455 19.4806 7.45907 18.7313L11.1469 20.8937C8.81973 25.3514 8.82227 30.649 11.1485 35.1072L7.45129 37.2761C6.83042 36.5146 5.95839 35.9677 4.98239 35.7921ZM4.31261 13.3055C7.98756 13.3055 8.01597 18.9276 4.34135 18.9746C0.327944 18.6835 0.857064 13.3055 4.31261 13.3055ZM24.5171 1.52546C28.2205 1.52546 28.2205 7.19293 24.5171 7.19293C22.721 7.19293 22.2692 5.80615 22.1103 5.80615C21.01 3.93143 22.3432 1.5253 24.5171 1.5253V1.52546ZM24.5155 42.0018C16.8826 42.0018 10.6728 35.7185 10.6728 27.9951C10.6728 20.2718 16.8826 14.0043 24.5155 14.0043C32.1485 14.0043 38.3753 20.2797 38.3753 27.9951C38.3753 35.7106 32.1578 42.0018 24.5155 42.0018ZM37.8965 20.8881L41.5653 18.7368C42.2838 19.635 43.2408 20.0478 44.0517 20.1916V35.8356C43.0423 36.0079 42.1932 36.5345 41.5924 37.2819L37.895 35.1126C40.2273 30.6516 40.2297 25.3487 37.8965 20.8881ZM46.1277 18.5922C44.7362 19.4043 43.0468 18.859 42.3022 17.5627C41.1926 15.6245 42.6286 13.3055 44.7207 13.3055C47.5985 13.3055 48.5709 17.1578 46.1275 18.5922H46.1277ZM45.4408 42.6004C44.3997 42.8738 42.9863 42.5447 42.2695 41.2215C41.2451 39.3294 42.5962 37.0268 44.7299 37.0268C47.9886 37.0268 48.5898 41.7534 45.4408 42.6003V42.6004ZM40.8992 14.7369C40.5701 15.6253 40.5372 16.6368 40.9274 17.6279L37.252 19.7832C34.6685 15.7135 30.233 12.9673 25.1518 12.7521V8.39487C26.0905 8.24677 26.966 7.76847 27.6226 6.96428L40.899 14.7369H40.8992ZM21.4114 6.96412C22.0676 7.76959 22.9431 8.24742 23.8823 8.39503V12.7515C18.8038 12.9661 14.3711 15.7148 11.7906 19.7881L8.08535 17.6152C8.4327 16.6982 8.47953 15.6683 8.15044 14.7266L21.4114 6.96412ZM8.13059 41.2622C8.50541 40.2543 8.45111 39.2511 8.10154 38.3775L11.7917 36.2128C14.3722 40.2888 18.8041 43.0394 23.8823 43.2541V47.5836C22.949 47.7214 22.0549 48.1833 21.3827 49.0209L8.13059 41.2624V41.2622ZM27.6747 49.0068C27.034 48.2323 26.1205 47.7493 25.152 47.593V43.2539C30.2323 43.0389 34.6674 40.2909 37.2506 36.2178L40.9516 38.3892C40.6085 39.2733 40.576 40.2687 40.9298 41.2468L27.6747 49.0069V49.0068Z" fill="#141414"/>
<path d="M24.5172 55.9997C23.0839 55.9997 21.8013 55.3149 20.9983 54.1208C20.2276 52.9744 20.0368 51.5417 20.4735 50.2484L7.59429 42.7079C7.09549 43.2593 5.98676 44.2196 4.3159 44.2196C1.58823 44.2196 0.184071 42.1171 0.0335741 40.1637C-0.115653 38.225 0.894803 36.0854 3.47468 35.5795V20.3783C2.15164 20.1128 1.02276 19.2285 0.428548 17.9808C-0.192806 16.6765 -0.13629 15.2086 0.583808 13.9537C1.2974 12.7082 2.57043 11.9013 3.98951 11.7953C5.37351 11.6924 6.67305 12.2372 7.58619 13.2968L20.4735 5.7525C20.0353 4.46279 20.2254 3.03076 20.9961 1.88193C21.7988 0.685603 23.0823 -0.000488281 24.5174 -0.000488281C25.9525 -0.000488281 27.236 0.685924 28.0393 1.88289C28.8095 3.03076 28.9993 4.46247 28.5614 5.7525L41.4616 13.305C42.5527 12.0186 44.2069 11.4914 45.8281 11.9272C48.3276 12.5974 49.0942 14.7416 48.9913 16.3741C48.8813 18.1179 47.7775 20.0102 45.5601 20.4099V35.5751C46.631 35.7454 47.5227 36.2985 48.149 37.1838C48.7464 38.0286 49.0431 39.0983 48.9845 40.196C48.8775 42.1988 47.5172 44.2196 44.7198 44.2196C43.5044 44.2196 42.3119 43.6473 41.49 42.679L28.6037 50.2236C29.0402 51.5545 28.8461 52.9618 28.0601 54.1142C27.2549 55.2946 25.9306 55.9995 24.5179 55.9995L24.5172 55.9997ZM7.48951 42.0904L21.0631 50.0374L20.9875 50.2303C20.5199 51.4246 20.6711 52.7778 21.3922 53.8503C22.105 54.9104 23.244 55.5183 24.5171 55.5183C25.7733 55.5183 26.9509 54.8914 27.6672 53.8413C28.4012 52.765 28.5552 51.4384 28.0896 50.2014L28.0175 50.0102L41.6054 42.0548L41.7331 42.2202C42.4665 43.1708 43.5827 43.7383 44.7192 43.7383C47.3751 43.7383 48.4203 41.8161 48.5084 40.17C48.6086 38.2961 47.5373 36.2707 45.2959 36.0252L45.0835 36.0019V19.9931L45.2904 19.9653C47.3784 19.685 48.4149 17.9443 48.5157 16.3434C48.6072 14.8928 47.9261 12.9877 45.7055 12.3923C44.205 11.9888 42.6721 12.5146 41.7046 13.764L41.577 13.929L27.9709 5.96317L28.0469 5.76999C28.5159 4.57912 28.3655 3.22699 27.6448 2.15293C26.9317 1.09026 25.7917 0.480706 24.5171 0.480706C23.2424 0.480706 22.1026 1.08978 21.39 2.15197C20.6688 3.22699 20.5181 4.57944 20.9872 5.76999L21.0633 5.96317L7.473 13.919L7.34505 13.7566C6.52716 12.7187 5.3162 12.1779 4.02412 12.2753C2.74347 12.3711 1.63951 13.0709 0.995451 14.195C0.35584 15.31 0.305516 16.6136 0.857337 17.7721C1.41329 18.9394 2.49391 19.749 3.74773 19.938L3.95077 19.9685V35.9875L3.74948 36.0194C1.32169 36.4037 0.372192 38.359 0.508242 40.1264C0.64207 41.866 1.89065 43.7383 4.31559 43.7383C5.95422 43.7383 6.99103 42.6949 7.36076 42.2462L7.48935 42.0903L7.48951 42.0904ZM24.518 54.6917C23.0083 54.6917 21.48 53.6439 21.48 51.6413C21.48 49.6387 23.0107 48.5889 24.5228 48.5889C25.3135 48.5889 26.0517 48.8597 26.6015 49.3517C27.2249 49.9096 27.5545 50.7017 27.5545 51.6429C27.5545 53.6446 26.027 54.6917 24.5182 54.6917H24.518ZM24.5226 49.0702C23.2866 49.0702 21.9561 49.8749 21.9561 51.6413C21.9561 53.4077 23.284 54.2103 24.5179 54.2103C25.7517 54.2103 27.0779 53.4069 27.0779 51.6429C27.0779 50.8436 26.8039 50.1759 26.2856 49.7122C25.823 49.2983 25.1968 49.0704 24.5225 49.0704L24.5226 49.0702ZM21.4395 49.3319L7.83686 41.3681L7.90782 41.1773C8.24104 40.2812 8.23183 39.3442 7.88099 38.4676L7.80352 38.2739L11.8695 35.8887L11.9923 36.0828C14.6105 40.2181 19.059 42.8091 23.8921 43.0134L24.1203 43.023V47.7913L23.9167 47.8215C22.9776 47.9601 22.1655 48.4272 21.5678 49.1721L21.4395 49.3319ZM8.42059 41.1536L21.3301 48.7115C21.9443 48.0145 22.7376 47.558 23.6441 47.3801V43.4828C18.8198 43.2057 14.3903 40.6258 11.7155 36.5355L8.3955 38.483C8.6965 39.3528 8.70507 40.2682 8.42043 41.1534L8.42059 41.1536ZM27.6207 49.3162L27.4921 49.1609C26.9093 48.4562 26.0649 47.9838 25.1144 47.8304L24.9138 47.798V43.0228L25.1419 43.0132C29.978 42.8085 34.4295 40.2194 37.05 36.0875L37.1729 35.8936L41.2476 38.2844L41.173 38.4766C40.8372 39.3422 40.8304 40.2714 41.1531 41.1638L41.2217 41.3535L27.6202 49.3164L27.6207 49.3162ZM25.3902 47.3919C26.3033 47.5809 27.12 48.0382 27.7245 48.6991L40.6415 41.137C40.3664 40.2586 40.3726 39.3531 40.6596 38.4957L37.3267 36.5403C34.6497 40.6271 30.217 43.2053 25.3902 43.4827V47.3919ZM4.33051 42.9384C4.0665 42.9384 3.79837 42.9033 3.53119 42.8311C1.75968 42.3589 1.13912 40.8004 1.31041 39.4655C1.48155 38.1318 2.47391 36.7859 4.30511 36.7859C5.93088 36.7859 6.7302 37.9571 6.93642 38.316C7.56507 39.414 7.48395 40.7181 6.7248 41.7198C6.12885 42.5062 5.25571 42.9384 4.33051 42.9384ZM4.30495 37.2674C2.76283 37.2674 1.92701 38.4025 1.78254 39.5274C1.63808 40.6536 2.16053 41.968 3.65327 42.3659C4.66833 42.64 5.6999 42.2804 6.34666 41.4271C6.98642 40.583 7.05453 39.4834 6.5243 38.5575C6.35047 38.255 5.67641 37.2673 4.30495 37.2673V37.2674ZM44.7452 42.9283C43.7676 42.9283 42.6765 42.4734 42.0609 41.337C41.5391 40.3733 41.5578 39.2351 42.1106 38.2922C42.6637 37.3491 43.6428 36.7861 44.73 36.7861C46.5591 36.7861 47.5515 38.1283 47.7236 39.4586C47.8964 40.7942 47.2765 42.3555 45.502 42.8329L45.5007 42.8332C45.265 42.8951 45.0091 42.9283 44.7451 42.9283H44.7452ZM44.7301 37.2674C43.8129 37.2674 42.9869 37.7422 42.5205 38.5376C42.0541 39.3328 42.0385 40.2927 42.4787 41.1058C43.1377 42.3225 44.4437 42.6129 45.3797 42.3675C46.875 41.9655 47.3973 40.648 47.2516 39.5208C47.1065 38.3991 46.2705 37.2673 44.7301 37.2673V37.2674ZM24.5156 42.2422C16.7514 42.2422 10.4348 35.851 10.4348 27.9949C10.4348 20.1389 16.7516 13.7634 24.5156 13.7634C32.2797 13.7634 38.6136 20.1477 38.6136 27.9949C38.6136 35.8421 32.2894 42.2422 24.5156 42.2422ZM24.5156 14.2447C17.0141 14.2447 10.9111 20.4131 10.9111 27.9949C10.9111 35.5768 17.0141 41.7609 24.5156 41.7609C32.0171 41.7609 38.1373 35.5856 38.1373 27.9949C38.1373 20.4043 32.0267 14.2447 24.5156 14.2447ZM41.6492 37.5932L37.5779 35.2043L37.6847 34.9999C39.9773 30.615 39.9779 25.3815 37.6863 21.0005L37.5793 20.796L41.6226 18.425L41.7508 18.5854C42.5244 19.5525 43.5504 19.8583 44.0931 19.9545L44.2901 19.9895V36.039L44.0916 36.0729C43.1663 36.2309 42.366 36.7014 41.7775 37.4335L41.6492 37.5932ZM38.2111 35.0193L41.5403 36.9727C42.1439 36.2885 42.9231 35.8306 43.8138 35.6366V20.3887C43.2115 20.2528 42.276 19.9096 41.513 19.0456L38.2127 20.9808C40.4375 25.3918 40.4368 30.6048 38.2111 35.0193ZM7.39616 37.5866L7.26757 37.429C6.66289 36.6872 5.83643 36.19 4.94075 36.0289L4.74437 35.9936V19.9961L4.94567 19.9642C5.87754 19.8167 6.68194 19.3387 7.27202 18.582L7.39997 18.4182L11.4643 20.8014L11.3577 21.0058C9.07226 25.3833 9.07274 30.6127 11.3592 34.9946L11.4659 35.1991L7.39616 37.5866ZM5.22063 35.5954C6.08789 35.7955 6.88625 36.2754 7.50269 36.9674L10.8327 35.0139C8.61315 30.6028 8.61268 25.3935 10.8311 20.9864L7.51412 19.0416C6.90721 19.7497 6.12107 20.2162 5.22063 20.403V35.5954ZM11.8684 20.1118L7.7905 17.7204L7.86305 17.529C8.20326 16.6306 8.22564 15.6639 7.92592 14.8066L7.86004 14.6183L21.4668 6.65344L21.5952 6.811C22.1947 7.54683 22.9983 8.01246 23.9187 8.15719L24.1203 8.1888V12.9821L23.8921 12.9918C19.0581 13.196 14.609 15.7852 11.9911 19.9178L11.8684 20.1118ZM8.37646 17.5075L11.7145 19.465C14.3893 15.3775 18.8193 12.7994 23.6442 12.5223V8.59618C22.756 8.41327 21.9731 7.95951 21.3601 7.2723L8.43662 14.8371C8.68904 15.6902 8.66808 16.6242 8.37646 17.5075ZM37.1748 20.1065L37.0518 19.9128C34.4306 15.7841 29.9784 13.197 25.1421 12.9922L24.9139 12.9826V8.18864L25.1154 8.15687C26.0352 8.01182 26.8388 7.54635 27.4394 6.81084L27.5678 6.6536L41.1931 14.6304L41.1225 14.8211C40.7917 15.7145 40.8007 16.6542 41.149 17.5386L41.2251 17.7317L37.175 20.1067L37.1748 20.1065ZM25.3902 12.5226C30.2174 12.8 34.6505 15.3762 37.3282 19.46L40.6347 17.5211C40.3357 16.6456 40.3272 15.7283 40.6097 14.8451L27.6742 7.27198C27.0606 7.95871 26.2776 8.41231 25.3902 8.5957V12.5226ZM4.33432 19.215L4.32432 19.2144C2.15434 19.057 1.23517 17.5128 1.28692 16.0522C1.35645 14.0908 2.86174 13.0646 4.31273 13.0646C5.75245 13.0646 7.30821 14.0198 7.32123 16.1167C7.33076 17.6373 6.31125 19.1898 4.34448 19.215H4.33448H4.33432ZM4.31273 13.546C2.69759 13.546 1.80747 14.8154 1.76286 16.0694C1.71936 17.2967 2.50216 18.595 4.34829 18.7335C6.07455 18.7062 6.85276 17.3607 6.84498 16.1198C6.8372 14.8801 6.04153 13.546 4.31273 13.546ZM44.7312 19.2115C43.6817 19.2115 42.6594 18.6632 42.0964 17.6834C41.5448 16.7198 41.5416 15.5733 42.0877 14.616C42.6421 13.6445 43.6263 13.0646 44.7208 13.0646C46.1302 13.0646 47.2781 13.9543 47.6451 15.3311C48.0158 16.7221 47.4672 18.0838 46.2473 18.8001L46.2468 18.8004C45.7693 19.0791 45.247 19.2115 44.7312 19.2115ZM44.7208 13.546C43.7986 13.546 42.9685 14.036 42.5001 14.8565C42.0401 15.6628 42.0431 16.6294 42.5084 17.4419C43.2163 18.6741 44.7865 19.0968 46.0086 18.3836C47.2575 17.65 47.423 16.3482 47.1852 15.4563C46.9504 14.5749 46.164 13.546 44.7208 13.546ZM24.5172 7.43339C23.0108 7.43339 22.3622 6.52122 22.0851 6.13165C22.0653 6.10373 22.0426 6.0718 22.0237 6.04661H21.9747L21.9054 5.92868C21.3416 4.96789 21.3333 3.81152 21.8834 2.83533C22.4306 1.86412 23.415 1.28441 24.5171 1.28441C26.4969 1.28441 27.5327 2.831 27.5327 4.35882C27.5327 5.15979 27.2651 5.90814 26.779 6.46603C26.2276 7.09869 25.4456 7.43323 24.5171 7.43323L24.5172 7.43339ZM22.2823 5.62558C22.348 5.67645 22.4046 5.75603 22.4719 5.8507C22.726 6.20818 23.255 6.95204 24.5172 6.95204C25.3048 6.95204 25.9635 6.67414 26.4216 6.14818C26.831 5.67821 27.0566 5.04282 27.0566 4.35898C27.0566 3.11003 26.2621 1.76592 24.5172 1.76592C23.5887 1.76592 22.7587 2.25482 22.2974 3.0736C21.844 3.87811 21.8397 4.82718 22.2823 5.62558Z" fill="#141414"/>
<path d="M34.5413 25.094C33.6545 21.5967 33.8428 21.4548 30.2776 21.679L29.2122 17.4758C29.0307 16.7643 28.3068 16.3289 27.6029 16.5121L25.9387 16.9431C25.2348 17.1279 24.8078 17.8565 24.9876 18.5696L25.2264 19.5113C24.4388 20.0526 23.0304 21.1995 20.3092 23.2851C19.6601 23.3905 18.5372 23.736 16.5168 24.2589C15.5595 24.508 14.9812 25.5014 15.2261 26.476C16.3534 30.9207 16.2945 31.9483 17.6598 32.3307C18.7346 36.0626 18.8806 37.5682 20.6004 37.9897C22.4782 38.4707 24.3134 39.4007 25.3753 37.9802C26.3818 36.6393 25.4312 35.4269 23.1793 31.501C26.0303 31.9326 27.6 32.203 28.4654 32.2875L28.7069 33.2403C28.8631 33.8585 29.4116 34.2447 29.9843 34.2447C30.2207 34.2447 30.2852 34.2102 31.9781 33.773C32.6834 33.5898 33.1106 32.8595 32.9308 32.1451L31.8576 27.9109C33.1084 27.3341 34.9468 26.6989 34.5416 25.094H34.5413ZM31.5515 26.6374L30.6222 22.9756C33.0844 22.7894 32.5768 22.5173 33.3105 25.4122C33.4423 25.9367 32.0099 26.4264 31.5517 26.6376L31.5515 26.6374ZM24.3628 37.2062C24.0062 37.679 23.526 37.4157 20.9056 36.7439C20.1108 36.5485 20.1546 36.295 18.9701 32.2633C20.3146 31.9166 21.1836 31.7008 21.7413 31.5554C24.5047 36.4692 24.7722 36.6565 24.3629 37.206L24.3628 37.2062ZM16.4569 26.158C16.2806 25.4603 16.8313 25.503 20.1467 24.6443L21.5707 30.2647C19.1238 30.8355 18.2064 31.2769 17.8608 31.0639C17.5854 30.8969 17.6895 31.0171 16.4569 26.158ZM22.8581 30.1547C22.6756 29.3638 22.2376 27.7139 21.3244 24.1178C23.4522 22.4926 24.7836 21.5156 25.5758 20.8892L28.1184 30.9202C27.1265 30.7557 25.4956 30.5452 22.8581 30.1547ZM26.2549 18.1871L27.9812 17.7954L31.6625 32.529L29.937 32.9207C26.5904 19.7227 26.6215 19.8787 26.2551 18.1871H26.2549Z" fill="#5DA9A2"/>
<path d="M23.8001 38.9728C23.0876 38.9728 22.3032 38.7374 21.5322 38.5059C21.208 38.4087 20.8729 38.3081 20.5416 38.2232C18.9358 37.8296 18.5935 36.5888 17.8434 33.8704C17.7299 33.4586 17.6063 33.0106 17.4669 32.5239C16.3432 32.156 16.1432 31.3132 15.5309 28.7342C15.381 28.103 15.2112 27.3876 14.9951 26.536C14.7181 25.4336 15.3739 24.3079 16.457 24.0259C17.2037 23.8328 17.8393 23.6606 18.3502 23.5221C19.2117 23.2887 19.7943 23.1309 20.2117 23.0575C21.2999 22.2231 22.1785 21.5388 22.8863 20.9873C23.833 20.2499 24.4885 19.7393 24.9542 19.4086L24.7566 18.6293C24.5447 17.7892 25.0479 16.9282 25.8785 16.7102L27.5436 16.279C27.9448 16.1741 28.3647 16.2355 28.7248 16.4515C29.084 16.6668 29.339 17.0094 29.4425 17.4157L30.4591 21.4266C33.6908 21.2294 33.8631 21.3976 34.627 24.4582C34.6722 24.6393 34.72 24.8312 34.7716 25.0344C35.1886 26.6867 33.5291 27.4267 32.3175 27.9669C32.2567 27.9941 32.1965 28.0209 32.1373 28.0475L33.1608 32.0856C33.3728 32.9286 32.8686 33.7902 32.0366 34.0063C31.6599 34.1036 31.3642 34.1809 31.1292 34.2424C30.2859 34.4627 30.1978 34.4856 29.9837 34.4856C29.2721 34.4856 28.6519 33.9982 28.4755 33.3L28.2752 32.5098C27.6935 32.4445 26.8397 32.3113 25.6054 32.1188C25.036 32.0299 24.383 31.9282 23.6342 31.8138C23.8122 32.1215 23.9809 32.4116 24.1403 32.6855C25.8418 35.6083 26.546 36.8181 25.5643 38.1258C25.0908 38.7592 24.4778 38.9726 23.7996 38.9726L23.8001 38.9728ZM27.9312 16.7106C27.8423 16.7106 27.7521 16.7219 27.6622 16.7453L25.9976 17.1763C25.4208 17.3277 25.0709 17.9262 25.2181 18.5101L25.4983 19.6153L25.36 19.7103C24.8998 20.0267 24.2145 20.5605 23.177 21.3687C22.4585 21.9285 21.5641 22.6252 20.4527 23.477L20.4054 23.5133L20.3466 23.5229C19.9497 23.5873 19.3624 23.7464 18.4735 23.9873C17.9615 24.1259 17.3243 24.2985 16.5755 24.4924C15.7462 24.7082 15.244 25.5717 15.4566 26.4171C15.6735 27.2717 15.8436 27.9891 15.994 28.6219C16.6347 31.3201 16.7849 31.8364 17.7231 32.0992L17.851 32.135L17.8882 32.2638C18.043 32.8014 18.1786 33.2927 18.3022 33.7413C19.0217 36.3491 19.3193 37.4285 20.6562 37.7561C20.9993 37.8439 21.3391 37.9459 21.6678 38.0446C23.1405 38.4866 24.4126 38.8683 25.1851 37.8355C25.9741 36.7844 25.4087 35.8132 23.7303 32.9299C23.4975 32.53 23.2448 32.0958 22.973 31.6222L22.7247 31.1893L23.2143 31.2634C24.1733 31.4086 24.9874 31.5356 25.6785 31.6434C27.0285 31.8539 27.9204 31.993 28.4881 32.0485L28.6543 32.0649L28.9372 33.1811C29.0597 33.666 29.4901 34.0046 29.984 34.0046C30.134 34.0046 30.1991 33.9885 31.0103 33.7766C31.2457 33.7151 31.542 33.6378 31.9188 33.5404C32.4967 33.3901 32.8472 32.7911 32.6996 32.2048L31.577 27.7759L31.7583 27.6923C31.8763 27.6379 31.9995 27.583 32.1254 27.5268C33.5432 26.8947 34.6043 26.3185 34.3103 25.1539C34.2587 24.9501 34.2106 24.7578 34.1653 24.5761C33.6901 22.6727 32.3991 21.7872 30.2921 21.9195L30.0956 21.9319L28.9811 17.5358C28.8549 17.041 28.4133 16.711 27.931 16.711L27.9312 16.7106ZM23.8739 37.6855C23.5069 37.6855 22.9783 37.5435 22.1262 37.3147C21.7684 37.2186 21.3468 37.1055 20.847 36.9773C20.0294 36.7762 19.9475 36.493 19.1639 33.7835C19.0426 33.3641 18.9036 32.8833 18.7416 32.3319L18.6712 32.092L18.911 32.0301C19.6462 31.8406 20.2393 31.6901 20.717 31.5688C21.1126 31.4685 21.429 31.3881 21.6816 31.3223L21.8579 31.2763L21.948 31.4364C22.4507 32.3304 22.8708 33.0679 23.2192 33.6795C24.849 36.5404 24.982 36.7741 24.5526 37.3506L24.5518 37.3518C24.3761 37.5849 24.1819 37.685 23.8736 37.685L23.8739 37.6855ZM19.2687 32.435C19.4013 32.888 19.5176 33.2906 19.6213 33.6485C20.3874 36.2979 20.4249 36.3781 20.9619 36.5102C21.466 36.6394 21.8894 36.7531 22.2486 36.8495C23.7636 37.2563 23.9935 37.299 24.1733 37.0607C24.4016 36.7539 24.3364 36.6047 22.807 33.92C22.4791 33.3446 22.088 32.6579 21.6243 31.8343C21.4041 31.8911 21.1428 31.9574 20.8334 32.0358C20.4092 32.1435 19.8939 32.2741 19.2689 32.4349L19.2687 32.435ZM29.7635 33.207L28.6554 28.8376C27.116 22.7691 26.2383 19.2361 26.0223 18.2388L25.9717 18.0048L28.1553 17.5094L31.9531 32.7099L29.7636 33.207H29.7635ZM26.5383 18.3697C26.8169 19.6509 26.9369 20.1242 29.1169 28.718L30.1103 32.635L31.3718 32.3486L27.8072 18.0817L26.5383 18.3697ZM18.0965 31.3605C17.9519 31.3605 17.8379 31.3319 17.7366 31.2695C17.5422 31.1521 17.2659 30.374 16.9079 28.9353C16.7422 28.2692 16.5229 27.3879 16.2261 26.2177C16.1854 26.0569 16.1538 25.8474 16.2705 25.6512C16.474 25.3086 16.9743 25.1855 18.4588 24.8202C18.9077 24.7098 19.4457 24.5772 20.0872 24.4112L20.3181 24.3513L21.8616 30.4438L21.6239 30.4992C20.711 30.7121 20.0256 30.9032 19.4751 31.0568C18.7983 31.2455 18.386 31.3603 18.0963 31.3603L18.0965 31.3605ZM16.6876 26.0987C16.9846 27.2696 17.204 28.1515 17.3699 28.8181C17.8358 30.6908 17.8639 30.7859 17.9717 30.8509C18.113 30.9375 18.6581 30.7858 19.3487 30.5931C19.8283 30.4594 20.4698 30.2805 21.2796 30.0867L19.975 24.9371C19.4317 25.0764 18.9672 25.1908 18.5716 25.2882C17.4545 25.5631 16.7801 25.729 16.679 25.8994C16.6717 25.9116 16.6496 25.9486 16.6876 26.0988V26.0987ZM28.4395 31.2175L28.0797 31.1578C27.5454 31.0693 26.8353 30.9687 25.8528 30.8297C25.0311 30.7134 24.0332 30.5724 22.8236 30.3931L22.6631 30.3694L22.6263 30.2097C22.5198 29.7478 22.3228 28.9805 21.9964 27.7094C21.766 26.8122 21.4704 25.6603 21.0939 24.1779L21.0545 24.0226L21.181 23.926C22.1726 23.1686 22.9911 22.552 23.663 22.046C24.4439 21.4578 25.0082 21.0327 25.4292 20.6998L25.7162 20.4729L28.4395 31.2175ZM23.0524 29.9403C24.1891 30.1082 25.1343 30.2418 25.9187 30.3529C26.7 30.4634 27.3096 30.5497 27.7976 30.6253L25.4349 21.3034C25.0495 21.6015 24.5662 21.9656 23.9474 22.4317C23.3051 22.9156 22.5284 23.5006 21.5946 24.2132C21.9521 25.6205 22.2351 26.7228 22.4574 27.5881C22.7498 28.7272 22.9386 29.4627 23.0526 29.9402L23.0524 29.9403ZM31.3915 26.9758L30.3207 22.7572L30.6042 22.7359C30.8415 22.7179 31.0513 22.6992 31.2368 22.6825C32.7994 22.5427 32.9137 22.6308 33.2801 24.2514C33.3471 24.5484 33.4308 24.9179 33.541 25.3526C33.703 25.9974 32.6724 26.4273 31.9201 26.7411C31.8133 26.7857 31.7201 26.8244 31.6504 26.8566L31.3915 26.9758ZM30.9231 23.193L31.7134 26.3066C31.7217 26.3032 31.7299 26.2997 31.7385 26.2962C32.9579 25.7877 33.1022 25.5613 33.0796 25.4716C32.968 25.0312 32.8837 24.6583 32.8161 24.3586C32.6681 23.7041 32.5789 23.3092 32.4235 23.1892C32.2732 23.073 31.899 23.1066 31.2792 23.1619C31.1692 23.1719 31.0506 23.1823 30.9231 23.193Z" fill="#5DA9A2"/>
</g>
<defs>
<clipPath id="clip0_2446_513">
<rect width="49" height="56" fill="white"/>
</clipPath>
</defs>
</svg>
