<svg width="51" height="43" viewBox="0 0 51 43" fill="none" xmlns="http://www.w3.org/2000/svg">
<g clip-path="url(#clip0_2446_924)">
<path d="M26.4204 32.5199C21.0565 32.5199 20.8291 32.3484 20.8291 33.0117C20.8291 33.6751 21.0656 33.5035 26.4204 33.5035C27.0672 33.5035 27.0672 32.5199 26.4204 32.5199Z" fill="#5DA9A2"/>
<path d="M22.5475 33.7688C21.3262 33.7688 20.9563 33.7261 20.744 33.5146C20.5963 33.3675 20.584 33.1779 20.584 33.0118C20.584 32.8456 20.5963 32.6548 20.7438 32.5078C21.0131 32.2392 21.5369 32.2436 23.7418 32.2614C24.4486 32.2672 25.3283 32.2742 26.4199 32.2742C26.8989 32.2742 27.1495 32.6453 27.1495 33.0116C27.1495 33.378 26.8989 33.7491 26.4199 33.7491C25.3335 33.7491 24.4567 33.7562 23.7521 33.7618C23.2778 33.7656 22.8809 33.7688 22.5475 33.7688ZM22.5557 32.746C21.6782 32.746 21.1605 32.7672 21.0878 32.8571C21.0834 32.8638 21.073 32.892 21.073 33.0118C21.073 33.1347 21.0844 33.1603 21.088 33.1652C21.1837 33.2913 22.1492 33.2837 23.7482 33.2705C24.4536 33.2649 25.3316 33.2578 26.4199 33.2578C26.6488 33.2578 26.6605 33.0528 26.6605 33.0116C26.6605 32.9705 26.6488 32.7655 26.4199 32.7655C25.3262 32.7655 24.4455 32.7584 23.7378 32.7527C23.2926 32.7492 22.8968 32.7459 22.5556 32.7459L22.5557 32.746Z" fill="#5DA9A2"/>
<path d="M5.01017 28.0676C6.1504 28.879 5.75855 30.3495 5.79461 31.1903C5.32207 31.5253 5.01078 32.0689 5.01078 32.6854C5.01078 34.0992 4.92019 34.5889 5.62895 35.2222C4.90417 35.8713 5.01078 36.5119 5.01078 37.7805C5.01078 38.7964 5.8489 39.6241 6.87872 39.6241H7.50312C7.87284 41.1072 8.08913 42.7414 9.92625 42.7414C15.4389 42.7414 15.3347 43.1456 16.2194 39.6349C16.8567 39.9566 16.257 39.8388 38.3823 39.8388C38.6558 39.8388 38.5065 39.9501 40.9511 37.0924C41.5517 37.1307 42.6412 37.0909 44.6118 37.0909C45.6369 37.0909 46.4702 36.2525 46.4702 35.2234V19.1955C48.2411 17.3539 48.3816 17.205 50.1596 15.3706C50.9727 14.5249 50.9507 13.1732 50.1101 12.3564C49.0841 11.3586 48.09 10.0095 46.4702 10.8673V2.1131C46.4702 1.08398 45.6369 0.245605 44.6118 0.245605H19.7796C18.7551 0.245605 17.9218 1.08398 17.9218 2.1131V2.9887H17.046C16.0209 2.9887 15.1876 3.82708 15.1876 4.8562V7.96837C11.506 6.88201 7.28402 7.50423 4.01434 10.4443C-1.42185 15.3318 -0.883401 23.8533 5.01017 28.0676ZM13.1178 8.50252C22.5634 9.55202 26.0075 21.6593 18.1384 27.2783C16.7682 28.2504 16.9475 29.5647 16.9475 30.8419H15.6768C15.5176 30.8419 15.5356 31.0718 15.5356 29.55C15.5356 28.6812 15.075 27.7653 14.2514 27.7653H13.5693C13.6302 27.0318 13.5869 25.4381 13.5828 22.032C14.8641 22.0349 14.8428 22.027 15.1875 21.9397C16.7737 21.5427 17.6428 19.3926 16.1653 18.079C15.1755 17.2066 13.9668 17.3183 13.2127 18.0728C12.4963 18.8065 12.573 19.7345 12.5984 21.0393C12.1053 21.0347 11.7096 21.0276 11.4044 21.0312C11.405 20.6764 11.3895 20.2063 11.3895 19.566C11.3895 17.6391 9.07261 16.8011 7.81 18.0703C6.16226 19.7327 7.48943 22.026 9.36996 22.026C9.80154 22.026 10.1413 22.0398 10.4108 22.0449C10.4058 25.4315 10.3549 27.0291 10.4195 27.7653H9.48036C8.74849 27.7653 8.19623 28.533 8.19623 29.55V30.8419H6.87872C6.38258 30.8419 7.56462 28.6829 5.57674 27.2664C-3.19992 20.99 2.27233 7.3028 13.1178 8.50252ZM16.1655 4.8562C16.1655 4.36798 16.5606 3.97225 17.046 3.97225H41.8783C42.3637 3.97225 42.7582 4.3681 42.7582 4.8562C42.7582 8.55398 42.7588 11.7604 42.7597 14.5569C40.9266 16.4597 39.3813 18.0551 38.0814 19.3938C38.0575 19.1689 37.9035 18.9603 37.6061 18.9603C29.8978 18.9603 25.7368 18.9045 23.4844 18.9174C23.4937 16.4702 22.7867 14.2833 21.429 12.3715C22.6481 12.528 26.3494 12.4077 37.6061 12.4077C38.253 12.4077 38.253 11.4242 37.6061 11.4242C23.4125 11.4242 21.2265 11.2347 20.8898 11.6335C19.6251 10.1303 17.9813 8.99921 16.1652 8.29126V4.85607L16.1655 4.8562ZM18.8996 2.1131C18.8996 1.62489 19.2943 1.22916 19.7796 1.22916H44.6118C45.0972 1.22916 45.4924 1.62501 45.4924 2.1131V11.7121C44.1824 13.041 44.0766 13.1922 43.7384 13.5397C43.7372 10.9831 43.7361 8.11526 43.7361 4.85607C43.7361 3.82695 42.9027 2.98857 41.8783 2.98857H18.8996V2.1131ZM45.4925 35.2233C45.4925 35.7115 45.0973 36.1072 44.6119 36.1072C43.3496 36.1072 42.4494 36.0929 41.8067 36.0929C43.0544 34.6356 43.3727 34.2595 43.4998 34.0425C43.7853 33.8268 43.7567 33.8115 43.7452 22.0266L45.4926 20.2113V35.2234L45.4925 35.2233ZM38.8925 37.9934C38.8877 37.2926 38.8713 36.3349 38.8713 35.0171C38.8713 34.5289 39.266 34.1319 39.7513 34.1319H42.1876L38.8925 37.9934ZM18.3635 38.8555C18.7931 38.2684 18.7205 37.8809 18.7205 36.5823C18.7205 36.0468 18.4838 35.5676 18.1127 35.2305C18.7967 34.6087 18.7205 34.0471 18.7205 32.6853C18.7205 32.067 18.408 31.5218 17.9334 31.1873C17.9742 30.342 17.5934 28.8669 18.7038 28.0807C21.4485 26.1215 23.0994 23.2014 23.4143 19.9852C25.6459 20.0014 29.8042 19.9441 37.5475 19.9438C33.4793 24.1306 31.7137 25.8859 31.4728 26.4804C20.8291 26.4381 20.8285 26.3343 20.8285 26.9844C20.8285 27.6246 20.9449 27.5326 31.126 27.49C30.8584 28.3358 30.4776 29.6183 29.8652 31.5722C29.7432 31.9581 30.1165 32.3192 30.4945 32.1827C33.492 31.123 34.9166 30.6885 35.5483 30.3908C35.7581 30.3895 35.1826 30.9226 42.7636 23.0467C42.7671 30.5395 42.7669 32.5437 42.7381 33.1482H39.7514C38.7269 33.1482 37.8936 33.9866 37.8936 35.0169C37.8936 36.9414 37.8602 38.1025 37.8766 38.8014C36.8006 38.9456 33.1105 38.8605 18.3638 38.8554L18.3635 38.8555ZM9.92638 41.7578C8.8924 41.7578 8.85413 40.9416 8.51925 39.624H15.2127C14.5736 42.1368 15.239 41.7578 9.92638 41.7578ZM5.98852 37.7805V36.5823C5.98852 36.1074 6.38796 35.7223 6.8786 35.7223H16.8531C17.3432 35.7223 17.7425 36.1074 17.7425 36.5823V37.7805C17.7425 38.906 17.7828 38.6405 6.8786 38.6405C6.38783 38.6405 5.98852 38.2555 5.98852 37.7805ZM5.98852 33.8788V32.6853C5.98852 32.2104 6.38796 31.8253 6.8786 31.8253H16.8531C17.3432 31.8253 17.7425 32.2104 17.7425 32.6853V33.8788C17.7425 34.3537 17.3431 34.7388 16.8531 34.7388H6.87872C6.38796 34.7388 5.98852 34.3537 5.98852 33.8788ZM9.48036 28.7488H14.2514C14.655 28.7488 14.5446 30.2878 14.5482 30.8418H9.17115C9.16125 29.7841 9.14731 28.7488 9.48036 28.7488ZM10.4116 19.566V21.0426H9.36983C8.21824 21.0426 7.62538 19.6506 8.36569 18.9028C9.3224 17.9375 10.4116 18.6419 10.4116 19.566ZM11.3901 22.0428C11.6999 22.0455 12.1041 22.0356 12.6034 22.0299C12.5984 25.4271 12.5473 27.0279 12.6121 27.7653H11.3767C11.4373 27.0325 11.3946 25.4414 11.3901 22.0428ZM15.1876 20.9001C14.7983 21.0865 14.6723 21.0426 13.5823 21.0426V19.566C13.5823 18.5358 14.9154 17.92 15.6768 19.0098C16.196 19.7539 15.8725 20.5725 15.1876 20.9001ZM32.3047 27.4852C33.354 28.5172 34.0506 29.2285 34.536 29.6891C33.8348 29.9302 32.7659 30.3373 31.092 30.9293C32.3339 26.9663 32.1824 27.366 32.3047 27.4852ZM35.4793 29.201L32.6865 26.4845C32.5641 26.3671 32.2807 26.8647 45.1647 13.4801L47.979 16.2159L35.4793 29.201ZM49.4577 14.6855L48.6682 15.5001C48.2135 15.0281 47.6777 14.5402 45.8518 12.7795C47.6573 10.9024 47.6293 11.3098 49.4296 13.0614C49.8827 13.5028 49.8947 14.2308 49.4576 14.6855H49.4577Z" fill="#141414"/>
<path d="M12.3525 43C12.0781 43 11.7815 42.9979 11.4598 42.9952C11.0038 42.9914 10.4951 42.9871 9.92667 42.9871C8.05494 42.9871 7.68521 41.4356 7.35902 40.0669C7.34337 40.0012 7.32772 39.9355 7.31182 39.8699H6.87901C5.71421 39.8699 4.76655 38.9326 4.76655 37.7807C4.76655 37.6295 4.76496 37.4872 4.76361 37.3528C4.75383 36.4438 4.74711 35.8138 5.28018 35.2238C4.75298 34.6561 4.75713 34.1087 4.76459 33.1129C4.76557 32.9804 4.76667 32.8384 4.76667 32.6856C4.76667 32.0613 5.05643 31.4667 5.54805 31.07C5.54805 30.9178 5.55686 30.7532 5.56627 30.5813C5.61102 29.7615 5.66176 28.8322 4.86913 28.2682L4.86876 28.2678C1.98115 26.2028 0.212978 23.0021 0.0178464 19.4863C-0.176307 15.9888 1.22104 12.6264 3.85165 10.2614C6.86238 7.55413 10.9868 6.58715 14.9435 7.64465V4.85623C14.9435 3.69103 15.8869 2.74309 17.0464 2.74309H17.6777V2.11314C17.6777 0.947935 18.6208 0 19.78 0H44.6122C45.7718 0 46.7152 0.947935 46.7152 2.11314V10.4882C48.1057 9.97334 49.0647 10.9487 49.9187 11.817C50.0396 11.94 50.1599 12.0623 50.2806 12.1797C51.2177 13.0903 51.2426 14.5982 50.336 15.5411C48.8259 17.0991 48.4835 17.4554 47.3482 18.6362L46.7152 19.2946V35.2233C46.7152 36.3885 45.7718 37.3365 44.6122 37.3365C43.8294 37.3365 43.1788 37.3429 42.6561 37.348C41.9289 37.355 41.4225 37.3602 41.0585 37.3441C40.6878 37.7776 40.3787 38.1405 40.1203 38.4442C39.186 39.5411 38.6152 40.0879 38.408 40.0846L38.3826 40.0843C32.4264 40.0843 28.1268 40.0928 24.9873 40.0991C18.0375 40.1126 16.862 40.1152 16.3861 39.9742C15.6851 42.7277 15.4556 42.9999 12.3522 42.9999L12.3525 43ZM5.15229 27.8676C6.16487 28.5883 6.10105 29.7556 6.05447 30.6079C6.04297 30.8181 6.03222 31.0166 6.03919 31.1797L6.04493 31.3137L5.93587 31.3909C5.50991 31.6929 5.2556 32.1769 5.2556 32.6853C5.2556 32.8395 5.2545 32.9827 5.25352 33.1164C5.24557 34.1873 5.24288 34.548 5.79172 35.0386L5.99688 35.2218L5.79197 35.4055C5.23702 35.9024 5.24227 36.3853 5.25254 37.3473C5.25401 37.4832 5.25548 37.6273 5.25548 37.7805C5.25548 38.6616 5.9838 39.3784 6.87889 39.3784H7.69414L7.74048 39.5643C7.77251 39.6929 7.80344 39.8227 7.83438 39.9523C8.1596 41.317 8.44056 42.4957 9.92642 42.4957C10.4964 42.4957 11.0064 42.5 11.4636 42.5038C13.3944 42.5208 14.3633 42.5284 14.8963 42.1799C15.4108 41.8436 15.6015 41.0868 15.9814 39.5788L16.0561 39.2823L16.3606 39.4311C16.7323 39.6204 16.8933 39.624 24.9862 39.6077C28.1258 39.6014 32.4258 39.5929 38.3824 39.5929L38.4157 39.5933C38.4274 39.5933 38.4378 39.5945 38.4482 39.5933C38.5333 39.5514 38.9142 39.1044 39.7485 38.1247C40.0253 37.7997 40.3598 37.407 40.7658 36.9323L40.8452 36.8394L40.9668 36.8471C41.3196 36.8699 41.8493 36.8648 42.6513 36.8566C43.175 36.8514 43.8268 36.8451 44.6121 36.8451C45.5021 36.8451 46.226 36.1175 46.226 35.2232V19.096L46.9962 18.2949C48.1319 17.1136 48.4747 16.757 49.9846 15.199C50.7033 14.4517 50.6837 13.2551 49.9402 12.5328C49.8169 12.4128 49.694 12.2879 49.5705 12.1623C48.6862 11.2631 47.8511 10.4135 46.5845 11.0844L46.2259 11.2743V2.11314C46.2259 1.21888 45.5019 0.491285 44.612 0.491285H19.7797C18.8901 0.491285 18.1665 1.21888 18.1665 2.11314V3.23438H17.0462C16.1562 3.23438 15.4323 3.96197 15.4323 4.85623V8.29658L15.1189 8.2041C11.2311 7.05707 7.14102 7.96288 4.17773 10.6274C1.6585 12.8923 0.320325 16.1113 0.506165 19.459C0.692984 22.8249 2.38645 25.8896 5.15229 27.8674V27.8676ZM12.7226 42.0236C12.4348 42.0236 12.1104 42.0199 11.7433 42.0158C11.2223 42.0101 10.6318 42.0034 9.92679 42.0034C8.83424 42.0034 8.6429 41.1942 8.40045 40.1695C8.36439 40.0168 8.32612 39.8549 8.28284 39.6848L8.20496 39.3784H15.528L15.45 39.6848C15.3878 39.9293 15.338 40.1464 15.294 40.3387C14.9498 41.8401 14.77 42.0236 12.7226 42.0236ZM8.83192 39.8697C8.8472 39.9332 8.86187 39.9952 8.87618 40.056C9.1322 41.138 9.25495 41.5121 9.92679 41.5121C10.6346 41.5121 11.2264 41.5188 11.7488 41.5247C13.1462 41.5399 13.9161 41.5487 14.2809 41.3849C14.5697 41.2552 14.6397 41.0038 14.8174 40.2285C14.8429 40.1173 14.8704 39.9978 14.9008 39.8697H8.83192ZM34.0179 39.1308C32.9244 39.1308 31.545 39.1268 29.7993 39.1218C27.0632 39.1139 23.3159 39.103 18.3638 39.1013H17.8807L18.1668 38.7101C18.4891 38.2697 18.4866 37.9679 18.479 37.0719C18.4778 36.924 18.4764 36.7619 18.4764 36.5823C18.4764 36.137 18.2892 35.7216 17.9492 35.4128L17.7487 35.2308L17.9492 35.0487C18.4864 34.5602 18.4841 34.1511 18.4779 33.0576C18.4773 32.9406 18.4765 32.8168 18.4765 32.6856C18.4765 32.175 18.2212 31.6902 17.7934 31.3885L17.6832 31.3107L17.6898 31.1755C17.6978 31.0088 17.6878 30.8061 17.6772 30.5915C17.6352 29.7417 17.5779 28.5779 18.5635 27.8801C21.2205 25.9835 22.8573 23.1709 23.1716 19.9613L23.1934 19.7381L23.4167 19.7397C24.4218 19.747 25.823 19.7394 27.7623 19.7288C30.0981 19.716 33.2973 19.6986 37.548 19.6983H37.8684L37.8389 19.42C37.8285 19.3224 37.7798 19.2061 37.6068 19.2061C33.2551 19.2061 30.0145 19.1881 27.6483 19.1751C25.8009 19.1649 24.4662 19.1578 23.4864 19.1632L23.2395 19.1646L23.2405 18.9166C23.2494 16.559 22.5732 14.405 21.2306 12.5144L20.9057 12.0568L21.4607 12.128C22.2004 12.2231 23.9441 12.2135 27.765 12.1926C30.1123 12.1798 33.3272 12.1623 37.6069 12.1623C37.8359 12.1623 37.8475 11.9573 37.8475 11.9161C37.8475 11.875 37.8359 11.67 37.6069 11.67C33.2503 11.67 30.0058 11.6521 27.6369 11.6389C23.131 11.614 21.2657 11.6035 21.0766 11.7931L20.8898 12.0144L20.7038 11.7922C19.5012 10.3628 17.9014 9.2315 16.0775 8.52049L15.9215 8.45957V4.85623C15.9215 4.23341 16.4262 3.72665 17.0465 3.72665H41.8788C42.4988 3.72665 43.0033 4.23341 43.0033 4.85623C43.0033 8.55402 43.0039 11.7604 43.0047 14.5568V14.6563L42.936 14.7278C41.3784 16.3447 39.8917 17.8819 38.257 19.5654L38.1281 19.6982H38.1284L37.7229 20.1154C37.1435 20.7117 36.6107 21.2588 36.1225 21.7601C33.3034 24.6548 31.8883 26.1079 31.6999 26.5731L31.6377 26.7268L31.4725 26.7262C30.0075 26.7203 28.7441 26.7134 27.6546 26.7074C23.1359 26.6822 21.2656 26.672 21.0767 26.8623C21.0738 26.8741 21.0738 26.9379 21.0738 26.9846C21.0738 27.0117 21.0738 27.0836 21.0816 27.1018C21.2618 27.2967 23.164 27.2861 27.7594 27.2613C28.7371 27.2559 29.8527 27.2498 31.1256 27.2445L31.4614 27.243L31.3598 27.5644C31.2441 27.9303 31.1072 28.3781 30.9393 28.9268C30.7197 29.6447 30.4465 30.5379 30.0991 31.6462C30.0704 31.737 30.0942 31.8305 30.1628 31.8969C30.2312 31.963 30.3244 31.9834 30.4123 31.9517C31.5933 31.5343 32.5226 31.2163 33.2693 30.9609C34.3947 30.5759 35.0739 30.3436 35.4449 30.1686L35.4936 30.1456L35.5474 30.1453C35.5528 30.1453 35.5583 30.1453 35.5634 30.1455C35.7484 29.9956 36.4592 29.2552 38.4891 27.1409C39.4846 26.104 40.8128 24.7206 42.5882 22.876L43.0083 22.4397L43.0085 23.0467C43.0121 30.5586 43.0118 32.5486 42.9828 33.16L42.9718 33.394H39.7519C38.8623 33.394 38.1386 34.1221 38.1386 35.0171C38.1386 35.9374 38.1311 36.6859 38.1248 37.2873C38.118 37.9535 38.1131 38.4349 38.1215 38.7958L38.1267 39.0159L37.9094 39.045C37.4096 39.112 36.3821 39.1306 34.0183 39.1306L34.0179 39.1308ZM18.7931 38.61C23.5342 38.6122 27.1439 38.6226 29.8008 38.6304C34.8058 38.6445 36.7876 38.6507 37.6287 38.5808C37.6256 38.2446 37.6299 37.8241 37.6354 37.2822C37.6415 36.6819 37.6492 35.9348 37.6492 35.0171C37.6492 33.8513 38.5924 32.9027 39.7515 32.9027H42.502C42.5219 32.0946 42.5224 29.9162 42.5195 23.6539C40.9527 25.2823 39.7562 26.5284 38.8408 27.4819C37.3512 29.0336 36.6034 29.8124 36.2163 30.1996C35.8735 30.5425 35.7522 30.6573 35.587 30.6433C35.1824 30.8251 34.5074 31.0561 33.4266 31.4258C32.6809 31.6809 31.7531 31.9984 30.5759 32.4145C30.3143 32.5087 30.0255 32.4463 29.8233 32.2507C29.6207 32.0547 29.5477 31.7663 29.6324 31.4979C29.979 30.392 30.2521 29.4995 30.4714 28.7824C30.5935 28.3832 30.6994 28.0373 30.7926 27.7371C29.658 27.742 28.6526 27.7476 27.7617 27.7525C21.9675 27.7844 21.0768 27.7891 20.7342 27.4468C20.5842 27.2969 20.5842 27.1089 20.5842 26.9845C20.5842 26.9135 20.5842 26.8338 20.6018 26.7537C20.0766 27.3097 19.4898 27.8211 18.8458 28.281C18.0793 28.8237 18.125 29.7499 18.1654 30.567C18.174 30.743 18.1824 30.9113 18.1814 31.0669C18.6746 31.4634 18.9653 32.059 18.9653 32.6853C18.9653 32.8155 18.9661 32.9385 18.9667 33.0547C18.9724 34.0603 18.9757 34.657 18.457 35.2328C18.7826 35.6097 18.9653 36.0893 18.9653 36.5822C18.9653 36.7602 18.9667 36.9211 18.9679 37.0676C18.974 37.7807 18.9776 38.1981 18.7928 38.61H18.7931ZM23.6342 20.2322C23.3638 22.5479 22.4309 24.6571 20.9409 26.3791C21.4322 26.1816 22.743 26.1888 27.6571 26.2161C28.7091 26.2219 29.9233 26.2286 31.3244 26.2343C31.6923 25.6067 32.9827 24.2817 35.773 21.4166C36.145 21.0346 36.5427 20.6262 36.9674 20.1896C33.0058 20.1912 29.9927 20.2077 27.765 20.22C25.9618 20.2299 24.6237 20.237 23.6343 20.2322H23.6342ZM24.2495 18.6698C25.1329 18.6698 26.2431 18.676 27.6508 18.6837C30.0165 18.6967 33.2562 18.7147 37.6066 18.7147C37.8358 18.7147 38.0303 18.8063 38.1598 18.9617C39.6712 17.4044 41.064 15.9641 42.5155 14.4575C42.5147 11.6846 42.5141 8.51029 42.5141 4.85623C42.5141 4.50423 42.229 4.21793 41.8787 4.21793H17.0464C16.6956 4.21793 16.4104 4.50435 16.4104 4.85623V8.12439C18.1755 8.8397 19.7329 9.93625 20.9355 11.3099C21.4201 11.1131 22.7357 11.1202 27.6393 11.1475C30.0078 11.1607 33.2513 11.1786 37.6067 11.1786C38.0857 11.1786 38.3363 11.5496 38.3363 11.916C38.3363 12.2824 38.0857 12.6534 37.6067 12.6534C33.3282 12.6534 30.1141 12.671 27.7673 12.6838C24.5363 12.7014 22.8505 12.7107 21.9204 12.6594C23.0861 14.4621 23.6933 16.4807 23.7279 18.6707C23.8923 18.6701 24.066 18.6698 24.2495 18.6698ZM14.3736 38.9135C13.7211 38.9135 12.9407 38.9091 12.004 38.9037C10.6483 38.8959 8.96078 38.8861 6.87913 38.8861C6.25351 38.8861 5.74453 38.3901 5.74453 37.7805V36.5822C5.74453 35.9725 6.25351 35.4766 6.87913 35.4766H16.8536C17.4789 35.4766 17.9876 35.9725 17.9876 36.5822V37.7927C17.9876 38.0697 17.9876 38.3313 17.7855 38.5332C17.4683 38.85 16.8235 38.9135 14.3736 38.9135ZM6.87913 35.968C6.5231 35.968 6.23358 36.2436 6.23358 36.5823V37.7806C6.23358 38.1193 6.52322 38.3949 6.87913 38.3949C8.96225 38.3949 10.6505 38.4046 12.0069 38.4125C15.6677 38.4335 17.1832 38.4422 17.4406 38.1852C17.496 38.1299 17.4985 38.0127 17.4985 37.793V36.5825C17.4985 36.2437 17.2091 35.9681 16.8536 35.9681H6.87913V35.968ZM38.6529 38.6521L38.6484 37.995C38.6469 37.7817 38.6443 37.5443 38.6415 37.2802C38.6352 36.6806 38.6271 35.9343 38.6271 35.017C38.6271 34.3934 39.1315 33.8862 39.7515 33.8862H42.7195L38.6526 38.6521H38.6529ZM39.7517 34.3775C39.4013 34.3775 39.1163 34.6644 39.1163 35.017C39.1163 35.9316 39.1242 36.6764 39.1306 37.2749C39.1308 37.2957 39.1311 37.3162 39.1312 37.3366L41.6563 34.3775H39.7517ZM44.6124 36.3529C43.8749 36.3529 43.2609 36.348 42.7496 36.3439C42.3858 36.3411 42.0742 36.3385 41.8072 36.3385H41.2743L41.6218 35.9327C42.7943 34.5632 43.171 34.1201 43.2895 33.9179L43.3143 33.8756L43.3533 33.8461C43.5152 33.7239 43.5137 32.5554 43.5044 24.9534L43.501 21.9274L45.7375 19.604V35.2234C45.7375 35.8463 45.2328 36.353 44.6125 36.353L44.6124 36.3529ZM42.3379 35.8496C42.4682 35.8504 42.6066 35.8516 42.7533 35.8527C43.2637 35.8567 43.8765 35.8616 44.6124 35.8616C44.9631 35.8616 45.2484 35.5753 45.2484 35.2233V20.8187L43.9902 22.1259L43.9933 24.9528C44.004 33.6409 44.0043 33.957 43.6846 34.2099C43.5456 34.4294 43.2412 34.7933 42.3378 35.8496H42.3379ZM16.8536 34.9844H6.87913C6.25351 34.9844 5.74453 34.4885 5.74453 33.8788V32.6853C5.74453 32.0757 6.25351 31.5797 6.87913 31.5797H16.8536C17.4789 31.5797 17.9876 32.0757 17.9876 32.6853V33.8788C17.9876 34.4885 17.4789 34.9844 16.8536 34.9844ZM6.87913 32.071C6.5231 32.071 6.23358 32.3466 6.23358 32.6853V33.8788C6.23358 34.2175 6.52322 34.4931 6.87913 34.4931H16.8536C17.2093 34.4931 17.4985 34.2175 17.4985 33.8788V32.6853C17.4985 32.3466 17.2091 32.071 16.8536 32.071H6.87913ZM30.7123 31.3242L30.8591 30.8557C31.0369 30.2885 31.186 29.8106 31.3116 29.4086C31.7711 27.9368 32.0699 27.1912 32.2078 27.1719C32.2835 27.1612 32.3918 27.177 32.4801 27.312C32.4825 27.3161 32.4797 27.3131 32.476 27.3097H32.4762C32.9278 27.7541 33.3141 28.139 33.6466 28.47C34.0842 28.9059 34.4298 29.2503 34.7043 29.5107L34.9986 29.79L34.6155 29.9216C34.2894 30.0336 33.8833 30.182 33.369 30.3697C32.788 30.5819 32.065 30.8458 31.1734 31.161L30.7121 31.3241L30.7123 31.3242ZM32.3198 27.8437C32.2189 28.1444 32.0469 28.6954 31.7783 29.5556C31.689 29.8418 31.5877 30.1662 31.4726 30.5339C32.1541 30.2907 32.7259 30.0819 33.2021 29.908C33.5378 29.7855 33.8276 29.6797 34.0801 29.5894C33.8587 29.373 33.6021 29.1173 33.3024 28.8189C33.0172 28.5348 32.6921 28.211 32.3199 27.8438L32.3198 27.8437ZM15.5905 31.0992C15.5407 31.0992 15.4788 31.0868 15.4201 31.0398C15.2897 30.9349 15.2897 30.8985 15.2911 29.9667L15.2915 29.5501C15.2915 28.7935 14.9025 28.011 14.2518 28.011H13.3041L13.3262 27.745C13.3657 27.2701 13.3604 26.4285 13.3509 24.9007C13.346 24.1268 13.3403 23.183 13.3388 22.0324L13.3385 21.7859L13.5839 21.7864C14.7847 21.7891 14.8077 21.7832 15.0893 21.7114L15.1284 21.7014C15.854 21.5198 16.441 20.9164 16.6244 20.1638C16.7961 19.4591 16.57 18.7662 16.0039 18.2629C15.1797 17.5364 14.1028 17.5296 13.3857 18.2468C12.7942 18.8527 12.8115 19.6127 12.8375 20.763L12.8483 21.2872L12.2049 21.2808C11.8935 21.2772 11.6243 21.274 11.4076 21.2768L11.1598 21.2798L11.1602 21.0308C11.1604 20.8763 11.1576 20.6998 11.1543 20.4965C11.1502 20.2337 11.1453 19.9268 11.1453 19.5661C11.1453 18.7926 10.7227 18.1552 10.0151 17.8608C9.30569 17.5659 8.50829 17.7161 7.98317 18.244C7.32979 18.9032 7.13748 19.723 7.45597 20.493C7.77447 21.2631 8.54375 21.7804 9.37012 21.7804C9.677 21.7804 9.93278 21.7872 10.1585 21.7932C10.2507 21.7956 10.3361 21.798 10.4156 21.7994L10.6558 21.804L10.6555 22.0455C10.6536 23.2447 10.6461 24.2243 10.6401 25.0113C10.6292 26.4261 10.6226 27.2801 10.6632 27.7439L10.6865 28.0111H9.48053C8.88779 28.0111 8.44092 28.6729 8.44092 29.5502V31.0877H6.87889C6.77594 31.0877 6.68253 31.0479 6.6159 30.9757C6.47297 30.8207 6.49058 30.5862 6.51736 30.2311C6.57066 29.5236 6.65991 28.3393 5.43545 27.4668C1.41715 24.593 -0.0542888 19.7719 1.68649 15.1838C2.51006 13.0133 4.00949 11.1357 5.90836 9.8967C7.99943 8.5324 10.5019 7.96607 13.1449 8.25826C15.4598 8.51545 17.5599 9.45012 19.2183 10.9611C20.7665 12.3717 21.8662 14.2066 22.3986 16.2678C23.5111 20.5744 21.933 24.8701 18.2803 27.4785C17.1569 28.2754 17.1721 29.3269 17.1882 30.44C17.1902 30.5742 17.1922 30.7082 17.1922 30.8418V31.0874H15.6769C15.6601 31.0919 15.6288 31.0992 15.5903 31.0992H15.5905ZM15.7825 30.5961H16.7015C16.7009 30.5465 16.7002 30.4969 16.6994 30.4473C16.6821 29.2557 16.6642 28.0237 17.9977 27.0776C21.4804 24.5907 22.9857 20.4957 21.9254 16.3912C21.417 14.423 20.3673 12.6711 18.8899 11.325C17.3083 9.88405 15.3031 8.99236 13.0914 8.74648C10.5616 8.46681 8.17011 9.00686 6.17477 10.3086C4.3621 11.4913 2.9304 13.2847 2.14351 15.3587C0.484525 19.7311 1.88786 24.3265 5.71886 27.0661C7.16853 28.0991 7.06228 29.5099 7.00519 30.268C6.99687 30.3795 6.98697 30.5105 6.98807 30.596H7.95211V29.5498C7.95211 28.3922 8.60928 27.5195 9.48077 27.5195H10.159C10.1357 27.0149 10.1416 26.2431 10.1513 25.0073C10.1569 24.274 10.1639 23.3738 10.1663 22.2846C10.1595 22.2845 10.1527 22.2842 10.1459 22.2841C9.92324 22.2782 9.67077 22.2716 9.37037 22.2716C8.34874 22.2716 7.39802 21.6325 7.00457 20.6813C6.61235 19.7331 6.84893 18.6922 7.63716 17.8969C8.30289 17.2277 9.3096 17.0354 10.2022 17.4067C11.0857 17.7742 11.6344 18.6015 11.6344 19.5659C11.6344 19.9236 11.6393 20.2279 11.6435 20.4886C11.6452 20.5941 11.6468 20.6926 11.6479 20.7846C11.8158 20.7849 12.0038 20.7871 12.2104 20.7895L12.3489 20.791L12.3486 20.7741C12.3218 19.5911 12.3005 18.6567 13.0386 17.9007C13.9484 16.9906 15.3 16.9891 16.3271 17.8943C17.0347 18.5233 17.3158 19.3929 17.0994 20.2806C16.8732 21.2082 16.1462 21.953 15.2472 22.178L15.2095 22.1876C14.8948 22.2678 14.8262 22.2787 13.8282 22.2781C13.8302 23.3169 13.8355 24.1803 13.8399 24.8975C13.848 26.1935 13.853 27.0003 13.8299 27.5197H14.252C15.2449 27.5197 15.7806 28.5659 15.7806 29.5501L15.7803 29.9672C15.7799 30.2424 15.7796 30.4588 15.7826 30.5961H15.7825ZM14.7947 31.0874H8.92924L8.92667 30.8035C8.91567 29.6329 8.92276 28.9013 9.19394 28.6262C9.27329 28.5458 9.37257 28.5032 9.48077 28.5032H14.2518C14.3611 28.5032 14.4612 28.5466 14.5414 28.6288C14.8096 28.9039 14.8165 29.6128 14.7976 30.5108C14.7949 30.6389 14.7925 30.7523 14.7931 30.8402L14.7947 31.0874ZM9.41389 30.5961H14.3067C14.3074 30.5653 14.3081 30.5334 14.3087 30.5006C14.3155 30.1754 14.3358 29.2107 14.2076 28.9944H9.52564C9.4134 29.1886 9.40925 29.9758 9.41389 30.5961ZM35.4853 29.5485L32.5227 26.6668C32.4559 26.6129 32.4199 26.5464 32.4145 26.4679C32.4067 26.3519 33.0251 25.6559 34.2698 24.3799C35.9441 22.6634 39.0608 19.4684 44.9894 13.3094L45.1595 13.1328L48.3251 16.2103L35.4853 29.5486V29.5485ZM32.9767 26.4246L35.4739 28.8534L47.6336 16.2216L45.1709 13.8274C39.3511 19.8725 36.2777 23.0232 34.6191 24.7236C33.6786 25.6877 33.1744 26.2045 32.9767 26.4245V26.4246ZM12.8796 28.0109H11.1114L11.1334 27.7449C11.1728 27.2686 11.1675 26.4232 11.1581 24.8883C11.1533 24.1192 11.1476 23.1827 11.146 22.043L11.1458 21.7949L11.3927 21.7971C11.5958 21.7991 11.8429 21.7951 12.1292 21.7907C12.2758 21.7885 12.4332 21.7861 12.6013 21.7842L12.8489 21.7814L12.8485 22.0302C12.8467 23.2342 12.8391 24.2173 12.833 25.0072C12.8221 26.424 12.8154 27.2792 12.8562 27.7436L12.8796 28.0109ZM11.6371 27.5196H12.3518C12.3284 27.0144 12.3344 26.2414 12.3439 25.0034C12.3497 24.2694 12.3566 23.3686 12.359 22.2787C12.2823 22.2798 12.2081 22.2809 12.1366 22.282C11.9537 22.2848 11.7864 22.2873 11.6355 22.2884C11.6375 23.3168 11.6428 24.1728 11.6472 24.8853C11.6552 26.1878 11.6602 26.9985 11.6371 27.5196ZM14.3669 21.2927C14.2852 21.2927 14.1947 21.2918 14.0928 21.291C13.9502 21.2897 13.7827 21.2883 13.5826 21.2883H13.3381V19.5662C13.3381 18.961 13.7221 18.4327 14.2937 18.2513C14.8754 18.0668 15.4822 18.3033 15.8773 18.8688C16.1522 19.2627 16.2424 19.712 16.1318 20.1342C16.02 20.5605 15.7142 20.9205 15.2932 21.122C14.9835 21.2703 14.7979 21.2928 14.367 21.2928L14.3669 21.2927ZM13.8272 20.7976C13.9263 20.7981 14.0158 20.7989 14.0972 20.7997C14.7208 20.8054 14.8162 20.8061 15.0827 20.6784C15.3737 20.5392 15.5837 20.2952 15.6587 20.0089C15.7332 19.7249 15.6703 19.4281 15.4768 19.1508C15.2046 18.7613 14.8172 18.6001 14.4409 18.7196C14.0737 18.8361 13.827 19.1762 13.827 19.5661V20.7976H13.8272ZM10.6566 21.2881H9.37024C8.72335 21.2881 8.16595 20.9121 7.91531 20.3065C7.68179 19.7425 7.78816 19.1383 8.19285 18.7295C8.69046 18.2275 9.28478 18.0679 9.82396 18.2914C10.3221 18.498 10.6567 19.0103 10.6567 19.5659V21.288L10.6566 21.2881ZM9.33931 18.6862C9.07278 18.6862 8.79316 18.82 8.53947 19.076C8.2255 19.3931 8.24445 19.8221 8.36683 20.1178C8.50267 20.4459 8.83767 20.7967 9.37024 20.7967H10.1675V19.5659C10.1675 19.2068 9.95442 18.877 9.63727 18.7455C9.54129 18.7057 9.44128 18.6862 9.33931 18.6862ZM48.6681 15.8529L48.4929 15.671C48.2202 15.3879 47.9163 15.0974 47.3107 14.5187C46.9182 14.1436 46.4001 13.6484 45.683 12.9569L45.5061 12.7862L45.6765 12.609C46.5422 11.7089 47.0123 11.3067 47.5096 11.302C48.0082 11.3031 48.3931 11.6813 49.089 12.3784C49.242 12.5317 49.4109 12.7008 49.6003 12.8851C50.1495 13.4201 50.1647 14.3043 49.6341 14.8561L49.6335 14.8568L48.6682 15.8529H48.6681ZM46.1993 12.7737C46.8247 13.3761 47.2889 13.8197 47.6478 14.1628C48.1338 14.6273 48.4271 14.9076 48.6676 15.1492L49.2826 14.5145C49.6259 14.1571 49.6157 13.5844 49.2598 13.2378C49.0687 13.0519 48.8982 12.881 48.7436 12.7263C48.1632 12.1449 47.812 11.7931 47.5175 11.7931C47.5163 11.7931 47.5151 11.7931 47.514 11.7931C47.2235 11.7958 46.8204 12.1383 46.1993 12.7734V12.7737ZM43.4948 14.1423L43.4945 13.5399C43.4933 10.9833 43.4921 8.11542 43.4921 4.85623C43.4921 3.96197 42.7684 3.23438 41.8788 3.23438H18.6556V2.11314C18.6556 1.49031 19.1601 0.983553 19.7801 0.983553H44.6124C45.2327 0.983553 45.7374 1.49031 45.7374 2.11314V11.8132L45.6666 11.8849C44.767 12.7976 44.4314 13.1592 44.2094 13.3983C44.1044 13.5115 44.0205 13.6017 43.9139 13.7114L43.4948 14.1423ZM19.1446 2.74309H41.8787C43.0379 2.74309 43.981 3.69103 43.981 4.85623C43.981 7.85529 43.982 10.5233 43.9831 12.922C44.2051 12.6843 44.5505 12.32 45.2482 11.6112V2.11314C45.2482 1.76114 44.963 1.47484 44.6122 1.47484H19.78C19.4296 1.47484 19.1446 1.76126 19.1446 2.11314V2.74309Z" fill="#141414"/>
<path d="M20.738 8.0596C22.0173 6.80498 22.5278 6.49228 22.0931 6.04459C21.6633 5.60317 21.357 6.08021 20.055 7.35682C19.592 7.81015 20.2801 8.51084 20.738 8.0596Z" fill="#5DA9A2"/>
<path d="M20.4069 8.45104C20.3446 8.45104 20.2818 8.44244 20.2191 8.42488C19.958 8.35168 19.7462 8.13428 19.6792 7.87095C19.6159 7.62236 19.6909 7.37082 19.8848 7.18094C20.0951 6.97485 20.2793 6.78951 20.4422 6.62567C21.1157 5.94843 21.4243 5.63818 21.7843 5.63818H21.7876C21.9583 5.63904 22.1155 5.71581 22.2684 5.8729C22.4211 6.03011 22.4935 6.19039 22.4901 6.36307C22.483 6.72933 22.1495 7.04731 21.485 7.6807C21.3152 7.84258 21.123 8.02583 20.9092 8.23549C20.7657 8.37673 20.5894 8.45104 20.4069 8.45104ZM21.7845 6.12959C21.627 6.12959 21.2568 6.50186 20.7883 6.97301C20.6241 7.1382 20.4384 7.32489 20.2264 7.5327C20.1572 7.6005 20.1332 7.67125 20.1532 7.74936C20.1769 7.84246 20.2581 7.92573 20.3507 7.95177C20.4286 7.97363 20.4993 7.95152 20.5673 7.88446L20.5678 7.88409C20.7833 7.6726 20.9772 7.48787 21.1485 7.32452C21.6233 6.87192 21.9982 6.51451 22.0013 6.35374C22.0019 6.31972 21.9742 6.27354 21.9186 6.2163C21.8629 6.15907 21.8179 6.12984 21.785 6.12959H21.7845Z" fill="#5DA9A2"/>
<path d="M11.8665 4.73511C12.4808 4.73511 12.3555 4.19838 12.3555 2.37817C12.3555 1.72746 11.3776 1.72746 11.3776 2.37817C11.3776 4.17406 11.2529 4.73511 11.8665 4.73511Z" fill="#5DA9A2"/>
<path d="M11.8668 4.98085C11.6488 4.98085 11.4845 4.92153 11.3644 4.7992C11.1097 4.54029 11.1156 4.07529 11.1274 3.14909C11.1302 2.92212 11.1335 2.66616 11.1335 2.37827C11.1335 1.89668 11.5025 1.64453 11.8669 1.64453C12.2314 1.64453 12.6004 1.89656 12.6004 2.37827C12.6004 2.67169 12.6037 2.93158 12.6065 3.16125C12.6185 4.11054 12.624 4.54385 12.3724 4.79969C12.2525 4.92153 12.0871 4.98085 11.8668 4.98085ZM11.8668 2.13594C11.826 2.13594 11.6224 2.14761 11.6224 2.37839C11.6224 2.66862 11.6192 2.92666 11.6163 3.15548C11.608 3.81798 11.6014 4.34132 11.7124 4.45419C11.7355 4.47777 11.7875 4.48969 11.8668 4.48969C11.9485 4.48969 12.0014 4.4779 12.0243 4.45468C12.1322 4.34488 12.1258 3.82535 12.1174 3.16764C12.1145 2.93624 12.1112 2.67427 12.1112 2.37851C12.1112 2.14785 11.9076 2.13606 11.8668 2.13606V2.13594Z" fill="#5DA9A2"/>
<path d="M2.3346 6.03696C1.87256 5.58117 1.18899 6.28346 1.65041 6.73986C2.71875 7.79121 3.21514 8.53576 3.68377 8.05319C4.11365 7.61177 3.63425 7.31589 2.3346 6.03696Z" fill="#5DA9A2"/>
<path d="M3.37463 8.44871H3.37378C2.97055 8.44822 2.59729 8.0617 2.03243 7.4767C1.86872 7.30721 1.68312 7.11499 1.4798 6.91492C1.14089 6.57974 1.22354 6.12776 1.47332 5.87266C1.72824 5.61228 2.16496 5.5247 2.50632 5.86136C2.71502 6.06671 2.90233 6.24653 3.06812 6.4057C3.76025 7.06992 4.07606 7.37304 4.08217 7.73623C4.08498 7.90768 4.01199 8.0676 3.85892 8.22481C3.71453 8.37342 3.55155 8.44884 3.37451 8.44884L3.37463 8.44871ZM1.99807 6.1339C1.9131 6.1339 1.8472 6.19138 1.82201 6.21717C1.79328 6.24665 1.65781 6.40165 1.82238 6.56451C2.02962 6.76852 2.21754 6.96307 2.3832 7.13465C2.80941 7.57607 3.17755 7.95718 3.37427 7.95743C3.39077 7.95902 3.43491 7.95767 3.509 7.88128C3.56536 7.82331 3.59361 7.77737 3.59312 7.74433C3.59043 7.58651 3.2108 7.22209 2.73019 6.76078C2.56305 6.60037 2.37403 6.41897 2.16374 6.21201H2.1635C2.10469 6.15367 2.04796 6.13377 1.99795 6.13377L1.99807 6.1339Z" fill="#5DA9A2"/>
</g>
<defs>
<clipPath id="clip0_2446_924">
<rect width="51" height="43" fill="white"/>
</clipPath>
</defs>
</svg>
