<svg width="61" height="51" viewBox="0 0 61 51" fill="none" xmlns="http://www.w3.org/2000/svg">
<g clip-path="url(#clip0_2455_541)">
<path d="M30.4093 29.6837C29.9396 29.6837 29.5452 29.323 29.5073 28.8512C29.5043 28.8156 29.4882 28.6025 29.4769 28.2393C29.4 27.2251 29.1091 24.8958 28.0094 22.2312C26.0579 17.5023 22.6102 13.9995 17.7626 11.82C17.3065 11.6149 17.1033 11.0795 17.3085 10.6239C17.5137 10.1682 18.0502 9.96555 18.5056 10.1702C25.1195 13.1439 28.2511 18.0352 29.7136 21.6149C29.7858 21.7923 29.8553 21.9685 29.9215 22.1427C30.0402 21.4305 30.1883 20.6818 30.3729 19.9075C31.9317 13.3664 35.3757 8.11799 40.3327 4.7293C40.7456 4.44738 41.3089 4.55281 41.5913 4.96499C41.8737 5.37733 41.7679 5.94033 41.3552 6.22241C36.7251 9.38774 33.6273 14.1143 32.1477 20.2711C31.2829 23.8698 31.2549 26.9348 31.2875 28.1497C31.3139 28.5242 31.315 28.7461 31.315 28.7791C31.315 29.2646 30.9313 29.6637 30.4458 29.6831C30.4335 29.6836 30.4213 29.6837 30.4089 29.6837H30.4093Z" fill="#5DA9A2"/>
<path d="M37.2209 16.3893C35.8045 16.3893 34.4649 15.8995 33.3 14.9479C31.1891 13.2228 30.4073 10.3973 31.3084 7.74941C32.1006 5.42109 34.0452 3.39968 36.7842 2.05756C39.5325 0.710995 42.9357 -0.0168107 46.3656 0.000294788C46.6696 0.00210402 46.9523 0.156218 47.1186 0.410662C47.2847 0.665106 47.312 0.985834 47.191 1.26462C46.7054 2.38454 46.5095 3.62732 46.3022 4.94296C46.237 5.35777 46.1692 5.78688 46.0923 6.20728C45.7394 8.1333 45.2052 10.3707 43.9193 12.3616C42.5456 14.4886 40.4121 15.965 38.2121 16.3107C37.8786 16.3632 37.5475 16.3893 37.2209 16.3893ZM45.0745 1.83946C42.3651 1.9819 39.7441 2.62237 37.5815 3.68192C36.2474 4.33571 33.881 5.80909 33.0228 8.33182C32.3674 10.2578 32.9262 12.3051 34.4464 13.5473C35.4844 14.3955 36.6565 14.7237 37.9308 14.5235C39.604 14.2603 41.3157 13.0562 42.3979 11.3807C43.5121 9.65568 43.9903 7.63279 44.3111 5.88146C44.3841 5.48326 44.4469 5.08408 44.5134 4.66154C44.6606 3.72863 44.8109 2.77385 45.0743 1.83946H45.0745Z" fill="#5DA9A2"/>
<path d="M21.9637 20.6715C19.8615 20.6715 17.6442 19.7066 15.9544 18.0387C14.2677 16.3735 13.2609 14.3049 12.4985 12.501C12.3321 12.1074 12.173 11.7033 12.0195 11.3126C11.5317 10.0728 11.0711 8.90174 10.354 7.9134C10.1755 7.66735 10.1326 7.34843 10.2396 7.06405C10.3466 6.77967 10.5894 6.56799 10.8859 6.50055C14.2305 5.73854 17.7109 5.71535 20.6857 6.43476C23.6507 7.15188 25.9875 8.7042 27.2661 10.806C28.7197 13.1959 28.5692 16.1235 26.8828 18.2645C25.7372 19.7185 24.1813 20.5463 22.3828 20.6585C22.2438 20.6672 22.1041 20.6715 21.9638 20.6715H21.9637ZM12.5451 8.01636C13.005 8.87197 13.3588 9.77148 13.7048 10.6508C13.8612 11.0486 14.0092 11.4245 14.1668 11.7972C14.86 13.4375 15.7657 15.3091 17.227 16.7517C18.6472 18.1532 20.5789 18.9576 22.27 18.8529C23.5572 18.7726 24.6305 18.1981 25.4597 17.1458C26.6743 15.6038 26.7758 13.484 25.7185 11.7457C24.3332 9.46852 21.7037 8.54252 20.2597 8.19318C17.9189 7.62689 15.2205 7.56915 12.5452 8.01636H12.5451Z" fill="#5DA9A2"/>
<path d="M30.3864 51.0002C30.3135 51.0002 30.2419 50.9992 30.171 50.9972C27.0055 50.9081 24.2491 50.1637 20.6572 48.4279C19.4453 47.8421 18.3616 47.2913 17.3457 46.745C17.3255 46.7352 17.3054 46.7245 17.2856 46.7131C17.2596 46.698 17.2328 46.6837 17.206 46.6692L17.0822 46.6021C16.9999 46.5575 16.9176 46.5128 16.8362 46.4682C14.3464 45.1753 10.9516 44.7559 7.9581 44.5162C7.4598 44.4764 7.08809 44.0402 7.12793 43.5422C7.16793 43.0443 7.60483 42.6749 8.10281 42.7127C11.2808 42.9672 14.9038 43.4221 17.6817 44.8682C17.6878 44.8715 17.6939 44.8746 17.6998 44.8779C17.7808 44.9225 17.863 44.967 17.9451 45.0115L18.0663 45.0771C18.0954 45.0929 18.1246 45.1085 18.1532 45.1246L18.1697 45.1333C19.1724 45.6733 20.2439 46.2184 21.4458 46.7993C24.7895 48.415 27.3321 49.1072 30.222 49.1887C33.1796 49.2729 38.5908 47.1968 45.8882 43.1887C50.7898 40.4963 58.9938 35.9898 59.1867 33.896C59.1955 33.8024 59.2156 33.583 58.818 33.2577C58.3337 32.8611 57.1257 32.6261 54.1206 33.7569C51.7028 34.6668 48.7676 36.2105 45.9292 37.7033C44.8348 38.279 43.7032 38.874 42.6176 39.4242C42.1723 39.6504 41.6269 39.4722 41.4005 39.0265C41.1743 38.5809 41.3525 38.0365 41.7986 37.8105C42.8719 37.2666 43.9972 36.6748 45.0857 36.1023C51.3676 32.7981 57.301 29.6774 59.9656 31.8578C60.9088 32.6299 61.0433 33.4824 60.9902 34.0618C60.7496 36.6719 56.406 39.4759 46.7607 44.774C39.2373 48.9062 33.7304 50.9999 30.3866 51L30.3864 51.0002Z" fill="#1E1E1E"/>
<path d="M38.1822 44.3903C36.6694 44.3903 34.699 43.7171 32.2358 42.8754C31.5123 42.6282 30.822 42.3832 30.1542 42.1458C26.9954 41.0238 24.2674 40.0547 20.4367 39.7497C19.9382 39.7101 19.5663 39.2741 19.606 38.7762C19.6457 38.2782 20.0852 37.9078 20.5804 37.9463C24.6493 38.2703 27.4814 39.2762 30.761 40.4412C31.4234 40.6766 32.1087 40.9198 32.8217 41.1636C35.5893 42.109 37.9792 42.9259 38.9088 42.4486C39.0557 42.3735 39.2409 42.2307 39.3739 41.7899C39.8345 40.2646 35.9979 36.8053 30.1743 34.4591C28.4881 33.7798 27.0437 32.8498 25.6469 31.9505C23.8212 30.7751 22.0972 29.6649 20.1927 29.4149C17.4307 29.0531 14.9141 29.7095 12.8156 30.3996C11.1448 30.9491 9.64514 31.3722 8.23089 31.6927C7.74328 31.8029 7.25831 31.4978 7.14769 31.0108C7.0369 30.5236 7.3426 30.0389 7.8302 29.9284C9.18783 29.6207 10.6334 29.2126 12.2493 28.6812C14.4076 27.9711 17.2888 27.209 20.4284 27.6211C22.7362 27.9239 24.6264 29.1411 26.6279 30.4296C27.9537 31.2832 29.3247 32.1659 30.8513 32.7811C35.5582 34.6773 42.1738 38.7807 41.1075 42.3121C40.8606 43.1305 40.399 43.7181 39.7357 44.058C39.2853 44.2891 38.7679 44.3901 38.1822 44.3901V44.3903Z" fill="#1E1E1E"/>
<path d="M39.3594 36.4628C39.0602 36.4628 38.7671 36.3146 38.5946 36.0434C38.3263 35.6219 38.4509 35.0627 38.8728 34.7946C39.2376 34.563 39.6059 34.3273 39.9764 34.0903C43.9033 31.5784 47.964 28.981 50.8799 28.9771H50.8929C52.1967 28.9771 53.1917 29.3116 53.7708 29.9448C54.1083 30.3136 54.0824 30.8858 53.7132 31.223C53.3443 31.56 52.7715 31.5342 52.4341 31.1654C52.266 30.9818 51.7731 30.7863 50.8927 30.7863H50.8825C48.4947 30.7896 44.4877 33.3526 40.9525 35.6141C40.5804 35.8521 40.2104 36.0888 39.8442 36.3216C39.6936 36.4171 39.5255 36.4628 39.3594 36.4628Z" fill="#1E1E1E"/>
<path d="M36.7656 34.7257C36.487 34.7257 36.2121 34.5979 36.0348 34.3562C35.739 33.9534 35.8261 33.3872 36.2294 33.0917C36.9539 32.5606 37.6379 32.0372 38.2992 31.5313C40.9198 29.5262 42.9897 27.9423 45.0899 27.7605C45.6536 27.7117 46.1629 27.7368 46.6031 27.8358C47.0909 27.9456 47.3974 28.4296 47.2874 28.9171C47.1778 29.4046 46.6938 29.7114 46.2054 29.601C45.9507 29.5438 45.6192 29.5309 45.2463 29.563C43.6719 29.6992 41.6922 31.2138 39.4 32.9677C38.7313 33.4792 38.0401 34.0083 37.3003 34.5504C37.1391 34.6687 36.9514 34.7256 36.7656 34.7256V34.7257Z" fill="#1E1E1E"/>
<path d="M33.8943 33.0808C33.631 33.0808 33.3701 32.9668 33.1912 32.7469C32.8758 32.3592 32.9345 31.7895 33.3226 31.4744C34.1596 30.7944 34.7885 30.2031 35.3434 29.6812C36.5219 28.573 37.3734 27.7723 38.8186 27.5572C39.3719 27.4755 39.8688 27.4758 40.2977 27.5579C40.7887 27.6519 41.1106 28.126 41.0164 28.6166C40.9226 29.1071 40.4495 29.4291 39.9567 29.3349C39.7995 29.3046 39.5207 29.2824 39.0843 29.3469C38.237 29.473 37.7054 29.9444 36.5842 30.9987C36.0353 31.5146 35.3525 32.1569 34.4645 32.8782C34.2966 33.0145 34.0946 33.0808 33.8938 33.0808H33.8943Z" fill="#1E1E1E"/>
<path d="M7.4568 47.1132H1.47878C0.663419 47.1132 0 46.4504 0 45.6357V29.214C0 28.3992 0.663419 27.7363 1.47878 27.7363H7.45663C8.27216 27.7363 8.93558 28.3992 8.93558 29.214V45.6357C8.93558 46.4504 8.27233 47.1132 7.4568 47.1132ZM1.81082 45.304H7.12493V29.5456H1.81082V45.304Z" fill="#1E1E1E"/>
</g>
<defs>
<clipPath id="clip0_2455_541">
<rect width="61" height="51" fill="white"/>
</clipPath>
</defs>
</svg>
