<svg width="57" height="38" viewBox="0 0 57 38" fill="none" xmlns="http://www.w3.org/2000/svg">
<g clip-path="url(#clip0_2455_155)">
<path d="M36.2528 31.3049H3.63977C3.10295 31.3049 2.72156 31.3724 2.42792 30.8636C2.11016 30.3131 1.71985 29.3679 1.62684 28.7417C1.5778 28.4123 1.38366 28.3295 1.96648 28.1906C2.01208 28.1798 2.06578 28.1984 2.11219 28.1906C2.90171 28.0593 3.8335 28.1906 4.63174 28.1906H18.1194C18.8197 28.1906 19.5422 28.0522 20.1157 28.4997C20.7036 28.9582 21.0272 29.3447 21.852 29.389C22.2135 29.4085 22.5819 29.389 22.9439 29.389H27.5757C28.7253 29.389 29.8893 29.4417 31.038 29.389C31.7148 29.3579 32.1683 29.1238 32.6458 28.6763C33.2233 28.1352 33.6915 28.1906 34.4427 28.1906H36.253C37.0354 28.1906 37.0366 27.0022 36.253 27.0022C35.0417 27.0022 33.2142 26.6624 32.202 27.4443C31.7722 27.7763 31.5456 28.1389 30.9589 28.2006C30.4774 28.2513 29.9623 28.2006 29.4782 28.2006H24.4115C23.5435 28.2006 22.019 28.5003 21.2714 27.9472C20.6513 27.4884 20.3629 27.0511 19.4952 27.0022C19.2735 26.9897 19.0475 27.0022 18.8256 27.0022H5.17667C3.81992 27.0022 -0.356709 26.4311 0.394315 28.8986C0.608719 29.603 0.919991 30.2909 1.1804 30.9806C1.40696 31.5804 1.62116 32.12 2.29234 32.3666C2.77384 32.5435 3.33012 32.4934 3.83634 32.4934H20.6306C25.7437 32.4934 30.874 32.6156 35.9857 32.4934C36.0744 32.4912 36.1636 32.4934 36.2524 32.4934C37.0348 32.4934 37.036 31.3049 36.2524 31.3049H36.2528Z" fill="#010101"/>
<path d="M30.8582 32.845C29.1394 32.845 27.427 32.8314 25.7433 32.8179C24.0666 32.8046 22.3327 32.7908 20.6303 32.7908H3.83578C3.74702 32.7908 3.65643 32.7923 3.56524 32.7939C3.12954 32.8018 2.63467 32.8102 2.18478 32.645C1.37114 32.3463 1.11803 31.6755 0.894705 31.0839C0.808984 30.8569 0.717588 30.6299 0.626193 30.4025C0.44097 29.9423 0.249465 29.4663 0.102543 28.9838C-0.0814637 28.3795 -0.0176287 27.8767 0.292427 27.4895C1.06027 26.5296 3.12873 26.6217 4.49743 26.6831C4.76615 26.6952 4.99818 26.7055 5.17631 26.7055H18.825C18.8968 26.7055 18.9693 26.7041 19.0417 26.7027C19.1941 26.6999 19.3525 26.6967 19.512 26.706C20.2851 26.7496 20.6746 27.0741 21.0872 27.4178C21.2019 27.5132 21.3207 27.6121 21.454 27.7107C21.9303 28.0629 22.8935 27.995 23.6668 27.9407C23.9361 27.9217 24.1906 27.9037 24.4107 27.9037H29.4774C29.6413 27.9037 29.8085 27.9092 29.9769 27.9151C30.2959 27.9258 30.6252 27.9369 30.9259 27.9054C31.2638 27.87 31.4457 27.7064 31.6976 27.48C31.7947 27.393 31.8948 27.3029 32.013 27.2116C32.8923 26.5325 34.2208 26.6066 35.3918 26.672C35.7012 26.6892 35.9936 26.7055 36.2526 26.7055C36.8379 26.7055 37.1437 27.1537 37.1437 27.5964C37.1437 28.0391 36.8377 28.4882 36.2526 28.4882L34.249 28.4874C33.6311 28.4828 33.2933 28.4809 32.8558 28.8913C32.2879 29.4233 31.7653 29.6537 31.0518 29.6862C30.2762 29.7219 29.4863 29.7098 28.7223 29.6983C28.3391 29.6925 27.9565 29.6866 27.5753 29.6866H22.9437C22.8252 29.6866 22.7058 29.6888 22.5862 29.6908C22.3408 29.6949 22.0875 29.6995 21.835 29.6862C21.042 29.6434 20.6457 29.3188 20.1867 28.9424C20.1044 28.8749 20.0185 28.8045 19.926 28.732C19.5509 28.4397 19.0808 28.4575 18.5351 28.4777C18.3964 28.4829 18.2574 28.4882 18.1192 28.4882H4.63078C4.36125 28.4882 4.0743 28.4735 3.79687 28.4593C3.23775 28.4306 2.66 28.4012 2.16249 28.4838C2.10088 28.4941 2.04819 28.4892 2.01354 28.486C2.01314 28.486 2.01273 28.486 2.01232 28.486C1.95903 28.4991 1.9185 28.5106 1.8879 28.5203C1.90147 28.5692 1.91688 28.6298 1.92721 28.6996C2.01293 29.2764 2.39108 30.1965 2.69222 30.718C2.85819 31.0052 2.99964 31.0177 3.46614 31.0098C3.52187 31.009 3.57963 31.0082 3.63921 31.0082H36.2522C36.8375 31.0082 37.1433 31.4565 37.1433 31.8992C37.1433 32.3419 36.8373 32.791 36.2522 32.791L36.1608 32.7906C36.1055 32.79 36.0491 32.7896 35.993 32.791C34.2895 32.8316 32.5704 32.845 30.8582 32.845ZM3.83578 32.1965H20.6301C22.335 32.1965 24.0703 32.2102 25.7482 32.2236C29.1043 32.2504 32.5743 32.2779 35.9778 32.1965C36.0404 32.1951 36.1031 32.1953 36.1657 32.1961L36.2522 32.1965C36.5217 32.1965 36.5353 31.9487 36.5353 31.899C36.5353 31.8493 36.5217 31.6023 36.2522 31.6023H3.639C3.58246 31.6023 3.52775 31.6031 3.47465 31.6038C3.00146 31.6096 2.51287 31.6169 2.16229 31.01C1.83156 30.4371 1.42585 29.4626 1.32514 28.7849C1.31683 28.7293 1.30264 28.6825 1.29089 28.6423C1.25806 28.529 1.21307 28.3741 1.30953 28.2125C1.40863 28.0459 1.59871 27.9726 1.89357 27.9025C1.96774 27.8846 2.03259 27.891 2.0713 27.8945C2.07474 27.8949 2.07677 27.8951 2.07798 27.8953C2.6371 27.805 3.24262 27.8359 3.82848 27.866C4.11057 27.8805 4.37685 27.8941 4.63057 27.8941H18.1184C18.2489 27.8941 18.38 27.8892 18.5109 27.8842C19.0925 27.8621 19.7526 27.8375 20.3046 28.2679C20.4013 28.3434 20.4908 28.4169 20.5768 28.4872C20.9985 28.8329 21.2769 29.0611 21.8678 29.0929C22.0981 29.1052 22.34 29.1011 22.5745 29.0971C22.6977 29.0947 22.8207 29.0927 22.9429 29.0927H27.5745C27.9587 29.0927 28.3448 29.0985 28.731 29.1046C29.4857 29.1161 30.2659 29.1278 31.0226 29.0931C31.5819 29.0674 31.9777 28.8909 32.4345 28.4626C33.0503 27.8852 33.5796 27.8882 34.2527 27.8936L36.252 27.8943C36.5215 27.8943 36.5351 27.6465 36.5351 27.5968C36.5351 27.5471 36.5215 27.3001 36.252 27.3001C35.9756 27.3001 35.6749 27.2833 35.3567 27.2656C34.2928 27.206 33.0874 27.1393 32.3893 27.678C32.289 27.7557 32.1974 27.8381 32.1086 27.9177C31.8229 28.1748 31.5274 28.4405 30.9902 28.4967C30.6465 28.533 30.2953 28.5207 29.9552 28.5094C29.7941 28.5038 29.6338 28.4983 29.477 28.4983H24.4103C24.2119 28.4983 23.9681 28.5155 23.7101 28.5338C22.8345 28.595 21.7452 28.6718 21.0868 28.1849C20.9395 28.0758 20.8139 27.9714 20.6927 27.8702C20.3032 27.5457 20.046 27.3314 19.4766 27.2993C19.3406 27.292 19.201 27.2944 19.053 27.2969C18.9766 27.2985 18.9004 27.2999 18.8246 27.2999H5.17591C4.984 27.2999 4.74548 27.2892 4.46947 27.2769C3.30078 27.2248 1.34581 27.1373 0.771088 27.8557C0.586879 28.0859 0.55871 28.3997 0.684962 28.8146C0.824385 29.2728 1.01103 29.7367 1.19159 30.1852C1.28481 30.4165 1.37762 30.6475 1.46496 30.8785C1.70166 31.5052 1.88263 31.8996 2.39858 32.0889C2.73944 32.2145 3.15386 32.2066 3.55429 32.2003C3.64934 32.1985 3.74337 32.1969 3.83578 32.1969V32.1965Z" fill="black"/>
<path d="M48.3677 4.32861C48.2899 2.44801 46.9929 0.856618 45.0914 0.432721C44.1327 0.21899 43.0743 0.321398 42.0977 0.321398H10.7265C9.26298 0.321398 7.76174 0.182146 6.47167 1.003C5.25759 1.77552 4.62045 3.02384 4.57952 4.41815C4.52804 6.17157 4.57952 7.93411 4.57952 9.68814V24.7743C4.57952 25.0956 4.85796 25.3686 5.18747 25.3686H36.253C37.0355 25.3686 37.0367 24.1801 36.253 24.1801H5.18747L5.79542 24.7743V5.64745C5.79542 5.21285 5.77556 4.77311 5.79542 4.33891C5.88601 2.36125 7.54734 1.50989 9.36816 1.50989H42.6343C43.3292 1.50989 44.0835 1.43859 44.7684 1.57883C46.1333 1.85812 47.0959 2.97472 47.152 4.32881C47.1836 5.09103 48.3997 5.09499 48.3679 4.32881L48.3677 4.32861Z" fill="#010101"/>
<path d="M36.2524 25.6654H5.18681C4.69254 25.6654 4.27488 25.2572 4.27488 24.7741V9.6879C4.27488 9.10454 4.2692 8.52 4.26333 7.93546C4.25198 6.77965 4.24043 5.58441 4.27508 4.40939C4.32047 2.85582 5.0413 1.55779 6.30524 0.75377C7.50939 -0.0124138 8.86451 0.00363094 10.1724 0.0196756C10.3572 0.0218545 10.5419 0.0240335 10.7259 0.0240335H42.097C42.3311 0.0240335 42.57 0.018091 42.811 0.0119504C43.5897 -0.00726362 44.3947 -0.02727 45.1585 0.142685C47.1742 0.592531 48.5859 2.2695 48.6708 4.31629C48.6937 4.87211 48.2627 5.18033 47.8249 5.19776C47.8118 5.19815 47.7984 5.19855 47.7854 5.19855C47.3408 5.19855 46.8709 4.90479 46.8474 4.34026C46.7967 3.11412 45.9358 2.12094 44.7053 1.86898C44.2263 1.77112 43.6899 1.78439 43.1709 1.79747C42.9893 1.80202 42.8095 1.80658 42.6336 1.80658H9.36729C6.44243 1.80658 6.12589 3.75472 6.09833 4.35194C6.08556 4.63282 6.09002 4.9248 6.09407 5.20707C6.09651 5.35404 6.09853 5.50082 6.09853 5.64721V23.8827H36.2522C36.8372 23.8827 37.1432 24.331 37.1432 24.7737C37.1432 25.2164 36.8372 25.6654 36.2524 25.6654ZM6.09874 25.0712H36.2524C36.5219 25.0712 36.5355 24.8234 36.5355 24.7737C36.5355 24.724 36.5219 24.477 36.2524 24.477H6.09874V25.0712ZM4.88283 24.303V24.7743C4.88283 24.9325 5.02489 25.0714 5.18681 25.0714H5.66891L4.88283 24.303ZM4.88283 23.8827H5.49078V5.6474C5.49078 5.50399 5.48855 5.36018 5.48653 5.21618C5.48207 4.925 5.47741 4.62391 5.49119 4.3254C5.56009 2.82057 6.61448 1.21253 9.36729 1.21253H42.6334C42.8045 1.21253 42.979 1.20817 43.1551 1.20362C43.7087 1.18995 44.2812 1.17509 44.8298 1.2878C46.3377 1.59641 47.3927 2.81343 47.4549 4.31649C47.4648 4.55399 47.6813 4.60787 47.8002 4.6041C47.9024 4.59994 48.0724 4.56033 48.0633 4.34045C47.9897 2.56544 46.7679 1.11131 45.0231 0.722275C44.3337 0.568365 43.5677 0.587777 42.8264 0.606001C42.5801 0.612141 42.3361 0.618282 42.0968 0.618282H10.7259C10.5392 0.618282 10.3522 0.615905 10.1647 0.613924C8.89066 0.598672 7.6863 0.584211 6.63677 1.25195C5.54509 1.94643 4.92214 3.07391 4.88263 4.42662C4.84838 5.59036 4.86013 6.77965 4.87128 7.93011C4.87695 8.51663 4.88283 9.10276 4.88283 9.6881V23.8827Z" fill="black"/>
<path d="M47.2416 36.4855H42.7659C41.1096 36.4855 38.7755 36.7737 38.6355 34.5039C38.5104 32.4765 38.6355 30.4045 38.6355 28.3744C38.6355 21.9589 38.5359 15.5353 38.6355 9.12035C38.6586 7.62621 39.6568 6.86418 41.1281 6.86418H52.5255C53.2364 6.86418 53.9613 6.79723 54.5802 7.22192C55.542 7.88193 55.4393 8.92286 55.4393 9.91149V33.7898C55.4393 35.1088 55.0591 36.39 53.4071 36.4855C51.8769 36.5738 50.3154 36.4855 48.7828 36.4855H47.2416C46.4592 36.4855 46.4578 37.674 47.2414 37.674H52.2151C52.8326 37.674 53.4997 37.731 54.1076 37.6005C55.3266 37.3386 56.3123 36.3767 56.58 35.1849C56.7449 34.4506 56.6552 33.6172 56.6552 32.8734V15.9388C56.6552 13.582 56.7488 11.2046 56.6552 8.84917C56.5707 6.72156 54.8652 5.67608 52.8599 5.67608H43.3489C41.6993 5.67608 39.6515 5.34925 38.3684 6.60291C37.4568 7.49349 37.4195 8.59444 37.4195 9.74768V25.9453C37.4195 28.7339 37.3808 31.5253 37.4195 34.3137C37.4451 36.1565 38.727 37.5983 40.6589 37.6744C42.2984 37.739 43.9534 37.6744 45.5943 37.6744H47.2414C48.0239 37.6744 48.0251 36.4859 47.2414 36.4859L47.2416 36.4855Z" fill="#010101"/>
<path d="M42.3049 37.9997C41.7517 37.9997 41.1962 37.9925 40.6458 37.9707C38.5956 37.8901 37.1436 36.3877 37.1149 34.3173C37.0889 32.4557 37.0978 30.563 37.1061 28.7326C37.1104 27.8034 37.1149 26.874 37.1149 25.9449V9.74732C37.1149 8.70422 37.1149 7.40638 38.1526 6.39239C39.3136 5.25797 41.0064 5.31284 42.4985 5.35999C42.7956 5.36969 43.076 5.37861 43.348 5.37861H52.8592C55.2657 5.37861 56.8745 6.73627 56.9582 8.83713C57.021 10.416 56.9998 12.0259 56.9793 13.5824C56.969 14.3557 56.9584 15.1554 56.9584 15.9386V32.8733C56.9584 33.0617 56.9643 33.2562 56.9704 33.4531C56.9884 34.0501 57.0071 34.6671 56.8764 35.2483C56.5853 36.544 55.4987 37.6057 54.1724 37.8905C53.6696 37.9989 53.1476 37.9882 52.6428 37.9771C52.4983 37.9741 52.355 37.9711 52.2146 37.9711H45.5936C45.0486 37.9711 44.5017 37.9783 43.9545 37.9854C43.4114 37.9925 42.8592 37.9997 42.3047 37.9997H42.3049ZM41.5476 5.93423C40.4252 5.93423 39.3469 6.06615 38.5827 6.81273C37.7846 7.59258 37.723 8.52079 37.723 9.74732V25.9447C37.723 26.8745 37.7188 27.8049 37.7143 28.7351C37.706 30.563 37.6971 32.453 37.723 34.3092C37.7471 36.0482 38.9592 37.3095 40.6706 37.3769C41.7558 37.4197 42.8701 37.4052 43.9466 37.391C44.4966 37.3838 45.046 37.3767 45.5938 37.3767H46.3967C46.3657 37.281 46.3499 37.1804 46.3499 37.08C46.3499 36.9795 46.3657 36.8783 46.3969 36.7824H42.7654C42.603 36.7824 42.4342 36.7854 42.2616 36.788C40.6661 36.8145 38.4753 36.8508 38.3316 34.5215C38.2473 33.1567 38.2758 31.7579 38.3032 30.405C38.3168 29.7372 38.331 29.0467 38.331 28.3744C38.331 26.2369 38.3196 24.0622 38.3089 21.9591C38.2872 17.7491 38.2647 13.3958 38.331 9.11603C38.3557 7.51988 39.4012 6.5671 41.1275 6.5671H52.525C52.6089 6.5671 52.6932 6.56611 52.7773 6.56512C53.4414 6.5574 54.1292 6.54987 54.7544 6.97892C55.7624 7.67042 55.7529 8.72363 55.7443 9.65264C55.7435 9.7392 55.7427 9.82537 55.7427 9.91153V33.7898C55.7427 35.6865 54.9627 36.6931 53.4248 36.7819C52.3917 36.8417 51.3351 36.8213 50.3135 36.8021C49.8101 36.7924 49.2893 36.7824 48.7823 36.7824H48.0854C48.1164 36.8781 48.1322 36.9787 48.1322 37.0792C48.1322 37.1824 48.116 37.2826 48.0852 37.3767H52.2148C52.3597 37.3767 52.507 37.3799 52.6559 37.3828C53.1249 37.3929 53.6102 37.403 54.0421 37.3101C55.1413 37.0742 56.0416 36.1943 56.283 35.1209C56.3973 34.6113 56.3801 34.0313 56.363 33.4705C56.357 33.2677 56.3509 33.0674 56.3509 32.8731V15.9384C56.3509 15.1514 56.3614 14.3498 56.3717 13.5745C56.3922 12.0255 56.4133 10.4236 56.3511 8.86011C56.2666 6.73112 54.4922 5.97266 52.8596 5.97266H43.3484C43.0663 5.97266 42.781 5.96355 42.479 5.95384C42.169 5.94393 41.8567 5.93383 41.5476 5.93383V5.93423ZM47.2407 36.1884H48.7821C49.295 36.1884 49.8186 36.1985 50.3251 36.2082C51.3351 36.2276 52.3791 36.2474 53.3883 36.189C54.5797 36.1201 55.1344 35.3578 55.1344 33.79V9.91153C55.1344 9.82378 55.1352 9.73564 55.136 9.64729C55.1441 8.75136 55.1512 7.97745 54.4048 7.46521C53.9401 7.1463 53.3784 7.15244 52.7842 7.15937C52.6977 7.16036 52.6112 7.16135 52.5248 7.16135H41.1273C40.3212 7.16135 38.9653 7.41648 38.9387 9.12495C38.8724 13.3988 38.8947 17.7491 38.9166 21.9562C38.9276 24.0598 38.9387 26.2355 38.9387 28.3742C38.9387 29.0525 38.9247 29.746 38.911 30.4167C38.8836 31.7579 38.8554 33.1447 38.9381 34.4859C39.0388 36.1205 40.3771 36.225 42.251 36.1939C42.4273 36.191 42.5996 36.1882 42.7652 36.1882H47.2407V36.1884Z" fill="black"/>
<path d="M38.0287 33.562H56.0478C56.8302 33.562 56.8314 32.3735 56.0478 32.3735H38.0287C37.2463 32.3735 37.245 33.562 38.0287 33.562Z" fill="#010101"/>
<path d="M56.0469 33.8594H38.0278C37.4427 33.8594 37.1367 33.4111 37.1367 32.9684C37.1367 32.5257 37.4429 32.0767 38.0278 32.0767H56.0469C56.6321 32.0767 56.9381 32.5249 56.9381 32.9676C56.9381 33.4104 56.6319 33.8594 56.0469 33.8594ZM38.0278 32.6709C37.7582 32.6709 37.7447 32.9187 37.7447 32.9684C37.7447 33.0181 37.7582 33.2652 38.0278 33.2652H56.0469C56.3166 33.2652 56.3302 33.0174 56.3302 32.9676C56.3302 32.9179 56.3166 32.6709 56.0469 32.6709H38.0278Z" fill="black"/>
<path d="M56.0478 9.78711H38.0287C37.2463 9.78711 37.245 10.9756 38.0287 10.9756H56.0478C56.8302 10.9756 56.8314 9.78711 56.0478 9.78711Z" fill="#010101"/>
<path d="M56.0469 11.2725H38.0278C37.4427 11.2725 37.1367 10.8242 37.1367 10.3815C37.1367 9.9388 37.4429 9.48975 38.0278 9.48975H56.0469C56.6321 9.48975 56.9381 9.93801 56.9381 10.3807C56.9381 10.8234 56.6319 11.2725 56.0469 11.2725ZM38.0278 10.084C37.7582 10.084 37.7447 10.3318 37.7447 10.3815C37.7447 10.4312 37.7582 10.6782 38.0278 10.6782H56.0469C56.3166 10.6782 56.3302 10.4304 56.3302 10.3807C56.3302 10.331 56.3166 10.084 56.0469 10.084H38.0278Z" fill="black"/>
<path d="M48.2111 35.9102H45.862C45.2767 35.9102 44.9707 35.4619 44.9707 35.0192C44.9707 34.5765 45.2769 34.1274 45.862 34.1274H48.2111C48.48 34.1274 48.7183 34.2302 48.8823 34.4164C49.0241 34.5779 49.1023 34.7918 49.1023 35.0184C49.1023 35.4615 48.7961 35.9102 48.2113 35.9102H48.2111ZM45.862 34.7217C45.5922 34.7217 45.5787 34.9695 45.5787 35.0192C45.5787 35.0689 45.5922 35.3159 45.862 35.3159H48.2111C48.4806 35.3159 48.4942 35.0681 48.4942 35.0184C48.4942 34.9687 48.4806 34.7217 48.2111 34.7217H45.862Z" fill="black"/>
<path d="M29.3271 10.2305C26.5379 9.38764 23.7488 8.54479 20.9595 7.70175C20.5643 7.58231 20.1693 7.46287 19.7742 7.34362C19.5172 7.26597 19.3032 7.51397 19.3583 7.75009C20.0062 10.5326 20.6539 13.315 21.3018 16.0977C21.3936 16.4919 21.4854 16.8861 21.5772 17.2802C21.6359 17.5328 21.9642 17.5873 22.1424 17.426C23.0403 16.6127 23.9382 15.7994 24.8362 14.986H24.3579C25.4597 16.1482 26.5616 17.3104 27.6632 18.4725C27.7906 18.607 28.0113 18.5902 28.1414 18.4725C28.7903 17.8848 29.439 17.2971 30.0879 16.7096C30.2255 16.585 30.2083 16.3693 30.0879 16.2421C28.9861 15.0799 27.8843 13.9178 26.7827 12.7556V13.2231C27.6806 12.4098 28.5785 11.5965 29.4765 10.7831C29.7965 10.4933 29.3174 10.0268 28.9982 10.3157C28.1003 11.129 27.2023 11.9423 26.3044 12.7556C26.1668 12.8802 26.1838 13.0959 26.3044 13.2231C27.4062 14.3853 28.508 15.5474 29.6096 16.7096V16.2421C28.9607 16.8298 28.3121 17.4175 27.6632 18.005H28.1414C27.0396 16.8429 25.9378 15.6807 24.8362 14.5186C24.7087 14.3841 24.488 14.4007 24.3579 14.5186C23.46 15.3319 22.562 16.1452 21.6641 16.9586C21.8526 17.0071 22.0408 17.0558 22.2293 17.1043C21.5814 14.3219 20.9337 11.5394 20.2859 8.75674C20.1941 8.36256 20.1023 7.96837 20.0107 7.57419C19.8721 7.70968 19.7334 7.84517 19.5948 7.98065C22.3841 8.8235 25.1732 9.66634 27.9625 10.5094C28.3577 10.6288 28.7526 10.7483 29.1478 10.8675C29.5644 10.9935 29.7428 10.3557 29.3275 10.2301L29.3271 10.2305Z" fill="#5DA9A2"/>
<path d="M27.8918 18.8647C27.7163 18.8647 27.5565 18.7975 27.4399 18.6747L27.0871 18.3025H26.8877L26.9951 18.2053L24.5623 15.6391L22.6108 17.4066L22.6365 17.5173L22.5216 17.4878L22.3485 17.6445C22.1763 17.8004 21.9276 17.8551 21.6998 17.7861C21.4863 17.7216 21.3296 17.5573 21.2806 17.3466L21.2362 17.1562L21.0516 17.1087L21.1948 16.9789L19.1406 8.15555L19.0234 8.12009L19.1122 8.03333L19.0617 7.81683C19.0095 7.59121 19.0854 7.35292 19.2601 7.19504C19.4247 7.04628 19.6506 6.99577 19.864 7.06035L20.0493 7.11621L20.1844 6.98389L20.2278 7.17009L29.4168 9.94701C29.5937 10.0007 29.7295 10.1138 29.8041 10.2659C29.9437 10.5074 29.9017 10.8027 29.6829 11.001L29.6812 11.0026C29.6729 11.0111 29.6644 11.0192 29.6557 11.0272C29.6468 11.0353 29.6377 11.043 29.6284 11.0503L27.4503 13.0232L29.8831 15.5894L29.9133 15.5619V15.6213L30.3107 16.0404C30.5559 16.2995 30.5486 16.6973 30.2943 16.9276L29.9133 17.2725V17.4674L29.814 17.3626L28.809 18.2728L28.8372 18.3023H28.7764L28.3478 18.6906C28.2303 18.7969 28.0702 18.8603 27.9087 18.8643C27.9032 18.8643 27.8975 18.8643 27.892 18.8643L27.8918 18.8647ZM28.3496 17.7883L28.3958 17.8368L29.4008 16.9267L29.3546 16.8781L28.3496 17.7883ZM25.0079 15.235L27.4407 17.8012L27.4904 17.7562L25.0576 15.1899L25.0079 15.235ZM25.5036 14.7862L27.9364 17.3525L28.9414 16.4423L26.5085 13.8762L26.4784 13.9035V13.8443L26.081 13.4251C25.8357 13.1661 25.843 12.7683 26.0974 12.5379L26.4784 12.1931V11.9982L26.5777 12.1029L27.9851 10.8281L20.5567 8.58321L22.2821 15.9939L23.6897 14.7186L23.6615 14.6891H23.7225L24.1509 14.3009C24.2684 14.1945 24.4285 14.1311 24.5901 14.1271C24.7724 14.1283 24.9386 14.1901 25.0586 14.3169L25.4114 14.6891H25.6106L25.5036 14.7862ZM22.4377 16.6628L22.4549 16.7375L24.1489 15.2031L24.1027 15.1546L22.4377 16.6628ZM19.8111 8.35779L21.7096 16.5123L21.7669 16.4602L19.8859 8.38037L19.8111 8.35779ZM26.9544 13.4723L29.3872 16.0383L29.4371 15.9931L27.0042 13.4271L26.9544 13.4723ZM26.9909 12.5387L27.0371 12.5873L28.7306 11.0533L28.6558 11.0307L26.9909 12.5387ZM29.1706 10.5642L29.2368 10.5844C29.2397 10.589 29.2595 10.563 29.2587 10.5405C29.2516 10.5335 29.2419 10.527 29.231 10.5234C29.2235 10.5211 29.2194 10.5195 29.2042 10.5337L29.1704 10.5642H29.1706ZM20.4009 7.91389L28.5 10.3614L28.5578 10.3091L20.3832 7.83881L20.4009 7.91389Z" fill="#5DA9A2"/>
<path d="M51.4482 19.8965C49.0259 19.1646 46.6036 18.4325 44.1814 17.7006C43.8383 17.5968 43.4952 17.4932 43.1519 17.3896C42.9288 17.322 42.7429 17.5376 42.7908 17.7426C43.3533 20.159 43.9159 22.5756 44.4784 24.992C44.5581 25.3343 44.6377 25.6766 44.7176 26.0189C44.7686 26.2381 45.0538 26.2855 45.2084 26.1454C45.9882 25.4391 46.768 24.7327 47.548 24.0264H47.1328C48.0897 25.0356 49.0464 26.045 50.0033 27.0542C50.114 27.1711 50.3057 27.1565 50.4185 27.0542C50.9819 26.5438 51.5455 26.0335 52.1089 25.5231C52.2284 25.4149 52.2134 25.2275 52.1089 25.1172C51.1519 24.108 50.1952 23.0985 49.2383 22.0893V22.4952C50.0181 21.7888 50.7979 21.0824 51.5779 20.3761C51.8557 20.1245 51.4397 19.7192 51.1627 19.9702C50.3829 20.6766 49.6031 21.3829 48.8231 22.0893C48.7035 22.1975 48.7185 22.3848 48.8231 22.4952C49.78 23.5044 50.7367 24.5138 51.6936 25.5231V25.1172C51.1303 25.6275 50.5667 26.1379 50.0033 26.6484H50.4185C49.4616 25.6391 48.5049 24.6297 47.548 23.6205C47.4373 23.5036 47.2456 23.5183 47.1328 23.6205C46.353 24.3268 45.5732 25.0332 44.7932 25.7396C44.9567 25.7818 45.1202 25.824 45.284 25.8661C44.7214 23.4497 44.1589 21.0331 43.5963 18.6167C43.5167 18.2744 43.437 17.9321 43.3572 17.5899C43.2368 17.7075 43.1164 17.8252 42.9961 17.9428C45.4183 18.6748 47.8406 19.4069 50.2629 20.1388C50.606 20.2426 50.9491 20.3462 51.2924 20.4498C51.6543 20.5591 51.8089 20.0053 51.4484 19.8963L51.4482 19.8965Z" fill="#5DA9A2"/>
<path d="M50.2033 27.4338C50.0414 27.4338 49.888 27.3696 49.7808 27.2563L49.4863 26.9459H49.2286L49.3674 26.8203L47.3091 24.649L45.6605 26.1419L45.6925 26.2796L45.5494 26.2423L45.4157 26.3636C45.2558 26.5084 45.0248 26.5591 44.813 26.4951C44.6138 26.4347 44.4677 26.2814 44.4219 26.0845L44.3889 25.9426L44.1815 25.8892L44.3425 25.7434L42.5687 18.1247L42.4258 18.0815L42.534 17.9756L42.4951 17.8084C42.4465 17.5992 42.5168 17.3781 42.6787 17.2316C42.8323 17.0923 43.0429 17.0452 43.2425 17.1054L43.3813 17.1474L43.5323 17L43.5805 17.2078L51.5388 19.6129C51.7046 19.6628 51.8314 19.7694 51.9005 19.913C51.9275 19.9605 51.9477 20.0117 51.9603 20.0649C52.0057 20.2595 51.9417 20.4526 51.7852 20.5946L51.7836 20.596C51.7765 20.6031 51.7692 20.6103 51.7615 20.617C51.754 20.6239 51.7461 20.6307 51.7382 20.6372L49.876 22.3241L51.9342 24.4955L51.9984 24.4374V24.5634L52.3326 24.9158C52.4434 25.0327 52.5036 25.1915 52.4971 25.3514C52.4912 25.5027 52.4268 25.6412 52.3157 25.7416L51.9982 26.0294V26.2812L51.8697 26.1457L51.0555 26.8829L51.115 26.9457H50.9862L50.6256 27.2724C50.5148 27.3728 50.3699 27.43 50.2179 27.4334C50.213 27.4334 50.2082 27.4334 50.2033 27.4334V27.4338ZM48.1849 23.8551L50.2434 26.0264L51.0575 25.2892L48.9992 23.1178L48.9351 23.1758V23.05L48.6008 22.6975C48.4982 22.5893 48.4394 22.4479 48.436 22.2991C48.4317 22.1357 48.498 21.98 48.6174 21.8718L48.9353 21.5836V21.3319L49.0638 21.4676L50.2062 20.433L50.1739 20.4231L43.8873 18.5233L45.3547 24.827L46.4972 23.7923L46.4379 23.7295H46.5667L46.9273 23.4028C47.0468 23.2947 47.2112 23.2337 47.3729 23.242C47.5277 23.2477 47.6694 23.3107 47.7721 23.4193L48.0666 23.7297H48.3241L48.1853 23.8552L48.1849 23.8551Z" fill="#5DA9A2"/>
</g>
<defs>
<clipPath id="clip0_2455_155">
<rect width="57" height="38" fill="white"/>
</clipPath>
</defs>
</svg>
