<svg width="60" height="50" viewBox="0 0 60 50" fill="none" xmlns="http://www.w3.org/2000/svg">
<g clip-path="url(#clip0_2455_945)">
<path d="M5.76356 32.2564C4.83442 32.4328 3.25654 33.6647 2.25219 33.8172C1.1647 33.9823 0.244445 33.2973 0.138877 32.2022C-0.0496619 30.2484 -0.0433665 26.0655 0.14033 24.1067C0.242508 23.0175 1.03944 22.3867 2.1379 22.4807C3.22458 22.5737 4.74564 23.8091 5.79035 24.0241C6.14887 24.098 9.35629 24.1181 9.6131 24.034L9.79486 23.8534C9.7077 21.9858 11.3282 20.2116 13.1945 20.0676C6.02393 14.3937 11.5571 2.94262 20.5362 5.31544C22.6045 5.86194 23.4533 6.8179 24.8631 8.23444C24.9624 8.33423 24.9684 8.40822 25.1559 8.36308C25.9446 4.08414 30.077 0.450021 34.4156 0.052965C44.5904 -0.878496 50.401 10.685 43.7057 18.2605L41.7102 19.9481H43.8246C45.4178 19.9481 47.6308 21.7519 47.6308 23.3872V25.9817L56.3337 21.3392C57.9731 20.7548 59.6846 21.8922 59.8393 23.6239C60.3505 29.3456 59.4412 35.8143 59.8409 41.615C59.4753 43.6851 57.6714 44.4192 55.8038 43.5826C53.4441 42.5253 50.9328 40.8978 48.6001 39.6752C48.3016 39.5188 47.9613 39.3126 47.6308 39.2556V46.5562C47.6308 48.063 45.7323 49.9719 44.1922 50.0004L13.1355 49.994C11.673 49.8693 10.0218 48.3656 9.82182 46.9076C9.70786 46.0777 9.6922 43.1481 9.81875 42.3403C9.97339 41.3537 11.3445 41.5188 11.5001 42.3353C11.8781 44.3193 10.4417 47.8504 13.5275 48.2747L43.587 48.3101C44.7901 48.2068 45.5641 47.649 45.8211 46.4384L45.7354 23.2286C45.5383 22.4711 44.7656 21.9645 44.0374 21.7869L13.6123 21.7534C12.3848 21.8354 11.6249 22.6784 11.504 23.8713L11.4954 38.2225C11.3096 39.424 9.81101 38.8548 9.81101 38.4711V32.4376L9.62973 32.2566C8.49091 32.4068 6.83135 32.0538 5.76324 32.2566L5.76356 32.2564ZM35.1607 1.76338C27.6252 2.22138 23.8349 11.138 28.7848 16.8676C32.8702 21.5965 40.5443 20.8137 43.6201 15.3993C47.1714 9.14801 42.3294 1.32764 35.1609 1.76322L35.1607 1.76338ZM17.3966 6.82822C12.4028 7.40132 9.94402 13.5825 13.0764 17.4715C15.9296 21.0139 21.5672 20.7864 23.9244 16.847C26.8195 12.0086 22.949 6.19113 17.3966 6.82822ZM23.5858 19.948H29.6273L27.9299 18.5659L26.1835 16.206C25.6894 17.7041 24.6649 18.8492 23.5858 19.948ZM47.6505 27.9313L47.6897 37.2053L56.7261 42.057C57.5579 42.3953 58.165 41.8639 58.1476 41.0097C57.7628 35.5729 58.6436 29.4636 58.1476 24.1065C58.068 23.2466 57.7347 22.7996 56.8083 23.0193L47.6505 27.9313ZM4.59536 25.398L1.95808 24.2927L1.83734 32.0146L4.60166 30.9158L4.5952 25.398H4.59536ZM9.81133 25.7402H6.42812V30.5671H9.63005L9.81133 30.3861V25.7402Z" fill="black"/>
<path d="M17.5168 39.4097L39.8214 39.3911C43.7789 39.8169 43.858 45.2499 39.956 45.7701L17.2518 45.7613C13.5029 45.0016 13.6258 39.8775 17.5168 39.4097ZM17.3899 41.2136C16.061 41.5852 15.9296 43.1927 17.0912 43.8701L40.2536 43.8954C41.3897 43.2904 41.3666 41.8711 40.208 41.2977L17.3899 41.2137V41.2136Z" fill="#5DA9A2"/>
<path d="M16.3044 24.3212C21.1593 24.5894 26.5954 23.8651 31.3839 24.2873C32.6031 24.3949 33.3736 25.346 33.4921 26.526C33.6916 28.5118 33.6708 32.6073 33.4977 34.6138C33.3915 35.8469 32.6811 36.8532 31.3839 36.9675C26.6127 37.3882 21.2298 36.6404 16.3935 36.9652C15.4187 36.7779 14.6318 35.9756 14.523 34.9717C14.7428 32.2059 14.2293 28.9936 14.523 26.2828C14.6295 25.3 15.3557 24.5436 16.3042 24.321L16.3044 24.3212ZM31.5316 26.1309L16.5259 26.1111L16.3289 26.5178L16.3948 35.0333L16.6921 35.219L31.4798 35.1623C31.6674 35.0438 31.6692 34.6969 31.686 34.4941C31.8545 32.4656 31.8514 28.7916 31.686 26.7607C31.668 26.5404 31.6677 26.3182 31.5316 26.1309Z" fill="#5DA9A2"/>
<path d="M39.5038 24.3214C43.4528 23.6893 43.9482 29.3246 40.5311 29.811C36.7247 30.3528 36.1119 24.8641 39.5038 24.3214ZM39.9866 26.0068C38.7056 26.1314 38.674 28.2663 40.3109 28.0275C41.4824 27.8567 41.2454 25.8844 39.9866 26.0068Z" fill="#5DA9A2"/>
<path d="M39.3822 31.9232C44.0739 31.131 43.7341 38.0422 39.6237 37.4159C36.5273 36.944 36.5919 32.3944 39.3822 31.9232ZM40.8251 35.356C41.9438 34.135 39.6987 32.8157 39.1149 34.1895C38.6258 35.3402 40.1047 36.1423 40.8251 35.356Z" fill="#5DA9A2"/>
<path d="M35.0375 5.74252C41.363 5.00999 43.119 14.1181 37.1719 15.8385C29.9555 17.926 27.8129 6.57919 35.0375 5.74252ZM34.9117 7.5474C31.4488 8.1342 31.4123 13.6785 35.0328 14.2474C40.3214 15.0782 40.4192 6.61417 34.9117 7.5474Z" fill="black"/>
<path d="M17.5162 9.3607C24.2613 8.38104 23.6139 18.8555 17.2996 17.3578C12.9469 16.3252 13.3768 9.96201 17.5162 9.3607ZM18.1238 11.0442C15.0783 11.3442 15.4336 15.78 18.3298 15.7339C21.5562 15.6825 21.1298 10.7481 18.1238 11.0442Z" fill="black"/>
</g>
<defs>
<clipPath id="clip0_2455_945">
<rect width="60" height="50" fill="white"/>
</clipPath>
</defs>
</svg>
