<svg width="49" height="37" viewBox="0 0 49 37" fill="none" xmlns="http://www.w3.org/2000/svg">
<path d="M6.43433 29.4684C12.9456 29.4684 19.4568 29.4684 25.9681 29.4684H28.728C29.5096 29.4684 29.5108 28.2588 28.728 28.2588C22.2167 28.2588 15.7054 28.2588 9.19418 28.2588H6.43433C5.65271 28.2588 5.65149 29.4684 6.43433 29.4684Z" fill="#333333"/>
<path d="M28.7285 29.8719H6.43491C5.8697 29.8719 5.44336 29.4389 5.44336 28.8643C5.44336 28.2898 5.86949 27.856 6.43491 27.856H28.7285C29.2938 27.856 29.7201 28.289 29.7201 28.8635C29.7201 29.4381 29.294 29.8719 28.7285 29.8719ZM6.43491 28.6623C6.2847 28.6623 6.25312 28.7722 6.25312 28.8643C6.25312 28.9565 6.2847 29.0655 6.43491 29.0655H28.7285C28.8788 29.0655 28.9103 28.9557 28.9103 28.8635C28.9103 28.7714 28.8788 28.6623 28.7285 28.6623H6.43491Z" fill="#333333"/>
<path d="M6.43433 23.8058H26.7034C27.485 23.8058 27.4862 22.5962 26.7034 22.5962H6.43433C5.65271 22.5962 5.65149 23.8058 6.43433 23.8058Z" fill="#333333"/>
<path d="M26.704 24.2088H6.43491C5.8697 24.2088 5.44336 23.7758 5.44336 23.2013C5.44336 22.6267 5.86949 22.1929 6.43491 22.1929H26.704C27.2692 22.1929 27.6955 22.6259 27.6955 23.2005C27.6955 23.775 27.2694 24.2088 26.704 24.2088ZM6.43491 22.9993C6.2847 22.9993 6.25312 23.1091 6.25312 23.2013C6.25312 23.2934 6.2847 23.4024 6.43491 23.4024H26.704C26.8542 23.4024 26.8857 23.2926 26.8857 23.2005C26.8857 23.1083 26.8542 22.9993 26.704 22.9993H6.43491Z" fill="#333333"/>
<path d="M26.0867 15.6739H42.3065C43.0881 15.6739 43.0893 14.4644 42.3065 14.4644H26.0867C25.3051 14.4644 25.3038 15.6739 26.0867 15.6739Z" fill="#333333"/>
<path d="M42.3071 16.077H26.0873C25.522 16.077 25.0957 15.644 25.0957 15.0694C25.0957 14.4949 25.5218 14.061 26.0873 14.061H42.3071C42.8723 14.061 43.2987 14.4941 43.2987 15.0686C43.2987 15.6432 42.8725 16.077 42.3071 16.077ZM26.0875 14.8674C25.9372 14.8674 25.9057 14.9773 25.9057 15.0694C25.9057 15.1615 25.9372 15.2706 26.0875 15.2706H42.3073C42.4575 15.2706 42.4891 15.1607 42.4891 15.0686C42.4891 14.9765 42.4575 14.8674 42.3073 14.8674H26.0875Z" fill="#333333"/>
<path d="M26.0867 10.0108C29.994 10.0108 33.9012 10.0108 37.8085 10.0108C38.5901 10.0108 38.5913 8.80127 37.8085 8.80127C33.9012 8.80127 29.994 8.80127 26.0867 8.80127C25.3051 8.80127 25.3038 10.0108 26.0867 10.0108Z" fill="#333333"/>
<path d="M37.8091 10.4139H26.0873C25.522 10.4139 25.0957 9.98088 25.0957 9.40633C25.0957 8.83178 25.5218 8.39795 26.0873 8.39795H37.8091C38.3743 8.39795 38.8006 8.83098 38.8006 9.40553C38.8006 9.98008 38.3745 10.4139 37.8091 10.4139ZM26.0873 9.20434C25.937 9.20434 25.9055 9.3142 25.9055 9.40633C25.9055 9.49846 25.937 9.60753 26.0873 9.60753H37.8091C37.9593 9.60753 37.9909 9.49766 37.9909 9.40553C37.9909 9.3134 37.9593 9.20434 37.8091 9.20434H26.0873Z" fill="#333333"/>
<path d="M14.4218 11.3654H20.2053C20.5482 11.3654 20.7927 11.0876 20.8126 10.7606C21.0367 7.05101 18.1222 4.00045 14.4218 3.91275C14.0934 3.90489 13.8145 4.1962 13.8145 4.51754V10.7606C13.8145 11.5389 15.0291 11.5402 15.0291 10.7606V4.51754L14.4218 5.12233C17.4964 5.19531 19.782 7.71446 19.5979 10.7606L20.2053 10.1558H14.4218C13.6402 10.1558 13.6389 11.3654 14.4218 11.3654Z" fill="#5DA9A2"/>
<path d="M19.1305 11.7968L19.1321 11.7682H14.4224C14.1343 11.7682 13.8822 11.6555 13.7045 11.4694C13.5209 11.2926 13.4102 11.044 13.4102 10.7602V4.51695C13.4102 4.25004 13.5237 3.98655 13.7215 3.79403C13.9169 3.60412 14.1685 3.50171 14.4319 3.50917C14.7542 3.51663 15.072 3.54526 15.3839 3.59404L15.4346 3.54364V3.60211C16.9719 3.85329 18.3638 4.59598 19.4273 5.7479C20.6949 7.12097 21.3306 8.90954 21.2174 10.7844C21.1836 11.3452 20.7488 11.7682 20.2058 11.7682H19.159L19.1305 11.7968ZM19.969 10.962H20.206C20.3305 10.962 20.4024 10.8485 20.4091 10.7362C20.4135 10.662 20.4168 10.588 20.4186 10.514L19.969 10.962ZM15.4159 10.962H19.1809L19.1945 10.7362C19.1981 10.6769 19.2007 10.6177 19.2024 10.5588H15.4348V10.7604C15.4348 10.8295 15.4285 10.8971 15.4159 10.962ZM14.2796 10.9017C14.3689 10.9701 14.5118 10.9479 14.5764 10.8926C14.5973 10.8749 14.625 10.8416 14.625 10.7604V10.5588H14.4226C14.2723 10.5588 14.2408 10.6687 14.2408 10.7608C14.2408 10.809 14.2495 10.8622 14.2796 10.9017ZM14.2201 5.5205V9.77176C14.2851 9.75926 14.3527 9.75241 14.4226 9.75241H14.625V5.53441C14.5547 5.52997 14.4839 5.52675 14.4128 5.52493L14.2201 5.5205ZM19.9775 9.75241H20.3907C20.2621 8.4636 19.7248 7.26148 18.8315 6.29382C17.9229 5.30963 16.7419 4.66351 15.435 4.42119V4.8266C16.6237 5.05723 17.6932 5.64589 18.5147 6.53594C19.3398 7.42982 19.8429 8.54606 19.9777 9.75261L19.9775 9.75241ZM15.4348 9.75241H19.1617C19.0313 8.74967 18.6048 7.82474 17.9185 7.08146C17.2516 6.35934 16.3923 5.86845 15.4348 5.65093V9.75241ZM14.41 4.31535C14.3685 4.31535 14.324 4.33572 14.2875 4.37099C14.2454 4.41212 14.2201 4.46675 14.2201 4.51715V4.75342L14.6499 4.32543C14.5711 4.3208 14.4922 4.31737 14.4128 4.31535H14.41Z" fill="#5DA9A2"/>
<path d="M12.5418 4.84229C7.85044 4.93925 4.27698 9.32841 5.44911 13.9379C6.58742 18.415 11.7806 20.7015 15.8911 18.6115C18.1815 17.4471 19.5859 15.1826 19.8395 12.6693C19.9177 11.8953 18.7024 11.9008 18.6249 12.6693C18.1068 17.8003 11.5893 20.086 8.04276 16.2397C4.46424 12.3588 7.38382 6.15871 12.5418 6.05207C13.3224 6.03594 13.325 4.82616 12.5418 4.84229Z" fill="#5DA9A2"/>
<path d="M12.6158 19.7983C11.5137 19.7983 10.4036 19.5622 9.35411 19.0887C7.19145 18.113 5.62518 16.2716 5.05693 14.0365C4.48322 11.7798 4.97292 9.41509 6.40052 7.54871C7.87428 5.62225 10.1096 4.48867 12.5336 4.43848C12.5421 4.43848 12.5504 4.43848 12.5589 4.43848C13.1853 4.43848 13.5229 4.92412 13.5331 5.41078C13.5434 5.9067 13.2025 6.44093 12.5504 6.45464C10.2535 6.50202 8.25608 7.86239 7.33741 10.0046C6.44425 12.0872 6.81957 14.3161 8.34131 15.9664C9.84887 17.6013 12.1249 18.1726 14.2813 17.4582C16.4852 16.7276 17.9954 14.8769 18.2224 12.6281C18.2606 12.2487 18.4819 11.9417 18.8293 11.7857C19.1799 11.6284 19.5941 11.6611 19.8842 11.8691C20.147 12.0574 20.2775 12.3634 20.2427 12.7088C19.9668 15.4428 18.4088 17.7836 16.0757 18.97C14.9912 19.5213 13.8084 19.7979 12.6158 19.7979V19.7983ZM12.5506 5.24506C10.3748 5.29002 8.36803 6.30768 7.04488 8.03758C5.76749 9.7072 5.32921 11.8217 5.84219 13.8385C6.34971 15.8343 7.7516 17.4802 9.68854 18.3541C11.6477 19.2379 13.8418 19.2004 15.7077 18.2519C17.7948 17.1907 19.189 15.0886 19.4374 12.6281C19.4455 12.5481 19.4216 12.531 19.4117 12.5235C19.3635 12.4892 19.2572 12.4783 19.1625 12.5209C19.042 12.5749 19.0317 12.6757 19.0285 12.7088C18.7692 15.2779 17.0482 17.391 14.5374 18.2232C12.0741 19.0397 9.47153 18.3839 7.74532 16.5117C6.02823 14.6495 5.58671 12.0348 6.59324 9.68785C7.63864 7.25014 9.91507 5.70228 12.5342 5.64806C12.7097 5.64443 12.7255 5.49262 12.7241 5.42731C12.7203 5.24123 12.5933 5.24285 12.551 5.24486L12.5506 5.24506Z" fill="#5DA9A2"/>
<path d="M32.1602 35.1952H5.27175C3.98828 35.1952 1.7825 35.6381 1.61893 33.8409C1.52723 32.8331 1.61893 31.7747 1.61893 30.7641V14.4578C1.61893 10.6873 1.42419 6.85963 1.61893 3.0928C1.70153 1.49696 3.03156 1.67658 4.15266 1.67658H41.5284C42.718 1.67658 43.9174 1.63183 45.1064 1.67658C46.7979 1.74049 46.5506 3.43148 46.5506 4.63723V21.3377C46.5506 22.116 47.7652 22.1173 47.7652 21.3377V4.08767C47.7652 3.52401 47.8237 2.89987 47.6777 2.34951C47.1976 0.538569 45.5975 0.467204 44.0917 0.467204H12.4525C9.27114 0.467204 6.05155 0.323466 2.87244 0.467204C0.811605 0.560342 0.404297 2.31363 0.404297 3.96752V33.2137C0.404297 34.8721 1.09543 36.3492 2.99795 36.4048C7.35607 36.5322 11.7369 36.4048 16.0966 36.4048H32.1602C32.9418 36.4048 32.943 35.1952 32.1602 35.1952Z" fill="#333333"/>
<path d="M7.37102 36.8646C5.9086 36.8646 4.44091 36.8505 2.98659 36.8079C1.11645 36.7533 0 35.4096 0 33.2139V3.96745C0 1.46342 0.960372 0.150224 2.8546 0.0645457C4.9877 -0.0318174 7.16555 0.000841194 9.27193 0.0322902C10.3167 0.0480148 11.3969 0.0641425 12.4531 0.0641425H44.0923C45.4458 0.0641425 47.4913 0.0641424 48.0698 2.24663C48.1984 2.73086 48.1873 3.23263 48.1763 3.71767C48.1735 3.84287 48.1707 3.96665 48.1707 4.08781V21.338C48.1707 21.9009 47.7356 22.3252 47.1589 22.3252C46.5821 22.3252 46.1463 21.9009 46.1463 21.338V4.63756C46.1463 4.50128 46.1493 4.35915 46.1525 4.2136C46.1833 2.79154 46.089 2.1176 45.0918 2.07991C44.3089 2.05027 43.5038 2.06035 42.7254 2.07003C42.326 2.07507 41.927 2.08011 41.5292 2.08011H4.15325C4.04879 2.08011 3.94271 2.07849 3.83602 2.07708C2.58799 2.05551 2.07399 2.14764 2.02399 3.11369C1.89463 5.61288 1.93876 8.18465 1.98127 10.6717C2.00253 11.9146 2.02439 13.1996 2.02439 14.4579V30.7643C2.02439 31.1054 2.01407 31.4555 2.00395 31.7938C1.98411 32.4629 1.96346 33.1552 2.02257 33.8045C2.11792 34.8538 3.14733 34.8853 4.59214 34.8149C4.83324 34.803 5.06099 34.7922 5.27213 34.7922H32.1603C32.7255 34.7922 33.1519 35.2252 33.1519 35.7997C33.1519 36.3743 32.7255 36.8081 32.1603 36.8081H16.0966C14.6461 36.8081 13.1675 36.8224 11.7376 36.8365C10.3001 36.8505 8.8379 36.8648 7.37062 36.8648L7.37102 36.8646ZM6.06913 0.806824C5.00633 0.806824 3.9417 0.822548 2.89144 0.870125C1.99787 0.910444 0.809758 1.27554 0.809758 3.96745V33.2137C0.809758 34.2309 1.0956 35.9459 3.01027 36.0017C5.9086 36.0862 8.86806 36.0576 11.7301 36.03C13.162 36.016 14.6424 36.0015 16.097 36.0015H32.1607C32.3109 36.0015 32.3425 35.8917 32.3425 35.7995C32.3425 35.7074 32.3109 35.5983 32.1607 35.5983H5.27233C5.08103 35.5983 4.8628 35.609 4.63181 35.6201C3.34045 35.6824 1.38914 35.778 1.21626 33.8771C1.15269 33.1794 1.17395 32.4627 1.19459 31.7698C1.20451 31.4374 1.21464 31.0933 1.21464 30.7641V14.4577C1.21464 13.2062 1.19277 11.9247 1.17152 10.6853C1.1288 8.18465 1.08447 5.59897 1.21504 3.07196C1.30999 1.2336 2.83739 1.25538 3.84756 1.27029C3.9504 1.27171 4.05263 1.27332 4.15304 1.27332H41.5288C41.9234 1.27332 42.3189 1.26848 42.7149 1.26344C43.5036 1.25316 44.319 1.24308 45.1221 1.27352C47.0244 1.34529 46.9868 3.08184 46.9619 4.23074C46.9589 4.37004 46.9558 4.50652 46.9558 4.63716V21.3378C46.9558 21.4874 47.0662 21.5186 47.1587 21.5186C47.2512 21.5186 47.3607 21.4874 47.3607 21.3378V4.08781C47.3607 3.961 47.3635 3.83117 47.3666 3.69973C47.3761 3.27053 47.386 2.82682 47.2866 2.45246C46.8979 0.986849 45.6643 0.870327 44.0919 0.870327H12.4531C11.3909 0.870327 10.3074 0.853997 9.25978 0.838474C8.20892 0.82275 7.13984 0.806824 6.06913 0.806824Z" fill="#333333"/>
</svg>
