<svg width="53" height="40" viewBox="0 0 53 40" fill="none" xmlns="http://www.w3.org/2000/svg">
<g clip-path="url(#clip0_2455_830)">
<path d="M47.9317 38.4135H6.61795C6.13203 38.4135 5.64426 38.4264 5.15855 38.4135C3.14804 38.3602 1.61099 36.9206 1.53968 34.8949C1.35802 29.7333 1.53968 24.5332 1.53968 19.3689V6.00773C1.53968 5.21506 1.50024 4.44621 1.82003 3.69243C2.80679 1.36655 5.09193 1.54451 7.14923 1.54451H45.0346C46.4764 1.54451 48.4203 1.27085 49.7117 2.02422C51.8865 3.29315 51.4584 5.97332 51.4584 8.09742V17.7483C51.4584 23.4155 51.521 29.0866 51.4584 34.7536C51.4362 36.7698 49.9829 38.3445 47.9319 38.4133C47.145 38.4398 47.1415 39.6615 47.9319 39.635C50.4253 39.5513 52.5051 37.7086 52.6751 35.1818C52.7108 34.6483 52.6847 34.1061 52.6847 33.5722V5.59541C52.6847 2.70735 50.8442 0.35764 47.7922 0.322822C46.1059 0.303683 44.4185 0.322822 42.7323 0.322822H21.0419C15.7996 0.322822 10.5552 0.283118 5.31282 0.322822C2.35806 0.34522 0.325485 2.49885 0.313634 5.40585C0.30403 7.78895 0.313634 10.172 0.313634 12.5551V33.1892C0.313634 33.753 0.297899 34.3195 0.313634 34.8831C0.374936 37.0923 1.8517 39.0635 4.069 39.5298C5.46547 39.8234 7.06096 39.6354 8.47193 39.6354H47.9317C48.7207 39.6354 48.7219 38.4137 47.9317 38.4137V38.4135Z" fill="#010101"/>
<path d="M5.98577 40C5.31267 40 4.64346 39.9626 4.00571 39.8286C1.71853 39.3476 0.0742014 37.3174 0.00697341 34.8913C-0.00344796 34.51 2.58288e-05 34.1239 0.00329528 33.7505C0.00513434 33.5632 0.00676907 33.3761 0.00676907 33.1891V12.5553C0.00676907 11.7612 0.00574736 10.9667 0.00452132 10.1726C0.00247792 8.58318 0.000230169 6.99417 0.00676907 5.40476C0.0196425 2.30636 2.25002 0.0407484 5.31022 0.01774C8.80669 -0.00893346 12.3616 2.55607e-05 15.7996 0.00898458C17.5472 0.0132605 19.2945 0.01774 21.0416 0.01774H42.7317C43.2932 0.01774 43.8552 0.0155002 44.4169 0.0134641C45.524 0.00939181 46.6689 0.00511591 47.7951 0.01774C50.854 0.0523544 52.9906 2.34627 52.9906 5.59575V33.5725C52.9906 33.7297 52.9931 33.8879 52.9951 34.0461C53.0006 34.4243 53.0066 34.8152 52.9806 35.2025C52.8063 37.7902 50.6769 39.8141 48.0129 39.9379C47.9782 39.9406 47.9418 39.9416 47.9054 39.9414C47.8952 39.9414 47.8848 39.9414 47.875 39.941H8.47178C8.08701 39.941 7.69386 39.9548 7.27782 39.9699C6.85034 39.985 6.41734 40.0002 5.98577 40.0002V40ZM10.5665 0.610868C8.81548 0.610868 7.05795 0.615144 5.31492 0.628583C2.56205 0.649148 0.631234 2.61443 0.619995 5.407C0.613456 6.99519 0.615704 8.58358 0.617747 10.1716C0.618769 10.9661 0.619995 11.7606 0.619995 12.5551V33.1891C0.619995 33.3779 0.61836 33.5668 0.616521 33.756C0.613047 34.1239 0.609574 34.5043 0.619995 34.8744C0.679458 37.0169 2.12374 38.8083 4.1322 39.2308C5.10568 39.4352 6.1989 39.3963 7.25616 39.3591C7.65932 39.3448 8.07638 39.3297 8.47198 39.3297H47.076C47.0513 39.2487 47.0374 39.1642 47.0345 39.0795C47.0302 38.9587 47.0488 38.8356 47.0893 38.7189H6.6178C6.45678 38.7189 6.29555 38.7203 6.13433 38.7217C5.81229 38.725 5.47942 38.7278 5.15022 38.7187C2.95622 38.6604 1.30883 37.0568 1.23322 34.9054C1.11184 31.456 1.15292 27.9375 1.19276 24.5349C1.21258 22.8398 1.23302 21.0869 1.23302 19.3686L1.2322 5.77371C1.22873 5.05414 1.22505 4.30993 1.53769 3.57325C2.53875 1.21336 4.7726 1.22619 6.73999 1.23719C6.87711 1.238 7.01361 1.23881 7.14908 1.23881H45.0344C45.3215 1.23881 45.6289 1.22762 45.954 1.21601C47.2699 1.16938 48.7604 1.11502 49.8665 1.76068C51.896 2.94449 51.8349 5.20237 51.7811 7.19453C51.7728 7.5026 51.7646 7.80517 51.7646 8.09735V17.7483C51.7646 19.6368 51.7715 21.5259 51.7785 23.4148C51.792 27.1324 51.8063 30.9767 51.7646 34.757C51.7433 36.6976 50.514 38.2143 48.7436 38.6161C48.801 38.7435 48.8303 38.8838 48.8303 39.0237C48.8303 39.0884 48.8241 39.1534 48.8117 39.2169C50.7641 38.7818 52.2342 37.1631 52.3688 35.1611C52.3931 34.7989 52.3876 34.4204 52.3823 34.0545C52.3799 33.8932 52.3776 33.7322 52.3776 33.5719V5.59555C52.3776 2.70158 50.4903 0.659125 47.7881 0.628379C46.6661 0.615551 45.5238 0.619827 44.4194 0.624103C43.8568 0.626343 43.2941 0.628379 42.7317 0.628379H21.0416C19.2939 0.628379 17.5459 0.624103 15.798 0.619624C14.0762 0.615348 12.3246 0.610664 10.5663 0.610664L10.5665 0.610868ZM47.8893 39.3299H47.9263C47.9402 39.3295 47.9543 39.3289 47.9681 39.3283C48.2048 39.3065 48.2172 39.0728 48.2172 39.0241C48.2172 38.9734 48.2038 38.7224 47.9369 38.7191C47.6443 38.7323 47.6457 39.0255 47.6469 39.0591C47.6498 39.1394 47.679 39.3202 47.8893 39.3299ZM6.30413 1.84701C4.5182 1.84701 2.88164 1.97447 2.10228 3.81148C1.83868 4.43271 1.84195 5.08285 1.84522 5.77106L1.84604 6.00766V19.3688C1.84604 21.0908 1.8256 22.8453 1.80578 24.5423C1.76614 27.9377 1.72507 31.449 1.84583 34.884C1.91081 36.732 3.27622 38.058 5.16657 38.1082C5.48493 38.1166 5.81229 38.1138 6.12881 38.1111C6.29187 38.1095 6.45494 38.108 6.6178 38.108H47.9263C49.7749 38.0437 51.1309 36.6325 51.1516 34.7505C51.1932 30.9746 51.1792 27.1328 51.1655 23.4175C51.1585 21.5275 51.1516 19.6378 51.1516 17.7485V8.09756C51.1516 7.80008 51.1599 7.49201 51.1683 7.17824C51.22 5.2663 51.2734 3.28941 49.5567 2.28804C48.6043 1.73238 47.208 1.78267 45.976 1.82665C45.6452 1.83866 45.3328 1.84986 45.0344 1.84986H7.14908C7.01238 1.84986 6.87465 1.84905 6.73652 1.84823C6.59164 1.84742 6.44738 1.8466 6.30413 1.8466V1.84701Z" fill="#231F20"/>
<path d="M0.926163 10.9004H52.0703C52.8593 10.9004 52.8605 9.67871 52.0703 9.67871H0.926163C0.137205 9.67871 0.135979 10.9004 0.926163 10.9004Z" fill="#010101"/>
<path d="M52.0702 11.2056H0.926033C0.336102 11.2056 0.0273438 10.7448 0.0273438 10.2897C0.0273438 9.83464 0.336102 9.37305 0.926033 9.37305H52.0702C52.6604 9.37305 52.9687 9.83383 52.9687 10.2889C52.9687 10.744 52.6601 11.2056 52.0702 11.2056ZM0.926033 9.98389C0.654056 9.98389 0.640365 10.2386 0.640365 10.2897C0.640365 10.3408 0.654056 10.5947 0.926033 10.5947H52.0702C52.342 10.5947 52.3557 10.34 52.3557 10.2889C52.3557 10.2378 52.342 9.98389 52.0702 9.98389H0.926033Z" fill="#231F20"/>
<path d="M12.1851 5.61157C12.1847 5.62032 12.1841 5.62928 12.1836 5.63804C12.191 5.58388 12.1984 5.52971 12.2055 5.47555C12.2012 5.50223 12.1951 5.52422 12.1853 5.54946C12.2059 5.5008 12.2266 5.45214 12.247 5.40347C12.24 5.41874 12.2317 5.4332 12.2217 5.44664C12.2535 5.40551 12.2856 5.36418 12.3175 5.32305C12.3009 5.34341 12.285 5.35908 12.2648 5.37558C12.306 5.34381 12.3475 5.31185 12.3888 5.28008C12.3753 5.29006 12.3608 5.29841 12.3455 5.30533C12.3943 5.28477 12.4432 5.2642 12.492 5.24384C12.4667 5.25382 12.4448 5.25972 12.4178 5.264C12.4722 5.25667 12.5265 5.24954 12.5807 5.24221C12.5629 5.24404 12.5453 5.24404 12.5276 5.24221C12.5819 5.24954 12.6363 5.25667 12.6906 5.264C12.6638 5.25972 12.6418 5.25361 12.6164 5.24384L12.763 5.30533C12.7476 5.29841 12.7331 5.29006 12.7196 5.28008C12.7609 5.31185 12.8024 5.34381 12.8437 5.37558C12.8232 5.35908 12.8075 5.34341 12.7909 5.32305C12.8228 5.36418 12.8549 5.40551 12.8868 5.44664C12.8768 5.4332 12.8684 5.41874 12.8614 5.40347C12.8821 5.45214 12.9027 5.5008 12.9232 5.54946C12.9131 5.52422 12.9072 5.50223 12.9029 5.47555C12.9103 5.52971 12.9174 5.58388 12.9248 5.63804C12.923 5.62032 12.923 5.60281 12.9248 5.5851C12.9174 5.63926 12.9103 5.69342 12.9029 5.74738C12.9072 5.7207 12.9133 5.69871 12.9232 5.67347C12.9025 5.72213 12.8819 5.77079 12.8614 5.81946C12.8684 5.80419 12.8768 5.78973 12.8868 5.77629C12.8549 5.81742 12.8228 5.85875 12.7909 5.89988C12.8075 5.87952 12.8234 5.86384 12.8437 5.84735C12.8024 5.87912 12.7609 5.91108 12.7196 5.94285C12.7331 5.93287 12.7476 5.92452 12.763 5.9176L12.6164 5.97909C12.6418 5.96911 12.6636 5.96321 12.6906 5.95893C12.6363 5.96626 12.5819 5.97359 12.5276 5.98072C12.5453 5.97889 12.5629 5.97889 12.5807 5.98072C12.5263 5.97339 12.472 5.96626 12.4178 5.95893C12.4446 5.96321 12.4667 5.96932 12.492 5.97909C12.4432 5.95853 12.3943 5.93796 12.3455 5.9176C12.3608 5.92452 12.3751 5.93287 12.3888 5.94285C12.3475 5.91108 12.306 5.87912 12.2648 5.84735C12.2852 5.86384 12.3009 5.87952 12.3175 5.89988C12.2856 5.85875 12.2535 5.81742 12.2217 5.77629C12.2317 5.78973 12.24 5.80419 12.247 5.81946C12.2264 5.77079 12.2057 5.72213 12.1853 5.67347C12.1953 5.69871 12.2012 5.7205 12.2055 5.74738C12.1982 5.69322 12.1908 5.63905 12.1836 5.5851C12.1841 5.59385 12.1847 5.60281 12.1851 5.61157C12.2022 5.93002 12.4546 6.23768 12.7981 6.22241C13.1154 6.20816 13.4295 5.95323 13.4111 5.61157C13.3989 5.38413 13.3245 5.17196 13.16 5.00805C13.0016 4.85025 12.7787 4.75781 12.5543 4.75781C12.0807 4.75781 11.7094 5.14896 11.6975 5.61157C11.6857 6.07275 12.0899 6.45453 12.541 6.46471C12.7617 6.4696 12.9947 6.3798 13.1512 6.22404C13.3212 6.05483 13.3984 5.84756 13.4111 5.61177C13.4285 5.2921 13.1169 4.98667 12.7981 5.00093C12.4511 5.0164 12.2037 5.26949 12.1851 5.61177V5.61157Z" fill="#5DA9A2"/>
<path d="M12.558 6.77017C12.55 6.77017 12.5422 6.77017 12.5343 6.77017C12.2261 6.76325 11.9245 6.62846 11.7065 6.40061C11.4954 6.1801 11.3834 5.89708 11.391 5.60407C11.4073 4.96921 11.929 4.45264 12.5543 4.45264C12.8602 4.45264 13.16 4.57643 13.3766 4.79247C13.5276 4.94274 13.6314 5.13291 13.6825 5.35058C13.7084 5.43589 13.7207 5.52405 13.7178 5.61161C13.7213 5.70975 13.707 5.80667 13.6763 5.8987C13.6228 6.10721 13.5194 6.28863 13.3678 6.43991C13.1591 6.6478 12.8579 6.77017 12.558 6.77017ZM12.5373 5.66679L12.5543 5.66903L12.5956 5.65253L12.6121 5.61161L12.5841 5.56152L12.5543 5.55399L12.513 5.57048L12.4963 5.61161L12.5245 5.66149L12.5373 5.66679Z" fill="#5DA9A2"/>
<path d="M8.96047 5.61157C8.96006 5.62032 8.95945 5.62928 8.95904 5.63804C8.96639 5.58388 8.97375 5.52971 8.9809 5.47555C8.97661 5.50223 8.97048 5.52422 8.96067 5.54946C8.98131 5.5008 9.00195 5.45214 9.02238 5.40347C9.01543 5.41874 9.00706 5.4332 8.99704 5.44664C9.02892 5.40551 9.061 5.36418 9.09288 5.32305C9.07633 5.34341 9.06039 5.35908 9.04016 5.37558C9.08144 5.34381 9.12292 5.31185 9.16419 5.28008C9.15071 5.29006 9.1362 5.29841 9.12087 5.30533C9.16971 5.28477 9.21855 5.2642 9.26739 5.24384C9.24205 5.25382 9.22018 5.25972 9.19321 5.264C9.24757 5.25667 9.30192 5.24954 9.35607 5.24221C9.33829 5.24404 9.32072 5.24404 9.30294 5.24221C9.3573 5.24954 9.41165 5.25667 9.46601 5.264C9.43924 5.25972 9.41717 5.25361 9.39183 5.24384L9.53834 5.30533C9.52302 5.29841 9.50851 5.29006 9.49502 5.28008C9.5363 5.31185 9.57778 5.34381 9.61906 5.37558C9.59862 5.35908 9.58289 5.34341 9.56634 5.32305C9.59821 5.36418 9.6303 5.40551 9.66217 5.44664C9.65216 5.4332 9.64378 5.41874 9.63683 5.40347C9.65747 5.45214 9.67811 5.5008 9.69854 5.54946C9.68853 5.52422 9.68261 5.50223 9.67832 5.47555C9.68567 5.52971 9.69282 5.58388 9.70018 5.63804C9.69834 5.62032 9.69834 5.60281 9.70018 5.5851C9.69282 5.63926 9.68567 5.69342 9.67832 5.74738C9.68261 5.7207 9.68874 5.69871 9.69854 5.67347C9.67791 5.72213 9.65727 5.77079 9.63683 5.81946C9.64378 5.80419 9.65216 5.78973 9.66217 5.77629C9.6303 5.81742 9.59821 5.85875 9.56634 5.89988C9.58289 5.87952 9.59883 5.86384 9.61906 5.84735C9.57778 5.87912 9.5363 5.91108 9.49502 5.94285C9.50851 5.93287 9.52302 5.92452 9.53834 5.9176L9.39183 5.97909C9.41717 5.96911 9.43903 5.96321 9.46601 5.95893C9.41165 5.96626 9.3573 5.97359 9.30294 5.98072C9.32072 5.97889 9.33829 5.97889 9.35607 5.98072C9.30172 5.97339 9.24736 5.96626 9.19321 5.95893C9.21998 5.96321 9.24205 5.96932 9.26739 5.97909C9.21855 5.95853 9.16971 5.93796 9.12087 5.9176C9.1362 5.92452 9.1505 5.93287 9.16419 5.94285C9.12292 5.91108 9.08144 5.87912 9.04016 5.84735C9.06059 5.86384 9.07633 5.87952 9.09288 5.89988C9.061 5.85875 9.02892 5.81742 8.99704 5.77629C9.00706 5.78973 9.01543 5.80419 9.02238 5.81946C9.00174 5.77079 8.98111 5.72213 8.96067 5.67347C8.97048 5.69871 8.97661 5.7205 8.9809 5.74738C8.97354 5.69322 8.96619 5.63905 8.95904 5.5851C8.95945 5.59385 8.96006 5.60281 8.96047 5.61157C8.97763 5.93002 9.22999 6.23768 9.57349 6.22241C9.89083 6.20816 10.2049 5.95323 10.1865 5.61157C10.1742 5.38413 10.0999 5.17196 9.93538 5.00805C9.77701 4.85025 9.55408 4.75781 9.32971 4.75781C8.85605 4.75781 8.48476 5.14896 8.47291 5.61157C8.46106 6.07275 8.86545 6.45453 9.31643 6.46471C9.53712 6.4696 9.77006 6.3798 9.92659 6.22404C10.0966 6.05483 10.1738 5.84756 10.1865 5.61177C10.2039 5.2921 9.89226 4.98667 9.57349 5.00093C9.22652 5.0164 8.97906 5.26949 8.96047 5.61177V5.61157Z" fill="#5DA9A2"/>
<path d="M9.33336 6.77017C9.32539 6.77017 9.31763 6.77017 9.30966 6.77017C9.00151 6.76325 8.69991 6.62846 8.48188 6.40061C8.27079 6.1801 8.15881 5.89708 8.16637 5.60407C8.18272 4.96921 8.7044 4.45264 9.32969 4.45264C9.63558 4.45264 9.93535 4.57643 10.152 4.79247C10.303 4.94274 10.4068 5.13291 10.4578 5.35058C10.4838 5.43589 10.4961 5.52405 10.4932 5.61161C10.4967 5.70975 10.4824 5.80667 10.4517 5.8987C10.3982 6.10721 10.2948 6.28863 10.1432 6.43991C9.93453 6.6478 9.63334 6.77017 9.33336 6.77017ZM9.31293 5.66679L9.32969 5.66903L9.37096 5.65253L9.38751 5.61161L9.35952 5.56172L9.32969 5.55399L9.28841 5.57048L9.27165 5.61161L9.29965 5.66129L9.31293 5.66679Z" fill="#5DA9A2"/>
<path d="M5.73586 5.61157C5.73545 5.62032 5.73484 5.62928 5.73443 5.63804C5.74178 5.58388 5.74914 5.52971 5.75629 5.47555C5.752 5.50223 5.74587 5.52422 5.73606 5.54946C5.7567 5.5008 5.77734 5.45214 5.79777 5.40347C5.79083 5.41874 5.78245 5.4332 5.77243 5.44664C5.80431 5.40551 5.83639 5.36418 5.86827 5.32305C5.85172 5.34341 5.83578 5.35908 5.81555 5.37558C5.85683 5.34381 5.89831 5.31185 5.93958 5.28008C5.9261 5.29006 5.91159 5.29841 5.89626 5.30533C5.9451 5.28477 5.99394 5.2642 6.04278 5.24384C6.01744 5.25382 5.99557 5.25972 5.9686 5.264C6.02296 5.25667 6.07731 5.24954 6.13146 5.24221C6.11368 5.24404 6.09611 5.24404 6.07833 5.24221C6.13269 5.24954 6.18704 5.25667 6.2414 5.264C6.21463 5.25972 6.19256 5.25361 6.16722 5.24384L6.31373 5.30533C6.29841 5.29841 6.2839 5.29006 6.27041 5.28008C6.31169 5.31185 6.35317 5.34381 6.39445 5.37558C6.37401 5.35908 6.35828 5.34341 6.34173 5.32305C6.3736 5.36418 6.40569 5.40551 6.43756 5.44664C6.42755 5.4332 6.41917 5.41874 6.41222 5.40347C6.43286 5.45214 6.4535 5.5008 6.47394 5.54946C6.46392 5.52422 6.458 5.50223 6.45371 5.47555C6.46106 5.52971 6.46821 5.58388 6.47557 5.63804C6.47373 5.62032 6.47373 5.60281 6.47557 5.5851C6.46821 5.63926 6.46106 5.69342 6.45371 5.74738C6.458 5.7207 6.46413 5.69871 6.47394 5.67347C6.4533 5.72213 6.43266 5.77079 6.41222 5.81946C6.41917 5.80419 6.42755 5.78973 6.43756 5.77629C6.40569 5.81742 6.3736 5.85875 6.34173 5.89988C6.35828 5.87952 6.37422 5.86384 6.39445 5.84735C6.35317 5.87912 6.31169 5.91108 6.27041 5.94285C6.2839 5.93287 6.29841 5.92452 6.31373 5.9176L6.16722 5.97909C6.19256 5.96911 6.21442 5.96321 6.2414 5.95893C6.18704 5.96626 6.13269 5.97359 6.07833 5.98072C6.09611 5.97889 6.11368 5.97889 6.13146 5.98072C6.07711 5.97339 6.02275 5.96626 5.9686 5.95893C5.99537 5.96321 6.01744 5.96932 6.04278 5.97909C5.99394 5.95853 5.9451 5.93796 5.89626 5.9176C5.91159 5.92452 5.9261 5.93287 5.93958 5.94285C5.89831 5.91108 5.85683 5.87912 5.81555 5.84735C5.83598 5.86384 5.85172 5.87952 5.86827 5.89988C5.83639 5.85875 5.80431 5.81742 5.77243 5.77629C5.78245 5.78973 5.79083 5.80419 5.79777 5.81946C5.77713 5.77079 5.7565 5.72213 5.73606 5.67347C5.74607 5.69871 5.752 5.7205 5.75629 5.74738C5.74894 5.69322 5.74158 5.63905 5.73443 5.5851C5.73484 5.59385 5.73545 5.60281 5.73586 5.61157C5.75302 5.93002 6.00538 6.23768 6.34888 6.22241C6.66622 6.20816 6.98029 5.95323 6.9619 5.61157C6.94964 5.38413 6.87526 5.17196 6.71077 5.00805C6.5524 4.85025 6.32947 4.75781 6.1051 4.75781C5.63144 4.75781 5.26015 5.14896 5.2483 5.61157C5.23645 6.07275 5.64084 6.45453 6.09182 6.46471C6.31251 6.4696 6.54545 6.3798 6.70198 6.22404C6.87199 6.05483 6.94923 5.84756 6.9619 5.61177C6.97927 5.2921 6.66765 4.98667 6.34888 5.00093C6.00191 5.0164 5.75445 5.26949 5.73586 5.61177V5.61157Z" fill="#5DA9A2"/>
<path d="M6.10875 6.77017C6.10079 6.77017 6.09302 6.77017 6.08505 6.77017C5.77691 6.76325 5.4753 6.62846 5.25727 6.40061C5.04618 6.1801 4.9342 5.89708 4.94177 5.60407C4.95811 4.96921 5.47979 4.45264 6.10508 4.45264C6.41097 4.45264 6.71074 4.57643 6.92734 4.79247C7.07835 4.94274 7.18216 5.13291 7.23324 5.35058C7.25919 5.43589 7.27145 5.52405 7.26859 5.61161C7.27207 5.70975 7.25776 5.80667 7.22711 5.8987C7.17357 6.10721 7.07018 6.28863 6.91856 6.43991C6.70992 6.6478 6.40873 6.77017 6.10875 6.77017ZM6.08832 5.66679L6.10508 5.66903L6.14635 5.65253L6.1629 5.61161L6.13491 5.56172L6.10508 5.55399L6.0638 5.57048L6.04704 5.61161L6.07504 5.66129L6.08832 5.66679Z" fill="#5DA9A2"/>
<path d="M18.418 20.4415C17.3137 23.0467 16.2095 25.6518 15.1054 28.257C15.4789 28.3057 15.8525 28.3543 16.2258 28.403C15.4959 26.1968 14.7662 23.9907 14.0363 21.7845C13.8446 21.2052 13.0459 21.2044 12.854 21.7845C12.1241 23.9907 11.3944 26.1968 10.6645 28.403C11.038 28.3543 11.4115 28.3057 11.7849 28.257C10.6806 25.6518 9.57636 23.0467 8.47231 20.4415C8.16641 19.7197 7.10997 20.3417 7.41362 21.058C8.51788 23.6633 9.62213 26.2683 10.7262 28.8736C10.9477 29.3962 11.6997 29.1723 11.8466 28.7276C12.5765 26.5214 13.3062 24.3153 14.0361 22.1091H12.8538C13.5837 24.3153 14.3134 26.5214 15.0433 28.7276C15.1892 29.1686 15.9424 29.3956 16.1637 28.8736C17.2679 26.2683 18.3722 23.6631 19.4762 21.058C19.7797 20.3423 18.7239 19.7189 18.4176 20.4415H18.418Z" fill="#5DA9A2"/>
<path d="M11.1853 29.4817C10.8498 29.4817 10.5744 29.3009 10.4436 28.9927L10.342 28.753L10.2202 28.7689L10.2764 28.5987L7.1306 21.1771C6.89214 20.6141 7.22133 20.0795 7.67721 19.8876C8.12308 19.6997 8.56609 19.8789 8.75409 20.3228L11.1467 25.968L12.477 21.947L12.4298 21.8041H12.5244L12.5624 21.689C12.6919 21.2975 13.0381 21.0446 13.4443 21.0446C13.8505 21.0446 14.1973 21.2975 14.3269 21.689L14.3649 21.8041H14.4595L14.4123 21.947L15.7425 25.968L18.1352 20.3228C18.3231 19.8787 18.7657 19.6995 19.2116 19.8874C19.6677 20.0795 19.9971 20.6141 19.7584 21.1771L16.6126 28.5987L16.669 28.7689L16.5472 28.753L16.4457 28.9927C16.3104 29.3119 16.0168 29.4901 15.6667 29.4799C15.2568 29.4632 14.872 29.1871 14.7517 28.8235L13.4445 24.8719L12.1374 28.8235C12.0168 29.1879 11.6324 29.4644 11.2235 29.4809C11.2107 29.4815 11.1982 29.4817 11.1853 29.4817ZM10.9728 28.6707L11.0084 28.7546C11.0323 28.811 11.0803 28.8793 11.1988 28.8705C11.3515 28.8644 11.5145 28.755 11.5554 28.6319L11.5683 28.5932L10.9728 28.6707ZM15.3216 28.5934L15.3345 28.6321C15.3749 28.7546 15.5388 28.8632 15.6921 28.8693C15.8134 28.8738 15.8563 28.8141 15.8813 28.7548L15.9168 28.6707L15.3214 28.5932L15.3216 28.5934ZM11.218 27.7048L11.1081 28.0371L11.3459 28.0064L11.2182 27.705L11.218 27.7048ZM15.5439 28.0064L15.7818 28.0371L15.6718 27.7048L15.5441 28.0062L15.5439 28.0064ZM8.02541 20.4248C7.99496 20.4248 7.95879 20.4323 7.91609 20.4502C7.76549 20.5138 7.59731 20.7074 7.6956 20.9393L10.5684 27.7168L10.8553 26.8492L8.1897 20.5602C8.1709 20.5156 8.13228 20.4248 8.02541 20.4248ZM16.0343 26.8494L16.3212 27.7168L19.1938 20.9393C19.2921 20.7074 19.124 20.5136 18.9732 20.4502C18.7809 20.3696 18.7241 20.5034 18.7 20.5606L16.0343 26.8496V26.8494ZM13.7676 23.896L15.0183 27.6765L15.3802 26.823L14.09 22.9223L13.7676 23.896ZM11.5096 26.823L11.8715 27.6765L13.1223 23.896L12.8 22.9223L11.5096 26.823ZM13.2776 22.4147L13.4449 22.9205L13.6123 22.4147H13.2776ZM13.1793 21.8039H13.7106C13.6288 21.667 13.4903 21.6552 13.4447 21.6552C13.3992 21.6552 13.2608 21.6672 13.1793 21.8039Z" fill="#5DA9A2"/>
<path d="M31.4727 20.441C30.3684 23.0462 29.2641 25.6513 28.1601 28.2565C28.5336 28.3052 28.9072 28.3539 29.2805 28.4025L27.091 21.784C26.8993 21.2048 26.1005 21.2039 25.9087 21.784C25.1788 23.9902 24.4491 26.1964 23.7192 28.4025C24.0927 28.3539 24.4662 28.3052 24.8396 28.2565C23.7353 25.6513 22.631 23.0462 21.527 20.441C21.2211 19.7192 20.1647 20.3412 20.4683 21.0575C21.5726 23.6628 22.6766 26.2678 23.7809 28.8731C24.0024 29.3958 24.7543 29.1718 24.9013 28.7271C25.6312 26.5209 26.3609 24.3148 27.0908 22.1086H25.9085C26.6384 24.3148 27.3681 26.5209 28.098 28.7271C28.2439 29.1681 28.9971 29.3951 29.2184 28.8731C30.3226 26.2678 31.4269 23.6626 32.5309 21.0575C32.8344 20.3418 31.7786 19.7184 31.4722 20.441H31.4727Z" fill="#5DA9A2"/>
<path d="M24.2398 29.4813C23.9043 29.4813 23.6289 29.3005 23.4981 28.992L23.3965 28.7526L23.2747 28.7685L23.3311 28.5982L20.1853 21.1767C19.9468 20.6137 20.2758 20.079 20.7319 19.8872C21.1774 19.6991 21.6206 19.8783 21.8088 20.3223L24.2014 25.9675L25.5317 21.9466L25.4845 21.8036H25.5791L25.6171 21.6886C25.7466 21.297 26.093 21.0442 26.4992 21.0442C26.9057 21.0442 27.252 21.297 27.3816 21.6886L27.4196 21.8036H27.5142L27.467 21.9466L28.7972 25.9675L31.1899 20.3223C31.3779 19.8785 31.8201 19.6989 32.2663 19.887C32.7224 20.0788 33.0518 20.6137 32.8134 21.1765L29.6675 28.5982L29.7237 28.7685L29.6019 28.7526L29.5004 28.9922C29.3649 29.3115 29.0719 29.4897 28.7214 29.4795C28.3115 29.4628 27.9268 29.1867 27.8064 28.823L26.4992 24.8715L25.1921 28.823C25.0715 29.1875 24.6873 29.464 24.2783 29.4805C24.2654 29.4811 24.2525 29.4813 24.2398 29.4813ZM24.0271 28.6703L24.0627 28.7542C24.0866 28.8106 24.1272 28.8745 24.2531 28.8701C24.4058 28.864 24.5688 28.7546 24.6095 28.6314L24.6224 28.5927L24.0271 28.6703ZM28.3757 28.5929L28.3886 28.6316C28.429 28.7542 28.5927 28.8627 28.7462 28.8688C28.8659 28.8735 28.9104 28.8137 28.9356 28.7544L28.9711 28.6705L28.3757 28.5929ZM28.5982 28.0059L28.8361 28.0367L28.7261 27.7044L28.5984 28.0057L28.5982 28.0059ZM24.2721 27.7044L24.1622 28.0367L24.4 28.0059L24.2723 27.7046L24.2721 27.7044ZM29.0886 26.849L29.3755 27.7166L32.2484 20.9389C32.3466 20.707 32.1785 20.5131 32.0277 20.4498C31.8358 20.3692 31.7786 20.5029 31.7545 20.5602L29.0888 26.8492L29.0886 26.849ZM21.0797 20.4244C21.0493 20.4244 21.0131 20.4319 20.9704 20.4498C20.8198 20.5133 20.6518 20.707 20.7501 20.9387L23.6227 27.7162L23.9096 26.8488L21.244 20.5598C21.2252 20.5152 21.1866 20.4244 21.0797 20.4244ZM24.5639 26.8225L24.9258 27.6761L26.1766 23.8956L25.8543 22.9219L24.5639 26.8225ZM26.8219 23.8956L28.0727 27.6761L28.4345 26.8225L27.1443 22.9219L26.8219 23.8956ZM26.3317 22.4143L26.499 22.9201L26.6664 22.4143H26.3317ZM26.2334 21.8034H26.7647C26.6831 21.6666 26.5446 21.6548 26.499 21.6548C26.4535 21.6548 26.3151 21.6668 26.2334 21.8034Z" fill="#5DA9A2"/>
<path d="M44.5273 20.441C43.4231 23.0462 42.3188 25.6513 41.2148 28.2565C41.5883 28.3052 41.9616 28.3539 42.3352 28.4025L40.1457 21.784C39.954 21.2048 39.1552 21.2039 38.9634 21.784C38.2335 23.9902 37.5038 26.1964 36.7738 28.4025C37.1474 28.3539 37.5209 28.3052 37.8942 28.2565C36.79 25.6513 35.6857 23.0462 34.5817 20.441C34.2758 19.7192 33.2193 20.3412 33.523 21.0575C34.6273 23.6628 35.7315 26.2678 36.8356 28.8731C37.0571 29.3958 37.8088 29.1718 37.956 28.7271C38.6859 26.5209 39.4156 24.3148 40.1455 22.1086H38.9632C39.6931 24.3148 40.4228 26.5209 41.1527 28.7271C41.2986 29.1681 42.0518 29.3951 42.2731 28.8731C43.3773 26.2678 44.4816 23.6626 45.5856 21.0575C45.8891 20.3418 44.8332 19.7184 44.5269 20.441H44.5273Z" fill="#5DA9A2"/>
<path d="M37.2947 29.4813C36.959 29.4813 36.6838 29.3005 36.553 28.992L36.4514 28.7526L36.3296 28.7685L36.3858 28.5982L33.24 21.1767C33.0015 20.6137 33.3305 20.079 33.7866 19.8872C34.2331 19.6997 34.6755 19.8785 34.8635 20.3223L37.2563 25.9675L38.5864 21.9466L38.5392 21.8036H38.6338L38.672 21.6886C38.8015 21.297 39.1477 21.0442 39.5539 21.0442C39.9601 21.0442 40.3069 21.297 40.4363 21.6886L40.4745 21.8036H40.5691L40.5219 21.9466L41.8519 25.9675L44.2448 20.3223C44.4325 19.8785 44.8754 19.6989 45.3212 19.887C45.7773 20.0788 46.1067 20.6137 45.8682 21.1765L42.7224 28.5984L42.7786 28.7685L42.6568 28.7528L42.5555 28.9922C42.4204 29.3113 42.1366 29.4925 41.7765 29.4795C41.3666 29.4628 40.9819 29.1867 40.8615 28.823L39.5543 24.8713L38.2472 28.823C38.1266 29.1875 37.7422 29.464 37.3331 29.4805C37.3205 29.4811 37.3074 29.4813 37.2947 29.4813ZM37.0822 28.6703L37.1178 28.7542C37.1417 28.8106 37.1795 28.8731 37.3082 28.8701C37.4607 28.864 37.6239 28.7546 37.6646 28.6314L37.6775 28.5927L37.0822 28.6703ZM41.4306 28.5929L41.4435 28.6316C41.4839 28.7542 41.6476 28.8627 41.8011 28.8688C41.9226 28.8764 41.9653 28.8137 41.9905 28.7544L42.026 28.6705L41.4306 28.5929ZM41.6531 28.0059L41.8908 28.0367L41.7808 27.7044L41.6531 28.0059ZM37.3272 27.7044L37.2173 28.0367L37.4549 28.0059L37.3272 27.7046V27.7044ZM42.1433 26.849L42.4302 27.7166L45.303 20.9389C45.4013 20.707 45.2332 20.5131 45.0823 20.4498C44.8913 20.3696 44.8335 20.5029 44.8091 20.5602L42.1433 26.8492V26.849ZM34.1346 20.4244C34.1042 20.4244 34.068 20.4319 34.0253 20.4498C33.8747 20.5133 33.7065 20.707 33.805 20.9387L36.6778 27.7162L36.9647 26.8488L34.2989 20.5598C34.2801 20.5152 34.2415 20.4244 34.1346 20.4244ZM37.6188 26.8225L37.9807 27.6761L39.2315 23.8956L38.9094 22.9219L37.6188 26.8225ZM39.8768 23.8956L41.1275 27.6761L41.4894 26.8225L40.199 22.9219L39.8768 23.8956ZM39.3868 22.4143L39.5539 22.9198L39.7211 22.4143H39.3868ZM39.2885 21.8034H39.8198C39.7382 21.6666 39.5997 21.6548 39.5539 21.6548C39.5081 21.6548 39.37 21.6668 39.2885 21.8034Z" fill="#5DA9A2"/>
</g>
<defs>
<clipPath id="clip0_2455_830">
<rect width="53" height="40" fill="white"/>
</clipPath>
</defs>
</svg>
